<?xml version="1.0" encoding="UTF-8"?>
<!DOCTYPE svg PUBLIC "-//W3C//DTD SVG 1.1//EN" "http://www.w3.org/Graphics/SVG/1.1/DTD/svg11.dtd">
<!-- Creator: CorelDRAW -->
<svg xmlns="http://www.w3.org/2000/svg" xml:space="preserve" width="6.59481in" height="6.56878in" style="shape-rendering:geometricPrecision; text-rendering:geometricPrecision; image-rendering:optimizeQuality; fill-rule:evenodd; clip-rule:evenodd"
viewBox="0 0 6.56293 6.53704"
 xmlns:xlink="http://www.w3.org/1999/xlink">
 <defs>
  <style type="text/css">
   <![CDATA[
    .fil0 {fill:black}
   ]]>
  </style>
 </defs>
 <g id="Layer_x0020_1">
  <metadata id="CorelCorpID_0Corel-Layer"/>
  <g id="_503451064">
   <path id="_503448256" class="fil0" d="M2.0978 1.69676c-0.00574376,-0.00749901 -0.00823168,-0.0205302 -0.00916807,-0.0302546 -0.001003,-0.0104101 -0.000767924,-0.0204675 -0.000677811,-0.0309599 0.000203735,-0.0237234 -0.003487,-0.0382708 -0.00342431,-0.0621313 0.000113621,-0.042851 8.22776e-005,-0.0857019 8.22776e-005,-0.128553l0.00324017 -0.253137c-0.000109703,-0.0263994 0.0209925,-0.19126 0.0297688,-0.229139 0.00842758,-0.0363589 0.00733054,-0.0746571 0.0146768,-0.115361 0.00332245,-0.0183871 0.00947368,-0.0311989 0.0130273,-0.0515724 0.00286796,-0.0164594 0.00273475,-0.0348308 0.00949718,-0.0532884 0.0178973,-0.048865 0.0246245,-0.110789 0.0375734,-0.160555 0.00514431,-0.0197584 0.0134308,-0.0197035 0.0184067,-0.0441282 0.00447042,-0.021925 0.0053167,-0.0293692 0.0141478,-0.0524657 0.0064059,-0.0167494 0.00664489,-0.0365979 0.0121653,-0.04968 0.00964215,-0.022834 0.0114052,-0.0160833 0.0187279,-0.0475878 0.0045096,-0.0194058 0.011178,-0.0261878 0.0161734,-0.0455113 0.0131056,-0.0507143 0.0356379,-0.0971542 0.0470158,-0.148562 0.00532845,-0.0240603 0.0137247,-0.02102 0.0170824,-0.0459266 0.0146572,-0.108712 -0.0792647,-0.158713 -0.129289,-0.146007l-0.0746101 0.0405237c-0.00667624,0.00719341 -0.0179953,0.0249105 -0.0231905,0.0355361l-0.0289617 0.0877941c-0.00275434,0.0144025 -0.023359,0.0744142 -0.0303017,0.0866344l-0.0285582 0.0887618c-0.00598276,0.0231043 -0.00304819,0.0218232 -0.0149432,0.0427177 -0.01519,0.0266775 -0.0277863,0.115702 -0.0376792,0.137596 -0.00733054,0.0162204 -0.0112838,0.0206438 -0.015143,0.0418401 -0.0158874,0.0871907 -0.0526929,0.203923 -0.0611949,0.285969 -0.00364764,0.035207 -0.00707195,0.0692072 -0.0149549,0.102487l-0.0249889 0.20875c-0.00523834,0.115259 -0.0147669,0.451806 0.00474076,0.560706 0.00668016,0.0372835 0.00912498,0.0642235 0.0124004,0.104602 0.00315789,0.0388742 0.0121183,0.0649444 0.0169766,0.100191 0.0043137,0.0312772 0.00460363,0.0758717 0.0118205,0.103819l0.0215371 0.0954929c0.015574,0.0425453 0.018583,0.0964685 0.0341413,0.140256 0.013568,0.0381925 0.0610421,0.0704414 0.100817,0.0717892 0.0211649,0.00071699 0.0372091,0.0017435 0.052309,-0.00697792 0.0558626,-0.0322567 0.041127,-0.00384354 0.0855804,0.00524618 0.0904818,0.0185007 0.1475,-0.0479953 0.147508,-0.139171 3.91798e-006,-0.0718087 -0.00819641,-0.301034 0.00207261,-0.343728l0.14102 -0.0304545c0.0295141,-0.010555 0.0344821,-0.0123808 0.0699908,-0.0159227 0.0298119,-0.00297375 0.0425414,-0.0119067 0.0690701,-0.0170785 0.0510356,-0.00994775 0.0343685,-0.0107353 0.0655282,-0.0199895 0.0364451,-0.0108215 0.104943,-0.0173371 0.136001,-0.0350816 0.0373344,-0.0213295 0.0944703,-0.0222385 0.130528,-0.0406412 0.0220778,-0.011272 0.03764,-0.0143006 0.0608737,-0.0246441 0.0123651,-0.00550476 0.0187084,-0.00631187 0.0324918,-0.00953636 0.0319825,-0.00748726 0.0610304,-0.0281977 0.0904779,-0.0387488 0.0098067,-0.00351443 0.0241269,-0.00535588 0.0333068,-0.0087606 0.0300548,-0.0111506 0.0583309,-0.0297727 0.0891732,-0.0398576 0.0137168,-0.00448609 0.0494018,-0.0206595 0.0586012,-0.027277 0.0139323,-0.0100183 0.00973618,-0.00871359 0.0284289,-0.014281 0.015476,-0.00460754 0.0171059,-0.00807104 0.0295808,-0.0136071 0.0108371,-0.00480736 0.018246,-0.00439989 0.0302429,-0.0126237 0.0139676,-0.00956771 0.00646075,-0.00909755 0.0260898,-0.0164751 0.0144142,-0.00541857 0.0466396,-0.0194018 0.0586247,-0.0272378l0.0545148 -0.0313909c0.0283466,-0.0133486 0.0544834,-0.0340237 0.0825636,-0.0458639 0.0183557,-0.00774193 0.037926,-0.0209377 0.0532689,-0.0322685 0.0224304,-0.0165652 0.0517134,-0.0275316 0.0798484,-0.0490179 0.0188651,-0.0144064 0.0356889,-0.0170393 0.0534726,-0.0314849l0.100375 -0.0713503c0.0468512,-0.026893 0.131111,-0.0938787 0.17178,-0.128337 0.00963823,-0.00816899 0.0163301,-0.00963431 0.0258156,-0.01691 0.017866,-0.013709 0.0288912,-0.0248909 0.0466827,-0.0389408 0.0169453,-0.0133799 0.0324526,-0.0410957 0.0585816,-0.0311401 0.00647642,0.00246833 0.0971267,0.0849614 0.114299,0.0988937 0.00686822,0.00557529 0.0177406,0.0130861 0.0245579,0.0181677 0.00990857,0.00738539 0.0153467,0.00822384 0.0258117,0.0171568l0.146544 0.110859c0.00957946,0.00632362 0.0166553,0.00635496 0.0277746,0.0147316 0.0172352,0.0129764 0.0286796,0.0239702 0.0476387,0.0344195l0.132906 0.080918c0.0183557,0.0130547 0.0371856,0.0194332 0.054601,0.0308776 0.0329855,0.0216743 0.0533433,0.0289421 0.0802481,0.0442732l0.0828692 0.0460911c0.0100731,0.0054264 0.019488,0.00657437 0.030239,0.0124944 0.0124435,0.00685647 0.0118245,0.0103278 0.026082,0.0168003 0.0110174,0.00499934 0.0150411,0.0057751 0.0267285,0.0123847 0.0137325,0.00776544 0.0181089,0.00707587 0.0306151,0.0121026 0.016765,0.00673893 0.0434974,0.0261133 0.0878254,0.0406138 0.0183126,0.00599451 0.0124396,0.00709546 0.0281389,0.0151743 0.0278725,0.0143437 0.110487,0.0422711 0.151689,0.0618649 0.0175251,0.00833746 0.0744769,0.0240211 0.0958142,0.0320334 0.0149471,0.00561447 0.0157464,0.0101672 0.0286522,0.0146689 0.0100261,0.00349876 0.0246402,0.00533237 0.0338944,0.00805929l0.0640316 0.0182695c0.0183792,0.005207 0.0153781,0.00774193 0.0295612,0.0140342 0.0333851,0.01481 0.108175,0.0208201 0.135621,0.0352971 0.0292438,0.0154251 0.0318689,0.00972051 0.0638944,0.0174899 0.0250829,0.00608854 0.0439362,0.0129293 0.0699555,0.0161617 0.0334791,0.00415698 0.0390113,0.0108489 0.0685764,0.0175643 0.0208476,0.00474076 0.128173,0.0234413 0.138716,0.0288716 0.00563797,0.408665 0.00214314,0.817522 0.00214314,1.22621 0,0.112908 0.00623742,0.535302 -0.00299334,0.612267 -0.00292281,0.0243698 -0.00976752,0.0415384 -0.0137482,0.0655792 -0.00674284,0.0406921 -0.0128471,0.0896787 -0.029949,0.125853 -0.0167141,0.035348 -0.0138226,0.0355988 -0.0214431,0.0523952 -0.0059044,0.0130155 -0.00782812,0.0105511 -0.0131527,0.0262622 -0.00763223,0.0225245 -0.0544286,0.0964528 -0.0721261,0.119036 -0.0102965,0.0131331 -0.00673109,0.00786339 -0.0154055,0.0232101 -0.0199425,0.0352814 -0.120215,0.126128 -0.15411,0.153847l-0.0448844 0.0288834c-0.0136189,0.00894867 -0.00999477,0.0101789 -0.0207183,0.0181833 -0.0153311,0.0114444 -0.032433,0.0175369 -0.0477249,0.0302977 -0.0209612,0.0174938 -0.274004,0.199374 -0.289993,0.20819 -0.0118127,0.00651168 -0.0121497,0.00875277 -0.0227791,0.0163497l-0.110605 0.0803108c-0.00936789,0.00615515 -0.0155309,0.0061238 -0.0237155,0.0113974 -0.012804,0.00824343 -0.02589,0.024742 -0.0423299,0.0355713 -0.0317004,0.0208868 -0.0583348,0.0446101 -0.0909285,0.0648034 -0.0528536,0.0327465 -0.103074,0.0757424 -0.155246,0.109374l-0.131844 0.0980475c-0.00759696,0.00572025 -0.0145553,0.00782029 -0.0238527,0.0150842l-0.0684119 0.0484262c-0.00759305,0.00467023 -0.0156758,0.00752252 -0.0215293,0.0135445l-0.0674598 0.0495664 -0.0499464 0.0242288c-0.0160363,0.00492882 -0.0816037,0.0226342 -0.0911675,0.0226342l-0.475173 0 -0.0567637 -0.0145514c-0.0327974,-0.00881154 -0.0477954,-0.013231 -0.0769178,-0.0283818 -0.0132114,-0.00687214 -0.00983805,-0.00820425 -0.0202991,-0.0146454 -0.00773018,-0.00476035 -0.0132428,-0.00568891 -0.0223873,-0.0125532 -0.00674284,-0.00506203 -0.0125062,-0.00917199 -0.0201737,-0.0150529 -0.00847851,-0.00650385 -0.00992816,-0.0104532 -0.0186888,-0.0162204 -0.0100222,-0.00659396 -0.0114052,-0.00515214 -0.0220739,-0.012898l-0.0828026 -0.0574964c-0.0187475,-0.00964607 -0.0349053,-0.0309364 -0.0582917,-0.0431291 -0.0190806,-0.00995167 -0.0809886,-0.0578921 -0.10184,-0.073231 -0.0134857,-0.00992033 -0.0258195,-0.0175369 -0.0408018,-0.0293888 -0.00961472,-0.0076048 -0.00776544,-0.00776544 -0.0199268,-0.0150881 -0.00879978,-0.00529711 -0.0131213,-0.00784771 -0.0210317,-0.0137247 -0.00659004,-0.00489356 -0.0130743,-0.00878019 -0.0204832,-0.0147081l-0.0622645 -0.0428666c-0.00953636,-0.00624526 -0.0254747,-0.0209769 -0.0364686,-0.0298002 -0.0109978,-0.00882721 -0.010269,-0.00653911 -0.0220504,-0.0129842 -0.014524,-0.00794175 -0.0260624,-0.0217801 -0.038165,-0.0319668 -0.00960297,-0.00808279 -0.0112681,-0.0065156 -0.0220582,-0.0133446 -0.0429607,-0.0271908 -0.0802363,-0.0577785 -0.12315,-0.0870379l-0.202744 -0.143257c-0.0276492,-0.0183087 -0.178727,-0.135253 -0.202861,-0.144174 -0.0126433,-0.00467415 -0.0126668,-0.00350267 -0.0247812,-0.010175 -0.0477798,-0.0263171 -0.129681,0.015049 -0.144045,0.0574454 -0.00645683,0.0190571 -0.0129293,0.0430625 -0.0103317,0.0625819 0.00847851,0.0637064 0.0338984,0.0738461 0.0816115,0.108238 0.0198602,0.0143163 0.0500953,0.042847 0.070508,0.0541817 0.0170628,0.00947759 0.022595,0.0132976 0.0377497,0.0245892 0.00754603,0.0056223 0.00927778,0.00906229 0.016624,0.0146023 0.0165417,0.0124709 0.038643,0.0218545 0.0564189,0.0368643 0.0299295,0.0252749 0.0615789,0.0433133 0.0916298,0.0681729 0.0177093,0.0146454 0.0397283,0.0230808 0.0567441,0.036876l0.0545383 0.0388899c0.0103317,0.0062531 0.00852944,0.00735405 0.0166475,0.0144456 0.0243933,0.021306 0.0582447,0.0268382 0.0582447,0.0665234l0 0.79048c-0.00260154,0.0556392 -0.0106647,0.0625075 -0.0182852,0.106867 -0.00607287,0.035348 -0.0153311,0.0850241 -0.0365117,0.114957 -0.0197936,0.0279665 -0.0242758,0.0716599 -0.0807848,0.129599 -0.0216468,0.0221993 -0.0352579,0.0457934 -0.0603408,0.0644586l-0.0513138 0.0423573c-0.00635105,0.00367507 -0.00993992,0.00454094 -0.0174311,0.00932088 -0.0142301,0.00907796 -0.0246676,0.0137364 -0.0383923,0.0239232 -0.0145396,0.010794 -0.0252827,0.00991641 -0.0403944,0.0176309 -0.0163027,0.00832179 -0.070747,0.0327191 -0.0859291,0.03487 -0.0353363,0.00500718 -0.0674715,0.015954 -0.104747,0.0200366 -0.0413229,0.00452135 -0.0611597,0.0193979 -0.0977771,0.0229359 -0.0393091,0.00379652 -0.0629188,0.0132075 -0.102596,0.01863 -0.0758443,0.0103591 -0.0711779,0.0170706 -0.0994462,0.0213922l-0.101017 0.0199425c-0.05455,0.00646075 -0.0522345,0.00654695 -0.100857,0.0198837 -0.0183283,0.00502677 -0.0330011,0.00224892 -0.0517017,0.0100222 -0.034153,0.0141909 -0.0801384,0.0560937 -0.0801384,0.0980749 0,0.0320295 0.0100104,0.0753193 0.0331069,0.0983648 0.0104375,0.0104179 0.0510983,0.0327269 0.07108,0.0327269 0.0550202,0 0.059761,-0.0076048 0.111298,-0.0174037 0.0253219,-0.00356144 0.0529672,-0.00468199 0.0770549,-0.0111937l0.141318 -0.0327582c0.040892,-0.00529711 0.112971,-0.0167337 0.150321,-0.0249732 0.0155622,-0.00343607 0.0219133,-0.00921117 0.0341844,-0.0133642 0.0228144,-0.00772234 0.0783087,-0.0109468 0.110056,-0.0186848 0.0235,-0.00572417 0.0522659,-0.00468982 0.0733172,-0.0158326 0.0129215,-0.00684079 0.0120791,-0.00811806 0.0304662,-0.0124004 0.0125062,-0.00291106 0.0210827,-0.0035732 0.033679,-0.00916024 0.0158404,-0.00702494 0.0193392,-0.008216 0.0342236,-0.012659 0.0332872,-0.009936 0.0554551,-0.0303643 0.0861211,-0.0425728 0.02245,-0.00894083 0.0873083,-0.0560506 0.10459,-0.0706764 0.00598667,-0.00506595 0.00690348,-0.00672325 0.0126943,-0.0107235 0.0283583,-0.0196095 0.0557019,-0.0452017 0.0803068,-0.0715972 0.00826302,-0.00886639 0.0116403,-0.0156798 0.0214705,-0.02522 0.0165613,-0.0160716 0.0249771,-0.0329306 0.038886,-0.0508789l0.0284563 -0.0376949c0.00405903,-0.00670758 0.00403552,-0.0093483 0.00754211,-0.0157503l0.0312694 -0.0546323c0.00809455,-0.0111153 0.00803578,-0.0164242 0.0145357,-0.0280998 0.00869792,-0.0156132 0.00888206,-0.016765 0.0137012,-0.0334596 0.00465848,-0.0161382 0.00570066,-0.0166083 0.0128118,-0.0298668 0.00918375,-0.0171177 0.0155701,-0.0431252 0.0222776,-0.0628679 0.00834922,-0.0245736 0.00792999,-0.0523677 0.0128862,-0.0772861 0.00569283,-0.0286091 0.00954028,-0.038647 0.0128431,-0.0713778 0.00961081,-0.0951364 -0.00852161,-0.662511 0.00777719,-0.693972 0.026846,0.0154839 0.0576061,0.0321666 0.0803147,0.0532571l0.0437756 0.0301097c0.0176701,0.00972835 0.0983883,0.0747551 0.117054,0.0855765l0.160704 0.111655c0.0217526,0.0166593 0.0433015,0.0279979 0.067499,0.0373501 0.0106843,0.00412955 0.0100418,0.00500326 0.0203382,0.011319 0.0141792,0.008694 0.0344782,0.0153859 0.0486221,0.0214039 0.0145044,0.00617082 0.035399,0.00800835 0.0543894,0.0108489 0.0203186,0.00304035 0.0359436,0.0116717 0.0565169,0.0144691 0.0697244,0.00946976 0.495734,0.0087606 0.563186,-0.00134387l0.109939 -0.0263053c0.03,-0.0137678 0.0652657,-0.0267441 0.0928914,-0.0434426 0.0098067,-0.00592399 0.0118793,-0.0060141 0.0227478,-0.0120321 0.0414091,-0.0229202 0.130183,-0.0980984 0.178405,-0.125497 0.00727177,-0.00412955 0.0318453,-0.0244678 0.0394227,-0.030858 0.0135014,-0.0113896 0.0322724,-0.0196722 0.0506908,-0.0349131 0.0060572,-0.0050111 0.00278177,-0.00277393 0.00789865,-0.00763223l0.041652 -0.0284641c0.0106804,-0.00614731 0.00983805,-0.00242523 0.0196683,-0.0115894 0.0120047,-0.0111976 0.0650502,-0.0515019 0.078387,-0.052881l0.0050777 0.626399c-7.83596e-006,0.0661042 0.00645683,0.0882172 0.0165809,0.143335 0.003726,0.0202951 0.00427452,0.0483949 0.00955204,0.0674755 0.00326368,0.011801 0.00746375,0.0151352 0.0119616,0.0274455 0.0035301,0.0096539 0.00523442,0.0222855 0.00807496,0.0304858 0.00555178,0.0160089 0.00749118,0.011417 0.0136385,0.0259801 0.00377302,0.00895258 0.0051639,0.0201737 0.0088037,0.0294162 0.0108411,0.0275395 0.0299882,0.0505537 0.0406726,0.0763027 0.0105629,0.0254708 0.0243894,0.0368682 0.0384981,0.0589147 0.0332872,0.0520112 0.0324017,0.0424082 0.0615632,0.0786182 0.0280684,0.0348544 0.0655204,0.0661512 0.0989839,0.0954224 0.0154917,0.0135523 0.029091,0.0244835 0.0476387,0.0341844 0.0139989,0.00731879 0.0308541,0.0215489 0.0461381,0.0317474 0.0122829,0.00819641 0.0145788,0.00544599 0.027085,0.0119263 0.0122123,0.00633537 0.00879195,0.00804753 0.02446,0.0146572 0.0383296,0.0161617 0.0733681,0.0355635 0.115193,0.0446062 0.0285347,0.0061669 0.0288167,0.0162753 0.0578098,0.0204675l0.133674 0.0221679c0.0289891,0.00396891 0.0358495,0.0132467 0.0597179,0.0184341 0.059424,0.0129176 0.143598,0.0177014 0.195919,0.0366096l0.131487 0.027465c0.0216664,0.0029189 0.0465143,0.00334987 0.0675812,0.00999477 0.0274298,0.00864698 0.0321431,0.0120478 0.0656849,0.0121692 0.0678359,0.000250751 0.121273,-0.0500209 0.122731,-0.111831 0.000979495,-0.0414248 -0.0207614,-0.085459 -0.0546597,-0.102823 -0.0264189,-0.0135327 -0.0212119,-0.0169962 -0.0564463,-0.0210827 -0.0254355,-0.00294632 -0.0390701,-0.0119812 -0.0622371,-0.016432 -0.0222776,-0.00427843 -0.0447551,-0.00476035 -0.0683374,-0.00868616 -0.030619,-0.00510121 -0.0987174,-0.0198485 -0.12699,-0.0299295 -0.0321745,-0.0114679 -0.166111,-0.0240603 -0.200906,-0.0359475 -0.0232454,-0.00793783 -0.0375734,-0.0129959 -0.0626289,-0.0156719 -0.0230377,-0.00246049 -0.0422789,-0.00870967 -0.0653362,-0.0133995 -0.0185908,-0.00378085 -0.0453232,-0.00401985 -0.0632362,-0.0138266 -0.014524,-0.00794958 -0.00976361,-0.0084119 -0.0298237,-0.0132114 -0.0264033,-0.00631578 -0.0597179,-0.02207 -0.0799386,-0.0367977 -0.0159383,-0.0116129 -0.03277,-0.0214823 -0.0485516,-0.0291498 -0.0275983,-0.0134152 -0.0638161,-0.0530612 -0.0848752,-0.074567 -0.0403474,-0.0411936 -0.0403082,-0.0490335 -0.0687018,-0.0872965 -0.0134896,-0.0181794 -0.0470785,-0.0795037 -0.0538174,-0.102165 -0.00626093,-0.0210474 -0.0152958,-0.0337338 -0.0190453,-0.0574219 -0.0072561,-0.0458639 -0.0223834,-0.0871594 -0.0223834,-0.135903l0 -0.79048 0.0620451 -0.0679143c0.0200287,-0.0190649 0.0471803,-0.0345566 0.0690936,-0.0516547 0.000650385,-0.000509337 0.00157111,-0.00119107 0.00225284,-0.00166514l0.110248 -0.0767728c0.0143594,-0.0100849 0.0223952,-0.0184145 0.0342157,-0.0279548 0.0100144,-0.00807888 0.011323,-0.00593966 0.0225597,-0.012565l0.163231 -0.116995c0.102581,-0.081396 0.0963392,-0.0664372 0.202716,-0.175216 0.0364607,-0.0372874 0.0591928,-0.0769648 0.0813725,-0.105253 0.0440224,-0.0561368 0.0741125,-0.135668 0.0918139,-0.161303 0.0189983,-0.0275121 0.0246167,-0.0597061 0.0334948,-0.0906464 0.00604153,-0.0210552 0.0128118,-0.0199229 0.0179561,-0.0447002 0.00481912,-0.023218 0.00919942,-0.0279626 0.0152096,-0.0474311 0.0088899,-0.0287815 0.0080397,-0.0754838 0.0160167,-0.107396 0.0328483,-0.131382 -0.000568107,-1.01425 0.0165848,-1.05527 0.00342431,-0.00818466 0.00740106,-0.0101593 0.01175,-0.0196095 0.00395716,-0.00859605 0.00486221,-0.0158012 0.00679378,-0.0241896 0.00522267,-0.0227047 0.0110409,-0.0275943 0.0171725,-0.0452723 0.00936397,-0.0269988 0.0116364,-0.02551 0.018963,-0.0436071 0.011178,-0.0276178 0.0191668,-0.0673344 0.0271829,-0.0972639 0.00549301,-0.020495 0.0135288,-0.0170236 0.0196683,-0.0426825 0.00483479,-0.0202129 0.00722867,-0.0299921 0.0133642,-0.0489943 0.00591223,-0.0183126 0.00537547,-0.0373344 0.0112211,-0.0548517 0.00644116,-0.0192882 0.0123965,-0.0194293 0.0173802,-0.0453193 0.00658612,-0.0342314 0.0174233,-0.0654028 0.0218192,-0.103106 0.00320099,-0.0274611 0.00453702,-0.0270968 0.0135249,-0.0489434 0.00640982,-0.0155779 0.00671934,-0.0343137 0.0095873,-0.0523521 0.00308737,-0.0194293 0.00752252,-0.0321118 0.0119107,-0.0515371 0.0079966,-0.035399 0.00727961,-0.0785477 0.0130077,-0.114162 0.00295024,-0.0183518 0.00897609,-0.0309795 0.0115345,-0.0492568 0.00560271,-0.0400261 0.00557137,-0.0782852 0.0110957,-0.114926 0.01108,-0.0735052 0.016479,-0.155454 0.0161656,-0.230444 -0.000380044,-0.0907835 0.00143398,-0.286694 -0.00832963,-0.367742 -0.00394149,-0.0327386 -0.0131252,-0.0762165 -0.0148139,-0.111247l-0.0294828 -0.222102c-0.00689565,-0.0292399 -0.0127217,-0.0736424 -0.0235902,-0.100696 -0.0127334,-0.0316925 -0.00970876,-0.0698106 -0.021161,-0.1026 -0.00773409,-0.0221483 -0.00745592,-0.0315162 -0.0128314,-0.0534883 -0.00438422,-0.0179091 -0.0130351,-0.0255962 -0.0172469,-0.0454564l-0.0246363 -0.0999594c-0.00566932,-0.0243973 -0.0133133,-0.0225166 -0.0187867,-0.043615l-0.0266188 -0.0979221c-0.0030717,-0.00898393 -0.0319002,-0.0746375 -0.0356615,-0.0933263 -0.00428627,-0.0212981 -0.00256236,-0.0253415 -0.0148296,-0.0474938 -0.0171294,-0.0309364 -0.00867441,-0.0509377 -0.0404571,-0.0839192 -0.0990074,-0.102745 -0.252635,0.0158051 -0.191523,0.133133 0.00776544,0.0149118 0.00831004,0.0337416 0.0130547,0.0496565 0.00494449,0.016577 0.0114366,0.0266227 0.016769,0.0459736 0.00602194,0.0218741 0.0127217,0.0268342 0.0176858,0.0433329 0.00572809,0.0190531 0.00415306,0.0287384 0.0130351,0.0496878 0.00883896,0.0208476 0.00783204,0.028421 0.0139989,0.047576 0.00720908,0.0223913 0.0131017,0.0145866 0.0191785,0.0471372l0.0265286 0.0982277c0.0173488,0.0387488 0.0320021,0.105507 0.0380475,0.148805 0.00354577,0.0253768 0.00815332,0.0268186 0.0148335,0.0480854 0.00669583,0.0213099 0.0242797,0.132894 0.0271398,0.159466 0.00250359,0.0232336 0.00283662,0.0330638 0.00805929,0.0536019 0.0132193,0.0519603 0.0123064,0.113904 0.0214509,0.165323 0.00335771,0.0188925 0.00713856,0.0389251 0.00791432,0.0561603 0.00404336,0.0900038 0.0123612,0.428353 -0.00688781,0.508186l-0.0215763 0.00135562c-0.0866383,-0.0931852 -0.0426746,-0.0438187 -0.125987,-0.0679456 -0.0330913,-0.00958338 -0.0429254,-0.0116717 -0.0823873,-0.0161695 -0.02484,-0.00282878 -0.0515097,-0.0105746 -0.076334,-0.0157424 -0.0163889,-0.00340864 -0.029424,-0.00386705 -0.0446611,-0.00688389 -0.0151234,-0.00299725 -0.0205772,-0.00787906 -0.0336515,-0.011989 -0.0399987,-0.0125689 -0.123111,-0.0168787 -0.15947,-0.035587 -0.0328209,-0.0168865 -0.122887,-0.0295377 -0.146869,-0.0435053 -0.0198602,-0.0115659 -0.0142614,-0.00863915 -0.0372404,-0.01347 -0.0178777,-0.00376126 -0.0182069,-0.00574376 -0.0343607,-0.0125336 -0.0156993,-0.00659788 -0.0245461,-0.00515606 -0.0409233,-0.00970876 -0.0148844,-0.00413739 -0.0192647,-0.0105315 -0.0312772,-0.015429 -0.035348,-0.0144142 -0.10986,-0.0360964 -0.138665,-0.0522776 -0.0306895,-0.0172469 -0.0776152,-0.0284641 -0.104003,-0.043948 -0.0140812,-0.00826694 -0.0120243,-0.00944625 -0.0314966,-0.015527 -0.0345997,-0.0108019 -0.0914496,-0.0449549 -0.129242,-0.0617787 -0.0176583,-0.00785947 -0.0144887,-0.0116246 -0.0313869,-0.0192334 -0.0208045,-0.00936789 -0.0472548,-0.0187084 -0.066018,-0.0302821 -0.0091093,-0.00561838 -0.0174859,-0.010892 -0.0290557,-0.0180149l-0.18027 -0.108144c-0.0324722,-0.0194214 -0.055557,-0.0413151 -0.0876531,-0.0565874 -0.0199308,-0.00948543 -0.0372404,-0.0305367 -0.0563484,-0.0410095 -0.0221405,-0.012134 -0.0356066,-0.0269988 -0.0564738,-0.0409233 -0.0285229,-0.0190375 -0.0562779,-0.0392072 -0.0828614,-0.0613477 -0.0180619,-0.015045 -0.0344586,-0.0281781 -0.0510356,-0.0423965l-0.0544717 -0.0426981c-0.026035,-0.0198759 -0.0504401,-0.0496251 -0.0770902,-0.0670719 -0.0154094,-0.0100888 -0.0130155,-0.0131448 -0.0258548,-0.0206673 -0.0228418,-0.0133877 -0.0544874,-0.0305132 -0.0838683,-0.0245579 -0.0108724,0.0022019 -0.0622097,0.0239545 -0.0703199,0.0305955l-0.209408 0.175733 -0.0724121 0.0522815c-0.00315789,0.00214314 -0.00881154,0.00690348 -0.0130704,0.0101554 -0.0321666,0.0245814 -0.169837,0.121026 -0.19941,0.135503l-0.0890204 0.055553c-0.0280998,0.0195272 -0.212104,0.119436 -0.251562,0.133333 -0.0202795,0.00714248 -0.0146846,0.00898001 -0.0296787,0.0173958 -0.0206164,0.0115737 -0.0463615,0.0193979 -0.0688154,0.0282447l-0.0651443 0.0325663c-0.0122672,0.00560271 -0.0270184,0.00688781 -0.0384785,0.0118401 -0.0121732,0.00525401 -0.0138383,0.0100379 -0.0310343,0.0158757 -0.0195076,0.00662139 -0.017008,0.00635496 -0.0325467,0.0143594 -0.0148178,0.00763223 -0.0861055,0.0260546 -0.105864,0.0382395 -0.0245657,0.0151547 -0.0423769,0.0113504 -0.0726315,0.0248792 -0.0152292,0.00680945 -0.024554,0.00572417 -0.0400143,0.0105354 -0.0158952,0.00494841 -0.0164712,0.0105198 -0.0310265,0.015766 -0.0114718,0.00413739 -0.025126,0.0043372 -0.0388624,0.00766357 -0.0129254,0.00312655 -0.0252318,0.00883505 -0.0358574,0.011656 -0.0133642,0.00354577 -0.0274729,0.00360454 -0.0414405,0.00847851 -0.0491119,0.0171529 0.00873318,0.00487789 -0.0752605,0.0222149 -0.0135053,0.0027896 -0.0225049,0.00714248 -0.0360768,0.0106177 -0.0307444,0.00786339 -0.0526067,0.00537547 -0.0808554,0.016146 -0.0318806,0.0121536 -0.0463693,0.00926994 -0.0770706,0.0168434 -0.0292281,0.00720517 -0.0458835,0.0115894 -0.0799346,0.0156915 -0.0354146,0.0042706 -0.0511101,0.0126629 -0.0798484,0.0182069 -0.0470549,0.00907404 -0.0350463,-0.00314222 -0.0748569,0.0234374 -0.0387175,0.0258508 -0.0198328,0.0420556 -0.0549262,0.0410761z"/>
   <path id="_503448712" class="fil0" d="M0.364595 5.3692c-0.0425845,0 -0.0763536,-0.0119185 -0.102726,-0.0482852 -0.019202,-0.0264816 -0.0314614,-0.0619276 -0.0188181,-0.0997479 0.0137835,-0.0412289 0.101021,-0.117226 0.13736,-0.154607l0.18087 -0.181551c0.0239937,-0.0219446 0.0435601,-0.0440969 0.0665312,-0.0656889 0.0456327,-0.042894 0.0866383,-0.0902115 0.131006,-0.130104l0.131805 -0.132859c0.0118323,-0.0116795 0.019919,-0.0201502 0.030572,-0.0317474l0.0992581 -0.0992934c0.0603565,-0.057371 0.083022,-0.100966 0.154267,-0.110992 0.0311558,0 0.0633067,0.0131292 0.0787083,0.030717 0.0219877,0.0251103 0.0383531,0.0431017 0.0383531,0.0903917 0,0.0166514 -0.00638631,0.0289186 -0.0121026,0.0429842 -0.012228,0.0300862 -0.143512,0.149957 -0.171012,0.179353 -0.00886247,0.00946976 -0.019774,0.0226655 -0.0282016,0.0300156 -0.0376479,0.0328248 -0.134218,0.134046 -0.175251,0.175255l-0.270917 0.270313c-0.000532845,0.000568107 -0.0013517,0.00137913 -0.0018963,0.00194332 -0.0380397,0.0393248 -0.1007,0.0967075 -0.135037,0.133721 -0.0240642,0.0259331 -0.0893182,0.100183 -0.132769,0.100183zm1.80958 -2.42309c0.006974,-0.0196369 0.0412877,-0.0486378 0.0589734,-0.0615711 0.0177837,-0.0130038 0.0294044,-0.0161225 0.0407509,-0.036974 0.0096304,-0.0176897 0.00399242,-0.00917591 0.0165143,-0.02245 0.0102103,-0.0108175 0.0326407,-0.0394697 0.0410761,-0.0367115 0.0196291,0.00642157 0.113006,0.102443 0.127914,0.117414 0.020734,0.020828 0.0362727,0.0385451 0.0600117,0.060713l0.27371 0.275309c0.0137599,0.0126903 0.021353,0.0118519 0.0245814,0.0331931 -0.0122319,0.0126747 -0.141102,0.145243 -0.147794,0.155301 -0.0559135,-0.0293457 -0.00928561,-0.00735797 -0.0525205,-0.0401201l-0.260048 -0.261874c-0.00966958,-0.0106843 -0.0217565,-0.0186966 -0.0323273,-0.0298668l-0.0446258 -0.0449823c-0.0199464,-0.0178229 -0.0204989,-0.0233159 -0.0296356,-0.0326603l-0.0172783 -0.0138697c-0.00439206,-0.00407078 -0.011703,-0.0112407 -0.0154133,-0.0156484 -0.0303526,-0.0360807 -0.0147904,-0.0138657 -0.0304623,-0.0318806 -0.00769883,-0.00885072 -0.00417265,-0.00679378 -0.0134269,-0.0133211zm0.653464 0.74947c0,0.0108097 -0.00273475,0.0259135 -0.00436855,0.0385255 -0.00407078,0.0314104 -0.025079,0.0588755 -0.0446493,0.0815214 -0.0349405,0.0404375 -0.0443829,0.0382591 -0.0746023,0.0499307 -0.0122045,0.00471333 -0.0144299,0.00984197 -0.0252435,0.0139989 -0.0345331,0.0132741 -0.12199,0.00107353 -0.153036,-0.00708371 -0.0435209,-0.0114327 -0.101828,-0.0106412 -0.1481,-0.0156837 -0.0264033,-0.0028758 -0.0501541,-0.0080632 -0.0773801,-0.00986547 -0.125144,-0.00828653 -0.101938,-0.00755387 -0.219411,-0.0256001 -0.0348739,-0.0053598 -0.0309834,-0.00951286 -0.0513099,-0.0301254 -0.0576335,-0.0584367 -0.128471,-0.13119 -0.187178,-0.18695 -0.00803186,-0.00762831 -0.011562,-0.0123338 -0.0193117,-0.0196448 -0.0160755,-0.0151626 -0.0306229,-0.0239545 -0.0334517,-0.0487044 -0.00275434,-0.0240682 -0.00340081,-0.0508123 -0.00659396,-0.0744024 -0.00355753,-0.0263014 -0.00988898,-0.0425767 -0.0142184,-0.0724121 -0.00296199,-0.0204205 -0.00448609,-0.0554002 -0.00574376,-0.0752605 -0.0032245,-0.050922 -0.00881154,-0.0979926 -0.0150686,-0.149377 -0.00306386,-0.0251691 -0.00321666,-0.0531631 -0.00563797,-0.0794645 -0.00302468,-0.0328797 -0.0285621,-0.104199 -0.0119263,-0.145537l0.0249458 -0.0573514c0.0217409,-0.0311597 -0.00295024,-0.00737364 0.0352814,-0.0466514 0.0241113,-0.0247656 0.0759775,-0.0490139 0.11252,-0.0505537 0.0192138,-0.000811022 0.0512119,-0.00478777 0.0689565,0.00467023 -0.0212786,0.0357672 -0.0225558,0.0412015 -0.0541739,0.0720634 -0.0274063,0.026752 -0.0305994,0.0472469 -0.0291694,0.0981062 0.00152018,0.0541191 0.0613595,0.0992072 0.109112,0.146532 0.0313713,0.0310892 0.102385,0.10005 0.128,0.128905 0.0209377,0.0235862 0.0970797,0.0958769 0.127021,0.126194l0.319225 0.319472c0.0481246,0.0476348 0.121845,0.0563131 0.175917,0.00280919 0.0221483,-0.0219172 0.0482382,-0.0521483 0.0696617,-0.0550476 0.00677811,0.032433 0.00993208,0.0363197 0.00993208,0.0669857zm-1.34015 -0.708704c0,0.0142105 0.00523442,0.0559409 0.00817682,0.068502 0.0055792,0.0238292 0.0111506,0.0429802 0.0117304,0.0677458 0.00107353,0.0456719 0.00577902,0.0980553 0.0119302,0.142003 0.00659396,0.0470941 0.00671542,0.096923 0.0128196,0.143907 0.00343215,0.0264229 0.00908188,0.0414875 0.0131605,0.0647133 0.0044665,0.0254355 0.00322058,0.0430273 0.00604544,0.0684471 0.0140499,0.126414 0.00887031,0.109406 0.0822815,0.189097 0.0406295,0.0441008 0.0363863,0.0425571 -0.0290949,0.105852l-0.0765103 0.0754368c-0.0537821,0.0547146 -0.101491,0.101997 -0.153279,0.15429 -0.00831395,0.00839623 -0.0335418,0.0311597 -0.043231,0.0345879 -0.0110409,0.00390623 -0.118053,-0.0317004 -0.197564,-0.0212903 -0.0920138,0.0120439 -0.0689839,0.0210591 -0.117159,0.0374324 -0.0598158,0.0203343 -0.119655,0.0978868 -0.165778,0.142086 -0.00860388,0.00824343 -0.011848,0.00972443 -0.0200601,0.018916 -0.00767532,0.00858429 -0.0110409,0.0121771 -0.0189826,0.0200522l-0.07662 0.0752605c-0.03143,0.0284524 -0.102773,0.101217 -0.134442,0.134285l-0.0583231 0.0584954c-0.013231,0.0126277 -0.0238566,0.0261368 -0.0386822,0.0392738 -0.00711505,0.00630795 -0.00338905,0.00237821 -0.00985372,0.00946584l-0.0857999 0.085647c-0.00700535,0.0075617 -0.0107784,0.0123181 -0.0187789,0.0202246 -0.0376635,0.0372169 -0.0771176,0.0812511 -0.11513,0.114699 -0.0391563,0.0344508 -0.0775407,0.0773213 -0.114519,0.115051 -0.00785555,0.00800835 -0.0126277,0.011801 -0.0202207,0.0187867 -0.0326329,0.0300313 -0.066829,0.0658887 -0.0902938,0.104489 -0.0205302,0.0337808 -0.020589,0.0471451 -0.0312733,0.0816076 -0.00276218,0.00890557 -0.00770275,0.0179326 -0.0106726,0.029185 -0.00967349,0.0366605 -0.0103631,0.106777 0.00112838,0.14292 0.00711113,0.022356 0.0105276,0.0338788 0.0169492,0.0573161 0.00812981,0.0296905 0.0394501,0.0720869 0.0598667,0.0963549 0.0351756,0.0418166 0.055126,0.0489356 0.0819877,0.0702768 0.0141439,0.0112368 0.0321705,0.0214705 0.0500404,0.0279665 0.0111858,0.00406686 0.0196839,0.00423534 0.0313282,0.00722867 0.0125767,0.00323233 0.0172626,0.00687997 0.0288089,0.0107235 0.029522,0.00982238 0.106757,0.00867441 0.141173,0.00255061 0.0108959,-0.0019394 0.017674,-0.0064725 0.0296434,-0.010555 0.0186026,-0.00635105 0.0407274,-0.00948151 0.0580135,-0.0195821 0.0105354,-0.00615515 0.0179874,-0.00685255 0.0265404,-0.0126864 0.0217918,-0.0148531 0.0459031,-0.031955 0.0644155,-0.0523481l0.0569909 -0.0559762c0.0148217,-0.0128196 0.023359,-0.0245383 0.03898,-0.0390192 0.015049,-0.0139558 0.0243933,-0.024268 0.0388546,-0.0390427 0.0393561,-0.0402102 0.116905,-0.121164 0.153753,-0.153855 0.0609324,-0.0540525 0.172395,-0.179561 0.229531,-0.229907 0.0153115,-0.0134896 0.0235588,-0.0226303 0.0392386,-0.0388193l0.192334 -0.193278c0.0464437,-0.0456876 0.120713,-0.1049 0.142203,-0.165433 0.00896826,-0.0252631 0.0160206,-0.0198093 0.0235902,-0.050491 0.0154604,-0.0626524 0.0225206,-0.135676 0.00561055,-0.198418 -0.0243894,-0.0905053 -0.0122946,-0.0673383 0.0566501,-0.140162 0.012804,-0.0135249 0.0255061,-0.0237782 0.0393209,-0.0386705l0.0558665 -0.056893c0.0452174,-0.044853 0.0907992,-0.0867167 0.135045,-0.133713 0.027657,-0.029377 0.0383022,-0.0320217 0.066159,-0.00287972 0.129344,0.135307 0.12306,0.0620608 0.248749,0.0978241 0.0387998,0.0110409 0.095156,0.0129568 0.137118,0.0156327 0.0236293,0.00150842 0.0446023,0.00553611 0.0681885,0.00855295 0.0468395,0.00600235 0.099838,0.00587697 0.145682,0.0114483 0.0221092,0.00268773 0.0396225,0.00920334 0.0601802,0.012326 0.0497074,0.00755387 0.0931461,0.00747942 0.14294,0.0043803 0.0380122,-0.00236646 0.032531,-0.00424317 0.0622645,-0.014904 0.0426159,-0.0152801 0.070649,-0.0134974 0.109653,-0.0422045 0.0154251,-0.0113543 0.0315828,-0.0169688 0.0488886,-0.0286561 0.0133486,-0.00901527 0.0260859,-0.0256118 0.0404845,-0.0376361 0.0415032,-0.0346741 0.090333,-0.110851 0.104641,-0.163721 0.00861172,-0.0318297 0.0229907,-0.047435 0.0229907,-0.0894671 0,-0.144585 0.00360454,-0.145232 -0.0487867,-0.262168 -0.0218467,-0.0487475 -0.0351404,-0.0258077 0.0515175,-0.113234 0.0254003,-0.0256236 0.0437207,-0.0447864 0.0437207,-0.0840916 0,-0.037546 -0.00465848,-0.0618179 -0.0261368,-0.085886 -0.0421222,-0.0472038 -0.100042,-0.102894 -0.143774,-0.144503 -0.00906229,-0.00861956 -0.0160872,-0.0175878 -0.0246167,-0.0260428 -0.041656,-0.0412838 -0.18145,-0.176082 -0.216543,-0.215783 -0.0240055,-0.0271594 -0.253536,-0.254649 -0.266799,-0.266572 -0.0315358,-0.0283427 -0.0436071,-0.0475408 -0.0924761,-0.0475408 -0.0198015,0 -0.0836724,0.0318963 -0.100516,0.0434857 -0.0147003,0.0136973 -0.0512315,0.0560624 -0.0678124,0.0648308 -0.022019,0.0116403 -0.0278843,-0.00362021 -0.0459657,-0.0113543 -0.00954812,-0.00408254 -0.0156367,-0.00401985 -0.0260389,-0.00879587 -0.00970092,-0.00445083 -0.0109625,-0.00754603 -0.0198211,-0.0115776 -0.0699477,-0.0318258 -0.168951,-0.0343803 -0.24427,-0.0211963 -0.00656653,0.00114797 -0.0673383,0.0222189 -0.0749745,0.0271007 -0.0176936,0.0113112 -0.0200522,0.00679378 -0.0361512,0.0143516 -0.00808279,0.0037926 -0.0215411,0.013756 -0.0312694,0.0194567 -0.0131644,0.00771059 -0.0161499,0.0138657 -0.0286326,0.0222816 -0.0383218,0.0258352 -0.0703277,0.0675342 -0.0984236,0.103501l-0.0372443 0.0635536c-0.0162596,0.0506007 -0.00711113,0.014951 -0.0224422,0.0786417 -0.00987331,0.0410134 -0.0182225,0.0600078 -0.0182225,0.106107z"/>
   <path id="_503448496" class="fil0" d="M4.43982 2.71429c0,-0.0257725 0.0149784,-0.0383061 0.0203461,-0.0649327 0.0023978,-0.0118793 0.00394149,-0.0231278 0.00824343,-0.0338161 0.00963431,-0.0239232 0.0303173,-0.0726041 0.0347133,-0.094772 0.00910147,-0.0458952 0.0369701,-0.103744 0.0428627,-0.128569 0.00568499,-0.0239428 0.0136855,-0.0416716 0.018724,-0.0652853 0.00650777,-0.0305093 0.0159854,-0.0316063 0.0233747,-0.062292 0.0144573,-0.0600078 0.052975,-0.146062 0.063436,-0.193967 0.00573592,-0.0262779 0.0147355,-0.0343999 0.0324722,-0.0532101 0.0284328,-0.0301449 0.0573436,-0.0571202 0.0937377,-0.0778228 0.0282878,-0.0160911 0.0533629,-0.0352775 0.0850907,-0.0434582 0.0198132,-0.00510513 0.0919863,-0.0233081 0.10548,-0.0233081 0.0484693,0 0.0953597,-0.00200209 0.142634,0.00986939 0.0504244,0.0126629 0.125132,0.0161225 0.174801,0.0432545 0.0209965,0.0114679 0.0785908,0.019014 0.119169,0.044426 0.0130861,0.00819641 0.0292046,0.00888598 0.0432937,0.0149079l0.0392778 0.0154956c0.0147551,0.0059279 0.0139833,0.0117892 0.0353402,0.0192882 0.0175408,0.00615906 0.0213021,0.0108136 0.036684,0.0170158 0.0196056,0.00790257 0.0204009,0.00765965 0.0369113,0.0185125 0.0237626,0.0156249 0.0481402,0.0222894 0.0728353,0.0354303 0.0172783,0.00919158 0.0448256,0.019535 0.0663392,0.0140107l0.0692072 -0.0380593c0.0199935,-0.0150842 0.0425218,-0.0624761 0.0349053,-0.092574l-0.0419655 -0.077623c-0.0143398,-0.0170589 -0.0418166,-0.0236293 -0.0587149,-0.0346937 -0.0137991,-0.00903878 -0.0242484,-0.0127413 -0.0392386,-0.0192177 -0.0194802,-0.00841582 -0.039125,-0.0218271 -0.0575316,-0.0320804 -0.0130155,-0.00724826 -0.028233,-0.0107353 -0.0436737,-0.0186888 -0.018583,-0.00957554 -0.0251417,-0.00618649 -0.0412446,-0.0174546 -0.0184576,-0.0129215 -0.0634282,-0.0274259 -0.0870027,-0.0338278 -0.0244012,-0.00662139 -0.0165652,-0.0140381 -0.0420713,-0.02035 -0.0202834,-0.00502285 -0.0238566,-0.00823168 -0.0435248,-0.01519 -0.0166318,-0.00588481 -0.0345566,-0.00619041 -0.0496016,-0.0120008 -0.0170315,-0.00657829 -0.0220151,-0.0120713 -0.0434112,-0.0158521 -0.0365939,-0.00646467 -0.0551848,-0.016718 -0.0988781,-0.0218858 -0.0391876,-0.00463105 -0.0680161,-0.0146101 -0.100814,-0.0177602 -0.0726746,-0.00698184 -0.14808,-0.00435288 -0.216907,0.013329 -0.015288,0.00392582 -0.0356928,0.0047721 -0.0534373,0.00799268 -0.028997,0.00526185 -0.0670641,0.028041 -0.0860545,0.0358652 -0.0744142,0.0306543 -0.0471607,0.0252004 -0.0784771,0.042181 -0.0183988,0.0099791 -0.0388585,0.0212942 -0.0541269,0.0355635 -0.0109351,0.0102142 -0.00761655,0.00599843 -0.0179992,0.0132036 -0.0255844,0.0177485 -0.108046,0.0973971 -0.122233,0.119667 -0.00414131,0.00650385 -0.00640198,0.0133956 -0.0103317,0.0203382 -0.032864,0.058037 -0.0408332,0.137607 -0.0704962,0.19825l-0.0283544 0.0921039c-0.00362413,0.0166201 -0.0102965,0.0296043 -0.0177563,0.0445905 -0.00845108,0.0169805 -0.0223129,0.0719106 -0.0271751,0.0934399 -0.0053167,0.0235431 -0.0121849,0.0232062 -0.0180697,0.0406451 -0.00624918,0.0185164 -0.0058613,0.0266423 -0.0147708,0.047482 -0.00745592,0.017435 -0.00701318,0.029475 -0.0114601,0.0468238 -0.0046624,0.0181912 -0.012851,0.0235196 -0.018536,0.0440303l-0.0154329 0.0432506c-0.00691915,0.01758 -0.00626485,0.034153 -0.0116677,0.0502246 -0.00643332,0.0191276 -0.013615,0.018771 -0.0146023,0.0444495 -0.00149275,0.0388233 0.000168473,0.0816429 0.000168473,0.120932l0 0.603569c0,0.0329267 0.00867833,0.105864 -0.0149745,0.105864l-0.0661825 0c-0.00956771,-0.00207653 -0.0571751,-0.0233825 -0.0681023,-0.0300313 -0.0110017,-0.00668799 -0.00693091,-0.00561055 -0.0207496,-0.0104257 -0.0267363,-0.00931696 -0.0206869,-0.0147629 -0.0397714,-0.0224344 -0.0112642,-0.00452919 -0.0112211,-0.00282878 -0.0223442,-0.00890949 -0.0107862,-0.00590048 -0.00781245,-0.00534804 -0.0213687,-0.00999869 -0.026466,-0.00908188 -0.022548,-0.0157738 -0.0426629,-0.0234178 -0.0120987,-0.00459971 -0.0363589,-0.0107392 -0.0499464,-0.0111427 -0.0406177,-0.00120674 -0.0604505,0.0115502 -0.0878803,0.0355322 -0.0235079,0.0205537 -0.0363706,0.054887 -0.0337495,0.0957907 0.00160245,0.0250124 0.00772234,0.0267559 0.0170863,0.0460715 0.024076,0.0496565 0.0703042,0.0497153 0.109684,0.0770628 0.024985,0.0173567 0.0598863,0.0271007 0.0837978,0.0408998 0.0494919,0.0285621 0.0574885,0.0271046 0.0860467,0.0422554 0.0410173,0.0217565 0.0607757,0.0142771 0.109406,0.0142771 0.051972,0 0.199143,0.00888598 0.236254,-0.0116638l0.10577 -0.0531827c0.0201502,-0.00680945 0.136506,-0.0705354 0.142493,-0.0764555 0.0244482,-0.02417 0.0542679,-0.062339 0.0449236,-0.102741l-0.0357202 -0.0731213c-0.0181559,-0.0231513 -0.0588794,-0.0381768 -0.0886404,-0.0344704 -0.048532,0.00604936 -0.0560036,0.0182656 -0.0752605,0.0285151 -0.0098067,0.00522267 -0.0146101,0.00459971 -0.0249732,0.00793391l-0.00762047 -0.707658z"/>
   <path id="_503448736" class="fil0" d="M3.26886 4.21737c0.0102925,0.0672639 0.0593613,0.0929854 0.115988,0.115236 0.016432,0.00645683 0.0150215,0.0110526 0.028899,0.0178464 0.018963,0.00927778 0.0413895,0.0179248 0.0619629,0.0274729 0.0153859,0.00714248 0.0118088,0.0104728 0.0290322,0.0178386 0.0520817,0.0222816 0.0816468,0.0502912 0.142959,0.0403356 0.0242405,-0.00393757 0.0923625,-0.0527008 0.116317,-0.0674245l0.0293026 -0.0176858c0.0122045,-0.00702102 0.0122398,-0.0117853 0.0260898,-0.0204675l0.0817408 -0.0548047c0.0064725,-0.00432545 0.00921117,-0.0049249 0.015143,-0.00812589 0.0181716,-0.0098067 0.00749118,-0.00714248 0.0192216,-0.0159148 0.0559723,-0.0418715 0.065493,-0.0166044 0.115949,0.0100222 0.00944233,0.00498367 0.0212002,0.00765573 0.0306778,0.0120164 0.0395403,0.018199 0.0780266,0.0529476 0.13358,0.0469531 0.0308815,-0.0033342 0.045809,-0.0112407 0.0672521,-0.0252553 0.0120321,-0.00785947 0.0202207,-0.00758913 0.0323978,-0.0143633l0.0894397 -0.0471255c0.0382317,-0.0194371 0.0660376,0.0211297 0.0908776,0.0355322l0.056129 0.0371777c0.0208084,0.015335 0.0429254,0.0241857 0.0544168,0.0351325l0.0418832 0.0284602c0.0481598,0.0264934 0.109155,0.0930089 0.180019,0.0621352l0.0630325 -0.0311401c0.0106295,-0.00600626 0.0208946,-0.00952069 0.0307679,-0.0162753 0.0145749,-0.00996734 0.0714757,-0.0284406 0.0916141,-0.0443241 0.0177445,-0.0139911 0.0409037,-0.0202991 0.0600979,-0.0296474 0.037115,-0.0180776 0.0681141,-0.069121 0.0662374,-0.113022 -0.00166906,-0.0390858 -0.0336163,-0.0920804 -0.0778503,-0.105609 -0.0370876,-0.0113386 -0.088946,-0.00494449 -0.112505,0.012467 -0.0262074,0.0193744 -0.0708841,0.0317748 -0.0900979,0.0462753 -0.0150529,0.0113582 -0.0157895,0.00708371 -0.0314731,0.0151508 -0.0427608,0.0219995 -0.0298237,0.0177054 -0.0888089,-0.0234805l-0.111737 -0.0713895c-0.0123769,-0.00829828 -0.0143516,-0.0120204 -0.0264424,-0.0205028 -0.0125454,-0.0088037 -0.0132232,-0.00905445 -0.0263798,-0.0160402l-0.0552396 -0.0387723c-0.00984197,-0.00682904 -0.0482852,-0.02446 -0.0622489,-0.0261643 -0.0473018,-0.00577902 -0.0464712,0.0030952 -0.0760598,0.0154408 -0.0269204,0.0112328 -0.0340747,0.0113504 -0.0612655,0.0275904 -0.0145671,0.00870183 -0.0122084,0.0100026 -0.0295925,0.0166044 -0.0120204,0.00456837 -0.020922,0.00913281 -0.0326799,0.0145553 -0.0442144,0.0203774 -0.0410017,0.0310931 -0.0613086,0.0223834l-0.0624056 -0.0318963c-0.0133995,-0.00495625 -0.0187828,-0.00529711 -0.0318767,-0.0140068 -0.0107196,-0.00713464 -0.0168081,-0.00876452 -0.0275591,-0.0150294 -0.0139558,-0.00812589 -0.0150294,-0.00973226 -0.0314575,-0.0151195 -0.0302664,-0.00992816 -0.061622,-0.035254 -0.108595,-0.0162479 -0.0413739,0.0167376 -0.1284,0.0850202 -0.168963,0.10747l-0.0824774 0.0538213c-0.0294201,0.0180893 -0.0621627,0.0524892 -0.0894749,0.0390388 -0.0158091,-0.00778503 -0.00036829,-0.00269165 -0.0314104,-0.0153389 -0.0172744,-0.00703669 -0.011323,-0.0103121 -0.0287188,-0.0181833l-0.0624683 -0.0269361c-0.013948,-0.00710722 -0.00968917,-0.0117461 -0.0291654,-0.0179365 -0.0555491,-0.0176466 -0.0966762,-0.0161656 -0.13738,0.0229241 -0.0133407,0.0128118 -0.00946192,0.0102494 -0.0171686,0.0257333 -0.00953245,0.0191511 -0.022975,0.0415188 -0.0182186,0.0726158z"/>
   <path id="_503448400" class="fil0" d="M2.56891 1.99391c0,0.0622802 0.0835901,0.138485 0.161084,0.102295 0.0132467,-0.00618649 0.0367428,-0.0139989 0.0480266,-0.021498 0.0478346,-0.0317827 0.0490962,-0.0274298 0.0922371,-0.0489121 0.010798,-0.00537939 0.0160285,-0.00573592 0.0249419,-0.00987723 0.012467,-0.00578686 0.0106961,-0.00805929 0.0213569,-0.0132075l0.0801775 -0.0286718c0.0125258,-0.00590048 0.00912106,-0.0081925 0.021259,-0.0140616 0.0106295,-0.00514039 0.0167415,-0.00405119 0.0271986,-0.00773801 0.0107235,-0.00378477 0.014571,-0.00747159 0.0243973,-0.0109272 0.0217683,-0.00765965 0.0315319,-0.00396108 0.05379,-0.016291 0.0202089,-0.0111976 0.0298315,-0.00970092 0.0530416,-0.0165417 0.0286835,-0.00845108 0.0155034,-0.0090858 0.0561603,-0.0144887l0.119361 -0.0211297c0.139222,0 0.0686469,-0.00208828 0.178832,0.0201502 0.0389682,0.00786339 0.12078,0.0532375 0.14205,0.0759775 0.00978711,0.0104649 0.0189905,0.0173018 0.0289774,0.0257607 0.0113347,0.00959905 0.0163419,0.0171529 0.0271555,0.027226 0.0272574,0.0253846 0.0318336,0.0431526 0.0519642,0.0571712 0.100731,0.070171 0.191166,-0.0178386 0.191166,-0.0813451 0,-0.0363902 -0.000101867,-0.0297531 -0.0196134,-0.0746023 -0.0126629,-0.0290988 -0.0669818,-0.0810121 -0.0904113,-0.10459 -0.0111427,-0.0112172 -0.023884,-0.0197309 -0.0358652,-0.0300979 -0.0149275,-0.0129215 -0.020064,-0.0191628 -0.0373775,-0.0290244 -0.00913673,-0.005207 -0.0301097,-0.0187946 -0.039936,-0.0262857 -0.0243581,-0.0185634 -0.0704727,-0.0347995 -0.0851808,-0.0432271 -0.0257529,-0.014759 -0.0681689,-0.0298981 -0.0976165,-0.0337103 -0.0258038,-0.00334204 -0.029475,-0.00490139 -0.0516233,-0.0114679 -0.0483949,-0.0143516 -0.186175,-0.0121066 -0.235263,-1.56719e-005 -0.0346349,0.00852944 -0.0793078,0.0086078 -0.113234,0.0186418 -0.0198171,0.0058613 -0.027896,0.00983021 -0.0510591,0.0148139 -0.0226969,0.0048818 -0.0278294,0.0122319 -0.0458286,0.0171098 -0.0260898,0.00706412 -0.0786064,0.0179522 -0.101754,0.0304584 -0.0247616,0.013376 -0.0159736,0.0104453 -0.0468982,0.0192099 -0.039411,0.0111702 -0.0818466,0.0373814 -0.0891419,0.0396774 -0.0370053,0.0116599 -0.0789943,0.0373031 -0.0908305,0.0417853 -0.038835,0.0147159 -0.0875159,0.0447159 -0.124533,0.066304 -0.0181402,0.0105746 -0.0202481,0.018485 -0.0294436,0.0367781 -0.0172078,0.0342236 -0.0175682,0.0236254 -0.0175682,0.0643528z"/>
   <path id="_503449840" class="fil0" d="M4.69025 2.55638c0.00638631,0.0264424 0.0215371,0.0444456 0.0367193,0.0645291 0.01653,0.0218662 0.0265757,0.039219 0.0483205,0.0567049l0.0562622 0.0448178 0.0687645 0.0367859c0.0337965,0.0142614 0.128318,0.0402612 0.161401,0.0423925 0.0578607,0.00372208 0.136416,0.00850985 0.191303,-0.00826694 0.0287893,-0.00879978 0.0580527,-0.00786339 0.0829672,-0.0188729 0.0736619,-0.0325467 0.134904,-0.0598628 0.189846,-0.122084l0.0341961 -0.0434308c0.0197309,-0.028468 0.0244208,-0.0568068 0.0373305,-0.0878881 0.00872534,-0.0210082 0.0112524,-0.0652618 0.00584563,-0.094392 -0.00191197,-0.0102847 -0.0122084,-0.0271477 -0.0174899,-0.0376165 -0.0165966,-0.0328836 -0.0585621,-0.0526929 -0.0961355,-0.0533315 -0.0553571,-0.000944233 -0.105876,0.0390779 -0.116536,0.0869204 -0.0103944,0.0466318 0.00290714,0.0435797 -0.0289695,0.0754211 -0.0385255,0.0384863 -0.0563523,0.042467 -0.099501,0.0518858 -0.0281233,0.00613948 -0.0572339,0.0269753 -0.130108,0.0179874 -0.0847577,-0.0104571 -0.040128,-0.00914065 -0.0867441,-0.018724 -0.0492451,-0.010128 -0.109077,-0.0472508 -0.11935,-0.085937 -0.003965,-0.0149353 -0.00242131,-0.0283897 -0.00713072,-0.0437286 -0.00700927,-0.022834 -0.0233982,-0.050538 -0.0444926,-0.0609677 -0.0110095,-0.00544207 -0.0243816,-0.0147512 -0.0326877,-0.0178856 -0.048822,-0.0184459 -0.110695,0.00622959 -0.135684,0.0508593 -0.0125219,0.0223638 -0.0250907,0.0484027 -0.0195821,0.0813059 0.0127295,0.0760441 0.0114483,0.0420791 0.0214549,0.0835157z"/>
   <path id="_503450272" class="fil0" d="M3.73675 2.47676c0.0108254,-0.0665234 -0.0241308,-0.10374 -0.0673109,-0.130386 -0.0465143,-0.0287031 -0.119698,0.000599451 -0.142505,0.0365508 -0.0416756,0.0657045 -0.00407862,0.0638944 -0.0450137,0.110832 -0.0437991,0.0502285 -0.0870301,0.0493861 -0.138587,0.0673618 -0.0280723,0.0097832 -0.110663,0.00955595 -0.140103,0.00211179 -0.00773801,-0.00195899 -0.0733877,-0.02073 -0.0782342,-0.0232689 -0.0978085,-0.0512041 -0.0788454,-0.0713856 -0.0891967,-0.117061 -0.0101789,-0.0449392 -0.0604897,-0.0872338 -0.116,-0.0872103 -0.0357907,1.17539e-005 -0.0419772,0.00805145 -0.0730272,0.0253846 -0.0438304,0.0244639 -0.0528222,0.111557 -0.0369701,0.155642 0.0176897,0.0491981 0.0176858,0.0673109 0.0499699,0.105402 0.00937573,0.0110644 0.0104728,0.0178777 0.0210944,0.0296199 0.0401906,0.044426 0.0973618,0.0804361 0.150987,0.106342 0.0470079,0.0227086 0.1603,0.0469296 0.210928,0.0470158 0.138716,0.000235079 0.09697,-0.00836097 0.186523,-0.0207692 0.0267206,-0.00370249 0.0555805,-0.0147943 0.079582,-0.0256667 0.0147669,-0.00669191 0.0136581,-0.0107823 0.0333969,-0.0175095 0.0356497,-0.0121418 0.0454799,-0.0317827 0.063534,-0.0417853 0.033918,-0.0187946 0.0551926,-0.0462635 0.0751821,-0.0766866 0.0502403,-0.0764555 0.0189709,-0.0204362 0.0493783,-0.102487 0.00785163,-0.0211924 0.00283662,-0.0216899 0.00637064,-0.0434308z"/>
   <path id="_503449936" class="fil0" d="M3.97718 4.74467c0.0377928,0.0161186 0.0435797,0.00856079 0.0634987,0.0186143 0.0290048,0.0146337 0.102965,0.0254159 0.136969,0.0254159 0.0487397,0 0.156817,-0.00267598 0.196338,-0.0243111 0.018007,-0.00985764 0.0439872,-0.0106961 0.0628091,-0.0188455 0.0314966,-0.0136385 0.015288,-0.000313438 0.0581232,-0.0241073 0.068549,-0.0380749 0.0478346,-0.0154368 0.131511,-0.0748765 0.0217801,-0.0154721 0.0242993,-0.0292281 0.0350855,-0.0467768 0.0116913,-0.0190179 0.0132389,-0.0500835 0.0105198,-0.0592046l-0.056748 -0.086795c-0.0304114,-0.0189552 -0.0738814,-0.0266344 -0.110483,-0.00664098l-0.0671503 0.0375499c-0.0341648,0.0235431 -0.0180501,0.00773801 -0.0471059,0.0230808 -0.0291694,0.0154016 -0.0329855,0.0103787 -0.0511727,0.0187201 -0.0079104,0.00362805 -0.0134974,0.0086509 -0.0234844,0.0118558 -0.0426903,0.013709 -0.182257,0.0152331 -0.223572,-0.00215097 -0.0355518,-0.0149549 -0.00087371,-0.00311479 -0.0505145,-0.0196448 -0.0103474,-0.0034439 -0.0138775,-0.00753036 -0.0236528,-0.0117892 -0.029808,-0.0129881 -0.0196643,-0.000470158 -0.0486182,-0.0212394 -0.0109782,-0.00787514 -0.0799503,-0.0464594 -0.0917865,-0.0464594l-0.0467376 0 -0.0629619 0.0368173c-0.0280096,0.022356 -0.0314731,0.0639258 -0.0314731,0.0978476 0,0.0112368 0.00749901,0.0234217 0.0123847,0.0313556 0.0253258,0.0411153 0.00728744,0.0260467 0.0618414,0.0628718 0.0107274,0.00724435 0.0148491,0.00832179 0.0259214,0.0167219l0.111208 0.0526851c0.010555,0.00281311 0.0189591,0.00491315 0.0292516,0.0093052z"/>
  </g>
 </g>
</svg>
