<?xml version="1.0" encoding="UTF-8"?>
<!DOCTYPE svg PUBLIC "-//W3C//DTD SVG 1.1//EN" "http://www.w3.org/Graphics/SVG/1.1/DTD/svg11.dtd">
<!-- Creator: CorelDRAW -->
<svg xmlns="http://www.w3.org/2000/svg" xml:space="preserve" width="7.13198in" height="8.09358in" style="shape-rendering:geometricPrecision; text-rendering:geometricPrecision; image-rendering:optimizeQuality; fill-rule:evenodd; clip-rule:evenodd"
viewBox="0 0 7.13198 8.09358"
 xmlns:xlink="http://www.w3.org/1999/xlink">
 <defs>
  <style type="text/css">
   <![CDATA[
    .fil0 {fill:#010101}
   ]]>
  </style>
 </defs>
 <g id="Layer_x0020_1">
  <metadata id="CorelCorpID_0Corel-Layer"/>
  <g id="_341428936">
   <path id="_278218856" class="fil0" d="M5.53021 7.01545l0.0303701 -0.14426c0.0290472,0.0105197 0.00322047,0.0112165 0.0427756,0.0255551 0.0785551,0.0284646 0.0256575,0.0211024 0.100653,0.0360157 0.0396456,0.00787401 0.0236811,0.0134764 0.0516338,0.0242913 0.0269212,0.0104134 0.0496456,0.00093307 0.0859803,0.0127165 0.107476,0.0348307 0.138161,0.00122047 0.174508,0.0380866l0.0553386 0.0585472 0.0646929 0.094744c0.00271653,0.00578346 0.00630315,0.0174567 0.00830315,0.0220748 0.0152087,0.0352244 0.0165354,0.0172716 0.0295551,0.0615472 0.00951574,0.0323543 0.00937401,0.0234212 0.0202756,0.048063 0.0141142,0.0319173 0.00898818,0.0661299 0.014689,0.106787 0.0055,0.0392244 0.0154961,0.0792913 0.0187953,0.110272 0.0103228,0.0970551 0.00381102,0.13752 -0.00666141,0.226842 -0.038811,0 -0.0186417,-0.0113701 -0.0579921,-0.0255197 -0.0337638,-0.0121339 -0.0344882,-0.0032559 -0.0693819,-0.0217283 -0.0348582,-0.0184567 -0.019748,-0.000799212 -0.0921771,-0.0369016 -0.0077559,-0.00386614 0.00217716,-0.000763779 -0.0165197,-0.00625197 -0.0860866,-0.0253149 -0.0289173,-0.0135669 -0.0745354,-0.0317598 -0.0100905,-0.00401968 -0.0225551,-0.00627952 -0.0330551,-0.0124921l-0.0954763 -0.0639685 -0.099433 -0.0979763c-0.0263307,-0.0327323 -0.085307,-0.128181 -0.0947322,-0.163405 -0.0159646,-0.0596181 -0.0152795,-0.0265984 -0.0268858,-0.0642283l-0.0307205 -0.197051zm-0.888322 0.721283l-0.000405512 -0.281327c0.000279527,-0.0540315 0.0061063,-0.0395551 0.0183937,-0.080307 0.00859055,-0.0284882 0.00787401,-0.048 0.0132008,-0.0779094 0.00686614,-0.0385393 0.0181929,-0.0284094 0.0288661,-0.0698385 0.0139449,-0.0540905 0.00721653,-0.0191811 0.0295039,-0.0616063 0.0202126,-0.0385079 0.0379645,-0.06637 0.066563,-0.100465l0.0957913 -0.0940236c0.0491417,-0.0421653 0.021748,-0.0208661 0.0709803,-0.0505039 0.0485393,-0.0292165 0.146401,-0.0751929 0.198433,-0.0824842l0.0860669 -0.0126339c0.00825196,0.0354134 -0.00993307,0.104177 -0.0186693,0.163909 -0.00953149,0.0651732 0.0118386,0.116638 0.020122,0.176307 0.0166732,0.120114 0.0280866,0.124201 -0.0170827,0.198409l-0.0172244 0.0283189c-0.0321575,0.0444055 -0.0644882,0.0863031 -0.105882,0.121894l-0.0235118 0.0220512c-0.0273504,0.0222047 -0.0910905,0.0624055 -0.126972,0.0780196 -0.0380118,0.0165433 -0.00894881,0.013126 -0.0506575,0.0252677 -0.0871732,0.0253897 -0.040126,0.0171102 -0.075622,0.0306693 -0.0405669,0.0154961 -0.00769291,-0.0103661 -0.0734685,0.0252362 -0.0285275,0.0154409 -0.0105748,0.00522834 -0.0415472,0.0116024 -0.0452165,0.00931889 -0.0305905,0.0255669 -0.0768779,0.0294134zm1.40461 -1.04017c-0.158957,0 -0.104768,-0.0105079 -0.224815,-0.0333228l-0.108508 -0.0433504 -0.0235197 -0.0296181c0.0250197,-0.0132441 0.0202126,-0.0133504 0.0409645,-0.0349645l0.00741338 -0.00776378c0.00550787,-0.00611811 0.00493307,-0.00598425 0.0103307,-0.0124488 0.0280787,-0.0337008 0.0649724,-0.0721417 0.0866535,-0.110756 0.0239094,-0.0425708 0.055563,-0.081059 0.0704488,-0.126957 0.0169567,-0.0522795 0.0139646,-0.00787007 0.0347401,-0.0867401l0.0385787 -0.014563c0.0748543,-0.0423897 0.028874,-0.0123307 0.0752834,-0.0310118 0.0116142,-0.00466929 0.0221496,-0.0131457 0.0355118,-0.0176299l0.192291 -0.020311 0.172838 0.0169764c0.0494094,0.0103307 -0.00917322,0.0161417 0.0995196,0.0295472 0.0294764,0.00364173 0.0282953,0.00792913 0.0494488,0.0188858l0.103366 0.0257008c0,0.0428661 0.00253937,0.0211181 -0.0476338,0.0890314 -0.0790315,0.10698 -0.216106,0.280118 -0.351543,0.324193 -0.0174961,0.00569291 -0.0143386,0.00425984 -0.0266693,0.0112874 -0.0690236,0.0393425 -0.0524173,0.00694094 -0.109961,0.0342953 -0.0375197,0.0178268 -0.0747086,0.0195197 -0.12474,0.0195197zm-1.88294 -0.455547l0 -0.030374c0.0343464,-0.000763779 0.0753464,-0.00731102 0.100465,-0.0210197 0.0472952,-0.0258189 0.0633819,-0.00794488 0.103449,-0.0256102 0.0190669,-0.00841338 0.0166181,-0.0147008 0.0409094,-0.0198386 0.015559,-0.00329134 0.0379409,-0.00264567 0.0557519,-0.00498425 0.145732,-0.0192087 0.0730669,-0.0312874 0.230807,-0.00437008 0.0399055,0.00680708 0.0770944,0.00277165 0.108004,0.0210669 0.0551496,0.0326338 0.026059,-0.00053937 0.0842755,0.0371968 0.0200512,0.0130039 0.0365787,0.0159803 0.0816968,0.0473858l0.0708504 0.0506299c0.00378346,0.00370079 0.0119173,0.0119961 0.0149488,0.0154134 0.0057559,0.00649212 0.00824015,0.0105197 0.0136575,0.0167165 0.00102362,0.00118504 0.00250394,0.00287008 0.00355905,0.00403543 0.00105118,0.00115748 0.00262992,0.00275197 0.00370472,0.00388976 0.0366614,0.0388858 0.0477086,0.0563267 0.0790866,0.10313 0.0905,0.135039 0.00540551,0.0984527 -0.0404645,0.104468 -0.0425866,0.00558661 -0.0428464,0.0216024 -0.0785275,0.0277756 -0.0836574,0.0144646 -0.0263268,0.000519685 -0.0743937,0.0242992 -0.00157087,0.000779527 -0.00350787,0.00175984 -0.0051496,0.00244882 -0.0445315,0.0187953 0.0118661,-0.0119173 -0.0677756,0.0309291 -0.0108504,0.00583858 -0.0217008,0.00777559 -0.0322716,0.0132795 -0.015311,0.00795669 0.00194488,-0.0018189 -0.0137323,0.00905118 -0.0302362,0.0209921 -0.0598031,0.0433937 -0.0940944,0.043626 -0.0462441,0.00031496 -0.0395551,-0.014126 -0.0779291,-0.0220945 -0.0705118,-0.0146457 -0.0233858,0.00485827 -0.0811102,-0.0251811 -0.036248,-0.0188701 -0.0156575,0.00306693 -0.0678582,-0.0308504l-0.0651732 -0.0411142c-0.0218819,-0.0153189 -0.0389212,-0.0232716 -0.0583189,-0.0403897 -0.00859055,-0.00759842 -0.00261811,-0.00243307 -0.0114842,-0.0112913l-0.180177 -0.21463c-0.010815,-0.0132716 -0.0427047,-0.049185 -0.0427047,-0.0635945zm1.00981 -0.265736c0,-0.0707519 -0.00399212,-0.170417 0.00759448,-0.235362l0.0356378 -0.108622c0.0100512,-0.0209685 0.00618897,-0.00175984 0.0250984,-0.0508189 0.00540945,-0.0140157 0.0029252,-0.0093622 0.0100472,-0.0203307l0.0391142 -0.0595905c0.00958661,-0.0132441 0.0121417,-0.0185787 0.0213976,-0.0317441l0.0492834 -0.0721968c0.00085433,-0.00147244 0.00174016,-0.00353149 0.00254724,-0.00504724 0.000637795,-0.00120472 0.00491338,-0.0111102 0.00733464,-0.0154449l0.0752755 -0.0841692c0.00176772,0.0213346 0.0276102,0.0547126 0.0404685,0.0734094l0.0830039 0.121996c0.00344488,0.0045 0.0199449,0.0284331 0.021685,0.0314645 0.0077559,0.0134803 0.00789763,0.0198622 0.0135472,0.0320079 0.0178543,0.0384134 0.00970472,0.000141732 0.0313779,0.0597323 0.00974803,0.0267953 0.00383858,0.00927165 0.0157756,0.0297874l0.044685 0.145114 0 0.197409c0,0.0273268 -0.0105905,0.0322756 -0.0194331,0.0564882 -0.00978346,0.0267953 -0.00688582,0.0362638 -0.0117402,0.0641889l-0.0341023 0.0797755 -0.0815511 0.123445c-0.0165512,0.0220236 -0.0156378,0.0224567 -0.0342205,0.0417086 -0.0240866,0.0249646 -0.00738582,0.0164449 -0.0543149,0.0291968 -0.00320866,-0.0385118 -0.0111024,-0.0307677 -0.0261653,-0.0573464 -0.00691732,-0.0121968 -0.00479134,-0.0127874 -0.0125748,-0.0253937 -0.00911023,-0.0147441 0.00109449,0.00155118 -0.00981102,-0.0129685l-0.0430708 -0.0632204c-0.00501968,-0.0068622 -0.00524409,-0.00826771 -0.00922834,-0.0135512l-0.0315827 -0.036748c-0.0807519,-0.101134 -0.156079,-0.117224 -0.156079,-0.193169zm-0.303705 -0.106291c-0.0309724,-0.00827952 -0.0201575,-0.0161496 -0.0658543,-0.025252 -0.0190039,-0.0037874 -0.0554724,-0.00241338 -0.0851377,-0.00598425 -0.100169,-0.0120315 -0.118445,-0.033563 -0.233409,-0.00391732 -0.0637204,0.016437 -0.0711102,-0.00548819 -0.153575,0.0286417 -0.0245079,0.0101535 -0.0555118,0.00771259 -0.0828346,0.015874 -0.0337638,0.0100866 -0.0193504,0.0163937 -0.0665472,0.024563 -0.0977716,0.0169213 -0.0540315,0.0210433 -0.146862,0.0353582 -0.0382008,0.00588976 -0.0259764,0.018122 -0.0722165,0.0264803 -0.0979606,0.0177008 -0.0636299,0.021 -0.105598,0.0310708 -0.0224646,0.00538976 -0.0166732,-0.0018189 -0.0375945,0.00796456 -0.0335354,0.015685 -0.0725826,0.0705196 -0.0816496,0.108157 -0.00641732,0.0266614 -0.0014252,0.0667795 0.0115157,0.0871811 0.000870078,0.0013622 0.00238583,0.00298819 0.00329134,0.00430315l0.00670078 0.00849606c0.0338149,0.0486102 0.112933,0.157433 0.150051,0.199193 0.00147244,0.00164961 0.005937,0.00612598 0.00739763,0.00779527l0.317531 0.358189 0.17509 0.113429c0.0347756,0.0201575 0.0729252,0.0280315 0.110445,0.0414016 -0.00620472,0.0232441 -0.013811,0.0254882 -0.0235748,0.044748 -0.0278897,0.055 -0.0471811,0.0744409 -0.067437,0.137563 -0.00646456,0.0201417 -0.0211535,0.046622 -0.0456535,0.0530512l-3.17365 0c-0.0416102,0 -0.0798307,-0.0239409 -0.136461,-0.0305787 -0.0299685,-0.00350787 -0.171913,-0.0632126 -0.204252,-0.0842598l-0.0969763 -0.0624763c-0.00122835,-0.000976377 -0.00292913,-0.00242913 -0.00417716,-0.00339764 -0.0349921,-0.0274134 -0.0651653,-0.046874 -0.0953858,-0.079248 -0.00546456,-0.00585433 -0.00592913,-0.00645669 -0.0107638,-0.0120157l-0.0207126 -0.0248386c-0.0557598,-0.0659212 -0.106382,-0.131689 -0.151984,-0.204862 -0.00593307,-0.00952362 -0.00488582,-0.0063937 -0.0122835,-0.0180866l-0.0233976 -0.0373425c-0.000976377,-0.00123622 -0.00259055,-0.0027874 -0.00356693,-0.00402756l-0.00693307 -0.00824803c-0.0218622,-0.0307401 -0.0947677,-0.179272 -0.102122,-0.209177 -0.00524409,-0.0213346 -0.00188189,-0.0334921 -0.00770472,-0.0530354 -0.0109016,-0.0365866 -0.0234291,-0.045248 -0.0267953,-0.094685 -0.0035748,-0.0527126 -0.0074685,-0.281626 0.00557874,-0.328492 0.00909448,-0.0326496 0.0083937,-0.0151181 0.018126,-0.042622 0.00829133,-0.0234488 0.0119331,-0.0682874 0.0241299,-0.0897559l0.272567 -0.448716c0.00093307,-0.0013189 0.00205512,-0.00328346 0.00299606,-0.00459055 0.000940944,-0.00129921 0.00216929,-0.00319291 0.00312992,-0.00446456 0.000960629,-0.00126772 0.00233071,-0.00304331 0.0033189,-0.00427953l0.140252 -0.140665c0.0413858,-0.0350433 0.0731653,-0.0575866 0.120362,-0.0846338 0.0366496,-0.0210039 0.0697047,-0.047126 0.109976,-0.057059 0.0352953,-0.00870866 0.0467283,-0.0273622 0.081874,-0.0320157 0.0402441,-0.00533464 0.0554803,-0.0153425 0.0952598,-0.0262126 0.0560393,-0.015315 0.139815,-0.00300394 0.204953,-0.0228307 0.0611417,-0.0186063 0.146602,-0.0152008 0.215417,-0.0199449 0.0421771,-0.00290551 0.0569015,-0.0192441 0.0915866,-0.0223031 0.0716693,-0.00633858 0.148575,0.000748031 0.212027,-0.0157441 0.0748267,-0.0194527 0.13515,-0.0168779 0.212756,-0.0226181 0.0350787,-0.00259055 0.067059,-0.0154055 0.0935118,-0.020374 0.0709173,-0.0133071 0.148567,-0.00483071 0.217248,-0.018122 0.0295394,-0.0057126 0.0602165,-0.0176142 0.0928582,-0.0210197 0.0817322,-0.00853937 0.125512,0.00199212 0.218468,-0.0169055 0.143453,-0.0291535 0.367094,-0.0143937 0.517082,-0.0143937 0.0520315,0 0.0728976,0.0119213 0.116921,0.019748 0.039248,0.00698425 0.0921377,0.0111299 0.133579,0.0106811 0.109583,-0.00120079 0.142953,0.0315394 0.250551,0.0303622 0.0469449,-0.000507874 0.0843779,0.00191338 0.125752,0.0109252 0.112992,0.024622 0.146449,0.0147677 0.252886,0.0280394 0.0460039,0.00573228 0.0565039,0.0217126 0.122512,0.0217362 0.151803,6.29921e-005 0.171055,0.0273976 0.25048,0.030437 0.0438779,0.00168504 0.0764409,0.00607086 0.129492,0.00717322 0.0446575,0.00093307 0.0732204,0.0164842 0.119886,0.024374 0.0415748,0.00702362 0.083622,-6.29921e-005 0.116713,0.0199527 0.0508819,0.0307677 0.0245,-0.000633858 0.105279,0.0389842 0.0239331,0.0117441 0.023622,0.00420472 0.0483267,0.0199961 0.0717952,0.0458976 0.0442165,0.0190551 0.133339,0.0868503 -0.00519291,0.0222756 -0.00567716,0.0256653 -0.0172362,0.0435l-0.104823 0.153327c-0.0087874,0.0137835 -0.00293307,0.0068622 -0.010437,0.0199291l-0.0817401 0.146043c-0.0175394,0.030748 -0.00656299,0.0194409 -0.0171968,0.0511338 -0.00964173,0.0287323 -0.0124567,0.0158819 -0.0214173,0.0393228 -0.00923622,0.024185 -0.00245669,0.0335551 -0.00833858,0.0599921 -0.00623228,0.0279882 -0.0106811,0.0237008 -0.0179173,0.0428189 -0.0192441,0.050811 -0.0130472,0.132909 -0.0170039,0.180409zm-3.78865 -2.0196c0,-0.0588976 0.0159252,-0.0869763 0.015315,-0.15172 -0.000303149,-0.0317992 -0.000346457,-0.0501378 0.00394882,-0.0795708l0.0291535 -0.145472c0.000232283,-0.00127953 0.00816929,-0.0276535 0.00886614,-0.0290984l0.0871102 -0.133067c0.00556299,-0.00609055 0.0349488,-0.0364882 0.0421653,-0.0413504l0.108354 -0.058685c0.0231299,-0.00991732 0.0492677,-0.00911023 0.0763779,-0.0147401 0.0321575,-0.0066811 0.0318268,-0.0166338 0.0624212,-0.0210827 0.0250394,-0.00364173 0.0550354,-0.00598425 0.0757401,-0.00778346 0.0562362,-0.00487795 0.0877913,-0.024563 0.144657,-0.0299724 0.108425,-0.0103307 0.0677756,-0.0141772 0.139382,-0.0276457 0.0638464,-0.0120157 0.0782677,-0.000153543 0.148807,-0.0258268 0.0433307,-0.0157716 0.0942992,-0.00349606 0.146287,-0.020752 0.0684488,-0.0227047 0.0901299,-0.0136732 0.150445,-0.0241732 0.0427874,-0.00745275 0.0329488,-0.012815 0.0626299,-0.0208858 0.0990826,-0.0269291 0.294468,-0.00279134 0.406697,-0.00339764 0.0790118,-0.000433071 0.0959251,0.0132244 0.153614,0.0210197 0.102299,0.0138268 0.229244,0.000409449 0.324768,0.0168937 0.0230079,0.00396456 0.0520354,0.0110472 0.0700984,0.0134134 0.0826456,0.0108701 0.16459,0.0035 0.24839,0.00975984 0.0498582,0.00372047 0.0904645,0.0244527 0.137929,0.0290984 0.0300157,0.00294094 0.0491535,-0.00135433 0.0784763,0.00504724 0.0336614,0.00734645 0.0373504,0.0163937 0.0679803,0.0231299 0.0283031,0.00622047 0.0477086,0.00348819 0.0709606,0.0125512 0.0293149,0.0114252 0.0148622,0.0149764 0.0612598,0.0222598 0.0114842,0.00180315 0.0218976,0.00253543 0.0327559,0.00520078 0.0369645,0.00905511 0.0245827,0.0176732 0.0640275,0.0270827l0.0604055 0.0231181c0.0138543,0.00723622 0.0212165,0.00732677 0.0337559,0.0117992 0.024122,0.00859055 0.00552362,0.00116535 0.0251693,0.0127874l0.0605669 0.0229488c0.0202874,0.00910236 0.0135866,0.0100984 0.0277205,0.0178386 0.00149606,0.000822834 0.00343307,0.00183464 0.00500393,0.00259055l0.0109213 0.00425984c0.00927165,0.0036496 0.0033622,-0.000224409 0.0168858,0.00588976 0.0342992,0.0155236 0.105756,0.0570984 0.134398,0.0781968 0.039374,0.029 0.106579,0.0652047 0.155638,0.102508 0.0482126,0.0366496 0.0981496,0.0749133 0.139016,0.119126 0.035189,0.0380748 0.0629606,0.0782244 0.0777952,0.127213 0.0281023,0.0928858 0.0303543,0.102362 0.0303543,0.205008 0,0.0495275 -0.0157835,0.0462441 -0.0267165,0.0795866 -0.00874409,0.0266772 -0.0118819,0.0434645 -0.0263464,0.0647637 -0.000905511,0.00133464 -0.00222441,0.00311811 -0.00309449,0.00449212 -0.000877952,0.00140551 -0.00197244,0.00333464 -0.00280315,0.0047874 -0.0128346,0.0223189 -0.0306063,0.0527638 -0.0489015,0.0725826l-0.030374 0.0303661c-0.0113346,0.0100236 -0.00572047,0.00453543 -0.0174961,0.012874 -0.0252244,0.017874 -0.0415275,0.0252795 -0.0652559,0.0410354 -0.0239882,0.0159173 -0.0484685,0.0154882 -0.0761968,0.0300984 -0.0465945,0.024559 -0.0316102,0.00927165 -0.0858818,0.0204094 -0.042122,0.00864173 -0.0381929,0.0199961 -0.0801614,0.0261378 -0.0661535,0.00967716 -0.105799,0.0289842 -0.174445,0.0381417 -0.0476181,0.00635826 -0.0393386,0.0169291 -0.0802126,0.0260866 -0.0446575,0.0100079 -0.0475118,0.00266929 -0.0869133,0.0193779 -0.0443897,0.0188031 -0.0374055,0.00888582 -0.089307,0.0169921 -0.070807,0.011059 0.0218268,0.0184212 -0.178508,0.0340787l-0.10422 0.00207086 -1.66276 0c-0.0662401,0 -0.119094,-0.00227953 -0.182256,-0.00755118 -0.0405315,-0.00338976 -0.0312323,-0.0154803 -0.0713346,-0.0273779l-0.105835 -0.0384173c-0.022311,-0.00785433 -0.107358,-0.0530866 -0.136118,-0.0612913 -0.0455,-0.0129764 -0.0191102,-0.0130236 -0.0502283,-0.0256929 -0.0254409,-0.0103661 -0.0385866,-0.00916535 -0.0563858,-0.0195394l-0.174268 -0.083874c-0.0589055,-0.0412165 -0.106138,-0.0974055 -0.136358,-0.159748 -0.0222323,-0.0458582 -0.0231535,-0.0413149 -0.0307874,-0.0982913 -0.00345275,-0.0258031 -0.0130827,-0.0513425 -0.0130827,-0.0856141zm0.933877 -1.07814c-0.242492,0 -0.100768,0.00361417 -0.228539,-0.0296023 -0.0541693,-0.0140787 -0.100957,-0.0563071 -0.139874,-0.095496 -0.00988976,-0.00995275 -0.0203661,-0.0210827 -0.0293228,-0.0314212 -0.0165709,-0.0191181 -0.0337795,-0.0464685 -0.0425433,-0.0713385 -0.0029685,-0.00842913 -0.00329921,-0.0144094 -0.0068937,-0.0234764 -0.00917716,-0.0230984 -0.0015,-0.00381102 -0.0107441,-0.0196181 -0.0155039,-0.0265079 -0.00837795,-0.00337401 -0.0161063,-0.0446417 -0.000216535,-0.00119291 -0.00448425,-0.0245275 -0.0047874,-0.0255748 -0.0083307,-0.0282205 0.00101968,-0.0013622 -0.009437,-0.0209409 -0.0140945,-0.0264173 -0.00567323,0.00738189 -0.015063,-0.0380827 -0.00544488,-0.0263661 -0.00309449,-0.0294252 -0.0124567,-0.0482834 -0.0166535,-0.0335118 -0.0211811,-0.0508071 -0.0232992,-0.098185 -0.00227559,-0.0507834 -0.00720078,-0.113878 0.00397638,-0.163055 0.00801574,-0.0353228 0.0052874,-0.0161693 0.0156732,-0.0374764 0.0149842,-0.0307598 0.00866141,-0.0452834 0.0250827,-0.0736141l0.0290827 -0.069622c0.00607086,-0.0101535 0.00765748,-0.00499606 0.0192244,-0.0263307 0.00972047,-0.0178976 0.00481496,-0.0157087 0.0175669,-0.0355748l0.0293779 -0.046559c0.0274331,-0.0361811 0.0523267,-0.0724133 0.0848858,-0.104917l0.0636456 -0.0730236c0.0393031,-0.00326378 0.0648858,-0.0383819 0.0934133,-0.058433 0.0272165,-0.0191378 0.103244,-0.0638385 0.132657,-0.0723425 0.0418661,-0.0121063 0.0678031,-0.0295551 0.115508,-0.0363346 0.047126,-0.00670866 0.0279803,-0.0168307 0.0798385,-0.0264646 0.0374409,-0.00695669 0.155929,-0.00978346 0.201169,-0.0114213 0.087496,0 0.200201,0.0057559 0.281185,0.0149213 0.0522519,0.00589763 0.0578858,0.0229449 0.121063,0.023189 0.106524,0.000401575 0.162283,0.0197283 0.262602,0.0335039 0.129043,0.0177165 0.0397992,0.0053622 0.125051,0.0268031 0.0244567,0.0061496 0.0380866,0.00505512 0.0678149,0.00810629 0.0417165,0.00427559 0.0185433,0.0152795 0.120827,0.0310197 0.0381299,0.0058622 0.0240236,0.0134055 0.0518228,0.0241023 0.0233779,0.00899606 0.0329764,0.00265354 0.0583819,0.00995669 0.030937,0.00887795 0.0214291,0.0152795 0.0520826,0.0238425 0.0693464,0.0193898 0.0494015,0.0218976 0.082248,0.0316378 0.0134331,0.00399212 0.0175669,0.00277165 0.0305787,0.00738189 0.0249488,0.00885826 0.0217835,0.0148228 0.0512874,0.0246417l0.107886 0.0439685c0.0107087,0.00543307 0.00897637,0.00790944 0.0228071,0.0151535l0.118996 0.0632126c0.0550551,0.0384252 0.119252,0.0967519 0.141401,0.162303 0.0449724,0.133059 0.0550433,0.220153 -0.00413386,0.350953 -0.00425197,0.00938976 -0.0239803,0.0373937 -0.0334685,0.0500472 -0.0161929,0.0216024 -0.0495787,0.0613819 -0.081685,0.0853543 -0.0354567,0.0264803 -0.0630236,0.0364055 -0.100957,0.0584842 -0.0131968,0.00767716 -0.184846,0.0423976 -0.223165,0.0425708 -0.07,0.000303149 -0.0968661,0.0240039 -0.144886,0.0297362 -0.0581102,0.00694094 -0.103362,-0.000944881 -0.15402,0.0130197 -0.0352401,0.00970078 -0.0225787,0.0159094 -0.0653464,0.0181693 -0.0542874,0.00287795 -0.107224,0.00664173 -0.151665,0.0229646 -0.0436378,0.0160354 -0.113547,-0.000799212 -0.218209,0.0323464 -0.0636141,0.0201417 -0.0788937,-0.00450393 -0.216779,0.0337716 -0.044811,0.012437 -0.114425,0.00606299 -0.1585,0.016122 -0.0322047,0.00734645 -0.0311457,0.0124134 -0.0637952,0.0197205 -0.0479212,0.0107244 -0.107756,0.00252756 -0.160976,0.0136575 -0.0195118,0.00407874 -0.0460669,0.0160079 -0.0644409,0.0190748 -0.0524763,0.00876771 -0.100067,0.00165748 -0.155803,0.0112283 -0.0267126,0.00459055 -0.0438386,0.0208661 -0.0702401,0.0208661zm-0.842767 -0.614992c0,0.0508267 0.00730708,0.0695078 0.00757874,0.113905 0.0005,0.0812007 0.0139803,0.0470512 0.0262362,0.102839 0.00441338,0.020122 0.00230709,0.035063 0.00767716,0.053059 0.00816141,0.0274055 0.0105354,0.0133622 0.020311,0.0404291 0.00699606,0.0193661 0.00377559,0.028622 0.0100157,0.0507283 0.00575984,0.020374 0.0173819,0.0307953 0.0226338,0.0456968 0.00677165,0.0192165 0.00423622,0.0335945 0.0107992,0.0499409l0.0830196 0.152338c0.0350984,0.0438976 0.0623622,0.0746574 0.085059,0.127539 -0.0188425,0.00156693 -0.0662874,0.00543307 -0.089496,0.00920866 -0.0348858,0.00566535 -0.0340157,0.0192953 -0.0705118,0.0281929 -0.0183858,0.00447638 -0.0199724,0.00211811 -0.0361299,0.00941732 -0.018,0.00813385 0.00435827,-0.00245669 -0.0142598,0.00851968l-0.0520748 0.0238504 -0.144701 0.105854c-0.0115945,0.0108701 -0.0119882,0.0115039 -0.022874,0.0226772 -0.0311102,0.0319252 -0.0702086,0.0746456 -0.0907322,0.114264 -0.0237126,0.0457716 -0.0522834,0.0832007 -0.0644055,0.133 -0.00629527,0.0258779 -0.00505905,0.0172441 -0.0158031,0.0373386 -0.0206496,0.0386417 -0.00988976,0.0417362 -0.0158701,0.0904291 -0.00805511,0.0655511 -0.0291535,0.0960236 -0.0284291,0.168976 0.000771653,0.0762047 -0.0228464,0.138405 -0.0228464,0.212512 0,0.0358976 0.0105354,0.0405945 0.0147953,0.0763149 0.00400787,0.0336102 0.00468897,0.0477401 0.00826771,0.0828385l0.0324882 0.104177c0.0080433,0.0245512 0.0192559,0.0243543 0.0271023,0.0488267 0.0114961,0.0358701 0.0204016,0.0428228 0.0415275,0.0723504 0.0198819,0.0277992 0.0334685,0.0543346 0.0580118,0.0786653l0.0559134 0.0579645 0.0940039 0.0730315c0.0272638,0.0206614 0.0588543,0.0351063 0.0893543,0.047311 0.0496771,0.0198819 0.0960511,0.046311 0.147827,0.0647637 0.0295748,0.0105394 0.018374,0.0154173 0.050496,0.0254252l0.10909 0.0503622c-0.0565197,0 -0.116756,0.00621259 -0.161996,0.0202205 -0.0485512,0.0150197 -0.115161,0.00910236 -0.166043,0.0161772 -0.051437,0.00716535 -0.0351181,0.0112559 -0.0702519,0.0208583 -0.0295118,0.00807086 -0.0546653,0.00372047 -0.0796692,0.0114409 -0.0318976,0.00985826 -0.0301299,0.0182953 -0.06537,0.025748 -0.028311,0.00598031 -0.110508,0.041 -0.129276,0.052933l-0.146846 0.0809409 -0.103476 0.0787362c-0.0108504,0.00877952 -0.0158543,0.0121772 -0.0252323,0.0203189l-0.00790944 0.00727559c-0.046433,0.0419409 -0.0910196,0.0864921 -0.129716,0.13602l-0.0383071 0.0528071c-0.0119724,0.0185354 -0.0253976,0.0312086 -0.0399882,0.051126 -0.0139527,0.0190472 -0.00557874,0.00613385 -0.0170551,0.028496l-0.0212086 0.0319449c-0.0279055,0.0348386 -0.0437598,0.0684409 -0.0696063,0.105016l-0.103779 0.169551c-0.0096496,0.0203543 -0.0202953,0.0362716 -0.0287953,0.0623071 -0.0112913,0.0345512 -0.0214606,0.0345787 -0.0283464,0.0627716 -0.00767716,0.0314567 -0.0117913,0.0392323 -0.0247401,0.0663582 -0.0106457,0.0223031 -0.00801968,0.054622 -0.0129252,0.0781968 -0.0169094,0.0813622 -0.0162913,0.00715748 -0.0295748,0.152638 -0.00896456,0.0982401 -0.0122283,0.303453 0.0206535,0.382941 0.00959448,0.0231968 0.0102126,0.0413307 0.014185,0.0693267 0.00550787,0.0387401 0.0115984,0.0324094 0.0227874,0.0607362 0.0121772,0.0308031 0.00103937,0.0333425 0.0190748,0.0644409l0.0523425 0.114685c0.00946062,0.0206063 0.00548031,0.0107992 0.0140512,0.0239094l0.136524 0.212744c0.00458267,0.00654724 0.00454724,0.00728346 0.00916535,0.0136142l0.120272 0.153047c0.00104724,0.00116535 0.0025,0.00287795 0.00354331,0.00405512 0.00103937,0.00117323 0.00249212,0.00288583 0.00353149,0.00405905 0.0621889,0.0701378 0.13713,0.128468 0.212898,0.181909 0.00131102,0.000921259 0.0030748,0.00229527 0.00435827,0.00323622l0.0689055 0.0449803c0.0227323,0.0143661 0.0441653,0.0291693 0.0688897,0.0374134l0.182445 0.0680984c0.030622,0.00981102 0.0195394,0.0152283 0.059374,0.0241417 0.0229094,0.00512992 0.0461811,0.00311811 0.0762598,0.00726378 0.0514449,0.00709055 0.0145433,0.024059 0.221039,0.0295118l3.0218 0c0,0.0744015 -0.00898425,0.48583 0.00081496,0.538228 0.00575984,0.0307401 0.0436929,0.0594212 0.059933,0.0843503l0.174622 0c0.0107244,-0.0401575 0.0136772,-0.0132835 0.0550984,-0.0284173 0.0297086,-0.0108504 0.0129213,-0.015185 0.0581063,-0.0254055 0.0145827,-0.00329921 0.0156968,-0.00177559 0.0297559,-0.00821653 0.018752,-0.00857874 0.0109764,-0.00953936 0.0284724,-0.0170748 0.0236378,-0.0101772 0.050937,-0.0107244 0.0749606,-0.023752l0.051437 -0.0168976c0.0408543,-0.00988188 0.0294212,-0.016059 0.056933,-0.0265709 0.0336575,-0.0128583 0.0286535,0.00152756 0.0643858,-0.0191338 0.0327677,-0.0189409 0.0436811,-0.0150945 0.0889881,-0.0400866l0.0655157 -0.0331771c0.0581535,-0.0359252 0.112783,-0.0719842 0.161854,-0.119083l0.036059 -0.0322638c0.00161417,-0.00150787 0.00622441,-0.00584645 0.00779133,-0.00739763 0.0112362,-0.0111024 0.00929921,-0.00960629 0.0181693,-0.0197992l0.0604212 -0.0762362c0.00117716,0.000862204 0.0917401,0.10702 0.162295,0.164189l0.0377874 0.0305433c0.0108268,0.00904724 -7.87401e-006,0.0015315 0.0119724,0.0108031l0.186338 0.102177c0.0487638,0.0185984 0.131524,0.0570354 0.18202,0.0685315l0.0340315 0.0115236c0.0015,0.000767716 0.00324803,0.00207874 0.00472047,0.00287795 0.0014685,0.000787401 0.00318897,0.00213386 0.0046811,0.00291338 0.0116457,0.00611417 0.00258268,0.00263779 0.0154961,0.00727165 0.0107402,0.00385827 0.0262559,0.00603543 0.0365866,0.0089685 0.0348189,0.00988188 0.0252953,0.0158898 0.0577401,0.0257835l0.131878 0.0351496 0 0.0227795 0.174622 0c0.00366929,-0.0335394 0.0138307,-0.0218386 0.0345275,-0.0489921 0.0570866,-0.0749133 0.0284173,-0.142114 0.0259685,-0.224086 -0.00353149,-0.118157 -0.00247638,-0.231775 -0.00722834,-0.342023l-0.022311 -0.152319c-0.00255512,-0.034563 0.0021811,-0.0472952 -0.00927952,-0.0742362 -0.0103307,-0.0242913 -0.0172913,-0.0386771 -0.0217205,-0.0693897 -0.00796456,-0.0551338 -0.0120709,-0.0193701 -0.0265354,-0.0569882l-0.0637126 -0.133689c-0.00614567,-0.0133976 -0.0173425,-0.0258425 -0.0311811,-0.0371417l0 -0.0227795c0.0546102,-0.00121653 0.0886456,-0.0348661 0.133527,-0.0562874l0.220449 -0.159173 0.100866 -0.111716c0.00101181,-0.00120472 0.00256299,-0.0028189 0.00355905,-0.00403543 0.0408937,-0.050311 0.105673,-0.130047 0.139043,-0.179854l0.0471575 -0.059122c0.00101575,-0.0012126 0.00253937,-0.00285039 0.00353543,-0.00406299 0.000992125,-0.00122835 0.00243701,-0.00293307 0.00341338,-0.00416929 0.00157874,-0.002 0.00926377,-0.0128071 0.00957873,-0.0132087 0.00827559,-0.0107362 -0.00203543,0.00156693 0.0102402,-0.0125276 0.0010315,-0.00118504 0.00261811,-0.00277165 0.00366142,-0.00393701l0.0501614 -0.0637322c0.0442756,-0.0675511 0.0794724,-0.10015 0.0383189,-0.182795 -0.0373307,-0.0749685 -0.0568819,-0.0607086 -0.123311,-0.0892874 -0.0454015,-0.0195315 -0.0800984,-0.0151732 -0.108543,-0.028122 -0.0692007,-0.0315039 -0.072933,-0.0166378 -0.112283,-0.0319724 -0.0822834,-0.032059 -0.0482716,-0.0130827 -0.106291,-0.0303701 -0.0277992,-0.0082874 -0.0198071,-0.0130472 -0.0482165,-0.0201142 -0.0263937,-0.00656693 -0.0379685,-0.00322834 -0.0654842,-0.0104488 -0.0468622,-0.0122953 -0.0544842,-0.0282756 -0.115732,-0.0285157 -0.0571968,-0.000224409 -0.110102,-0.0150472 -0.167173,-0.0150472l-0.206216 0.021559 -0.0595197 0.023996c0,-0.0556102 0.000547244,-0.0937204 -0.0106339,-0.14122 -0.00488582,-0.0207874 -0.0120512,-0.0265 -0.0155394,-0.0376023 -0.0098307,-0.031189 -0.00342519,-0.0610866 -0.0162126,-0.0900866 -0.0328504,-0.0745196 -0.0106811,-0.0286968 -0.0281496,-0.0781417 -0.00786614,-0.0222677 -0.0801181,-0.155039 -0.0990826,-0.181846 -0.00718504,-0.0101575 -0.00694882,-0.00793307 -0.0131378,-0.0172323 -0.0427323,-0.0642283 -0.137992,-0.217878 -0.178957,-0.269 -0.000984251,-0.00122835 -0.00255512,-0.00281496 -0.00354331,-0.0040433l-0.0127402 -0.0176299c-0.000842519,-0.00148031 -0.00173228,-0.00353543 -0.00253937,-0.00505118 -0.0302559,-0.0568543 -0.105626,-0.175791 -0.182433,-0.163441 -0.027874,0.00448425 -0.0538504,0.0258622 -0.0823858,0.0258622 -0.0188071,0 -0.0229567,-0.0139094 -0.0421299,-0.0262126 -0.0110827,-0.00711811 -0.00790157,-0.00374016 -0.0190905,-0.0112795l-0.11439 -0.0678228c-0.0335472,-0.0213622 -0.163067,-0.0752559 -0.19952,-0.0813976 -0.0786614,-0.0132716 -0.0513464,-0.0196653 -0.107118,-0.029559 -0.0515984,-0.00915354 -0.0796574,0.000425197 -0.129543,-0.0147047 -0.0807165,-0.0244803 -0.170142,-0.0174685 -0.253756,-0.0271732 0.0155709,-0.0668228 0.0516456,-0.0213425 0.114831,-0.0522086 0.0386063,-0.0188583 0.0785,-0.0209567 0.12439,-0.0426378 0.0128386,-0.00606299 0.018563,-0.00661811 0.0281929,-0.00976771 0.0283543,-0.00927952 0.0101496,-0.0014252 0.0309212,-0.0146339 0.0124646,-0.00792913 0.00556693,-0.00493307 0.0237992,-0.0141693l0.0786614 -0.0504055c0.0167716,-0.0137047 0.0290394,-0.025126 0.045126,-0.0383897l0.042874 -0.0406417c0.0209134,-0.0250118 0.0476693,-0.0503189 0.0661063,-0.0781535l0.0543622 -0.0898897c0.012626,-0.0184094 0.0122756,-0.0378976 0.0252716,-0.0582519 0.0202283,-0.0316811 0.0165905,-0.0605393 0.0300669,-0.0989999 0.0310118,-0.0884921 0.0187244,-0.184878 0.0187244,-0.277394 0,-0.0302401 -0.00998031,-0.0286142 -0.0184646,-0.0498701 -0.011811,-0.0295827 -0.00735433,-0.0628897 -0.0234685,-0.0904173 -0.011063,-0.0189055 -4.33071e-005,0.0118189 -0.0138346,-0.024122 -0.0124842,-0.0325354 -0.0049685,-0.0268228 -0.0252795,-0.0582441l-0.00846456 -0.0143031c-0.0072559,-0.0132087 -0.00369685,-0.00961417 -0.0135433,-0.0244291 -0.00123622,-0.00187401 -0.00517323,-0.00688582 -0.00645669,-0.0087244l-0.148224 -0.170661c-0.00949606,-0.00784645 -0.0114409,-0.007937 -0.0217716,-0.0161968l-0.00816929 -0.00701181c-0.00334645,-0.00282283 -0.00182283,-0.00300394 -0.0121535,-0.010626 -0.00933464,-0.00688582 -0.0149016,-0.00844881 -0.0239134,-0.0140433 -0.0185748,-0.0115394 -0.0691063,-0.0550157 -0.137071,-0.0983031 -0.00137008,-0.000877952 -0.00320866,-0.00213386 -0.00453543,-0.00304724l-0.0971732 -0.0622795c-0.0113543,-0.00681496 -0.00988976,-0.00798031 -0.0227756,-0.0151811l-0.0472519 -0.0286693c-0.0314921,-0.0221772 -0.0670236,-0.032626 -0.102382,-0.0494764 -0.0253425,-0.0120787 -0.0106457,-0.012248 -0.0443701,-0.0239606 -0.0117677,-0.00407874 -0.0180709,-0.00427559 -0.0287244,-0.00923622 -0.0200236,-0.00931496 -0.00391732,-0.00422441 -0.0235669,-0.0143937l-0.109339 -0.0425039c-0.0357638,-0.00863779 -0.0232559,-0.0112716 -0.0462913,-0.0220512 -0.0276575,-0.0129331 -0.034311,-0.00279134 -0.0626496,-0.0132716 -0.0245157,-0.0090748 -0.0183622,-0.0161338 -0.0528622,-0.0230669l-0.113 -0.031252c-0.0538779,-0.00717322 -0.132594,-0.024122 -0.181287,-0.046496 0.103693,0 0.0958818,-0.0120079 0.171953,-0.0330433 0.0420669,-0.0116299 0.0823661,-0.027559 0.120083,-0.0545393l0.0480866 -0.0278464c0.0116732,-0.00882283 0.0197795,-0.0140157 0.0306575,-0.0224803l0.00823228 -0.00696063c0.0257283,-0.0219606 0.052748,-0.0434212 0.0745393,-0.0697204 0.0317165,-0.0382834 0.0640708,-0.0740275 0.0889842,-0.116012 0.00519291,-0.0087559 0.00273622,-0.00635826 0.00764173,-0.0151299 0.0316457,-0.0565511 0.028122,-0.0672559 0.0442716,-0.0924015 0.017189,-0.0267598 0.0109134,-0.0488819 0.0227756,-0.0835039 0.0139567,-0.0407244 0.0209331,-0.0161417 0.0206102,-0.0856968 -0.00031496,-0.0670945 0.00870472,-0.0679094 0.00108268,-0.137846 -0.00370079,-0.0339173 0.00144488,-0.0675984 -0.0117638,-0.0945551 -0.0100157,-0.020437 -0.0124842,-0.0541456 -0.0221496,-0.0841417l-0.0541181 -0.112917c-0.0329921,-0.0532874 -0.0637677,-0.0987165 -0.107476,-0.143079l-0.0513504 -0.0473582c-0.0278228,-0.0239252 -0.0638661,-0.045437 -0.0946614,-0.0647795l-0.0131535 -0.00962204c-0.0383897,-0.026752 -0.0647008,-0.0316181 -0.106661,-0.0527756l-0.0500551 -0.0258701c-0.0316653,-0.0104016 -0.0423897,-0.0236653 -0.0734803,-0.032811l-0.0753267 -0.0309645c-0.0350708,-0.0101417 -0.0414134,-0.0221338 -0.0763385,-0.0299606 -0.0274685,-0.00615354 -0.0155787,-0.00279921 -0.0375472,-0.0155945 -0.0333071,-0.0193976 -0.0409094,-0.0100433 -0.0755433,-0.0231653 -0.0197756,-0.00748818 -0.0114055,-0.00885826 -0.0358071,-0.0173425 -0.0142323,-0.00494094 -0.0357362,-0.00745275 -0.044311,-0.00884251 -0.0333582,-0.00539763 -0.0177165,-0.000169291 -0.0417047,-0.0114331 -0.0282126,-0.0132441 -0.0475669,-0.0163189 -0.0847795,-0.0215197 -0.0497165,-0.00694094 -0.0505433,-0.0263583 -0.121661,-0.030185 -0.0406693,-0.00218898 -0.0512519,-0.0137401 -0.0832559,-0.0230394 -0.0297008,-0.00862598 -0.0603346,-0.00474409 -0.0988228,-0.00748031 -0.0326496,-0.00231102 -0.0596968,-0.014437 -0.085559,-0.0207205 -0.0591653,-0.0143937 -0.128342,-0.00590945 -0.188264,-0.0167441 -0.121555,-0.0219606 -0.0566929,-0.0159094 -0.189583,-0.023l-0.190004 -0.0155157c-0.0437244,-0.00230315 -0.0545472,0.0076496 -0.0983543,0.00800787 -0.046311,0.000385827 -0.0598228,0.00674409 -0.0986259,0.00766929 -0.0427401,0.00101181 -0.0557519,-0.00442126 -0.0904803,0.00822047 -0.0341142,0.0124213 -0.038059,0.0162598 -0.0841692,0.022122l-0.121323 0.038122c-0.0174331,0.00870866 0.0032559,-0.00132677 -0.0134252,0.00935433 -0.0173622,0.0111299 -0.00270866,0.00449212 -0.0197441,0.010626l-0.136201 0.0687913c-0.0459764,0.0239882 -0.0857204,0.0539921 -0.126153,0.0864448 -0.0119016,0.00955118 -0.0133543,0.0105276 -0.0247953,0.0207598l-0.0206181 0.0173425c-0.00122835,0.000996062 -0.00308268,0.0022874 -0.00429527,0.00329134 -0.00120866,0.00101575 -0.00299606,0.00238583 -0.00417716,0.00341732 -0.036311,0.0315551 -0.0750669,0.0698582 -0.105594,0.106992 -0.0476693,0.0579921 -0.122189,0.145937 -0.149909,0.214539 -0.0157992,0.0391142 -0.0380315,0.0678189 -0.0547008,0.10474 -0.0152716,0.0338149 -0.00357874,0.0353425 -0.0256102,0.0730866 -0.0202323,0.0346653 -0.0106653,0.0463346 -0.0216772,0.0846141 -0.0123464,0.0429567 -0.0214331,0.0175945 -0.022437,0.0838661 -0.000661417,0.0437362 -0.0074685,0.0531063 -0.0074685,0.0988228z"/>
   <path id="_341426872" class="fil0" d="M2.82728 3.77346c0,0.0581456 -0.00494882,0.0401299 0.0215236,0.092374 0.011189,0.0220866 0.00123622,0.00845669 0.0227401,0.0304016 0.0479212,0.0488976 0.0264173,0.0213976 0.0804842,0.041l0.0270984 0.0108504 0.402409 0c0.0452598,0 0.061185,-0.0122126 0.113598,-0.0154685 0.0365551,-0.00227165 0.0794015,-0.00644094 0.109327,-0.019748 0.0477519,-0.0212362 0.0618189,-0.00948031 0.106602,-0.0224724 0.0540472,-0.0156732 -0.0146968,-0.0135945 0.10226,-0.026811 0.0468189,-0.00528346 0.0473543,-0.0255945 0.0996456,-0.0294252 0.0893425,-0.00653543 0.0567913,-0.0174764 0.100858,-0.0282126 0.0296653,-0.00721653 0.0340472,0.000279527 0.0580905,-0.0178346 0.0312086,-0.0235118 0.0607834,-0.0757047 0.0688622,-0.113358 0.00962992,-0.0448897 -0.0089685,-0.0881141 -0.0351811,-0.116669 -0.0273937,-0.0298346 -0.00475197,-0.0135039 -0.0458779,-0.0300394 -0.108524,-0.0436535 -0.0846417,-0.00946062 -0.14024,0.00133464 -0.0326771,0.00634252 -0.0497716,0.0018937 -0.0787992,0.012315 -0.0402283,0.014437 -0.00701181,0.0132874 -0.0627795,0.0207323l-0.213016 0.0527204c-0.0231181,0.0103189 -0.122346,0.0230551 -0.154878,0.0273425 -0.206264,0.0271811 -0.484657,-0.0483622 -0.554291,0.0682952 -0.00392913,0.00659055 -0.028437,0.0604409 -0.028437,0.0626732z"/>
   <path id="_341426944" class="fil0" d="M1.80989 2.16385c0,0.0209567 0.0283307,0.0832559 0.0381142,0.0985511 0.0141063,0.0220512 0.0837913,0.0517638 0.0909566,0.0532952 0.00201968,0.000440945 0.421134,0.00492519 0.471854,-0.00647244 0.0322559,-0.0072559 0.0256299,-0.0105039 0.0497165,-0.0186181 0.026248,-0.00883464 0.0336338,-0.00258268 0.0613346,-0.00699606 0.0319252,-0.0050748 0.0286535,-0.0133858 0.0529173,-0.023 0.0377834,-0.0149685 0.0182874,0.00522047 0.0725748,-0.0261299 0.0440748,-0.0254606 0.00897637,0.00572834 0.071437,-0.0348661 0.0103386,-0.00671653 0.0167165,-0.00813385 0.0257283,-0.0122323 0.0323464,-0.0147087 0.0134606,-0.00922834 0.0412953,-0.0270394 0.0358149,-0.0229094 0.0431771,-0.0226693 0.0828425,-0.053811 0.00462598,-0.00363386 0.00367323,-0.00328346 0.00856299,-0.00663779 0.00738976,-0.0050748 0.00616929,-0.00365748 0.0143819,-0.00838582l0.1455 -0.11265c0.0225709,-0.0302834 0.0289646,-0.0826181 0.0206693,-0.121429 -0.00651968,-0.0305512 -0.00851968,-0.0323897 -0.045126,-0.0687519 -0.0135827,-0.0134961 -0.0210709,-0.0200866 -0.0355,-0.0252638 -0.0476535,-0.0170827 -0.110417,-0.0170905 -0.15061,0.0124764 -0.00127165,0.000940944 -0.0027874,0.00259055 -0.00403543,0.00355118l-0.11361 0.0762126c-0.0469606,0.0267441 -0.0663937,0.0493582 -0.107638,0.0669803 -0.0380827,0.0162756 -0.0120315,0.0163189 -0.0541338,0.0293858 -0.0162323,0.00503149 -0.00441338,-0.00190157 -0.0229764,0.00738976 -0.0530433,0.0265354 0.0148701,0.00791732 -0.0850669,0.0288307 -0.0461456,0.0096496 -0.036059,0.0232874 -0.0897204,0.0241575l-0.334468 0.00719291c-0.0819094,-0.000125984 -0.0743779,-0.010315 -0.117689,0.0189764 -0.0191457,0.0129488 -0.0369842,0.0196299 -0.050433,0.0406732 -0.00693307,0.0108346 -0.0368779,0.0720748 -0.0368779,0.0846102z"/>
   <path id="_341426896" class="fil0" d="M0.67861 6.46119c0.0101339,0.0434921 0.0771417,0.0986338 0.114453,0.120917l0.073437 0.0480512c0.0198701,0.0154921 0.00042126,0.0045 0.0228307,0.015126l0.159657 0.0832992c0.0299449,0.0169291 0.0315315,0.0077559 0.0563779,0.0195512 0.0313779,0.0148937 0.000807086,0.0153425 0.0580669,0.0254567 0.0385157,0.00679921 0.0297638,0.0102126 0.0544842,0.0214331 0.022189,0.0100709 0.0482913,0.00848425 0.070496,0.0130197 0.0713189,0.014563 -0.0206338,0.0124488 0.128783,0.0306614 0.0330433,0.00403543 0.0470512,-0.00170472 0.0752362,0.00828346 0.0662952,0.0234961 0.0688149,0.0218661 0.116587,-0.00205118l0.0362008 -0.0169409c0.0165118,-0.0108307 0.0544252,-0.0972322 0.0583779,-0.116256 0.0107362,-0.0516614 -0.0223976,-0.0871614 -0.0527283,-0.114299l-0.0287834 -0.0243622c-0.0207441,-0.00974015 -0.0466968,-0.00492519 -0.0874724,-0.0188346 -0.0581693,-0.0198425 -0.0835314,-0.00766535 -0.140555,-0.018874 -0.0221142,-0.00435039 -0.0346496,-0.0187953 -0.0583858,-0.0251378 -0.0322401,-0.00859842 -0.037622,0.000484252 -0.0687992,-0.0147165l-0.111047 -0.0483976c-0.0296732,-0.0116024 -0.118279,-0.061311 -0.143024,-0.0771653 -0.0140433,-0.00899212 0.000988188,0.00053937 -0.0126772,-0.0100866 -0.0100827,-0.00784645 -0.0115433,-0.00842126 -0.0219173,-0.0160433l-0.0486063 -0.0349212c-0.0489882,-0.0321653 -0.00857086,-0.012752 -0.0839527,-0.0451141l-0.0579763 0.0711023c-0.00104724,0.00115748 -0.00262598,0.0027559 -0.00370079,0.0038937 -0.00946062,0.0100236 -0.0125197,0.0125276 -0.0221496,0.0234055l-0.0142401 0.016122c-0.00101575,0.00120079 -0.00251181,0.00287008 -0.00350787,0.00409055l-0.0654645 0.0787874z"/>
   <path id="_341426512" class="fil0" d="M2.106 6.93193l0.668141 0c0.0369016,0 0.0433149,-0.00807874 0.0679133,-0.023189 0.029126,-0.0178976 0.0375433,-0.016437 0.0600905,-0.0538031 0.0448189,-0.074307 0.0353582,-0.0894527 0.00292126,-0.152638 -0.00633858,-0.0123386 -0.00431102,-0.0143937 -0.0127874,-0.0251732 -0.019,-0.0241496 -0.0735078,-0.044685 -0.102957,-0.0488976l-0.683322 0c-0.0575197,0 -0.080744,0.0173779 -0.111468,0.0479764 -0.00110236,0.00110236 -0.00269685,0.0026811 -0.00378346,0.00381102 -0.0214212,0.0222756 -0.0155669,0.0137992 -0.0234764,0.0372756 -0.00981102,0.0291023 -0.0190039,0.0525512 -0.0121417,0.0774173 0.0197205,0.0714252 0.0207756,0.0809488 0.0866811,0.117898 0.0227126,0.0127323 0.0309803,0.0193228 0.0641889,0.0193228z"/>
   <path id="_341426680" class="fil0" d="M1.40749 3.65198c0,0.0307834 0.0139094,0.0689055 0.028374,0.0930984 0.0250275,0.0418504 0.116067,0.0760826 0.172291,0.108642 0.027622,0.0159882 0.0182126,0.00517323 0.0462204,0.0145079 0.0408819,0.0136339 0.0151535,0.018315 0.0775393,0.0287598 0.0126653,0.00212598 0.0274606,0.00562204 0.0409212,0.0122323 0.0571771,0.0280512 0.0739645,0.016185 0.150905,0.0237205 0.103528,0.0101496 0.0509252,0.0151457 0.182256,0.0151457 0.00598819,0 0.0824448,-0.0241338 0.0943897,-0.0422756 0.0124055,-0.0188464 0.0422756,-0.0941732 0.0422756,-0.117169 0,-0.174248 -0.195303,-0.139024 -0.322043,-0.156283 -0.0487283,-0.00663779 -0.0588897,0.00306693 -0.0967244,-0.0171575 -0.0568779,-0.0304055 -0.045563,-0.00751181 -0.0877559,-0.0337244 -0.017189,-0.0106811 -0.00240945,-0.00402756 -0.0188661,-0.0115079 -0.0283031,-0.0128661 -0.0139016,0.000637795 -0.0428937,-0.0178425 -0.0337795,-0.0215394 -0.0856456,-0.0443976 -0.137819,-0.0443976 -0.0379882,0 0.0172362,-0.00673622 -0.0458504,0.0224803 -0.0462913,0.0214409 -0.0832204,0.082744 -0.0832204,0.121772z"/>
   <path id="_341427544" class="fil0" d="M2.89562 0.288512l0 0.493512c0,0.0202283 0.0215118,0.101976 0.029189,0.115059 0.0152716,0.0260354 0.0767165,0.0562283 0.0922913,0.059563 0.0497441,0.0106811 0.0945472,-0.00588976 0.106929,-0.0145433 0.00131102,-0.000917322 0.00298819,-0.00237795 0.00425984,-0.00332677l0.00846456 -0.00672834c0.00124016,-0.000984251 0.00305118,-0.00231102 0.00426771,-0.00332677l0.0302205 -0.0305157c0.0468937,-0.100921 0.0280787,-0.48159 0.0280787,-0.602094 0,-0.0299527 -0.00383858,-0.0393858 -0.0102835,-0.0656456 -0.000602362,-0.00245669 -0.00688189,-0.0268386 -0.00817322,-0.0297992 -0.0138976,-0.0317953 9.05511e-005,-0.00435827 -0.0156811,-0.0222756 -0.00146457,-0.00165748 -0.00583858,-0.00623228 -0.00735433,-0.00782677 -0.0428661,-0.0452244 -0.0876496,-0.0490866 -0.140728,-0.0490866 -0.0144724,0 -0.0264527,0.0141929 -0.0434094,0.0249291l-0.0301417 0.023c-0.00111024,0.00109449 -0.00264567,0.00274409 -0.00372047,0.00386614 -0.00108661,0.00112992 -0.00265354,0.00273622 -0.00372047,0.00388189 -0.0282834,0.0305984 -0.0178661,0.0300039 -0.0329842,0.0809055 -0.00553149,0.018626 -0.00750393,-0.00522834 -0.00750393,0.0304527z"/>
   <path id="_341427736" class="fil0" d="M4.79373 1.52608l0 0.470744c0,0.0326575 0.00906692,0.0408897 0.0140866,0.0694252 0.00790157,0.044811 0.00101181,0.0380236 0.0311338,0.0675708l0.0113622 0.0114055c0.0181772,0.0154961 0.0826102,0.0414016 0.0952716,0.0414016 0.0502008,0 0.087937,-0.0321929 0.115268,-0.0593543 0.0250669,-0.0249016 0.0314882,-0.0568976 0.0365787,-0.107673l0 -0.516295c0,-0.0220512 -0.0165354,-0.0809842 -0.0256181,-0.0958543l-0.0730866 -0.0559921 -0.0911102 0c-0.0737283,0 -0.113886,0.112299 -0.113886,0.174622z"/>
   <path id="_341427568" class="fil0" d="M3.16894 6.77249c0,0.0553307 -8.66141e-005,0.0387126 0.0341693,0.0949015 0.023189,0.038059 0.0909645,0.0598346 0.125276,0.0645393l0.394811 0c0.030122,0 0.039063,-0.00497638 0.0587913,-0.0171338 0.0649094,-0.0400039 0.12576,-0.106303 0.0863031,-0.188606 -0.0264724,-0.0552323 -0.0539921,-0.0870944 -0.129913,-0.0979606 -0.000232283,-3.54331e-005 -0.433193,-0.0111575 -0.480854,0.0126535 -0.00984645,0.00492126 -0.0382008,0.026496 -0.043563,0.0323622 -0.0229764,0.0251181 -0.0450197,0.0640905 -0.0450197,0.099244z"/>
   <path id="_341427256" class="fil0" d="M4.79373 0.698507l0 0.349248c0,0.0386142 0.0178819,0.109791 0.0413582,0.133276 0.00111024,0.00110236 0.00274409,0.00263779 0.0038622,0.00373228l0.0113622 0.0114055c0.0181772,0.0154961 0.0826102,0.0414016 0.0952716,0.0414016 0.0502008,0 0.087937,-0.0321929 0.115268,-0.0593543 0.0250669,-0.0249016 0.0314882,-0.0568976 0.0365787,-0.107681l0 -0.379622c0,-0.0426063 -0.0176102,-0.0905472 -0.0485118,-0.118516 -0.0509724,-0.0461378 -0.0867992,-0.0409291 -0.141303,-0.0409291 -0.0262638,0 0.00487795,-0.00674409 -0.0434842,0.0248504 -0.0195472,0.0127677 -0.021189,0.0146339 -0.0351771,0.0331535 -0.0145197,0.0192087 -0.0352244,0.083433 -0.0352244,0.109035z"/>
   <path id="_341427640" class="fil0" d="M5.60613 2.71811l0 0.402397c0,0.026311 0.00894881,0.030311 0.018689,0.0496456 0.0174488,0.0346575 0.0365512,0.0796141 0.11039,0.0946181 0.0549606,0.0111535 0.0982559,-0.00990157 0.133677,-0.0485512 0.0126614,-0.0138189 0.0295512,-0.0402126 0.0333504,-0.0577519l0 -0.485913c0,-0.0275315 -0.0197283,-0.0511141 -0.0410512,-0.0728346l-0.0804212 -0.0410551c-0.0209921,-0.00490157 -0.0468031,0.00195669 -0.0604763,0.00785826l-0.00988188 0.00529921c-0.0285551,0.0144842 -0.0292795,0.0130197 -0.0473228,0.0286063 -0.0300315,0.0259527 -0.0569527,0.0761614 -0.0569527,0.117681z"/>
   <path id="_341427304" class="fil0" d="M3.70801 0.129071l0 0.280925c0,0.0219331 0.0343268,0.0846181 0.0355984,0.0858818l0.0782874 0.0507834 0.0835236 0c0.0299527,0 0.0313149,-0.00981102 0.0536338,-0.0298819l0.00818897 -0.00700393c0.0417519,-0.0395275 0.0412047,-0.0607992 0.0444685,-0.137748 0.00182283,-0.0430708 0.00355118,-0.261331 -0.0116929,-0.299594l-0.0566378 -0.072433 -0.167039 0c-0.00603543,0.0551614 0.012374,-0.0299055 -0.0548976,0.0893543 -0.00931102,0.0165079 -0.0134331,0.0157283 -0.0134331,0.0397165z"/>
   <path id="_341427328" class="fil0" d="M0.602685 1.89052c0,0.0845118 -0.0153425,0.317854 0.0180512,0.361579 0.0497952,0.0652204 0.103429,0.0635984 0.164169,0.0635984 0.016059,0 0.079874,-0.0444803 0.0981141,-0.0992873 0.0300748,-0.0903661 0.0157716,-0.227831 0.0157716,-0.32589 0,-0.0101496 -0.0278071,-0.0850196 -0.0469094,-0.0973503l-0.104937 -0.0393149c-0.0446693,0 -0.0766259,0.0120709 -0.100937,0.0357362 -0.0320079,0.0311614 -0.0433228,0.0403267 -0.0433228,0.100929z"/>
   <path id="_341428144" class="fil0" d="M3.70801 0.81998c0,0.0862519 -0.0152716,0.187197 0.0679291,0.250964 0.0491141,0.0376378 0.146858,0.0287086 0.18976,-0.0160512 0.0531417,-0.0554173 0.0460118,-0.110193 0.0460118,-0.204539 0,-0.0895472 -0.0157441,-0.139374 -0.0887401,-0.169405 -0.0399803,-0.0164567 -0.0527283,-0.0332953 -0.100807,-0.0125433 -0.00160236,0.000688976 -0.00344094,0.00183858 -0.005,0.00258268l-0.0147795 0.00800787c-0.0499842,0.0257362 -0.094374,0.0754881 -0.094374,0.140984z"/>
   <path id="_341428504" class="fil0" d="M2.09082 0.660547c0,0.0954763 -0.0162874,0.201457 0.0332874,0.24763 0.0631023,0.0587716 0.073685,0.0484685 0.148929,0.0484685 0.0354055,0 0.0777874,-0.0404252 0.0903582,-0.0690748 0.0293976,-0.0669527 0.0455354,-0.161693 0.0231811,-0.234275 -0.00842913,-0.0273701 -0.00656299,-0.0117756 -0.0199882,-0.0407519 -0.0197992,-0.042748 -0.0152441,-0.0319685 -0.0584409,-0.0630393 -0.0317441,-0.0228425 -0.104535,-0.0300512 -0.14626,-0.000106299 -0.0367244,0.0263464 -0.0710669,0.0561535 -0.0710669,0.11115z"/>
   <path id="_341428264" class="fil0" d="M5.60613 3.51531c0,0.0912244 -0.0173268,0.168075 0.0400039,0.240921 0.0365984,0.046496 0.141886,0.0669763 0.188783,0.0334212 0.0106181,-0.0076063 0.00157874,-0.0014252 0.0124842,-0.0102953 0.0017126,-0.00139764 0.00685826,-0.00520078 0.00851968,-0.00667322l0.0240669 -0.0290709c0.00135433,-0.00176772 0.00559449,-0.00646456 0.00694094,-0.00825196 0.0280433,-0.0373582 0.0153071,-0.172157 0.0153071,-0.250417 0,-0.0524882 -0.0759724,-0.100402 -0.0986968,-0.106299l-0.0835236 0c-0.0124291,0 -0.0674685,0.0392244 -0.0739803,0.0474921 -0.0108504,0.0137716 -0.0399055,0.0700157 -0.0399055,0.0891732z"/>
   <path id="_341428600" class="fil0" d="M2.09082 0.121476c0,0.127563 -0.0236575,0.225279 0.0710669,0.278189 0.0360472,0.0201338 0.0989842,0.0279331 0.133094,0.00949606 0.0518307,-0.0280157 0.0572401,-0.0441929 0.0740196,-0.0778385 0.000759842,-0.0015315 0.00183858,-0.00344094 0.00263386,-0.00494882 0.0095433,-0.0181142 0.00143701,0.00161417 0.00856692,-0.0142126 0.014937,-0.033189 0.015252,-0.143213 0.00935039,-0.178134 -0.00765748,-0.0453307 -0.00251968,-0.021626 -0.0169646,-0.0513661 -0.0276653,-0.0569685 -0.00641338,-0.0247913 -0.053996,-0.0826614l-0.159441 0c-0.0115315,0.0431693 -0.0683307,0.038248 -0.0683307,0.121476z"/>
   <path id="_341428672" class="fil0" d="M5.60613 4.20623c0,0.146342 -0.014374,0.125602 0.0292441,0.20613l0.0311063 0.0372244c0.0663779,0.0615866 0.107496,0.0396614 0.151776,0.0219331 0.11239,-0.0450078 0.0839803,-0.160752 0.0839803,-0.318437 0,-0.0181142 -0.0458937,-0.0680984 -0.06087,-0.0757834 -0.028563,-0.0146614 -0.0738228,-0.0320512 -0.10387,-0.0213425 -0.0511614,0.0182323 -0.0543189,0.0103228 -0.0878661,0.0495197 -0.0195118,0.0228031 -0.0435,0.0613346 -0.0435,0.100756z"/>
   <path id="_341428096" class="fil0" d="M4.79373 2.59662c0,0.0995118 7.87401e-006,0.23224 0.12148,0.258149l0.0683346 0c0.0309212,0 0.0302559,-0.00903937 0.0455078,-0.0228228 0.012063,-0.0108858 0.0249685,-0.0186338 0.0367795,-0.0315551 0.0422008,-0.0461653 0.0358779,-0.197976 0.0227205,-0.255638 -0.00452756,-0.0198661 -0.00360236,-0.0349842 -0.016248,-0.0520826l-0.0438071 -0.0397086c-0.0439212,-0.0323661 -0.0422441,-0.0233779 -0.120882,-0.0233779 -0.0318071,0 -0.000188976,-0.00223622 -0.0205,0.0098622 -0.0822952,0.0490078 -0.0693819,0.0699015 -0.0857913,0.126799 -0.00551574,0.0191024 -0.00759448,-0.00630315 -0.00759448,0.030374z"/>
   <path id="_341429128" class="fil0" d="M0.602685 2.56625c0,0.0432716 -0.00485039,0.172941 0.0070748,0.205527 0.00537008,0.014689 0.00263779,0.00849212 0.0109764,0.0193898l0.0347126 0.0336181c0.0406693,0.0365787 0.122181,0.0445039 0.165756,0.0131378 0.0898188,-0.0646574 0.0775866,-0.139409 0.0775866,-0.25648 0,-0.0226063 -0.0238701,-0.0772559 -0.0353149,-0.0937559 -0.0120079,-0.0173071 -0.0173701,-0.0217008 -0.0350787,-0.033252 -0.0517244,-0.0337362 -0.0426693,-0.0248464 -0.127008,-0.0248464 -0.00998031,0 -0.0987047,0.0404764 -0.0987047,0.136661z"/>
  </g>
 </g>
</svg>
