<?xml version="1.0" encoding="UTF-8"?>
<!DOCTYPE svg PUBLIC "-//W3C//DTD SVG 1.1//EN" "http://www.w3.org/Graphics/SVG/1.1/DTD/svg11.dtd">
<!-- Creator: CorelDRAW -->
<svg xmlns="http://www.w3.org/2000/svg" xml:space="preserve" width="6.94666in" height="6.94666in" style="shape-rendering:geometricPrecision; text-rendering:geometricPrecision; image-rendering:optimizeQuality; fill-rule:evenodd; clip-rule:evenodd"
viewBox="0 0 6.94666 6.94666"
 xmlns:xlink="http://www.w3.org/1999/xlink">
 <defs>
  <style type="text/css">
   <![CDATA[
    .fil0 {fill:#010101}
    .fil2 {fill:#3B3B3B}
    .fil1 {fill:#969696}
   ]]>
  </style>
 </defs>
 <g id="Layer_x0020_1">
  <metadata id="CorelCorpID_0Corel-Layer"/>
  <g id="_335833680">
   <path id="_276863752" class="fil0" d="M4.45628 1.04176c0.0151417,0.00125591 0.016748,0.00151575 0.0172362,0.0174016 0.000318898,0.0102598 -0.00158661,0.0207402 -0.00375984,0.0279921 0.00184646,0.0396496 0.00825984,0.0349449 0.013378,0.0599764 0.00153937,0.00752362 0.000913386,0.0138898 0.00228346,0.0220315 0.00317717,0.0188425 0.00979134,0.0214646 0.0120787,0.0365472 0.00262205,0.0172441 0.00451969,0.0275433 0.0103307,0.0417717 0.00587008,0.014374 0.00273622,0.0268071 0.00741339,0.0412126 0.00548031,0.0168937 0.00854724,0.0212992 0.0109921,0.0411102 0.0021378,0.0173268 0.0101339,0.0238386 0.0125197,0.0361024 0.00479134,0.0246457 -0.00175984,0.0198504 0.00911024,0.0429882 0.0094685,0.0201417 0.00214961,0.0216693 0.00772441,0.0409055 0.00507874,0.0175276 0.0095748,0.0111299 0.0118858,0.0367402 0.0015,0.0165748 0.00601575,0.0241102 0.0108543,0.0377717 0.00494488,0.0139606 0.00153937,0.0275236 0.0083189,0.0437795 0.00527559,0.0126496 0.00704331,0.024374 0.00944882,0.0391811 0.00238189,0.014685 0.0104291,0.0229213 0.0125276,0.0395709 0.0031378,0.0249094 0.00148819,0.018874 0.00955512,0.0390709 0.0119528,0.0299016 0.00601575,0.105827 0.00487008,0.137634 -0.000909449,0.0252835 -0.0184213,0.0708386 -0.0303504,0.094689l-0.0132756 0.0214567c-0.00367717,0.00598031 -0.00274409,0.00385827 -0.00556299,0.00833071 -0.0046063,0.00729921 -0.00556299,0.011878 -0.00959055,0.0181969 -0.0188307,0.0295079 -0.0379724,0.0625551 -0.0585866,0.0907638 -0.00390157,0.00533858 -0.000866142,0.000492126 -0.00450787,0.00591732l-0.178791 0.283157c-0.00408661,0.00611417 -0.00545276,0.00916142 -0.00922835,0.0150866 -0.0199843,0.0313543 -0.0376063,0.0635079 -0.0588071,0.0940197 -0.027189,0.039122 -0.0512598,0.0810906 -0.0761339,0.121846l-0.162465 0.257807c-0.000425197,0.000598425 -0.00102756,0.0014252 -0.00144882,0.00202362l-0.195571 0.308063c-0.00359055,0.00508661 -0.00608661,0.0100236 -0.0091378,0.0151772l-0.0618701 0.0909567c-0.0162244,-0.00433465 -0.0188189,-0.0141063 -0.0303386,-0.0252402 -0.00306299,-0.00295669 -0.00438976,-0.00392913 -0.00731102,-0.00657874l-0.0227087 -0.0224449c-0.00348819,-0.0035315 -0.00341732,-0.00345669 -0.00694488,-0.00694882l-0.0173898 -0.0173425c-0.000503937,-0.000503937 -0.00122835,-0.00123622 -0.00173228,-0.00174409l-0.365516 -0.363882c-0.0005,-0.000507874 -0.00122835,-0.00123622 -0.00173228,-0.00174016l-0.0538543 -0.0538228c-0.000503937,-0.000503937 -0.00123622,-0.00122441 -0.00174409,-0.00172835 -0.000712598,-0.000708661 -0.00280315,-0.0027126 -0.00351575,-0.00342913l-0.0321181 -0.033874c-0.000712598,-0.000716535 -0.00270866,-0.00281102 -0.00342126,-0.00352756l-0.0295 -0.0295433c-0.00338976,-0.00338976 -0.00388189,-0.00372441 -0.00702756,-0.00686614l-0.0573071 -0.057315c-0.00272835,-0.00275197 -0.00398031,-0.00411417 -0.00688976,-0.00700394l-0.0599724 -0.058122c-0.00290945,-0.00288976 -0.00415748,-0.00424803 -0.00688976,-0.007l-0.0645236 -0.0639882c-0.0655276,-0.0595827 -0.184142,-0.183197 -0.256717,-0.257339l-0.0712835 -0.071122c-0.000507874,-0.000503937 -0.00125984,-0.00120472 -0.00176378,-0.0017126l-0.0720669 -0.073811c-0.00573228,-0.00573228 -0.00816142,-0.00816142 -0.0138937,-0.0138937 -0.00314173,-0.00314567 -0.00348031,-0.0036378 -0.00686614,-0.00702756l-0.0156496 -0.0156102c-0.000507874,-0.0005 -0.00126378,-0.00119685 -0.00177165,-0.00170079 -0.000507874,-0.0005 -0.00125197,-0.0012126 -0.00175591,-0.00171654l-0.0416496 -0.0417126c-0.000515748,-0.000492126 -0.00125197,-0.00120866 -0.00177165,-0.00169685l-0.0712205 -0.071189c-0.000688976,-0.00073622 -0.00266929,-0.00285039 -0.00335039,-0.00359843 -0.00774016,-0.0085 -0.00691732,-0.00781102 -0.0133071,-0.0179528 -0.00586614,-0.00931496 -0.00733858,-0.00887795 -0.0118661,-0.0159213l-0.0298031 -0.0570276c-0.00301575,-0.00956693 -0.000822835,-0.0119921 -0.00514173,-0.0226457 -0.0144213,-0.0355591 -0.00847638,-0.0364331 -0.0128346,-0.0740197 -0.00252756,-0.021815 0.00319685,-0.0878819 0.00992126,-0.103681 0.00804331,-0.0188937 0.00434646,-0.0318268 0.0109764,-0.0480748 0.0148504,-0.0363937 0.00412992,-0.026437 0.0194528,-0.0673819 0.00377165,-0.0100787 0.00320866,-0.0144685 0.00446457,-0.0267953 0.0023622,-0.023252 0.0110079,-0.0221496 0.0133189,-0.042252 0.00437402,-0.0379961 0.0088189,-0.0325354 0.0147677,-0.072063 0.0017126,-0.0113701 0.00298031,-0.0101299 0.00754331,-0.020248 0.00824409,-0.0182756 0.00343307,-0.0299016 0.0107165,-0.0483268 0.00307087,-0.00777165 0.00569291,-0.0107362 0.00766142,-0.020126 0.00512205,-0.0244094 0.00174016,-0.0198307 0.0109921,-0.0445787 0.0037874,-0.0101339 0.00301969,-0.0144843 0.00444488,-0.026815 0.00219685,-0.0189724 0.0107441,-0.0237047 0.0132047,-0.0458465 0.00247244,-0.0222559 0.00804331,-0.0246142 0.0125472,-0.0465 0.00451181,-0.0219252 0.00254331,-0.0224606 0.0107913,-0.0447795 0.00698425,-0.0189055 0.00227953,-0.0294409 0.0106929,-0.0483543 0.00939764,-0.0211378 0.0041378,-0.0264331 0.00979528,-0.0457795 0.00369291,-0.012622 0.0045315,-0.00545276 0.00890945,-0.018874 0.00527559,-0.0161535 0.0013937,-0.012311 0.0134134,-0.0456339l0.0142559 -0.041315c0.00849606,-0.0212402 0.0144094,-0.0414843 0.0248425,-0.0619921 0.00356299,-0.00700394 0.00451575,-0.011878 0.0082126,-0.0195748 0.0152598,-0.0317717 0.0352441,-0.0635591 0.0520197,-0.0938583 0.019689,-0.0355591 0.0447559,-0.0684567 0.0697559,-0.100441 0.00552756,-0.0070748 0.00677559,-0.00904724 0.0124488,-0.0153386 0.000677165,-0.000748031 0.00264961,-0.00287008 0.00333858,-0.0036063 0.000488189,-0.000523622 0.0012126,-0.00125197 0.00170079,-0.00177165l0.0665039 -0.0724331c0.0215433,-0.0216693 0.0456772,-0.0394409 0.0688031,-0.0597047 0.00053937,-0.000472441 0.00127165,-0.00119291 0.00181496,-0.00166142l0.00376772 -0.0031811c0.000574803,-0.000444882 0.00141339,-0.00103937 0.002,-0.00147244l0.0326732 -0.0229016c0.0170236,-0.0116693 0.0334331,-0.0255039 0.0515787,-0.035252 0.025811,-0.0138661 0.0484606,-0.0306024 0.0754606,-0.0426339 0.0849055,-0.0378268 0.117886,-0.055185 0.208043,-0.0802402 0.0160669,-0.00446457 0.0317323,-0.00311024 0.0474843,-0.00809055 0.0232598,-0.00735433 0.0263386,-0.00595669 0.050122,-0.0089252 0.0354094,-0.00441732 0.0678661,-0.0131457 0.105138,-0.0129528 0.0799488,0.000413386 0.0841142,-0.0048189 0.161193,0.00904724 0.0170512,0.00307087 0.0367362,0.00406299 0.0541654,0.00487795l0.0928189 0.0218031c0.0294488,0.0108228 0.0543898,0.0133504 0.0860787,0.0285394 0.0192008,0.00920472 0.0421417,0.0131063 0.0605906,0.0227717l0.0390709 0.0199764c0.00838976,0.00399606 0.0103661,0.00449606 0.0187205,0.00906693 0.0360394,0.0197244 0.0745394,0.0410157 0.107598,0.0660669 0.00815748,0.0061811 0.00783071,0.00579134 0.0165354,0.011252 0.00968504,0.00606693 0.0091063,0.00666142 0.017748,0.0135118l0.0439606 0.0359252c0.000523622,0.000484252 0.00125197,0.00120866 0.00177559,0.00170079l0.0167756 0.0144803c0.0212165,0.0163031 0.0407717,0.0362913 0.0583898,0.0562323l0.076622 0.0970433c0.0147638,0.0187953 0.028437,0.0399016 0.0401496,0.0605748 0.00214173,0.00377953 0.00426772,0.00685827 0.00670866,0.0106575 0.0223504,0.034815 0.0420984,0.074248 0.058315,0.111882 0.00345276,0.00801575 0.00422441,0.0128504 0.00740551,0.020378 0.0045748,0.0108228 0.00462992,0.0102087 0.00872835,0.0225354 0.00282283,0.00848819 0.00463386,0.0105236 0.00854724,0.0192362 0.00964567,0.0214567 0.0181024,0.0680394 0.0275079,0.0871142 0.00709055,0.014374 0.00344882,0.00810236 0.00538976,0.0258701 0.00237008,0.0216732 0.0118937,0.0286693 0.0133346,0.0454724zm-2.18427 -1.04176l0.063122 0c0.711661,0.00155906 1.42333,5.11811e-005 2.13498,0l0.0347913 0 0.0026378 0 0.171634 0c0.0143583,0.000870079 0.0201102,0.00444488 0.033685,0.00738976 0.0139094,0.00301575 0.0219961,0.00158661 0.0382835,0.00339764 0.0139843,0.00155512 0.0189803,0.00682677 0.0310354,0.0106417 0.0124449,0.00394094 0.0238504,0.000992126 0.0364528,0.00522835 0.0169685,0.00569685 0.00962598,0.00859843 0.0334331,0.0117244 0.0121811,0.00159843 0.0512323,0.0167244 0.0638465,0.0229843 0.0114961,0.00570472 0.0191772,0.00517323 0.0306654,0.0110157 0.0281693,0.0143228 0.0603071,0.0246535 0.0867913,0.0417205l0.0129724 0.00786614c0.00682283,0.0034252 0.00629921,0.00284252 0.0133898,0.00744882l0.101157 0.0690354c0.0102283,0.0075748 0.0153937,0.0130866 0.0247677,0.0203898 0.0388976,0.0303071 0.0767953,0.0654173 0.10813,0.10374 0.00561024,0.00685827 0.00507087,0.00622047 0.0113543,0.0129606 0.0197953,0.0212402 0.0354646,0.0460394 0.0538583,0.0677087 0.00046063,0.000547244 0.00118504,0.00127953 0.00164173,0.00183071 0.0180748,0.0218386 0.0350118,0.0484646 0.0480394,0.0735276l0.0330709 0.0607087c0.00506299,0.00802362 0.00370079,0.00497244 0.00712992,0.0137126 0.011437,0.0291811 0.0285984,0.0591575 0.0382638,0.090248l0.0268622 0.080811c0.00148425,0.00470472 0.00269685,0.0124016 0.00372441,0.0171142l0.0678346 0.230874c0.00333071,0.0107756 0.0061378,0.0241614 0.00996457,0.035189 0.0111496,0.0321181 0.0172362,0.0696299 0.0288268,0.099685l0.0198937 0.0669409c0.0111732,0.0448858 0.0242992,0.087437 0.0385669,0.131622 0.00823228,0.0254961 0.0302559,0.11565 0.0390236,0.134646 0.00804331,0.0174291 0.00288583,0.0167323 0.00779921,0.0338819 0.00428346,0.0149488 0.00851969,0.0115512 0.0112795,0.0303976 0.00365748,0.0249606 0.00407087,0.0168858 0.0105945,0.0345591 0.00503543,0.0136575 0.00185433,0.0223268 0.00621654,0.0354646 0.00390945,0.0117835 0.00867323,0.0161575 0.0106811,0.0309961 0.00181102,0.0133622 0.00109843,0.0296732 0.00335433,0.0383307 0.00422835,0.0162323 0.00625197,0.0152402 0.0095,0.0356496 0.00347638,0.0218228 0.00545669,0.100138 0.00537795,0.119661l-0.00363386 0.0833622c0.000137795,0.0337008 0.00191339,0.0543425 -0.00684646,0.0799882 -0.00676378,0.0197874 -0.00666142,0.0518898 -0.0149921,0.0718425 -0.00724409,0.0173465 -0.00348031,0.0158583 -0.00670472,0.0349724l-0.0327008 0.095815c-0.00340157,0.00704331 -0.00369685,0.00635039 -0.00649606,0.0143425l-0.0180315 0.0444882c-0.0245079,0.0517598 -0.0544291,0.101827 -0.0859646,0.15022l-0.0606969 0.0921299c-0.00620079,0.010315 -0.00974409,0.0145512 -0.0164764,0.0252047 -0.00459055,0.00725591 -0.00444882,0.00644094 -0.00850787,0.0123346l-0.0596654 0.089685c-0.00624409,0.00987402 -0.0103858,0.0160118 -0.0164606,0.0252165 -0.00418504,0.00633858 -0.00477165,0.00577559 -0.00909449,0.011752l-0.026248 0.0397402c-0.00674409,0.00885039 -0.00249606,0.00351575 -0.00806299,0.0127795l-0.0768858 0.114146c-0.00523228,0.00679921 -0.00483465,0.00744882 -0.00962992,0.014685l-0.0251299 0.0373898c-0.00458268,0.00723228 -0.00540551,0.00780315 -0.0095748,0.0147362l-0.0505866 0.0744567c-0.00248819,0.00345276 0.000429134,-0.0014252 -0.00433465,0.00608268l-0.0263976 0.0395984c-0.00291339,0.00433858 -0.00188583,0.00295669 -0.0039252,0.00649213l-0.0803504 0.114157c-0.00561024,0.00514173 -0.0169252,0.0144921 -0.0233583,0.0183189 -0.00873228,0.00519685 -0.0207244,0.00749213 -0.031311,0.0104213 -0.0209921,0.00580315 -0.0326969,0.00302756 -0.0508071,-0.00222835 -0.00702756,-0.00203937 -0.0100787,-0.00173228 -0.0170118,-0.00387402 -0.0186339,-0.00576378 -0.0368819,-0.0237008 -0.0481457,-0.038689l-0.00807874 -0.0127598c-0.000393701,-0.000649606 -0.000917323,-0.00151969 -0.00130709,-0.00216535 -0.00518898,-0.00857874 -0.00353543,-0.00252362 -0.00726378,-0.0135787 -0.00772835,-0.0229409 -0.00749213,-0.048 -0.00193307,-0.0717165 0.00648031,-0.0276339 0.0278701,-0.0452205 0.0396457,-0.0680315 0.00687008,-0.0133031 0.017311,-0.0235394 0.0253583,-0.0371654l0.0513307 -0.0771811c0.00603937,-0.00832677 0.00315354,-0.00372441 0.00773228,-0.0131063 0.010063,-0.0206102 0.0380118,-0.0555236 0.052,-0.0765118 0.00366929,-0.00550394 0.00343701,-0.00664567 0.00769291,-0.0131496 0.00619291,-0.00946063 0.0125197,-0.0169685 0.0187402,-0.0264134l0.148953 -0.222693c0.00382283,-0.00528346 0.000429134,-3.93701e-006 0.00444488,-0.00597638l0.15422 -0.234791c0.0104449,-0.0161654 0.0224764,-0.0364016 0.0298504,-0.0535079 0.0056378,-0.0130787 0.00912992,-0.0164094 0.0139291,-0.027752l0.0195591 -0.046437c0.00823228,-0.0187598 0.0338622,-0.0972559 0.0360079,-0.113343 0.00204331,-0.0153228 0.00208268,-0.0220276 0.00485039,-0.0368307 0.00537795,-0.0287835 0.00950394,-0.0411929 0.00950394,-0.0730197 0.0159567,-0.000480315 0.0170591,-0.00180709 0.0183858,-0.0178071l0.000515748 -0.0736969c-0.000181102,-0.0201142 0.000708661,-0.0212441 -0.0189016,-0.0224449 0,-0.0389016 -0.00688583,-0.0434252 -0.0115039,-0.0768307 -0.00346457,-0.0250354 -0.0105197,-0.0493386 -0.0158622,-0.0744449 -0.00377559,-0.0177323 -0.00749213,-0.0161732 -0.0112559,-0.0338976 -0.00127165,-0.00599213 -0.00198819,-0.0134606 -0.00390945,-0.0204055 -0.00892126,-0.032248 -0.0299606,-0.0895433 -0.0371378,-0.119161l-0.0191496 -0.0711575c-0.0045748,-0.0136024 -0.00700787,-0.0183071 -0.0109213,-0.0342323 -0.00367323,-0.0149449 -0.00645276,-0.0209173 -0.0103937,-0.0347598 -0.0139173,-0.0488937 -0.0534921,-0.176657 -0.0608228,-0.210098 -0.00778346,-0.0355197 -0.0223661,-0.0693268 -0.0299685,-0.105488 -0.00405118,-0.0192598 -0.00791732,-0.018874 -0.0109803,-0.0341732 -0.00196063,-0.00979528 -0.0013622,-0.012748 -0.00381102,-0.0205039 -0.00343701,-0.010874 -0.00287008,-0.0058189 -0.00637008,-0.0144685 -0.00500394,-0.0123661 -0.00437008,-0.022811 -0.00912205,-0.0360354 -0.00281496,-0.00783858 -0.00497638,-0.00930315 -0.00722047,-0.0170906 -0.0084685,-0.0294173 -0.0134685,-0.0600512 -0.0248543,-0.0862913 -0.0106299,-0.0244961 -0.0152913,-0.0534173 -0.027874,-0.0763268l-0.0252953 -0.0545906c-0.000405512,-0.000614173 -0.00107874,-0.00137402 -0.00148425,-0.00198819 -0.000401575,-0.000622047 -0.00105118,-0.00140157 -0.00144094,-0.00203543 -0.00399606,-0.00651181 -0.000826772,-0.00105512 -0.00355118,-0.00686614l-0.0610197 -0.0952795c-0.0130669,-0.0182205 -0.0268661,-0.0321535 -0.0417047,-0.0486024 -0.000677165,-0.000751969 -0.00267323,-0.00284646 -0.00335827,-0.00359055 -0.0205709,-0.0223701 -0.0418976,-0.043752 -0.0652087,-0.0633031l-0.0131457 -0.0111693c-0.0202756,-0.017689 -0.0416496,-0.0312362 -0.064563,-0.0465827 -0.00766929,-0.00513386 -0.00564567,-0.00488583 -0.0143661,-0.00994488l-0.0420984 -0.0238937c-0.0335512,-0.020378 -0.125768,-0.0579094 -0.161933,-0.0638346 -0.0092126,-0.00151181 -0.0124449,-0.00140157 -0.0203543,-0.00396063 -0.00847244,-0.00274016 -0.00422835,-0.00290551 -0.0150118,-0.00582677 -0.0244449,-0.00662205 -0.0558346,-0.00627953 -0.0784409,-0.0118701 -0.0405236,-0.0100197 -0.384102,-0.00411811 -0.443937,-0.00411811l0.0183661 0.0163661c0.0293622,0.0209803 0.0598465,0.045622 0.0857402,0.070563 0.0108346,0.010437 0.020752,0.0188189 0.0322205,0.0302953l0.0610906 0.0639528c0.0104685,0.0113583 0.0191496,0.0223858 0.0283504,0.0341693l0.0640157 0.0853346c0.0231024,0.0321457 0.0433189,0.0664843 0.0617047,0.101543l0.0221339 0.0403858c0.0154331,0.0279409 0.0247283,0.0576654 0.0385315,0.0865079 0.0059685,0.0124685 0.00436614,0.00894882 0.00847244,0.0227874 0.00327559,0.0110354 -0.00015748,0.00251575 0.00509449,0.0122717 0.0121496,0.0225709 0.0204764,0.0666654 0.0280315,0.0831181 0.00718504,0.0156535 0.00651969,0.0344882 0.0133386,0.0491811 0.00440945,0.0095 0.00691732,0.0104488 0.00832677,0.0229291 0.00179921,0.0158701 -0.0014685,0.0141417 0.00381496,0.0274488 0.0126496,0.0318622 0.00576772,0.0265551 0.0120433,0.0504764 0.00221654,0.00846063 0.00655118,0.0124882 0.00950787,0.021748 0.0032126,0.010063 0.0013937,0.0151654 0.00324803,0.0280118 0.00204724,0.0141732 0.00509843,0.0117008 0.00920866,0.0220512 0.00396457,0.00998425 0.00335039,0.0146732 0.00424409,0.0270197 0.0013189,0.0181732 0.00111417,0.0111339 0.00740945,0.0238504 0.00895276,0.0180866 0.00344094,0.0323307 0.0116772,0.0508425 0.00666142,0.0149803 0.0067126,0.036374 0.0121772,0.0503425 0.00958268,0.0245118 0.00650787,0.0297913 0.0120394,0.0504803 0.00666142,0.0249094 0.00741339,0.0143543 0.0127717,0.049748 0.00299213,0.0197835 0.0112205,0.0186339 0.013437,0.0490827 0.00166142,0.0227795 0.0107323,0.0254528 0.0133307,0.049189 0.00225591,0.0206181 0.00634252,0.0226339 0.0107795,0.0378465 0.000370079,0.00126772 0.00225984,0.0112717 0.00230709,0.0115866 0.00197244,0.0129488 0.00092126,0.0170197 0.00440551,0.0268583 0.0103307,0.0291772 0.00564961,0.0254921 0.0124803,0.0500354 0.00292126,0.0104921 0.00567323,0.0105276 0.00865354,0.0226102 0.0026063,0.0105591 0.00219291,0.0189016 0.0046063,0.030122 0.00180315,0.00838189 0.00523228,0.0121181 0.00796063,0.0233031 0.0043622,0.0179016 0.00469685,0.0392953 0.00735827,0.0551614 0.0122205,0.0729134 0.00471654,0.100531 -0.00332283,0.168232 -0.00207874,0.0175157 -0.00991339,0.0313858 -0.0130669,0.0494528 -0.00190945,0.0109213 -0.00205512,0.0157205 -0.00640551,0.0248543 -0.0056811,0.0119331 -0.00411811,0.00696063 -0.00885433,0.0224055 -0.00609055,0.0198346 -0.0137323,0.0331535 -0.0230709,0.0498701l-0.102413 0.168504c-0.00435039,0.00737008 -0.00276378,0.00361024 -0.00733858,0.0100315l-0.0469331 0.0746339c-0.000393701,0.000649606 -0.000874016,0.00155512 -0.00127953,0.00219291 -0.00476772,0.00747244 -0.00187008,0.00247244 -0.00590157,0.00799213l-0.0445906 0.0700276c-0.00340157,0.00506693 -0.00183465,0.00335433 -0.0051378,0.00875591l-0.0838307 0.134992c-0.00454724,0.0078622 -0.0027126,0.00398031 -0.0069252,0.010437l-0.0172874 0.0278661c-0.018378,0.0332205 -0.0410669,0.0635827 -0.059752,0.0965512 -0.00766535,0.0135276 -0.016752,0.0259094 -0.0245709,0.0379488l-0.231406 0.366004c-0.0136417,0.0208819 -0.0265,0.046252 -0.0416811,0.0659961l-0.212217 0.336567c-0.0368976,0.0667008 -0.0823504,0.129531 -0.121244,0.194831 -0.00845276,0.0141929 -0.0147795,0.0249606 -0.0239055,0.0386142l-0.113055 0.178705c-0.000429134,0.000590551 -0.00108661,0.00137008 -0.00150787,0.00196457 -0.0177835,0.0250591 -0.0316654,0.0535866 -0.0501575,0.0783583l-0.0645079 0.102213c-0.000397638,0.000649606 -0.000862205,0.00155906 -0.00125591,0.0022126l-0.0310197 0.0488661c-0.00555118,0.00864567 -0.00197638,0.00249606 -0.00588583,0.00800787 -0.00527559,0.00743701 -0.00735827,0.0122441 -0.0120787,0.019185 -0.00824803,0.0121299 -0.00717323,0.00304724 -0.00744488,0.023815 -0.000444882,0.0339882 -0.00229134,0.0273071 -0.0132008,0.0493189 -0.00579921,0.0116969 -0.00648031,0.0107717 -0.0148898,0.0198425 -0.00204724,0.00220472 -0.00282283,0.00318504 -0.00501969,0.00539764l-0.0108701 0.00997244c-0.0102244,0.00831496 -0.0114961,0.00570079 -0.0198976,0.0113622 -0.00420866,0.00283465 -0.0118819,0.0122638 -0.0147677,0.0164921l-0.0303976 0.0494882c-0.0350866,0.0581929 -0.0897717,0.0844921 -0.15435,0.056748 -0.0462165,-0.0198543 -0.0717165,-0.0697008 -0.0660157,-0.120791 0.00346457,-0.0310866 0.0202559,-0.0567992 0.0378976,-0.0802205 0.0152087,-0.0201811 0.0139094,-0.0305079 -0.00255118,-0.046185l-0.0830079 -0.0837165c-0.000716535,-0.000708661 -0.00283071,-0.00268898 -0.00354331,-0.00340157 -0.00347244,-0.00344882 -0.0036811,-0.00382677 -0.00687402,-0.00701969 -0.00384646,-0.00384252 -0.00520866,-0.00506299 -0.00874409,-0.00862205 -0.00254724,-0.00256693 -0.00240551,-0.0025315 -0.00514961,-0.00526772l-0.0155748 -0.015689c-0.000484252,-0.000523622 -0.0011811,-0.00127953 -0.00166142,-0.00181102l-0.312287 -0.316386c-0.0115157,-0.0116102 -0.0196378,-0.0197638 -0.0312598,-0.0312598 -0.0116811,-0.0115472 -0.0196614,-0.0196299 -0.0313425,-0.0311811l-0.402461 -0.406819c-0.000507874,-0.000507874 -0.00123228,-0.00123622 -0.00173622,-0.00174016l-0.0172165 -0.0175197c-0.0693346,-0.0760354 -0.174535,-0.174685 -0.252736,-0.254366l-0.013937 -0.0138504c-0.0696142,-0.073626 -0.141642,-0.145626 -0.213606,-0.217087 -0.000507874,-0.000503937 -0.00124803,-0.00121654 -0.00175591,-0.00171654l-0.0677126 -0.067748c-0.000503937,-0.000503937 -0.00124803,-0.00121654 -0.00175591,-0.00172047 -0.000716535,-0.000708661 -0.00281102,-0.00270472 -0.00352362,-0.00342126l-0.125071 -0.125012c-0.00291339,-0.00289764 -0.00282677,-0.00285433 -0.00514173,-0.00527559l-0.0268858 -0.028689c-0.00277559,-0.00277165 -0.00452362,-0.00434646 -0.00703543,-0.00685433l-0.12502 -0.132008c-0.000488189,-0.000519685 -0.00120079,-0.00125984 -0.00168504,-0.0017874 -0.000488189,-0.000523622 -0.00117717,-0.0012874 -0.00165748,-0.00181496l-0.00801575 -0.00935039c-0.00500787,-0.00645669 -0.00798425,-0.011874 -0.012811,-0.0184528 -0.00453937,-0.00618898 -0.00864173,-0.0113031 -0.0134764,-0.0177835 -0.00970866,-0.0130118 -0.0170236,-0.0236969 -0.0255276,-0.0369921 -0.0416339,-0.0651142 -0.0782126,-0.135264 -0.10435,-0.208248 -0.00287402,-0.0080315 -0.00324016,-0.0171142 -0.00612598,-0.0251339 -0.0043937,-0.0121969 -0.0056811,-0.00673228 -0.0093937,-0.0218701 -0.00259843,-0.0106142 -0.00211811,-0.0177992 -0.00485827,-0.0263976 -0.00398031,-0.0124764 -0.00587795,-0.00780709 -0.00912598,-0.0221378 -0.00428346,-0.0189094 -0.00285039,-0.0327913 -0.0103819,-0.0521378 -0.00844094,-0.021685 -0.00251181,-0.0351811 -0.00620079,-0.0597913 -0.00864173,-0.0576772 -0.0189094,-0.111795 -0.0120472,-0.174508 0.00268898,-0.0245709 0.00951181,-0.0855787 0.020811,-0.104228 0.00943701,-0.0155748 0.0143858,-0.0223307 0.028315,-0.0342047 0.0239055,-0.0203819 0.0617559,-0.0356535 0.0942205,-0.0267598 0.0467559,0.0128031 0.0814055,0.0463228 0.094311,0.093252 0.00844882,0.0307205 -0.00621654,0.0870551 -0.00569685,0.116567 0.000271654,0.0156181 0.0025,0.0149961 0.00349606,0.0280394 0.00435433,0.0570827 0.00840157,0.115272 0.0225157,0.16852 0.00686614,0.0259173 0.0197677,0.0711024 0.0312441,0.0937953l0.0198346 0.042685c0.00330709,0.00714567 0.00633465,0.0139882 0.00997638,0.0212835 0.00335433,0.00670866 0.00668898,0.0143189 0.0106102,0.0206496 0.00317717,0.00512992 0.00405512,0.00546457 0.00708661,0.0102835 0.018378,0.0292362 0.0342913,0.0563622 0.0557165,0.0832126 0.0185945,0.023311 0.0364843,0.0463583 0.0577047,0.0673346l0.074252 0.0751024c0.000492126,0.000519685 0.00120079,0.00126378 0.00168898,0.00178346 0.000488189,0.000523622 0.00118504,0.00127953 0.00166929,0.00180315 0.00572441,0.00617717 0.00893307,0.00938583 0.0153898,0.0158701l0.0237598 0.0248701c0.00335433,0.00334646 0.00390157,0.00374409 0.00702756,0.00686614l0.151087 0.151094c0.000503937,0.0005 0.00123228,0.00122835 0.00174016,0.00173228l0.00344882 0.00349606c0.000503937,0.000507874 0.00120079,0.00126378 0.00170472,0.00177165l0.0487323 0.0485157c0.0459528,0.0439882 0.091378,0.0895945 0.134417,0.136504 0.000480315,0.000527559 0.00118898,0.00127559 0.00167323,0.00180315l0.192894 0.196118c0.000716535,0.000704724 0.00283071,0.00268898 0.00354724,0.00339764l0.0399291 0.0399567c0.00355906,0.00353543 0.00478346,0.00490551 0.00862205,0.00874409l0.182354 0.182346c0.000507874,0.000503937 0.00124803,0.00121654 0.00175591,0.00171654l0.0225591 0.0225984c0.0005,0.000503937 0.00122835,0.00123228 0.00173228,0.00174016 0.000503937,0.000503937 0.00123228,0.00122835 0.00174016,0.00173228l0.0104213 0.0104173c0.0005,0.000507874 0.00122835,0.00123622 0.00173228,0.00174409l0.0589134 0.0591772c0.00393307,0.00437008 0.00316535,0.00380709 0.00640551,0.00748819l0.0398268 0.0400591c0.0456378,0.0479764 0.0940748,0.0937874 0.138898,0.142441 0.00252362,0.00273622 0.00377165,0.00427559 0.00658268,0.00731102 0.0397047,0.0428937 0.0832638,0.0834252 0.124961,0.125122l0.330425 0.332976c0.000503937,0.000507874 0.00121654,0.00125197 0.00172047,0.00175591 0.0152795,0.0154134 0.0243976,0.0292323 0.0438425,0.0395197l0.0675 -0.0992205c0.00454331,-0.00640157 0.00405118,-0.00654331 0.00784646,-0.0129921l0.0730591 -0.114496c0.00744094,-0.0112008 0.0112008,-0.0189803 0.0187756,-0.0298543 0.00354331,-0.00508661 0.00608661,-0.00961417 0.00950787,-0.0148071l0.0953346 -0.151272c0.00657087,-0.010122 0.0167756,-0.0247559 0.0197323,-0.0358386l-0.0950866 -0.0994173c-0.00465748,-0.00470866 -0.00585039,-0.00579921 -0.0104449,-0.0103937 -0.00455118,-0.00455512 -0.00576378,-0.00584646 -0.0103898,-0.0104528l-0.0269213 -0.0251772c-0.00242126,-0.00231496 -0.00237795,-0.00222835 -0.00527953,-0.00514173l-0.0345906 -0.034874c-0.000511811,-0.0005 -0.00124016,-0.00122441 -0.00175984,-0.00171654l-0.0282677 -0.0273031c-0.10035,-0.100378 -0.204122,-0.200083 -0.301697,-0.302661l-0.16072 -0.162299c-0.00509843,-0.00509843 -0.00748031,-0.00751969 -0.0121535,-0.0121614l-0.0373031 -0.0356378c-0.00268504,-0.00270079 -0.00278346,-0.00271654 -0.00524803,-0.00517323 -0.00251575,-0.00250394 -0.00235827,-0.00239764 -0.00517323,-0.00524803 -0.0005,-0.000507874 -0.0012126,-0.00124803 -0.00171654,-0.00175591l-0.0277835 -0.0277874c-0.000503937,-0.000503937 -0.00122835,-0.00123228 -0.00173622,-0.00174016l-0.0803504 -0.0794213c-0.0674606,-0.0674567 -0.169469,-0.163563 -0.23252,-0.232906l-0.201181 -0.201724c-0.000507874,-0.000503937 -0.00123622,-0.00122835 -0.00174409,-0.00173228 -0.000507874,-0.0005 -0.00124803,-0.0012126 -0.00175984,-0.0017126l-0.0363819 -0.0365551c-0.000527559,-0.000484252 -0.00127165,-0.00119291 -0.00179134,-0.0016811l-0.0711339 -0.074748 -0.0739528 -0.117079c-0.00304724,-0.00785433 -0.00246063,-0.00829921 -0.00583465,-0.0150079 -0.00881496,-0.0175236 -0.0201378,-0.0430118 -0.0236535,-0.0631772 -0.00324409,-0.0185945 -0.00448031,-0.017315 -0.00920472,-0.0324764 -0.00654331,-0.0209803 -0.0071811,-0.0507402 -0.010689,-0.0726693 -0.00644094,-0.0402598 -0.00335433,-0.0742126 0.00367323,-0.111673 0.00619685,-0.0330276 0.00129921,-0.0383071 0.013311,-0.0735197 0.00389764,-0.0114173 0.00310236,-0.0245472 0.00619291,-0.0354921l0.0125748 -0.0499409c0.00280709,-0.0135591 0.00153543,-0.00727953 0.00516929,-0.0156732 0.00707874,-0.0163583 0.00461024,-0.0137441 0.00769685,-0.0339803 0.0018622,-0.0122047 0.00755512,-0.0190945 0.0109567,-0.0307244 0.00404331,-0.0138425 -0.000200787,-0.0214213 0.00535433,-0.0363268 0.00559055,-0.0150118 0.00813386,-0.0105354 0.0102008,-0.0314764 0.00188583,-0.019122 0.00271654,-0.0206929 0.00925984,-0.0358976 0.00675591,-0.0157008 0.00285827,-0.017815 0.00644094,-0.0352362 0.00330315,-0.0160669 0.00874803,-0.0192717 0.011063,-0.0306181 0.00320866,-0.0157323 0.000125984,-0.0207165 0.00625591,-0.0354213 0.00707087,-0.0169528 0.00673228,-0.0105709 0.00881496,-0.0328661 0.00116142,-0.0124173 0.0059685,-0.0224921 0.010063,-0.0316181 0.00624803,-0.0139409 0.00174803,-0.0198386 0.00541339,-0.0362638 0.0043189,-0.0193504 0.00914961,-0.0126102 0.0116654,-0.0300197 0.00879921,-0.0609685 0.00909449,-0.0211732 0.0147559,-0.0720787 0.00176772,-0.0159016 0.00697244,-0.0183819 0.0110512,-0.030626 0.00448819,-0.0134843 0.000716535,-0.0235315 0.00532283,-0.0363583 0.00403543,-0.0112402 0.00396457,-0.00503937 0.0079685,-0.0163425 0.00134252,-0.00379134 0.0149646,-0.0665079 0.0220433,-0.0821575 0.00448425,-0.00992126 0.00221654,-0.000338583 0.00650394,-0.0143346l0.0475866 -0.122606c0.00321654,-0.00666929 0.00349213,-0.00464173 0.00764567,-0.0131969 0.017685,-0.0364055 0.0368504,-0.0736575 0.0582953,-0.108421 0.00391732,-0.00634646 0.00591339,-0.00791732 0.0100354,-0.0142795 0.040752,-0.0629409 0.0850118,-0.121472 0.134878,-0.177724 0.0134646,-0.015189 0.0287087,-0.0288228 0.0433543,-0.0434764 0.00754331,-0.00755118 0.0129094,-0.0136772 0.0210551,-0.020626l0.0676024 -0.057437c0.0116732,-0.0102677 0.0409803,-0.0237402 0.0459331,-0.0374252l-0.385539 0c-0.0419055,-2.75591e-005 -0.0715591,0.00769291 -0.112205,0.0128346 -0.0233858,0.00296063 -0.0307362,0.00821654 -0.0539528,0.0120394 -0.0180512,0.00297244 -0.0547047,0.0132283 -0.0720433,0.0217362 -0.0110945,0.00544882 0.000661417,0.0011063 -0.0119291,0.00544094 -0.0037126,0.00127953 -0.00729528,0.00196063 -0.0107874,0.00310236 -0.0373543,0.0122362 -0.0937913,0.0427835 -0.125634,0.0654016 -0.00753937,0.00535433 -0.0114331,0.00704331 -0.0188701,0.0123858l-0.0628898 0.0482598c-0.000547244,0.000464567 -0.00133071,0.00112992 -0.00187402,0.00159843 -0.0301969,0.0258504 -0.0555079,0.0552205 -0.083437,0.0832835 -0.000503937,0.000503937 -0.00124409,0.00122047 -0.00174409,0.00173228 -0.0161142,0.0166299 -0.0292913,0.037252 -0.0418504,0.0554016 -0.0225512,0.0325945 -0.0333701,0.056189 -0.047378,0.0776614 -0.00664961,0.010189 -0.0172559,0.0279567 -0.0213346,0.041185l-0.00953543 0.0217244c-0.0142441,0.026878 -0.0279724,0.103756 -0.0546299,0.136402 -0.0115669,0.0141654 -0.0177008,0.0187598 -0.0329094,0.0296142 -0.0117677,0.00839764 -0.0350433,0.0144764 -0.0502559,0.0160079 -0.0400866,0.00403543 -0.0788898,-0.0243386 -0.101382,-0.0541772 -0.00675984,-0.0089685 -0.00783071,-0.00840551 -0.00972835,-0.0220079l-0.000232283 -0.0868346c0.0026063,-0.025622 0.017252,-0.0605157 0.0270197,-0.0848228l0.0123307 -0.0293504c0.00323228,-0.0070315 0.00248425,-0.00779528 0.00523622,-0.0156024 0.00738583,-0.0209803 0.0321102,-0.0654882 0.0432441,-0.0852677l0.0616732 -0.0946299c0.000440945,-0.000574803 0.00108268,-0.00137402 0.00151575,-0.00195276l0.117028 -0.133055c0.0429803,-0.0413701 0.0925827,-0.0822913 0.143736,-0.113291l0.0397913 -0.0227283c0.0394331,-0.0234921 0.0476732,-0.0250709 0.0842677,-0.0442441 0.0350315,-0.0183583 0.0628307,-0.0227008 0.0924331,-0.0360827 0.0186417,-0.00842913 0.00825984,-0.00590551 0.0318465,-0.00983465 0.0156575,-0.0026063 0.0168543,-0.00847244 0.0298031,-0.011874 0.014248,-0.00374016 0.0241339,-0.000724409 0.0395,-0.00565354 0.0102598,-0.0032874 0.0180551,-0.00862205 0.0320551,-0.00962598 0.0321102,-0.00230709 0.0457402,-0.00948819 0.0697992,-0.0105433z"/>
   <path id="_335831232" class="fil0" d="M5.22042 6.62364c-0.016063,0 -0.145752,-0.139209 -0.164913,-0.161583l-0.0515512 -0.0595945c-0.0307756,-0.0346575 -0.0930394,-0.124516 -0.119465,-0.16535l-0.0555276 -0.0972953c-0.00570079,-0.00888189 -0.00233465,-0.00344488 -0.00669685,-0.0141417l-0.0138976 -0.0277835c-0.0016811,-0.00403543 -0.00129921,-0.00361024 -0.00320079,-0.00722047l-0.0321732 -0.0720276c-0.0064685,-0.0131772 -0.00249213,-0.0184685 -0.00928346,-0.0323976 -0.00483858,-0.00992126 -0.0215354,-0.0587953 -0.0224567,-0.0678504 -0.00127559,-0.012563 -0.00473228,-0.0269646 -0.00890551,-0.036248 -0.00654331,-0.014563 -0.0190354,-0.142398 -0.0190354,-0.165047 0,-0.0237598 0.0134173,-0.138799 0.0197598,-0.153906 0.00681102,-0.0162323 0.00615748,-0.0132205 0.00822835,-0.0334488 0.00190551,-0.0185866 0.00619291,-0.0197362 0.0107244,-0.0344291 0.00467717,-0.0151732 0.000838583,-0.0170197 0.00911417,-0.0325709l0.0114094 -0.0337441c0.00346457,-0.00762992 0.00312598,-0.00329921 0.00709055,-0.0137441l0.0129252 -0.0287559c0.00347244,-0.00755118 0.00285827,-0.0108031 0.00571654,-0.0185984 0.0127677,-0.0348228 0.0344961,-0.0657992 0.0513819,-0.0979724l0.00853543 -0.0157756c0.0292756,-0.0440315 0.053189,-0.0915157 0.0867165,-0.132102l0.0369331 -0.0499016c0.017815,-0.0219843 0.0331142,-0.0449764 0.053126,-0.0649685l0.0925354 -0.0984961c0.00793307,-0.00790551 0.013,-0.0137165 0.0203189,-0.0213622l0.0108425 -0.01c0.0118543,-0.0108504 0.0531969,-0.0528701 0.0652205,-0.0528701 0.00978346,0 0.0168386,0.0122677 0.0234134,0.0182677l0.0144213 0.0133622c0.000503937,0.000503937 0.00120472,0.00125984 0.00170472,0.00176772 0.0028622,0.00290945 0.00255512,0.00266929 0.00514961,0.00527165 0.00253543,0.00253543 0.0025,0.00240945 0.00524803,0.00517323 0.00333071,0.00335039 0.00184646,0.0020748 0.00514173,0.00527953 0.00391732,0.00380709 0.00721654,0.00635827 0.0110866,0.00975197l0.0427953 0.0440394 0.118323 0.135228c0.000425197,0.000598425 0.00101969,0.00142913 0.00144094,0.00203543l0.0581102 0.0773504c0.00792913,0.0113858 0.0103898,0.0115433 0.0177953,0.023878 0.0215827,0.0359567 0.0467244,0.0699213 0.0663346,0.107335 0.0153583,0.0293071 0.0340394,0.0582205 0.0438307,0.0881575 0.00690945,0.021126 0.0207402,0.0377087 0.0266535,0.0601772 0.00179921,0.00683465 0.00122835,0.00839764 0.00486614,0.0159724 0.0107795,0.0224291 0.00636614,0.0192874 0.0186024,0.0473937 0.0046063,0.0105787 0.00383858,0.0252441 0.00654331,0.0351378 0.00533071,0.0195079 0.00950394,0.00908661 0.0113898,0.0337638 0.00226772,0.0296693 0.0133268,0.0425236 0.0139961,0.0728346l0.00331102 0.0835236c0.000311024,0.0156575 -0.00233465,0.114244 -0.00553937,0.126441 -0.00374409,0.014252 -0.00698425,0.0179685 -0.00995276,0.0352008 -0.00269685,0.0156299 -0.000287402,0.0239213 -0.00525984,0.0364252 -0.00623622,0.0156929 -0.00826772,0.0124409 -0.0104331,0.0347205 -0.00245276,0.0253031 -0.00584646,0.0142205 -0.0117835,0.0333661 -0.00568504,0.0183425 -0.0137087,0.0494213 -0.0223071,0.0645276 -0.0112992,0.0198583 -0.0174606,0.0417283 -0.0282874,0.0620197l-0.0368228 0.0708504c-0.0325906,0.0586693 -0.0737087,0.124874 -0.11535,0.176406 -0.0394409,0.048811 -0.0786417,0.0970315 -0.120646,0.143331 -0.0242874,0.0267717 -0.124917,0.130197 -0.137248,0.130197zm1.17051 -1.06631c0.0818307,0 0.188425,0.00877559 0.265476,0.022811 0.0126654,0.00230709 0.0739094,0.00642913 0.0768858,0.0237559 0.00337402,0.0196654 0.00019685,-0.017874 0.00088189,0.00524803 0.000370079,0.0124213 -0.00741732,0.0319094 -0.00897638,0.0427913 -0.00427559,0.0298425 -0.00223622,0.0606614 -0.0109331,0.0897913 -0.00379134,0.0126929 -0.00287795,0.0145079 -0.00485827,0.029878 -0.00293307,0.0227953 -0.0156772,0.0958858 -0.0222598,0.113201 -0.00614961,0.0161693 -0.00749213,0.0403819 -0.0133898,0.0560787 -0.0059252,0.0157717 -0.00935039,0.0400315 -0.0152717,0.0541929l-0.0750669 0.199327c-0.0083189,0.0184488 -0.014122,0.0307402 -0.0222913,0.0471732 -0.00755906,0.0151929 -0.014626,0.0273189 -0.023248,0.042748 -0.00506299,0.00905906 -0.00733465,0.0125669 -0.0126417,0.0220866l-0.026815 0.0426575c-0.0178583,0.0268898 -0.0382441,0.0515197 -0.058378,0.0770787l-0.103197 0.101732 -0.0589291 0.0417953c-0.0482205,0.0337717 -0.104988,0.0595512 -0.159528,0.0801299 -0.0108661,0.00410236 -0.016185,0.00424016 -0.0260709,0.00866535 -0.0129685,0.00580709 -0.00896457,0.00464961 -0.0264173,0.00831496l-0.0807992 0.0234016c-0.014437,0.0046378 -0.0431142,0.0046378 -0.0600787,0.00938583 -0.00804724,0.00225197 -0.0175157,0.00562205 -0.0246339,0.00662992l-0.0649764 0.00448819c-0.0107205,0.00076378 -0.0181181,0.00355512 -0.029378,0.00535433l-0.134087 0.00484646c0.00794094,-0.0108386 0.00384646,-0.00433465 0.0172087,-0.0105748 0.00740551,-0.00346063 0.0117087,-0.00640157 0.0182205,-0.00957087 0.0306142,-0.0148976 0.0602362,-0.0314488 0.0886181,-0.050311l0.0181024 -0.00968898c0.0291339,-0.0163425 0.0725906,-0.0467756 0.0989764,-0.0677402l0.0952913 -0.0749016c0.053189,-0.0391811 0.0939213,-0.0917165 0.138138,-0.139728 0.000484252,-0.000527559 0.00119685,-0.00126772 0.00168504,-0.00179134 0.0178189,-0.0190591 0.0335236,-0.0417323 0.0487283,-0.0624173 0.00437402,-0.00594882 0.00622835,-0.0101654 0.0109213,-0.0168661l0.0436339 -0.0675118 0.0325906 -0.0646614c0.00905906,-0.0232402 0.0204646,-0.0438307 0.028685,-0.0685669 0.00423228,-0.0127244 0.0047126,-0.00654724 0.00916142,-0.018626 0.00297244,-0.00806693 0.00307087,-0.0171535 0.00605118,-0.0252087 0.00456693,-0.0123307 0.00562992,-0.00624803 0.00924803,-0.0185394 0.0027874,-0.00947638 0.000854331,-0.0139291 0.00374409,-0.0240433 0.00402362,-0.0140984 0.00436614,-0.00653937 0.00882283,-0.0189606 0.00301575,-0.00839764 0.0019685,-0.012685 0.00311024,-0.0246811 0.00167717,-0.0176417 0.0103268,-0.0236772 0.0129646,-0.0426063 0.00359843,-0.0258189 -0.00195276,-0.0281575 0.00643307,-0.0526142 0.0102165,-0.0297795 0.00761811,-0.0649882 0.00808661,-0.103059 0.000251969,-0.0203898 0.00379134,-0.0285354 0.00365748,-0.0519173 -0.000102362,-0.0316496 0.00173622,-0.0721142 -0.00259843,-0.101748 -0.00217717,-0.0148858 -0.00556299,-0.0372283 0.0095,-0.0372283zm-2.37923 0.100724l0.00479528 0.102878c0.00266929,0.0162087 0.00780709,0.0312205 0.00896063,0.0466142 0.00134252,0.0178937 -7.48031e-005,0.0404449 0.00252362,0.0530512 0.00384252,0.0186575 0.00989764,0.0248661 0.0112913,0.0442795 0.00261811,0.0364016 -0.00148819,0.0171417 0.0100827,0.0454921 0.0067126,0.0164528 0.00181102,0.0275276 0.00991339,0.0456575 0.0137913,0.0308504 0.00397638,0.0218268 0.0137126,0.0418622l0.0587874 0.135717c0.00807087,0.0146457 0.00114961,0.00684252 0.014311,0.0273701l0.0258937 0.0435748c0.00438189,0.00664173 0.00619685,0.0113189 0.0100748,0.0177126l0.0465118 0.0646339c0.0149331,0.0182913 0.0502874,0.0611142 0.0692441,0.0801063l0.0452362 0.0450748c0.000507874,0.0005 0.00122441,0.00123622 0.00172835,0.00174409 0.0199488,0.0200748 0.0531654,0.0507126 0.0747441,0.0676614l0.223638 0.151484c0.0461378,0.0239567 0.0196457,0.015122 0.0840591,0.0409803l0 0.00694488c-0.0455,0 -0.0870591,0.000968504 -0.127949,-0.00403543l-0.116465 -0.0155276c-0.0196772,-0.00674803 -0.034878,-0.0053189 -0.0568937,-0.00909449 -0.00881496,-0.00151181 -0.0144882,-0.00538189 -0.0233858,-0.00787402 -0.0258543,-0.00724409 -0.0108976,-0.000893701 -0.0520709,-0.0139252 -0.00990157,-0.00312992 -0.0180039,-0.00310236 -0.0280787,-0.00665748 -0.0117835,-0.00415748 -0.0112598,-0.00563386 -0.0251063,-0.00962205 -0.0260315,-0.00750787 -0.0461575,-0.0183425 -0.071689,-0.0290394 -0.0122283,-0.00512598 -0.0106535,-0.00475197 -0.0208622,-0.0103976 -0.00943701,-0.00522441 -0.0142362,-0.00599606 -0.0234921,-0.0112402l-0.0825118 -0.0494764c-0.0135512,-0.00883858 -0.0637598,-0.0504685 -0.0744843,-0.0609764l-0.0641693 -0.067815c-0.0101654,-0.012874 -0.0190945,-0.0231417 -0.0292638,-0.0367323l-0.0201181 -0.0285079c-0.0138661,-0.0222244 -0.0327402,-0.0468622 -0.0441693,-0.0704488l-0.0454291 -0.0865591 -0.0499843 -0.120209 -0.0317756 -0.100209c-0.00562992,-0.0264921 -0.0234055,-0.076378 -0.0277835,-0.107681 -0.00494094,-0.0353346 -0.0105,-0.0281417 -0.0124173,-0.0535748 -0.00186614,-0.024748 -0.00515354,-0.0353701 -0.0105669,-0.0554213 -0.00375591,-0.0139016 -0.00473228,-0.0437402 -0.00646457,-0.0595315 -0.00953937,-0.065122 -0.0107638,-0.0314252 -0.0107638,-0.103854 0,-0.0152756 0.0414764,-0.0168858 0.071437,-0.0223425 0.0412323,-0.00751181 0.223409,-0.0214134 0.262004,-0.022811 0.023185,-0.00084252 0.00694488,0.0570354 0.00694488,0.100724zm0.484996 -0.0590472c0.00477559,0.0568858 0.0081063,0.199122 0.000358268,0.253555 -0.00930709,0.0344094 0.0108898,0.0759606 0.0139094,0.0912047 0.00550787,0.0278228 -0.00104331,0.019437 0.0102717,0.0452992 0.00742126,0.0169646 0.00290157,0.0245157 0.0120551,0.0435157 0.00681496,0.0141496 0.0256024,0.0764213 0.0367362,0.102201 0.00464173,0.0107441 0.005,0.00589764 0.00966142,0.018122 0.00466929,0.0122441 0.00140945,0.00841339 0.00790945,0.019878 0.00635039,0.0111969 0.00379921,0.00607087 0.00841732,0.0193701 0.00500394,0.0144252 0.0107205,0.0241024 0.0180591,0.0375118l0.0302835 0.0530787c0.00541339,0.0084685 0.00474016,0.010626 0.00915748,0.018626l0.0300984 0.0497913c0.0146063,0.019437 0.0259331,0.0406457 0.0392087,0.0615197 0.00555512,0.00873228 0.00148425,0.00201969 0.00582283,0.00806693 0.0101654,0.0141614 0.0263504,0.0292205 0.0298228,0.0465945 -0.00516142,0.00242913 0.000566929,0.00258268 -0.00757087,0.000291339 -0.0184567,-0.00519291 -0.0432087,-0.0271181 -0.0625787,-0.037815l-0.0152756 -0.00903937c-0.000598425,-0.00042126 -0.00139764,-0.00105906 -0.00199213,-0.00148031 -0.000598425,-0.000425197 -0.00142126,-0.00102756 -0.00202362,-0.00145276l-0.175 -0.141075c-0.0028622,-0.00285433 -0.00418504,-0.00427953 -0.00688583,-0.00700394l-0.0139055 -0.013878c-0.000507874,-0.000507874 -0.00124016,-0.00122835 -0.00174409,-0.00173228 -0.000507874,-0.000503937 -0.00124803,-0.00121654 -0.00175591,-0.00171654l-0.018311 -0.0198976c-0.00148425,-0.00159843 -0.0042874,-0.00457087 -0.00502756,-0.0053937l-0.0192362 -0.0224409c-0.000456693,-0.000559055 -0.00111417,-0.00134252 -0.00155512,-0.00191732l-0.050752 -0.070815 -0.0486969 -0.0832913c-0.00164567,-0.0031063 -0.00279134,-0.00659449 -0.00409055,-0.00980315l-0.014748 -0.0373504c-0.00448031,-0.0117913 -0.00642913,-0.00903937 -0.0099252,-0.0213346 -0.0038622,-0.0135906 -0.00251181,-0.014937 -0.0079252,-0.026811 -0.00671654,-0.0147362 -0.00887008,-0.0363307 -0.0162047,-0.0532598 -0.00708661,-0.0163701 -0.0044685,-0.0379961 -0.00967717,-0.056315 -0.00241732,-0.00850787 -0.00661024,-0.0150866 -0.008,-0.0232638l-0.00404331 -0.0619488c-0.000901575,-0.0109173 7.87402e-005,-0.0235827 -4.72441e-005,-0.034685 -0.00023622,-0.0213819 -0.00358661,-0.0365157 -0.00362205,-0.0623898 -6.29921e-005,-0.0435276 0.00716535,-0.0843701 0.00706693,-0.124925 -6.29921e-005,-0.0267441 0.0132402,-0.115173 0.0212323,-0.142016 0.00533071,-0.0179055 0.00466142,-0.0397441 0.0103583,-0.0556378 0.00511024,-0.0142598 0.00623228,-0.0355433 0.0124921,-0.0535l0.0143976 -0.0515945c0.00378346,-0.0116457 0.00525197,-0.0114764 0.00884646,-0.0258858 0.0061811,-0.0247441 0.0163189,-0.0482913 0.0247795,-0.0724764 0.0036063,-0.010311 0.00385433,-0.017626 0.0075315,-0.0272008 0.0126417,-0.0328858 0.0237283,-0.064815 0.039189,-0.0962717 0.0324291,0.000724409 0.0779094,0.0212323 0.106717,0.0322165l0.0518307 0.0176339c0.0113858,0.00401181 0.00839764,0.00363386 0.0165551,0.00775984 0.0107992,0.0054685 0.00581496,0.00264567 0.0179567,0.00635827l0.0318976 0.013252c0.013815,0.00458268 0.0514055,0.0182283 0.0462087,0.0373858 -0.00325984,0.0120394 -0.0100354,0.0151496 -0.0156417,0.0262992 -0.0187205,0.037248 -0.0411929,0.0721575 -0.0562126,0.110508l-0.0127283 0.0289488c-0.0021811,0.00642913 9.05512e-005,0.00174803 -0.00306299,0.00735827 -0.00491732,0.00875591 -0.00100787,0.00046063 -0.00446063,0.00596063 -0.00614961,0.00981102 -0.00593307,0.0213268 -0.0112441,0.030437 -0.00520866,0.00893701 -0.000818898,-0.00459843 -0.00588976,0.0114724 -0.00238189,0.00754724 -0.00140945,0.01 -0.00377559,0.017063 -0.00550394,0.0164331 -0.00837008,0.00717323 -0.0123346,0.0293504 -0.00172441,0.00965748 -0.000409449,0.0081811 -0.00396457,0.016874 -0.00339764,0.00830315 -0.00333071,0.00385039 -0.00688189,0.0139606 -0.00484646,0.0138189 -0.000433071,0.0187638 -0.00782677,0.0338504 -0.00802756,0.0163819 -0.010252,0.0485197 -0.0169803,0.0663819 -0.00518504,0.0137717 -0.0106024,0.0592362 -0.00723228,0.0739213zm1.65457 0.00349213c0.00798425,0.000562992 -0.00151181,-0.000929134 0.00755512,0.000700787l0.0093189 0.134606 -0.016874 0.00011811c0,0.0413701 -0.0107362,0.107823 -0.0221024,0.148106 -0.00303543,0.0107677 -0.00367323,0.0187087 -0.00554724,0.029189 -0.00243701,0.0136417 -0.0167795,0.0553386 -0.022689,0.0676142l-0.0150079 0.0370906c-0.00278346,0.00651575 -0.00192913,0.00647638 -0.00418898,0.0131811 -0.00332677,0.0098622 -0.000625984,0.00326772 -0.00533465,0.0120315l-0.0520748 0.0903307c-0.0265709,0.0439961 -0.0619843,0.081374 -0.0954213,0.119925 -0.00510236,0.00588583 -0.00314567,0.00337795 -0.00861811,0.00874803l-0.0644921 0.0605512c-0.000531496,0.000476378 -0.00125197,0.0012126 -0.0017874,0.00168504l-0.0582126 0.0459843c-0.0268268,0.019189 -0.0511024,0.0416575 -0.0821614,0.0532992 -0.00270079,-0.00573228 -0.0019252,-0.00764961 0.00427165,-0.0161693l0.0545236 -0.0848071c0.00288583,-0.00425984 0.00293701,-0.00329528 0.0060748,-0.0078189 0.0138661,-0.0199685 0.0234055,-0.0406772 0.0338346,-0.0634173 0.00899213,-0.0196102 0.0203898,-0.0354921 0.0279724,-0.0553898 0.00873228,-0.0229094 0.0197992,-0.0357323 0.0265748,-0.0567835l0.0248543 -0.0585079c0.00316142,-0.00899606 0.00269291,-0.0133071 0.00602362,-0.0217598 0.00295276,-0.00748031 0.00548425,-0.00911811 0.00822441,-0.019563 0.00261811,-0.00997244 0.00124409,-0.0140591 0.00469685,-0.0230906 0.00444488,-0.011622 0.00518504,-0.00424016 0.00930315,-0.0184843 0.00309449,-0.0107008 0.000885827,-0.0143504 0.00298425,-0.0248031 0.00278346,-0.0138504 0.011189,-0.0206378 0.0127323,-0.0428386 0.00276772,-0.0397402 0.0136969,-0.0505866 0.014,-0.0971496 0.000110236,-0.0171339 0.00404724,-0.0359961 0.00601969,-0.0495512 0.00764567,-0.052563 0.00309843,-0.100886 -0.00446063,-0.153228 -0.00369685,-0.0255906 0.00011811,-0.0509331 -0.00708661,-0.0762717 -0.00298031,-0.0104685 -0.00583858,-0.0125433 -0.00735433,-0.020437 -0.00442913,-0.0230787 0.000606299,-0.0260276 -0.00786614,-0.0477047 -0.00502362,-0.0128504 -0.0057126,-0.0327677 -0.0109055,-0.0446693 -0.0039685,-0.00909449 -0.00633858,-0.00706693 -0.00897638,-0.018811 -0.00244094,-0.0108858 -0.000673228,-0.0149764 -0.00388189,-0.0239055 -0.00431102,-0.0120079 -0.00501181,-0.0056811 -0.0092874,-0.0184961 -0.00316929,-0.00950394 -0.00164567,-0.0125354 -0.00570866,-0.0220787 -0.00383465,-0.00901969 -0.00554724,-0.00727953 -0.00888583,-0.0188976 -0.00422835,-0.0147008 0.000338583,-0.00735827 -0.00718898,-0.0206024 -0.00640945,-0.0112756 -0.00378346,-0.00591339 -0.00845669,-0.0193268l-0.0348346 -0.076311c-0.00442126,-0.00669685 -0.00191732,-0.00201181 -0.00536614,-0.00852756l-0.0244331 -0.0450354c-0.00685827,-0.0112008 -0.0346969,-0.0588031 -0.0334134,-0.067874 0.00198031,-0.0140236 0.0143622,-0.0133268 0.0256063,-0.018689l0.0866496 -0.0349173 0.12552 -0.0377283c0.018689,0.0279094 0.0349055,0.0779528 0.0470591,0.112713l0.016878 0.0525866c0.00440157,0.017626 0.00788976,0.0209252 0.0118228,0.0333307 0.00792126,0.0249764 0.0398465,0.157453 0.0437559,0.185488 0.00272047,0.0195276 0.00497638,0.023748 0.0095748,0.0390472 0.00584646,0.0194291 0.00450394,0.0589134 0.0104921,0.0832913 0.00702362,0.0286102 0.00629528,0.0473504 0.00629528,0.0840276zm-1.34418 -0.687736c-0.0172283,0 -0.0441969,-0.0145827 -0.0608425,-0.0225197l-0.0560787 -0.0238071c-0.0357008,-0.0161496 -0.0759134,-0.0305512 -0.112319,-0.0439803 -0.047248,-0.0174291 -0.100224,-0.0323504 -0.148071,-0.046437 -0.0109764,-0.00323228 -0.0204606,-0.00352756 -0.0316535,-0.00655512 -0.0303504,-0.00820866 -0.047311,-0.013 -0.0807756,-0.013 -0.0578228,0 -0.0867362,0.0469331 -0.107602,0.0938504 -0.0154843,0.0348228 -0.0337677,0.0697087 -0.0460197,0.106807l-0.0145236 0.0375748c-0.00529134,0.0172008 -0.00960236,0.019815 -0.0129016,0.0357244 -0.00256693,0.012374 -0.00164961,0.00759449 -0.00721654,0.0170984 -0.00809449,0.0138189 -0.0181575,0.0633268 -0.0252874,0.0789134 -0.00394882,0.00863386 -0.00602362,0.00957874 -0.00787008,0.0199134 -0.00348031,0.0194606 -0.00384252,0.0213228 -0.0112165,0.0374094 -0.00715354,0.0156063 -9.44882e-005,0.0234646 -0.00921654,0.0428858 -0.010311,0.0219449 -0.00677953,0.0367835 -0.0161181,0.0602953 -0.00354724,0.00893307 -0.00339764,0.0145709 -0.00528346,0.0225039 -0.00497244,0.0209291 -0.00966142,0.0112283 -0.0344409,0.014185l-0.146866 0.00596063c-0.0196535,-0.000212598 -0.0295551,0.000622047 -0.0452598,0.00337008l-0.0931929 0.0110039c-0.0152087,0.00151181 -0.0297638,0.00780315 -0.0426693,0.00943307 -0.0178346,0.00224803 -0.0267362,0.00175591 -0.0437165,0.00490551l-0.128035 0.0282677c-0.0277638,0.00705512 -0.0449724,0.0211339 -0.0613307,0.0393937 -0.0169528,0.0189291 -0.0268465,0.0483228 -0.0304055,0.0737953 -0.00614961,0.0440236 0.0115354,0.100669 0.0139134,0.145862 0.00150394,0.0286378 -0.000665354,0.0506378 0.00393701,0.0759449 0.0022126,0.0121575 0.0060315,0.0152598 0.00866535,0.0295433 0.00461811,0.0250394 0.000267717,0.0455709 0.00978346,0.0701063 0.00740945,0.0191063 0.0036063,0.0482087 0.0118346,0.0680472 0.0073189,0.0176496 0.00631496,0.0104921 0.00749606,0.034185 0.000799213,0.0159843 0.00240945,0.0177913 0.00816929,0.0300394 0.00893307,0.0190079 0.0030748,0.014185 0.00646457,0.0352126 0.00240945,0.0149449 0.00707874,0.0136417 0.0109724,0.0272362 0.00491732,0.0171457 -0.000244094,0.0164488 0.00779921,0.033878 0.00652362,0.0141339 0.00562992,0.0126535 0.00861024,0.0295984 0.00201181,0.0114449 0.0160157,0.049437 0.0209646,0.0589213 0.00770472,0.0147756 0.009,0.030315 0.0151102,0.0439409 0.0145866,0.0325394 0.0248031,0.0699016 0.0418976,0.100508 0.0145512,0.0260512 0.0237717,0.0531299 0.0391142,0.0789764l0.0208465 0.0382008c0.0433386,0.0751929 0.0936299,0.148406 0.153827,0.21087 0.000496063,0.000515748 0.00122835,0.00123622 0.00173228,0.00174409l0.0167087 0.0180236c0.000476378,0.000531496 0.00117323,0.0012874 0.00165748,0.00181496 0.0441693,0.0480472 0.11063,0.100122 0.165457,0.133252 0.0508465,0.0307244 0.10389,0.0623425 0.159559,0.0835709l0.0272638 0.0109449c0.0115157,0.00525197 0.0193661,0.00563386 0.0307087,0.0109724 0.0144921,0.00681496 0.012378,0.00452362 0.0292283,0.00897638 0.0155315,0.00410236 0.0149252,0.00884252 0.0301181,0.011563 0.0380709,0.0068189 0.0302323,0.0120748 0.0649134,0.0149724 0.0152323,0.00127165 0.0168622,0.0042126 0.0295394,0.00866535 0.015189,0.00533465 0.0407283,0.00605118 0.0661299,0.0137598 0.0119961,0.00364173 0.0223976,0.00521654 0.0364055,0.00527559 0.032626,0.000137795 0.0451417,0.00711024 0.0730591,0.0102992l0.361228 0c0.0268622,0 0.0408071,-0.0106457 0.0728268,-0.0105315 0.0489449,0.000177165 0.0665472,-0.0120512 0.11128,-0.0137598 0.00950394,-0.000366142 0.0647126,-0.0169331 0.105118,-0.0191457 0.00829134,-0.000456693 0.0617205,0.00736614 0.0700906,0.0106142 0.0239961,0.00930315 0.0505276,0.00576772 0.0722638,0.0110945 0.029189,0.00715748 0.0341299,0.011626 0.0721102,0.011248l0.0763543 0.0104803 0.361228 0c0.0214921,0 0.0304409,-0.0104606 0.0589449,-0.0105236 0.0284921,-6.29921e-005 0.0379843,-0.0014685 0.0603898,-0.00907087 0.0217953,-0.00739764 0.0371378,-0.00233071 0.0583465,-0.011122 0.0101181,-0.00419685 0.0145236,-0.00623228 0.0275118,-0.00722441 0.0227047,-0.00173228 0.0144921,0.000677165 0.0310906,-0.00711417 0.0124567,-0.00584646 0.0118858,-0.0048622 0.027622,-0.00711417 0.018252,-0.0026063 0.0129724,-0.00467323 0.0249173,-0.00981496 0.0114134,-0.00491339 0.017185,-0.00238189 0.0281772,-0.00655512 0.0114685,-0.00435827 0.00864173,-0.00677165 0.0242638,-0.0104685 0.0190433,-0.00450787 0.0105354,-0.00251575 0.0252087,-0.00952756 0.010622,-0.0050748 0.015122,-0.00417323 0.0252992,-0.00943307 0.0121969,-0.00630315 0.00960236,-0.00541732 0.0242677,-0.0104646 0.0163268,-0.00561417 0.0334803,-0.0172559 0.0484685,-0.0244724 0.0303661,-0.0146181 0.060626,-0.0316378 0.0882677,-0.0506654 0.00735039,-0.00505512 0.0134724,-0.00889764 0.0207913,-0.0139409 0.0211142,-0.0145394 0.0418701,-0.0294803 0.0612795,-0.0463937l0.0863268 -0.0803937c0.0362874,-0.0389055 0.0699449,-0.0772441 0.10061,-0.121681 0.0107756,-0.0156142 0.0177756,-0.0247598 0.0280787,-0.0413898 0.00408661,-0.00659843 0.00348425,-0.00503937 0.00696063,-0.0104055l0.0462441 -0.0787953c0.017,-0.0312165 0.0328189,-0.0624016 0.0466496,-0.0957559l0.0774213 -0.203917c0.00305512,-0.014374 5.51181e-005,-0.0150551 0.00577953,-0.0289567 0.0155197,-0.0377087 0.020563,-0.0880394 0.0304646,-0.111945 0.0051063,-0.0123268 0.00566535,-0.0157677 0.00638189,-0.0318228 0.00125984,-0.0284213 0.0111575,-0.0321929 0.0135276,-0.0559409 0.00116535,-0.0116772 -0.000795276,-0.0216378 0.00172047,-0.0330079l0.00908661 -0.029122 0 -0.343858c0,-0.00935039 -0.0120512,-0.0177598 -0.0187362,-0.0229449 -0.0123307,-0.00956299 -0.0139488,-0.00965354 -0.0283031,-0.0168504 -0.0288071,-0.014437 -0.0711299,-0.0205354 -0.102839,-0.0256732 -0.016063,-0.0026063 -0.0222638,-0.00491732 -0.0368819,-0.00827559 -0.00961417,-0.00220866 -0.0279291,-0.00462205 -0.039315,-0.00583465 -0.0184016,-0.00196063 -0.0226732,-0.00355118 -0.0377795,-0.00737402 -0.0239961,-0.00607087 -0.0519685,-0.00366142 -0.079185,-0.00764961 -0.0258583,-0.0037874 -0.051626,-0.00970866 -0.0807835,-0.00952362l-0.170118 -0.00702362c-0.00405118,-0.0151811 -0.0121142,-0.0158307 -0.0137244,-0.0383701 -0.00147244,-0.0205787 -0.00299606,-0.0251378 -0.0100709,-0.0420315 -0.00666142,-0.0158898 -0.00140945,-0.0255276 -0.0091378,-0.0429606 -0.00854331,-0.0192638 -0.00882677,-0.0340157 -0.0186142,-0.0578031 -0.00527559,-0.0128228 -0.00515354,-0.0272087 -0.0115787,-0.0405197 -0.00610236,-0.0126457 -0.00602756,-0.0274685 -0.0124843,-0.0396142l-0.0223346 -0.0610276c-0.00512205,-0.0184843 -0.0134331,-0.037315 -0.0218228,-0.0545866 -0.0149252,-0.0307362 -0.0231654,-0.0620512 -0.0398425,-0.0921457 -0.00678346,-0.0122362 -0.00914961,-0.0225984 -0.0167992,-0.0353031 -0.00934252,-0.0155197 -0.00975197,-0.0171102 -0.0223701,-0.0297283l-0.0756102 -0.0320591c-0.0440118,-0.00894882 -0.286437,0.0765039 -0.357307,0.104646 -0.00637402,0.00253543 -0.00816535,0.0041063 -0.0138465,0.00699606 -0.0128622,0.00654724 -0.0619449,0.0302126 -0.071937,0.0322795 -0.0197835,0.00409449 -0.0334803,-0.0211142 -0.0449646,-0.0344606l-0.107197 -0.118571c-0.000507874,-0.000503937 -0.00124803,-0.00121654 -0.00175591,-0.00171654l-0.159736 -0.145917c-0.0184882,-0.0178031 -0.0519528,-0.0444291 -0.0768583,-0.048185 -0.0169449,-0.00255512 -0.0495157,-0.0030748 -0.0646457,0.0048189 -0.0110236,0.00574803 -0.0211614,0.0106457 -0.0303701,0.0182598l-0.0607087 0.050437c-0.000574803,0.000440945 -0.00135827,0.00109843 -0.00192126,0.00155118l-0.0199213 0.0182874c-0.000519685,0.000488189 -0.00124803,0.0012126 -0.00177953,0.00169291 -0.000527559,0.000480315 -0.00129528,0.00116535 -0.00183465,0.0016378l-0.111 0.104346c-0.000484252,0.000527559 -0.00120079,0.00126378 -0.00168504,0.0017874l-0.00975197 0.0110866c-0.0216457,0.0261811 -0.0465827,0.0505787 -0.0701181,0.0757638 -0.0120394,0.0128819 -0.0539409,0.0715591 -0.0639016,0.0715591z"/>
   <path id="_335831112" class="fil0" d="M-0 4.82793l0 0.778028c0,0.00798031 0.00561024,0.00841732 0.0089252,0.0223307 0.00707874,0.0297165 0.0202835,0.0609016 0.0384961,0.0865472l0.0185315 0.0266181c0.00577559,0.00733071 0.00937795,0.0109016 0.0159488,0.0187874 0.00461811,0.00553937 0.00355512,0.00445276 0.00802756,0.00933858 0.0173386,0.0189291 0.0447402,0.0381378 0.0665669,0.0515276 0.0352638,0.021626 0.0882953,0.0405 0.128319,0.0453504l2.87939 0c0.0182638,0 0.0264685,-0.00724409 0.0387165,-0.0133819 0.0110512,-0.00553937 0.00538189,-0.00237795 0.014563,-0.00975197 0.00611811,-0.00491732 0.0101181,-0.00702362 0.0154567,-0.0123307l0.0319882 -0.075685c0.00480709,-0.0237126 -0.0167638,-0.0648976 -0.0390551,-0.0859803 -0.0135079,-0.0127717 -0.0300433,-0.0228976 -0.047189,-0.0292244 -0.0205906,-0.00759843 -0.556339,-0.00288583 -0.604949,-0.00288583 -0.741823,0 -1.48856,-0.00295276 -2.22989,7.87402e-006 -0.0283819,0.000114173 -0.0568465,-0.00394094 -0.0792835,-0.0214409 -0.0205906,-0.016063 -0.0352165,-0.0461299 -0.0387992,-0.0654016l0 -0.225768 1.63594 0c0.016563,0 0.0184882,-0.00287795 0.0288937,-0.00931102 0.0311142,-0.0192362 0.0419291,-0.0193661 0.0595118,-0.0585787 0.0162244,-0.0361811 0.0175276,-0.0561417 0.0010748,-0.0910512 -0.0171339,-0.0363504 -0.0229921,-0.0398307 -0.0562835,-0.0583425 -0.00941732,-0.00523228 -0.0142047,-0.0098189 -0.0331969,-0.0119528l-1.63594 0 0 -0.211874c0,-0.017315 0.0219488,-0.0606654 0.0517008,-0.0733425 0.0293031,-0.0124843 0.0212323,-0.0138071 0.048878,-0.0136378 0.614571,0.00376378 1.23991,0.000145669 1.85491,0.000145669l1.78529 0c0.0297795,0 0.0665276,0.00468898 0.0874449,-0.00633465 0.023063,-0.0121575 0.0355984,-0.0132008 0.0555866,-0.0416693l0.0202165 -0.0457756c0.000480315,-0.00242126 0.00308268,-0.0461024 -0.00482677,-0.0611693 -0.00370472,-0.00705906 -0.00496063,-0.00801969 -0.00848031,-0.0158307 -0.00549606,-0.0121811 -0.00388583,-0.00870472 -0.0126693,-0.0185906l-0.0231811 -0.0219724c-0.00622835,-0.00416535 -0.0340787,-0.0167283 -0.0411496,-0.0178976l-3.75467 0c-0.0267559,0 -0.0871535,0.0224803 -0.112724,0.0366339 -0.0622441,0.0344449 -0.114382,0.0845157 -0.145791,0.149441l-0.00369685 0.0101969c-0.00983071,0.0266378 -0.00612598,0.00464567 -0.0130984,0.039 -0.00564567,0.027811 -0.00950394,0.0102323 -0.00950394,0.0252283z"/>
   <path id="_335831208" class="fil0" d="M0.246327 6.1478l-9.05512e-005 0.0798858c0.00220866,0.034189 0.016811,0.0603622 0.0276929,0.0907717 0.00969291,0.0270866 0.020437,0.058189 0.0348543,0.0832402 0.00355906,0.0061811 0.00105512,0.000161417 0.0054252,0.00846457l0.052878 0.0930039c0.0280276,0.0434528 0.0583386,0.084063 0.0934961,0.12185l0.0195039 0.0221732c0.00529134,0.00526378 0.00937402,0.00809449 0.0145354,0.013252l0.0223425 0.022815c0.000744094,0.000677165 0.00290551,0.00261417 0.00363386,0.00331102l0.0201417 0.018063c0.0215354,0.0180512 0.0404094,0.0382402 0.064685,0.0534094l0.0729528 0.0486142c0.0172126,0.0112559 0.0360551,0.0237008 0.0549882,0.0318465l0.0396654 0.0193819c0.0124449,0.00694094 0.0688189,0.032 0.0822992,0.0357913 0.0179331,0.00504331 0.0560197,0.0147047 0.0691772,0.0211299 0.0228189,0.0111378 0.0303386,0.0038189 0.0511496,0.0113701 0.023815,0.00864173 0.015374,0.00877953 0.0489528,0.0100945 0.0215,0.000838583 0.0304252,0.00884252 0.0487087,0.0103386l0.000799213 5.90551e-005 0.356894 0 2.14305 0 0.0396693 0c0.00566142,-0.000685039 0.0108465,-0.00198031 0.0150748,-0.00429921 0.0141339,-0.00775197 0.0271299,-0.0152874 0.0387244,-0.0272677 0.000700787,-0.000728346 0.00265354,-0.00287008 0.00333465,-0.00361417 0.00964567,-0.0105118 0.0111024,-0.0172992 0.0164685,-0.028685 0.00670079,-0.0142244 0.00503937,-0.00153937 0.00948425,-0.0217835 0.00527559,-0.0240315 -0.00207087,-0.0532165 -0.0119764,-0.0737598 -0.0073622,-0.0152638 -0.0120709,-0.0225748 -0.0247244,-0.0343189 -0.0236732,-0.0219724 -0.0526496,-0.0323031 -0.0859724,-0.032122 -0.277961,0.00150787 -0.555969,-0.00216929 -0.833917,0.000259843 -0.00906299,7.87402e-005 -0.0197323,0.00146063 -0.0241772,-0.00298425 -0.00490551,-0.00490551 0.000224409,-0.00465354 0.00427165,-0.00958661 0.0295,-0.035937 0.0515433,-0.076063 0.0772992,-0.114531 0.00560236,-0.0083622 0.00555512,-0.00699213 0.0111181,-0.0166654l0.0424252 -0.065248c0.000425197,-0.000602362 0.00100394,-0.00144882 0.00143701,-0.00203937l0.0697323 -0.103933c0.000535433,-0.000889764 0.00211811,-0.00340157 0.00269291,-0.00425591l0.00875591 -0.0120866c0.00354724,-0.00511417 0.00402756,-0.00573622 0.00716142,-0.0102047 0.00877559,-0.0125236 0.014689,-0.0225866 0.0233937,-0.0356496l0.0600236 -0.0893307c0.0339016,-0.0483189 0.0287047,-0.110587 -0.0127992,-0.152094 -0.0529252,-0.0529252 -0.142382,-0.0379134 -0.180185,0.0251063l-0.0238307 0.0352126c-0.0155748,0.0243425 -0.0574646,0.0896142 -0.0709843,0.106157 -0.00406299,0.00497244 -0.0105827,0.0132441 -0.0132165,0.0180394l-0.0237047 0.0353465c-0.00629921,0.00895276 -0.00463386,0.00890945 -0.00964567,0.0181378 -0.00732677,0.0134803 -0.0179016,0.0210709 -0.0244803,0.0345669 -0.00694882,0.014248 -0.00319685,0.00779921 -0.012311,0.0189488 -0.00406299,0.00497244 -0.0105827,0.0132441 -0.0132205,0.0180433l-0.139453 0.21135c-0.000397638,0.000645669 -0.000901575,0.0015315 -0.00129134,0.0021811l-0.0609567 0.0953425 -0.518898 0c-0.00030315,0.0250512 -0.0208543,0.0239252 -0.021811,0l-0.0567047 0c0.00426772,-0.0159921 0.0155709,-0.0276024 0.0245354,-0.0414528 0.00554724,-0.00856693 0.00818504,-0.0107953 0.0137126,-0.0210236 0.0157008,-0.0290709 0.036378,-0.0568976 0.0536457,-0.0852913 0.00355512,-0.00584646 0.0026378,-0.00502756 0.00644488,-0.0109173 0.00311811,-0.00483071 0.00320866,-0.00459055 0.00692913,-0.0104409 0.0053189,-0.00836614 0.0089252,-0.0121693 0.0125591,-0.0186969l0.0265276 -0.0429409c0.00600787,-0.0101299 0.00814173,-0.0120866 0.0138976,-0.0208386 0.00516535,-0.00785827 0.00781496,-0.014252 0.0125591,-0.0221693l0.027685 -0.0417835c0.00507087,-0.00734646 0.00794488,-0.0140669 0.0126811,-0.0220512 0.025189,-0.0424567 0.0547362,-0.0828543 0.0789134,-0.126016 0.00534252,-0.0095315 0.00855512,-0.0123937 0.0125551,-0.0221772 0.0275945,-0.0675236 -0.00594882,-0.130602 -0.0638661,-0.155886 -0.0172677,-0.00753937 -0.0406181,-0.0104449 -0.0613307,-0.00751969 -0.0527598,0.00745276 -0.0810787,0.0585197 -0.105772,0.0991575 -0.00053937,0.000889764 -0.00212598,0.0033937 -0.00270472,0.00424409l-0.0694646 0.111146c-0.000413386,0.000606299 -0.00105118,0.00140157 -0.00147638,0.002 -0.0214331,0.030189 -0.0391811,0.0628307 -0.0589685,0.0938583 -0.0155512,0.0243858 -0.0329252,0.0470709 -0.0460748,0.0720157 -0.0123071,0.0233465 -0.0292165,0.0451693 -0.043,0.0681457 -0.00299213,0.00498819 0.000228346,7.48031e-005 -0.00392126,0.0065 -0.0222992,0.0345472 -0.0630039,0.0956535 -0.0806535,0.127748 -0.0122283,0.0222402 -0.0294213,0.0411929 -0.0398071,0.0643898 -0.0425354,0 -0.410969,0.00466142 -0.443244,-0.00134252 -0.0211417,-0.00392913 -0.0310984,-0.00690551 -0.0558701,-0.010122 -0.00522441,-0.000677165 -0.0193937,-0.00183071 -0.0279606,-0.00329921 -0.00881496,-0.00151575 -0.0144882,-0.00538189 -0.0233819,-0.00787795 -0.0176969,-0.00495669 -0.0341496,-0.00706693 -0.0494843,-0.0130354 -0.00866535,-0.00337008 -0.0153465,-0.00365354 -0.0245669,-0.00669291 -0.0234567,-0.00773622 -0.045315,-0.0185039 -0.0687244,-0.0285315 -0.011126,-0.00476772 -0.00891339,-0.00583071 -0.0202992,-0.0109606 -0.0286024,-0.0128898 -0.0557441,-0.0290906 -0.0813307,-0.0471811l-0.006 -0.00441732c-0.0171614,-0.0123031 -0.0341142,-0.0225945 -0.049689,-0.0371457l-0.0739488 -0.0684567c-0.000484252,-0.000531496 -0.00115354,-0.00131102 -0.0016378,-0.00183858l-0.00335039 -0.00359843c-0.000484252,-0.000523622 -0.00120472,-0.00125591 -0.00168898,-0.00177953l-0.0704567 -0.0893189c-0.00391339,-0.0053937 -0.003,-0.00465748 -0.0052126,-0.0086811 -0.00514961,-0.00937008 0.000452756,-0.00112598 -0.00659055,-0.0107756l-0.0375748 -0.0700984 -0.0356102 -0.0824803c-0.00461024,-0.0107362 -0.00251969,-0.0136496 -0.0054685,-0.0257913 -0.00379921,-0.015626 -0.00520866,-0.00937795 -0.00968504,-0.0250472 -0.00416535,-0.0145748 -0.0099252,-0.0297638 -0.0191535,-0.0433701 -0.011685,-0.0172323 -0.0300354,-0.0309016 -0.0485276,-0.0383071 -0.0254134,-0.0101772 -0.0283819,-0.0131575 -0.0635551,-0.00934252 -0.0166693,0.00180709 -0.0047126,4.72441e-005 -0.0135472,0.00382283l-0.0046378 0.00230709c-0.0244921,0.0113268 -0.0441299,0.0223268 -0.0586102,0.0455827 -0.00489764,0.00786614 -0.00884646,0.0119134 -0.0103386,0.0246811z"/>
   <path id="_335831304" class="fil0" d="M5.63722 0.527945c0,0.0400551 0.00411417,0.0670709 0.0350433,0.0969449l0.0312087 0.0208898c0.00588976,0.00348425 0.000759843,0.00141732 0.00836614,0.00552756 0.0253661,0.0137008 0.0853543,0.00268504 0.117717,0.0107953 0.0341969,0.0085748 0.0619449,0.00474803 0.0908583,0.0168189 0.00614567,0.00256299 0.013748,0.00416142 0.0195236,0.0047874 0.0125236,0.0013622 0.0590118,0.0149843 0.0675236,0.019311l0.0437795 0.0187362c0.00649213,0.00312992 0.0110787,0.00356693 0.0176535,0.00666535l0.0480866 0.0248504c0.0383465,0.0192283 0.0767283,0.046626 0.109634,0.0744528 0.0162047,0.0137047 0.0316811,0.0265315 0.0463346,0.0404961l0.020689 0.0209921c0.0037874,0.00374803 0.0068937,0.00642913 0.0103858,0.0104528 0.0274016,0.0315906 0.0547362,0.0639213 0.0770039,0.0966654l0.0119094 0.0193504c0.000417323,0.000602362 0.00107087,0.00138189 0.00148819,0.00198425 0.0214882,0.0311142 0.0366299,0.0737205 0.0548228,0.108425 0.00644882,0.0123031 0.0283268,0.0788543 0.0318031,0.0932362 0.00527165,0.0218268 0.012752,0.0509213 0.0144055,0.0724291 0.00294882,0.0383189 0.00627559,0.0793819 0.012126,0.119858 0.00618504,0.0427913 0.00144488,1.01109 0.00144488,1.04056l0 2.42091c0,0.0424291 -0.00738976,0.139547 0.00704331,0.166622 0.00898819,0.0168543 0.023374,0.0360276 0.0395669,0.0472677l0.0680079 0.0188228c0.0247441,0.0033622 0.0706181,-0.0160197 0.0825866,-0.0355079l0.0320315 -0.0860591 0 -3.57406c0,-0.0579488 -0.00645276,-0.106386 -0.0144291,-0.162709 -0.0023937,-0.0168937 -0.00687008,-0.0316969 -0.0102402,-0.048811 -0.00746063,-0.0378898 -0.0195945,-0.0769016 -0.0316575,-0.114217 -0.00270866,-0.00838189 -0.00620472,-0.0139843 -0.00887008,-0.0223937 -0.00388583,-0.0122795 -0.00281496,-0.0122244 -0.00844882,-0.022811 -0.0051378,-0.00965748 -0.00557087,-0.0126378 -0.00934252,-0.0219173l-0.0284094 -0.0584213c-0.024563,-0.0463346 -0.0514134,-0.0874449 -0.0811693,-0.130705 -0.00785039,-0.0114134 -0.0181732,-0.0224528 -0.026252,-0.0327953 -0.0365945,-0.0468583 -0.0778976,-0.0852244 -0.12124,-0.125366l-0.00359843 -0.00334646c-0.062622,-0.055689 -0.135008,-0.100193 -0.208839,-0.138496l-0.0406457 -0.0184016c-0.0114764,-0.004 -0.00988976,-0.00548425 -0.0183425,-0.00944488 -0.0103504,-0.00484646 -0.0136496,-0.0024252 -0.0239449,-0.00731496 -0.0094252,-0.00447638 -0.00555512,-0.00608268 -0.0185197,-0.00926378 -0.0254803,-0.00625591 -0.0284803,-0.012122 -0.0478583,-0.0146654 -0.018937,-0.00248425 -0.00970472,-0.00069685 -0.0236929,-0.00756693 -0.0177087,-0.00869291 -0.0313465,-0.00364961 -0.0484606,-0.0105827 -0.0117362,-0.00475591 -0.00249606,-0.00362205 -0.0203031,-0.00748425 -0.00663386,-0.00144094 -0.017622,-0.00206299 -0.0289291,-0.00233071 -0.0131969,-0.000314961 -0.0524094,-0.0120472 -0.107657,-0.0139094 -0.0223386,-0.000751969 -0.0700315,-0.0051811 -0.089811,0.0039685l-0.0129843 0.00785433c-0.00912598,0.0043189 -0.0106693,0.00213386 -0.0194724,0.0083189 -0.0184094,0.0129331 -0.0266299,0.0272323 -0.0361024,0.0472559 -0.000338583,0.000720472 -0.00080315,0.0016063 -0.00117323,0.00229921 -0.0053189,0.0100315 -0.0106496,0.0173031 -0.0106496,0.0310276z"/>
   <path id="_335831280" class="fil0" d="M0.21861 1.28861l9.44882e-005 2.99748c0.00146457,0.0150748 0.00470472,0.0159724 0.0124291,0.0258937 0.0182835,0.0234921 0.0435551,0.0457953 0.0748268,0.0502126 0.00614961,0.000866142 0.0314961,0.000940945 0.037937,0.000346457 0.0155039,-0.0014252 0.00966142,-0.00322835 0.0305079,-0.0111732 0.00993701,-0.0037874 0.0172638,-0.00894488 0.0255,-0.0161811 0.0232874,-0.0204606 0.0380551,-0.0480551 0.0378189,-0.083748 -0.00198425,-0.299354 -8.66142e-005,-0.603594 -8.66142e-005,-0.90315l0 -1.63594c0,-0.0983031 -0.00676772,-0.233256 0.00377165,-0.32272l0.0102835 -0.111283c0.00167323,-0.0158228 0.00685433,-0.0185118 0.00935827,-0.0323228 0.00262598,-0.0145157 0.00123622,-0.0187205 0.0059252,-0.0322835 0.00497244,-0.0143819 0.0058622,-0.0149409 0.00972047,-0.0319567l0.016122 -0.0463976c0.00387795,-0.010185 0.0034685,-0.00601181 0.00708661,-0.0137559 0.00725984,-0.0155315 0.0133307,-0.0338504 0.0252283,-0.0546535 0.00635039,-0.0111024 0.00693307,-0.0164606 0.0141575,-0.0275236l0.014437 -0.0237717c0.000417323,-0.000602362 0.00106299,-0.00138583 0.00147638,-0.00199606l0.0277677 -0.0417008c0.000425197,-0.000602362 0.001,-0.00144488 0.00141732,-0.00205512 0.0236614,-0.0342717 0.0515669,-0.0637402 0.0807874,-0.0928819l0.0946102 -0.0790512c0.035248,-0.0243583 0.0846339,-0.0566457 0.122921,-0.0715906l0.0284803 -0.0131969c0.00755906,-0.00237008 0.00870079,-0.000748031 0.0172087,-0.00363386 0.00611811,-0.0020748 0.00893701,-0.0049252 0.0135591,-0.00727953 0.00861811,-0.0043937 0.0521063,-0.0172087 0.0647717,-0.0185866 0.0192126,-0.00208661 0.0196614,-0.00615748 0.0312913,-0.0103858 0.00317323,-0.00115354 0.128189,-0.0170591 0.146311,-0.0169409 0.0107087,7.08661e-005 0.0276378,0.00108661 0.0376142,-0.000590551 0.0046378,-0.000779528 0.0104724,-0.0031063 0.0150236,-0.00581496 0.0382913,-0.0227717 0.0505512,-0.0325669 0.0685433,-0.0738661 0.00461024,-0.0105827 0.00434646,-0.0228189 0.00413386,-0.0378465 -0.000192913,-0.0134252 -0.000456693,-0.0230118 -0.00683071,-0.0349449l-0.00515748 -0.00873622c-0.0108465,-0.0231024 0.00355512,-0.00837008 -0.0288976,-0.0405669 -0.00896063,-0.00888976 -0.042874,-0.0257835 -0.0565669,-0.0267874 -0.0128937,-0.000948819 -0.0300039,-7.87402e-006 -0.0433504,-7.87402e-006 -0.000901575,0.0246535 -0.0174764,0.0232559 -0.0179173,0 -0.0601457,0 -0.0562756,0.00246457 -0.100417,0.0119803 -0.0394213,0.0085 -0.0153189,-0.00683465 -0.0705709,0.0127913 -0.0154055,0.0054685 -0.0272205,0.000299213 -0.0460354,0.00953543 -0.0296142,0.0145394 -0.0235079,0.00286614 -0.0430433,0.0125276 -0.0354843,0.0175512 -0.0191181,0.00254331 -0.0406102,0.0149685l-0.0980315 0.044374c-0.00831496,0.00459055 -0.0116457,0.00480709 -0.0191299,0.00865354l-0.0868819 0.0520512 -0.108594 0.0859134c-0.0338268,0.0316732 -0.0661614,0.0589291 -0.0980157,0.0999685 -0.0415354,0.0535118 -0.0432126,0.0527598 -0.0820709,0.112433 -0.0051378,0.00788583 -0.00612992,0.00711811 -0.0111063,0.0166772l-0.0401339 0.0744882c-0.00354724,0.00811417 -0.00401181,0.0124173 -0.00779921,0.0199882 -0.0089685,0.0179252 -0.0188268,0.0392047 -0.0248819,0.0584803 -0.0025315,0.00805906 -0.00467323,0.0106378 -0.00822047,0.019563 -0.0170118,0.0427992 -0.0456929,0.160823 -0.0467717,0.206992z"/>
   <path id="_335831448" class="fil0" d="M4.10895 4.23746c0,0.0450512 -0.00111417,0.0270276 0.0123425,0.057122 0.00982677,0.0219685 0.0255394,0.0437402 0.047311,0.0534173 0.0380669,0.0169134 0.0370551,0.0145 0.0723346,0.0145 0.0111693,0 0.0427441,-0.0160787 0.050752,-0.022189 0.018626,-0.0142126 0.0360866,-0.0384409 0.0488858,-0.0587835 0.00588583,-0.00935039 0.00939764,-0.0140039 0.0152047,-0.0230039l0.265685 -0.401193c0.00042126,-0.000598425 0.00106299,-0.0013937 0.00149213,-0.00198425l0.033315 -0.0500433c0.0152165,-0.0304331 0.0133425,-0.0107165 0.0155669,-0.0400157 0.00318898,-0.0420118 0.00630709,-0.0654764 -0.0229252,-0.0990512 -0.00254331,-0.0029252 -0.00290551,-0.0033189 -0.0048622,-0.00555906 -0.0149331,-0.0170748 -0.0295472,-0.0234803 -0.0526693,-0.0307087 -0.0969764,-0.0303228 -0.139909,0.071126 -0.182232,0.129665l-0.0848661 0.127008c-0.000429134,0.000590551 -0.00105906,0.0013937 -0.00148425,0.00198425l-0.0469173 0.0711772c-0.00522441,0.00814567 -0.00922835,0.0136378 -0.0138819,0.0208543l-0.0665118 0.100209c-0.00315354,0.00466929 -0.00116535,0.00206693 -0.00384252,0.0065748l-0.0624055 0.0938937c-0.00653937,0.0102126 -0.0202913,0.040626 -0.0202913,0.056126z"/>
   <path id="_335831640" class="fil0" d="M2.16389 5.1961c0,0.0464291 -0.00269291,0.0336614 0.0106496,0.058815l0.00220472 0.00474016c0.00393701,0.00931496 0.00103937,0.00784252 0.00732283,0.0169921 0.00161417,0.00234646 0.0102874,0.0118543 0.0131102,0.0146772 0.0170315,0.0170197 0.0499882,0.0303701 0.067437,0.0332874 0.0267008,0.0044685 0.043815,-0.000527559 0.0644606,-0.0119528 0.0244685,-0.0135354 0.0397992,-0.0248071 0.0512402,-0.0494882 0.0150748,-0.0325157 0.012815,-0.0218819 0.012815,-0.0705433 0,-0.0136929 -0.0121299,-0.0394291 -0.0214488,-0.0514921 -0.00849213,-0.0109882 -0.0140354,-0.015437 -0.0244449,-0.0241811 -0.0236417,-0.0198504 -0.0526339,-0.0215787 -0.082622,-0.0215787 -0.044185,0 -0.100724,0.0560906 -0.100724,0.100724z"/>
   <path id="_335831592" class="fil0" d="M2.59805 5.19263c0,0.0456969 0.00315354,0.0747717 0.0465669,0.109736 0.0111929,0.00901575 0.0487953,0.0213543 0.0541614,0.022248 0.0380709,0.00635827 0.0685512,-0.00919291 0.0951339,-0.033378l0.0153976 -0.0193307c0.00193701,-0.00370866 0.00201969,-0.00501181 0.00442126,-0.00947638 0.003,-0.00557874 0.00231102,-0.00298425 0.00531496,-0.00857874 0.0197953,-0.0368976 0.00526772,-0.116457 -0.048437,-0.143472 -0.0339449,-0.0170748 -0.0371496,-0.015 -0.0718307,-0.015 -0.0456929,0 -0.100728,0.0601929 -0.100728,0.097252z"/>
   <path id="_335831664" class="fil0" d="M1.53869 1.17746c0,-0.0539094 -0.0253701,-0.0955394 -0.0720866,-0.112 -0.00948031,-0.00334252 -0.0116575,-0.00611811 -0.0193386,-0.00849606 -0.0317598,-0.00983858 -0.0492205,0.0027874 -0.0683976,0.00929921 -0.0684961,0.023248 -0.0938858,0.124976 -0.0391299,0.181634 0.0250118,0.0258858 0.0422362,0.0334803 0.0780236,0.036878 0.0326732,0.00309843 0.0620079,-0.00804724 0.0836772,-0.0299488 0.0200866,-0.0203071 0.037252,-0.0379567 0.037252,-0.0773661z"/>
   <path id="_335832144" class="fil0" d="M4.689 3.37955c0,0.0083622 0.00349213,0.0362874 0.00590551,0.0427205 0.00245276,0.00653543 0.0146535,0.0243465 0.0190827,0.0295433 0.0356811,0.0418425 0.0635984,0.0388819 0.110472,0.0388819 0.0280827,0 0.0700906,-0.0327362 0.0808976,-0.0580315 0.0172795,-0.0404409 0.0195,-0.0682165 -0.00115354,-0.108547 -0.00582677,-0.0113819 -0.0136299,-0.019685 -0.0232087,-0.0288898l-0.0739016 -0.0337717c-0.0240906,-0.00524409 -0.0685472,0.018752 -0.0856575,0.0359134l-0.00511024 0.00530709c-0.0202559,0.0221024 -0.0273268,0.0468661 -0.0273268,0.076874z"/>
   <path id="_335832024" class="fil0" d="M3.03569 5.1961c0,0.0384291 -6.29921e-005,0.0681457 0.0303583,0.0946811 0.00590945,0.00515748 0.00741339,0.00570472 0.0136142,0.0106969 0.0243583,0.0196181 0.0777283,0.0325748 0.106606,0.0174173 0.00761417,-0.004 0.00351181,-0.0023937 0.00873228,-0.00516142 0.00475984,-0.00252362 0.00414567,-0.00183465 0.00947244,-0.0044252 0.010189,-0.00495276 0.00699606,-0.00319291 0.0149331,-0.00937795l0.0129921 -0.0113189 0.0325276 -0.0786181c0,-0.0271496 -0.0170551,-0.0624055 -0.0307913,-0.0768819 -0.000492126,-0.000515748 -0.00122835,-0.00123228 -0.00173622,-0.00173622 -0.0142598,-0.0142323 -0.0170315,-0.0146772 -0.0327165,-0.0228543l-0.00448031 -0.0024685c-0.0218425,-0.0129449 -0.0361693,-0.0106772 -0.0622598,-0.0106772 -0.0233465,0 -0.0478661,0.0180276 -0.0650079,0.0322441 -0.00999606,0.00829134 -0.0146693,0.016189 -0.021311,0.027315 -0.0072874,0.0122087 -0.0109331,0.0222362 -0.0109331,0.0411654z"/>
   <path id="_335832216" class="fil1" d="M0.218705 4.28609l-9.44882e-005 -2.99748c-0.016189,0.0271457 -0.0102087,0.338764 -0.0102087,0.364701l0 2.54595c-3.93701e-006,0.0272165 -0.00243701,0.0434094 0.00353543,0.0694094l0.00676772 0.0174252z"/>
   <path id="_335832576" class="fil2" d="M4.49705 5.85256c0.00774803,-0.0544331 0.00441732,-0.196669 -0.000358268,-0.253555 -0.0102047,0.00917323 -0.00814567,0.0112441 -0.00935827,0.024185 -0.0063622,0.0678937 -0.00441732,0.134126 -7.87402e-006,0.201748 0.000429134,0.00657874 -0.000566929,0.00962992 0.00145669,0.0158661 0.00649606,0.0200236 -0.0012126,0.00372047 0.00826772,0.0117559z"/>
   <path id="_335832792" class="fil2" d="M5.55385 1.86254c0.0159567,-0.000480315 0.0170591,-0.00180709 0.0183858,-0.0178071l0.000515748 -0.0736969c-0.000181102,-0.0201142 0.000708661,-0.0212441 -0.0189016,-0.0224449l0 0.113949z"/>
   <path id="_335832648" class="fil2" d="M6.15127 5.73793l0.016874 -0.00011811 -0.0093189 -0.134606c-0.00906693,-0.00162992 0.000429134,-0.000137795 -0.00755512,-0.000700787 0,0.0239331 -0.000185039,0.0449252 0.00202362,0.0674567 0.00107087,0.0108819 -0.00202362,0.048626 -0.00202362,0.0679685z"/>
   <path id="_335832960" class="fil1" d="M1.44097 0.795394l-0.000232283 -0.0868346c-0.00905118,0.0125039 -0.00979528,0.0204213 -0.00979921,0.041626 -7.87402e-006,0.0262008 -0.00205512,0.0295551 0.0100315,0.0452087z"/>
   <path id="_335832360" class="fil1" d="M0.246236 6.22768l9.05512e-005 -0.0798858c-0.0148386,0.0182953 -0.0140709,0.0622283 -9.05512e-005,0.0798858z"/>
   <path id="_335832624" class="fil2" d="M4.46976 1.08715c0.00217323,-0.00725197 0.00407874,-0.0177323 0.00375984,-0.0279921 -0.000488189,-0.0158858 -0.00209449,-0.0161457 -0.0172362,-0.0174016 0,0.020063 0.00470866,0.0341811 0.0134764,0.0453937z"/>
   <path id="_335833776" class="fil2" d="M1.91938 6.72089l-0.021811 0c0.000956693,0.0239252 0.0215079,0.0250512 0.021811,0z"/>
   <path id="_335833272" class="fil2" d="M1.16884 0.42722l-0.0179173 0c0.000440945,0.0232559 0.0170157,0.0246535 0.0179173,0z"/>
  </g>
 </g>
</svg>
