<?xml version="1.0" encoding="UTF-8"?>
<!DOCTYPE svg PUBLIC "-//W3C//DTD SVG 1.1//EN" "http://www.w3.org/Graphics/SVG/1.1/DTD/svg11.dtd">
<!-- Creator: CorelDRAW -->
<svg xmlns="http://www.w3.org/2000/svg" xml:space="preserve" width="7.74063in" height="4.48002in" style="shape-rendering:geometricPrecision; text-rendering:geometricPrecision; image-rendering:optimizeQuality; fill-rule:evenodd; clip-rule:evenodd"
viewBox="0 0 7.74064 4.48002"
 xmlns:xlink="http://www.w3.org/1999/xlink">
 <defs>
  <style type="text/css">
   <![CDATA[
    .fil0 {fill:black}
   ]]>
  </style>
 </defs>
 <g id="Layer_x0020_1">
  <metadata id="CorelCorpID_0Corel-Layer"/>
  <g id="_504107680">
   <path id="_498223048" class="fil0" d="M1.52928 3.05336c0.0309646,0 0.0649174,-0.0303701 0.0794961,-0.047504 0.0253583,-0.0298071 0.0245866,-0.0649961 0.0302047,-0.0987087 0.00351181,-0.0210748 0.0114685,-0.0222953 0.0171457,-0.0470591 0.00245669,-0.0107126 0.00225984,-0.0163347 0.00611811,-0.0257244 0.00333071,-0.00810237 0.00681103,-0.00966142 0.0112047,-0.0212047 0.0067441,-0.0177244 0.00525591,-0.0339095 0.0137598,-0.0500591l0.0392677 -0.0851142c0.0091063,-0.0213032 0.0580473,-0.102795 0.0704843,-0.11852l0.0563504 -0.0720433c0.0427126,-0.0566457 0.101543,-0.115661 0.158453,-0.15898 0.0118622,-0.0090315 0.0277205,-0.017252 0.0378229,-0.0264016 0.0215315,-0.0195079 0.0349055,-0.0263819 0.0569961,-0.0392717 0.0127402,-0.00742914 0.00738583,-0.00725591 0.0180591,-0.0143032 0.0286103,-0.0188898 0.0539095,-0.0269646 0.0810394,-0.0433229 0.051,-0.030752 0.0562166,-0.0220945 0.0890197,-0.039441 0.0143898,-0.00761024 0.0340079,-0.009 0.0477599,-0.0166575 0.0205551,-0.0114449 0.0129803,-0.0117205 0.0427677,-0.0160276 0.0382638,-0.00552756 0.0710945,-0.0168268 0.108567,-0.0221142 0.0369803,-0.00521654 0.0683701,-0.0208819 0.103811,-0.0208819l0.19278 0 0.209099 0.044126 0.13937 0.054504c0.0144016,0.00937008 0.0452717,0.0265512 0.0602677,0.0319646 0.0188662,0.00680709 0.0232874,0.0147835 0.0414173,0.0227087 0.0190669,0.00833465 0.0402402,0.0267756 0.0583032,0.0380158l0.0347362 0.0254606c0.0148071,0.0108268 0.022,0.0176496 0.0370591,0.0274961 0.013815,0.00903544 0.0187835,0.0173701 0.0324331,0.0277126 0.0225945,0.0171221 0.0435433,0.0403307 0.0635552,0.0609922 0.0101772,0.0105079 0.0225551,0.0220276 0.0310709,0.0334252l0.0769056 0.0995709c0.0106417,0.0122874 0.0481496,0.0753741 0.0531024,0.0872441 0.0110197,0.0264213 0.0319725,0.0560788 0.0423858,0.0825119 0.00812205,0.0206221 0.0153661,0.0263032 0.0203347,0.0438701l0.0300984 0.0983229c0.0046378,0.0101299 0.00743701,0.00987008 0.0113622,0.0213937l0.0226811 0.130008c0.0021063,0.0207913 0.00422835,0.0393189 0.00414961,0.0596496 -8.66142e-005,0.0221772 0.0032441,0.0393937 0.0032441,0.0563189 0,0.091252 -0.00278347,0.154445 -0.0204252,0.244354 -0.00351575,0.0179291 -0.00359843,0.0342047 -0.00662205,0.0527717 -0.00329921,0.0202677 -0.0127402,0.0247992 -0.0185158,0.0462953 -0.00701969,0.0261063 -0.00575985,0.0253543 -0.0148858,0.0453465 -0.00690158,0.0151221 -0.00708268,0.0339606 -0.0151654,0.0495158 -0.0136496,0.0262795 -0.0275748,0.0527323 -0.0402362,0.0843268 -0.0122244,0.0305079 -0.0280315,0.0467205 -0.0451339,0.0791182 -0.00959843,0.0181772 -0.0449882,0.0622638 -0.0633347,0.0931615 -0.00788583,0.0132756 -0.0314764,0.0353898 -0.0434685,0.0489252 -0.0383662,0.0433189 -0.083252,0.0866418 -0.126886,0.122402l-0.031815 0.0278465c-0.0161693,0.0141142 -0.0424213,0.0233386 -0.0598071,0.0370748 -0.00724804,0.00572441 -0.00588583,0.00648032 -0.0154291,0.0124567 -0.0254882,0.0159685 -0.0974843,0.0580158 -0.123319,0.0655591 -0.0167047,0.00487796 -0.0675158,0.0294567 -0.0864134,0.0380669 -0.0156654,0.0071378 -0.0312717,0.00622048 -0.0497835,0.0110158 -0.0194016,0.00502362 -0.0228189,0.0119921 -0.0466811,0.0162323 -0.0584252,0.0103858 -0.091567,0.0269016 -0.159638,0.0269016 -0.0694961,0 -0.261862,0.0105827 -0.329264,-0.0169016 -0.0164213,-0.00669292 -0.0291929,-0.0061378 -0.0504449,-0.0107008 -0.0218662,-0.00469292 -0.0225315,-0.0110079 -0.0431929,-0.0160079 -0.017937,-0.00434252 -0.0370079,-0.00485827 -0.0501851,-0.0105394l-0.0425079 -0.0177323c-0.0204725,-0.00741339 -0.0126811,-0.0119764 -0.0402166,-0.0199685 -0.0220354,-0.00639764 -0.0206969,-0.0113937 -0.0409016,-0.0192284 -0.0268858,-0.0104252 -0.0521693,-0.0307914 -0.077378,-0.0430118 -0.028252,-0.0136929 -0.047,-0.0339921 -0.0730315,-0.0475709 -0.0322559,-0.0168228 -0.0667284,-0.0643111 -0.09663,-0.0839646 -0.0153701,-0.0101063 -0.0683622,-0.0667874 -0.0755276,-0.0771378 -0.00638189,-0.00920867 -0.0057441,-0.00848426 -0.0121417,-0.015874 -0.0201142,-0.0232402 -0.0379252,-0.0425748 -0.0521929,-0.0681181 -0.00970079,-0.0173662 -0.029004,-0.0349882 -0.0391575,-0.0540591l-0.0897126 -0.178827c-0.00578347,-0.0228701 -0.00418504,-0.023815 -0.0148661,-0.0454921 -0.00929528,-0.018874 -0.00741733,-0.029063 -0.0130984,-0.0470355 -0.00617323,-0.0195236 -0.0111811,-0.0202205 -0.0172205,-0.0425394 -0.00716929,-0.0264843 -0.0324685,-0.0546181 -0.0573977,-0.0635 -0.0484567,-0.0172677 -0.126764,-0.0102638 -0.150433,0.0420197 -0.0190158,0.0419961 -0.0277599,0.0676221 -0.00941733,0.113693 0.00951969,0.0239134 0.00805119,0.0497323 0.019626,0.0727087 0.00817323,0.0162284 0.00827166,0.0134882 0.0139764,0.0339292l0.0246575 0.068004c0.00590551,0.0179764 0.0346614,0.0670985 0.0450866,0.0917008 0.00853544,0.0201339 0.0259449,0.0421457 0.0353858,0.0569252 0.0116575,0.0182441 0.019063,0.0408937 0.0330945,0.0591221 0.0087126,0.0113228 0.0107756,0.0125787 0.0207559,0.0275433 0.0183504,0.0275197 0.0387914,0.0512599 0.0592677,0.0775158 0.021563,0.0276496 0.0444764,0.0496063 0.0660473,0.074315 0.0206339,0.0236339 0.0467796,0.0433189 0.0693622,0.0670906 0.0240984,0.0253701 0.0871221,0.0636811 0.101154,0.0847323 -0.0386929,0.00703544 -0.0621496,0.00890945 -0.101496,0.00890945 -0.510103,0 -1.02035,0.00397638 -1.53043,0.00019685 -0.017437,-0.000129921 -0.0373307,0.000417323 -0.0373307,-0.0171417 0,-0.0399725 0.0124173,-0.197646 0.0180394,-0.235725 0.00506693,-0.0343347 0.0131417,-0.0437087 0.0181969,-0.094315 0.00209055,-0.0209528 0.019374,-0.11928 0.0255788,-0.139421 0.00517717,-0.0167874 0.0110787,-0.0186496 0.0157874,-0.0400866 0.0029252,-0.0133307 0.00537796,-0.0344213 0.00991339,-0.0472481 0.00625591,-0.017685 0.00904725,-0.0235394 0.012437,-0.042567 0.00423622,-0.0238071 0.00346457,-0.0228583 0.0150197,-0.0419882l0.0292008 -0.0838937c0.00485433,-0.0215039 0.0364449,-0.084689 0.0473307,-0.116665 0.00524016,-0.0153937 0.0120394,-0.0190473 0.0192559,-0.0370591 0.00276378,-0.00690158 0.00506693,-0.0132756 0.00888977,-0.019126 0.0178465,-0.0273032 0.0285433,-0.0652599 0.0481496,-0.0925158 0.0104606,-0.0145394 0.010315,-0.0238189 0.0186457,-0.0377717l0.0750315 -0.117654c0.0151299,-0.0227441 0.0267362,-0.0454292 0.0451654,-0.0672166 0.017878,-0.0211339 0.0308583,-0.043937 0.0609803,-0.0798347l0.0999646 -0.120815 0.0551654 -0.057504c0.0387441,-0.0429134 0.0985315,-0.102469 0.142555,-0.134382l0.0615237 -0.0508583c0.0247677,-0.0225591 0.0534252,-0.0384331 0.0802048,-0.0599095l0.114079 -0.078941c0.00759843,-0.0053189 0.0108347,-0.00587008 0.0178701,-0.0105512 0.00949213,-0.00631496 0.00503937,-0.00572441 0.0167008,-0.0113898 0.0234764,-0.0114016 0.0149528,-0.00588583 0.0348937,-0.0212087 0.0104331,-0.00801969 0.0261536,-0.0131614 0.0368977,-0.0193425l0.145598 -0.0756024c0.0147677,-0.00535433 0.0682914,-0.0273228 0.0782953,-0.0339921 0.0157008,-0.0104606 0.022311,-0.00633071 0.0380551,-0.0140354 0.0131614,-0.00644095 0.00551575,-0.00548425 0.017937,-0.0104961 0.00578347,-0.00233071 0.0152677,-0.00387795 0.0224921,-0.00537008l0.0842008 -0.0282638c0.0259764,-0.0106378 0.0289685,-0.0155039 0.0586181,-0.0102953 -0.0618504,0.0630866 -0.121669,0.124256 -0.177122,0.193193 -0.0108071,0.0134331 -0.0191496,0.0284252 -0.0275158,0.0447284 -0.00718111,0.014 -0.0255512,0.0243622 -0.0433622,0.0649646 -0.0106693,0.0243189 -0.0337008,0.0457087 -0.0419095,0.0703268 -0.0115709,0.0346929 -0.0355551,0.0625355 -0.0459921,0.0991851 -0.00253937,0.00892914 -0.00561811,0.0201929 -0.00880315,0.0270236l-0.020874 0.0514607c-0.00646063,0.0126221 -0.00748426,0.00841339 -0.012063,0.0244606 -0.00583465,0.0204567 -0.00512205,0.0376024 -0.0131772,0.0584488l-0.0285315 0.117008c0,0.0134606 0.0142756,0.0546536 0.0220551,0.0669764l0.0115197 0.0125984c0.0291103,0.0328386 0.0598662,0.0392874 0.103744,0.0392874zm2.48268 -2.12304c0,-0.00566536 0.0168032,-0.0598307 0.0197795,-0.0681811 0.00711418,-0.019941 0.0243268,-0.0370473 0.0357874,-0.0522835 0.0237402,-0.0315591 0.0825079,-0.0598347 0.116504,-0.0598347l0.0481969 0c0.0255079,0.00409449 0.0757284,0.024941 0.0943504,0.0416614 0.0513544,0.0461063 0.0838937,0.0816969 0.133811,0.131134l0.134571 0.134784c0.0567559,0.0528465 0.151158,0.155689 0.198929,0.198669 0.0238701,0.0214764 0.0460276,0.0467284 0.0683268,0.0683268l0.233268 0.232473c0.00927166,0.0107598 0.0218268,0.0231575 0.0320788,0.032311 0.0264331,0.0236142 0.171193,0.170807 0.197165,0.199571 -0.0157835,0.0205158 -0.0427362,0.0558662 -0.0610827,0.072504l-0.196036 0.195225c-0.0629528,-0.0552323 -0.0829331,-0.0740512 -0.142008,-0.132886l-0.405607 -0.405685c-0.083315,-0.0828859 -0.200579,-0.206114 -0.281862,-0.280366l-0.0233071 -0.0249016c-0.0212047,-0.0208032 -0.00761418,-0.00444488 -0.0342953,-0.0340315 -0.0208898,-0.0231575 -0.0438465,-0.0437756 -0.0662048,-0.0663032 -0.0230512,-0.0232205 -0.0469213,-0.0422126 -0.0658898,-0.0705945 -0.017685,-0.0264725 -0.0364764,-0.0792756 -0.0364764,-0.111591zm-3.77665 0.586394c0,-0.0252638 0.0302284,-0.0414173 0.0354803,-0.0455158 0.0172599,-0.0134724 0.00277165,-0.00537008 0.0254134,-0.0189016 0.029126,-0.0174095 0.033815,-0.025941 0.0468859,-0.0372795l0.0515315 -0.0290906c0.0167795,-0.00884252 0.00755118,-0.00840158 0.0224213,-0.0176693l0.102421 -0.0621614c0.010685,-0.00692914 0.018874,-0.00774804 0.0292205,-0.014748 0.0131732,-0.00891733 0.034504,-0.027437 0.048063,-0.0322402 0.0380236,-0.0134764 0.0588465,-0.033811 0.0803819,-0.0438622l0.0556851 -0.0250118c0.0166772,-0.00708268 0.0131339,-0.010437 0.0270394,-0.0175866l0.0566418 -0.0237874c0.0432126,-0.0154055 0.0168071,-0.0132559 0.0412126,-0.022563 0.00628347,-0.00239764 0.00818111,-0.00196063 0.0158622,-0.00414961 0.0152323,-0.00433858 0.0158661,-0.0077126 0.0272323,-0.0130394 0.00867717,-0.00406693 0.0209961,-0.00559449 0.0306732,-0.00937402 0.011689,-0.00456693 0.012685,-0.00898426 0.0250118,-0.0151299 0.0114685,-0.00572048 0.0173583,-0.00484252 0.0301024,-0.0101142 0.0107284,-0.00443701 0.0147284,-0.00879528 0.0275551,-0.0122835 0.014437,-0.0039252 0.0169173,-0.00201181 0.0312756,-0.00906693 0.016126,-0.0079252 0.0722441,-0.0315276 0.0893937,-0.0357166 0.057626,-0.0140748 0.0190236,-0.00461418 0.0603071,-0.0199449 0.0116299,-0.00432284 0.024626,-0.00496063 0.0347677,-0.00912599 0.0166339,-0.00683071 0.00612599,-0.0075 0.0275788,-0.0133307 0.0218189,-0.00592914 0.0434134,-0.00520473 0.065504,-0.0141496 0.0155551,-0.00629922 0.0192638,-0.00815355 0.0336654,-0.0106339 0.0596575,-0.0102717 0.0300906,-0.0119055 0.0600709,-0.0201102 0.0104449,-0.00285827 0.0217795,-0.00319292 0.0350669,-0.00468504l0.136571 -0.0282756c0.0325394,-0.0120197 0.0281772,-0.0106535 0.0687874,-0.014748 0.0205433,-0.00207087 0.0474646,-0.00581496 0.0706654,-0.0107126 0.0460984,-0.00973623 0.0971733,-0.00925985 0.149465,-0.0160236 0.0230827,-0.00298819 0.0431851,-0.00979922 0.0696221,-0.0130906 0.0286614,-0.00356693 0.051878,-0.00109449 0.0802048,-0.00261811l0.152823 -0.00661024c0.166244,0 1.56032,-0.00507874 1.60031,0.00270079l0.0017441 0.15852 0.0252165 0.103618c0.00594882,0.0125 0.0147913,0.0274725 0.0221614,0.0423819 0.00418898,0.00847638 0.00934646,0.0144882 0.0122717,0.0200276 0.0176339,0.0333662 -0.0305827,0.0260906 -0.0632284,0.0260827l-1.02415 0c-0.216425,0 -0.46778,-0.0071063 -0.678906,0.0064567 -0.039941,0.00256693 -0.0824331,0.00764961 -0.12448,0.00999607 -0.0363071,0.00202362 -0.0898937,0.00280315 -0.122441,0.013874 -0.0394921,0.0134331 -0.0731221,0.00799213 -0.114268,0.0178583 -0.020811,0.00499213 -0.031878,0.00915748 -0.0564843,0.0119488 -0.0584764,0.00662599 -0.10926,0.0224016 -0.164937,0.0400866 -0.0147756,0.00469685 -0.0431063,0.00583859 -0.0592953,0.00981497l-0.0787244 0.0253819c-0.0470591,0.0209882 -0.0680355,0.0159843 -0.127268,0.0413662 -0.0244055,0.0104567 -0.0021063,0.0100669 -0.0485118,0.0193898 -0.0263307,0.00529134 -0.0949095,0.0398583 -0.0962245,0.0402795 -0.0442126,0.0140984 -0.0604843,0.0212008 -0.0955512,0.0414134l-0.0708386 0.0298504c-0.00964567,0.00529134 -0.00716929,0.00699607 -0.0190866,0.0130787 -0.00778347,0.00396851 -0.0167874,0.00562992 -0.0251536,0.0107284 -0.0455984,0.0277914 -0.0162205,0.00540158 -0.0658544,0.0345197l-0.0664961 0.0377677c-0.00888583,0.00589764 -0.0118898,0.00564567 -0.0211614,0.0109213 -0.021626,0.012311 0.00455512,0.000905512 -0.0426614,0.0254252 -0.0106693,0.00553937 -0.0304921,0.0193347 -0.0410236,0.0274291 -0.0282047,0.0216851 -0.048504,0.0257559 -0.0835315,0.0532126l-0.10198 0.0707441c-0.00839764,0.00530709 -0.0105709,0.00851969 -0.0177913,0.0142874l-0.0681575 0.0525118 -0.0185276 0.0176181c-0.056437,0.0382205 -0.0629567,0.0676693 -0.108323,0.0706969 -0.00405118,-0.0402953 -0.00129528,-0.350559 -0.00125197,-0.416638zm4.84033 -0.33002l-0.0955079 -0.0803307 -0.174795 -0.174847c-0.0133701,-0.0158425 -0.0792953,-0.0708465 -0.0822205,-0.0889292 0.0188701,-0.0134016 0.0440079,-0.010748 0.069752,-0.00753544 0.0238701,0.00298425 0.0515827,0.00285433 0.0742205,0.00486221 0.015441,0.00136614 0.115358,0.030437 0.123973,0.0344646 0.0372953,0.0174213 0.0105197,-0.00622048 0.0558662,0.0246536 0.0124016,0.00844489 0.0160473,0.00572441 0.0286142,0.0113543 0.0108583,0.00486221 0.0120394,0.0084252 0.0236221,0.0127205 0.0105472,0.00390551 0.0181772,0.00392914 0.0295669,0.010315 0.0201614,0.0113071 0.0474173,0.030378 0.0778622,0.038374 0.0228662,0.00600788 0.0117126,0.00349213 0.0262323,0.0141142 0.0110906,0.00811811 0.0148032,0.0066063 0.0268819,0.0131496 0.0106339,0.00576378 0.0133543,0.00909449 0.0263268,0.0136811 0.0518583,0.0183347 0.0688071,0.0355669 0.107579,0.0496181l0.0520985 0.0242008c0.023,0.0145197 0.0501496,0.0280709 0.0787481,0.0375788 0.0158504,0.00527166 0.0148661,0.00629922 0.0259685,0.0141142 0.013441,0.0094567 0.0684607,0.0301339 0.0815237,0.0351063l-0.0181339 0.0133347 -0.538177 0zm-1.80368 -1.07572c0,0.0201417 -0.000952756,0.0457756 0.009563,0.0626575 0.0205315,0.0329567 0.0528977,0.0546614 0.07763,0.0834843 0.0337205,0.0392992 0.0775788,0.0784331 0.11337,0.115528l0.152744 0.152677c0.0199567,0.0206929 0.0417323,0.0373701 0.0579803,0.0617008l-0.0293662 0.00632677 -0.56339 -0.00364173c-0.0185827,-0.090815 0.00920867,-0.430583 -0.00968898,-0.484473 -0.00649607,-0.0185276 -0.044374,-0.0583032 -0.0614961,-0.062126 -0.063874,-0.0142598 -0.122272,-0.00400788 -0.154508,0.0581654 -0.0175433,0.0338347 -0.0092126,0.265173 -0.00951182,0.318961l-0.00184646 0.167563c-0.0620473,0.012685 -0.150335,0.00555118 -0.215673,0.00555118 -0.0310551,0 -0.0225315,-0.0329095 -0.0224843,-0.0606496 9.44882e-005,-0.0551299 0.00480315,-0.354748 -0.000996063,-0.385252 -0.0057441,-0.0302244 -0.0179291,-0.0680866 -0.0442362,-0.0851378 -0.000992126,-0.00064567 -0.00398425,-0.00236221 -0.00493307,-0.00305512 -0.0215354,-0.0157165 -0.0243583,-0.0225669 -0.0759528,-0.0225669 -0.0364843,0 -0.0648898,0.0163032 -0.0850867,0.0412087 -0.00443307,0.00546851 -0.011378,0.0212441 -0.0153898,0.029126 -0.0196417,0.0386024 -0.0100669,0.109827 -0.0100669,0.160591 0,0.0448307 0.00440945,0.216319 0,0.253032l-0.0177244 0.0727048c-0.0699174,8.66142e-005 -0.147555,0.00554725 -0.216504,-0.00127165 -0.0173976,-0.0740433 0.016689,-0.434236 -0.0158701,-0.485977 -0.0204725,-0.0325394 -0.0106024,-0.0224921 -0.0370748,-0.0472835 -0.0164016,-0.00988189 -0.0594449,-0.0221299 -0.0802166,-0.0221299 -0.0214606,0 -0.0415236,0.00683465 -0.0551614,0.0192638 -0.0177008,0.0161299 -0.036878,0.0257205 -0.0437284,0.0521693 -0.0176496,0.0681733 -0.0109843,0.403469 -0.011748,0.498733 -0.026315,0.0108661 -0.0873937,0.00858662 -0.120575,0.0150984 -0.0511142,0.0100276 -0.0622481,0.0107008 -0.114721,0.008063 0,-0.0853347 0.00815748,-0.399016 -0.00772835,-0.458189 -0.00993701,-0.0370158 -0.0507126,-0.0612363 -0.0821418,-0.0753386 -0.0516142,-0.0231575 -0.108201,0.021378 -0.136457,0.0609055 -0.0189213,0.0264764 -0.0103347,0.152 -0.0103347,0.198583 0,0.0394646 0.00492914,0.285414 -0.000704725,0.312551 -0.00737008,0.0355 -0.063689,0.0312362 -0.109756,0.0464055 -0.0295394,0.00972835 -0.0884567,0.0187795 -0.121618,0.0261929 -0.0111535,-0.0215709 -0.00459843,-0.243146 -0.00459843,-0.288756 0,-0.0464528 0.00411418,-0.0865237 -0.0215945,-0.127067 -0.0220984,-0.0348504 -0.0561575,-0.0470079 -0.0949213,-0.0519646 -0.0494055,-0.0063189 -0.0886811,0.0262992 -0.111047,0.0681024 -0.0226063,0.0422481 -0.0155473,0.100969 -0.0157835,0.151091l-0.00315748 0.337378c-0.0235473,0.0170906 -0.0201732,0.0178937 -0.0528504,0.0255512 -0.0215315,0.00504331 -0.0374016,0.0148661 -0.0579134,0.0225315 -0.0169291,0.00632284 -0.0139016,0.00941733 -0.0247874,0.0153661 -0.00976772,0.00533465 -0.023815,0.00687796 -0.0314134,0.00955512 -0.0168189,0.0059252 -0.0405276,0.0271969 -0.0598701,0.0129882 -0.0116221,-0.00853544 -0.000488189,-0.299992 -0.00344488,-0.355201 -0.00164173,-0.0306181 -0.00403937,-0.0361339 -0.0161614,-0.0572048 -0.0105591,-0.0183504 -0.0177205,-0.0277599 -0.0336457,-0.038626 -0.0388189,-0.022378 -0.0463859,-0.0248504 -0.087941,-0.0248504 -0.0142756,0 -0.0307284,0.0151063 -0.043941,0.0206063 -0.0523544,0.0217874 -0.0583189,0.0914725 -0.0581811,0.144366l3.93701e-005 0.401693c0.000212599,0.0279488 0.000838583,0.0350788 -0.0103701,0.052 -0.00875591,0.0132165 -0.0276024,0.0201457 -0.0397677,0.0286378 -0.014,0.00976772 -0.0278977,0.0129646 -0.0420827,0.0223622 -0.0173898,0.0115197 -0.022811,0.0195984 -0.0400512,0.0280788l-0.0442677 0.0241851c-0.0193976,0.00965749 -0.0250748,0.0247441 -0.0507126,0.0247441 -0.0221417,0 -0.0127953,-0.0337953 -0.0127874,-0.0635866 2.36221e-005,-0.0708622 0.00849213,-0.351205 -0.0116772,-0.389051 -0.0148032,-0.0277795 -0.0722756,-0.0521418 -0.104055,-0.0573662 -0.0317362,0 -0.0337166,0.00630709 -0.0512048,0.0176693 -0.0203858,0.013248 -0.0253071,0.00652756 -0.0395866,0.0289252 -0.0260276,0.0408229 -0.0270906,0.0593071 -0.0268465,0.114654l3.54331e-005 0.83943c0,0.0629882 -0.00855119,0.290244 0.00992914,0.336977 0.0205197,0.0519016 0.0388032,0.091563 0.0901024,0.122303 0.0332677,0.019937 0.0379134,0.0366103 0.0945749,0.0425433 0.0343819,0.00359843 0.106154,0.00322047 0.130106,-0.00923623 0.0528071,-0.0274606 0.0862717,-0.0565158 0.130646,-0.0946615 0.00559449,-0.00481103 0.00588189,-0.00422047 0.0112756,-0.00884252 0.00915355,-0.00785433 0.008,-0.00944882 0.0184882,-0.0174173 0.0137284,-0.0104331 0.0284134,-0.0175197 0.0403977,-0.0280315 0.0130039,-0.0114055 0.0238386,-0.0210945 0.0366024,-0.0315984 0.00837008,-0.00688583 0.00861024,-0.00579134 0.0199882,-0.0120984 0.0228071,-0.0126417 0.0414921,-0.0323229 0.0624882,-0.046315 0.0341811,-0.0227756 0.0917363,-0.0671733 0.124925,-0.083563 0.0126339,-0.00624016 0.00193701,-4.72441e-005 0.0106811,-0.00556693l0.0357638 -0.0202638c0.0136772,-0.0104606 -0.000838583,-0.00450394 0.0178268,-0.0142126 0.0453662,-0.0235866 0.0911615,-0.0514173 0.137079,-0.0720473 0.0133701,-0.00600788 0.00948819,-0.00731103 0.0223307,-0.0140354l0.0445709 -0.0236811c0.00855512,-0.00303937 0.0201299,-0.00459055 0.0279449,-0.00793307 0.0124646,-0.00533071 0.0073504,-0.00657481 0.0229921,-0.0132008 0.00672441,-0.00284646 0.016185,-0.0051378 0.0230315,-0.00890552 0.0359449,-0.0197953 0.00972835,-0.00817717 0.0505394,-0.0220158l0.0490866 -0.018748c0.0141929,-0.00546457 0.0128819,-0.00809449 0.0227244,-0.0136811 0.0274882,-0.0156063 0.074189,-0.019374 0.104205,-0.0326575 0.0281536,-0.0124606 0.013874,-0.0105433 0.052004,-0.020441 0.0268662,-0.00697244 0.0831142,-0.0232599 0.107059,-0.0332677 0.0196339,-0.00820867 0.0358268,-0.00601969 0.0560551,-0.0119095 0.0215551,-0.00627953 0.0337087,-0.0129291 0.0566811,-0.016 0.0214685,-0.00287008 0.0415709,-0.00337402 0.0587441,-0.00912599 0.0245197,-0.0082126 0.0282323,-0.0109173 0.0574685,-0.014748 0.0466142,-0.00611024 0.0682914,-0.0194843 0.118362,-0.0215669 0.0884922,-0.00367717 0.160681,-0.0199213 0.256961,-0.0234055l1.97199 0c0.0197953,0 0.0255039,0.0111969 0.0375669,0.0210945 0.0202717,0.0166299 0.0252953,0.0301181 0.0464921,0.0457796 0.0111693,0.00824804 0.0879567,0.0880945 0.104386,0.104335 0.00714174,0.00705906 0.00930315,0.00712205 0.0134173,0.0109921l0.0117953 0.0160512c0.0121457,0.0149921 0.0281417,0.0219095 0.0390118,0.0375 0.00857087,0.0122992 0.00203543,0.00382677 0.0133976,0.0145473l0.0521221 0.0522362c0.0144331,0.0132874 0.0143386,0.0105315 0.0268386,0.0253701 0.00861024,0.0102244 0.014563,0.0180709 0.0262874,0.026252l0.0130906 0.0109724c0.0064252,0.00771654 0.00560237,0.00816142 0.0124843,0.0154803l0.0261496 0.0293898c-0.0317244,0.00535433 -0.0468859,0.00667717 -0.0816575,0.00666929 -0.0788504,-1.1811e-005 -0.0494252,-0.00595276 -0.115012,0.0172165 -0.0144921,0.00511811 -0.0176024,0.00795276 -0.0271851,0.0167913 -0.014748,0.0136102 -0.031752,0.0351614 -0.0352402,0.0576221 -0.00333465,0.0214803 -0.00493307,0.0548425 0.00503937,0.0764292 0.0178307,0.0385906 0.0625906,0.068437 0.104469,0.0716378 0.0623111,0.00475591 0.276988,0.000751969 0.357138,0.000248032 0.0610827,-0.00038189 0.0504213,0.0127205 0.0903583,0.0467362 0.0128819,0.0109724 0.010185,0.0116221 0.0210197,0.0228976 0.0124173,0.0129213 0.0272244,0.0212244 0.0359488,0.0325158 0.0099567,0.0128858 0.0200945,0.024252 0.0332126,0.0349921 0.032878,0.0269134 0.0119055,0.0709922 0.0119055,0.124335 0,0.0574134 0.0238583,0.114315 0.0605827,0.156819 0.0231102,0.026748 0.0817363,0.0860867 0.107937,0.108811 0.0311575,0.0270197 0.0439725,0.0473859 0.0676615,0.0757638 -0.0101811,0.0343583 -0.0306457,0.0721418 -0.0370433,0.106913 -0.00370079,0.0200945 -0.00359843,0.0227008 -0.0120394,0.0359095 -0.0120984,0.0189291 -0.00636221,0.0192126 -0.0130866,0.0350945 -0.00807481,0.0190906 -0.0121063,0.0167047 -0.0221102,0.0497441l-0.0207756 0.0514843c-0.008,0.0191063 -0.0107717,0.00927953 -0.0187599,0.0295827 -0.00596851,0.0151811 -0.0218228,0.0570788 -0.0291575,0.0675433l-0.0185591 0.0294725c-0.023252,0.0446536 -0.0635315,0.115146 -0.0920394,0.153004 -0.0106063,0.0140827 -0.00955512,0.0143189 -0.0181811,0.029874 -0.00493307,0.00890158 -0.0122992,0.0180473 -0.0195827,0.0286732 -0.0102165,0.0149173 -0.0125236,0.00929134 -0.0215039,0.0268071 -0.0108465,0.0211732 -0.00651181,0.0135866 -0.0192087,0.0292874l-0.0639803 0.0802481c-0.00637008,0.00705512 -0.0173701,0.0197874 -0.0221732,0.0260433 -0.0107913,0.0140473 -0.0128032,0.0140866 -0.0227205,0.025374 -0.0238425,0.0271417 -0.124988,0.134134 -0.143898,0.149201 -0.011311,0.00901575 -0.0156614,0.0127598 -0.0254882,0.0227008l-0.186469 0.150941c-0.0207559,0.0133622 -0.0338189,0.0287756 -0.0556929,0.0411614l-0.0432087 0.0288268c-0.0155984,0.0105512 -0.0317205,0.0166378 -0.0446496,0.0274528 -0.012878,0.0107677 -0.0742166,0.0436693 -0.0942481,0.0544725 -0.0175118,0.00944095 -0.0128898,0.0125197 -0.0286457,0.0192441l-0.0674646 0.0294921c-0.0145512,0.00720473 -0.0111102,0.0113228 -0.0303386,0.0180906 -0.0181811,0.00640158 -0.0535118,0.0174331 -0.06863,0.0275118 -0.0274685,0.018311 -0.0398858,0.0151378 -0.0677048,0.0287126 -0.0147874,0.00721654 -0.0219016,0.00693307 -0.0368229,0.0111969 -0.0164606,0.00470473 -0.0182559,0.0105709 -0.0323071,0.0159764 -0.0125827,0.00484252 -0.0261772,0.00619685 -0.0374173,0.0103701 -0.0341851,0.0126929 -0.0551575,0.012752 -0.0757481,0.0204173 -0.0644961,0.0240118 -0.0206575,0.00766536 -0.0751496,0.0218268l-0.0407205 0.0109331c0.0092756,-0.0106772 0.00601969,-0.00207874 0.0126654,-0.0104685 0.0116496,-0.0147008 0.0181063,-0.0256339 0.0340236,-0.038878l0.0491851 -0.0472205c0.00630315,-0.00638583 0.00476378,-0.00585433 0.0107795,-0.0131339l0.0359685 -0.0367481c0.0154685,-0.0200827 0.0344055,-0.0339055 0.0464292,-0.0537126 0.0170748,-0.0281299 0.0435788,-0.0556221 0.0607914,-0.0837363 0.0109882,-0.0179488 0.0675315,-0.107827 0.0725355,-0.120327l0.0321142 -0.0682284c0.0185669,-0.0288071 0.0308386,-0.0829016 0.0404016,-0.103827 0.00741339,-0.0162205 0.00960237,-0.00894882 0.0152402,-0.0330827 0.00338189,-0.0144764 0.00388977,-0.0217913 0.0099567,-0.0384055 0.0113347,-0.0310315 0.00879922,-0.0515788 0.0178937,-0.0822402 0.00433071,-0.0146024 0.00933465,-0.0196654 0.0133032,-0.034878 0.00629922,-0.0241654 0.0153268,-0.104362 0.0175118,-0.127067 0.0113386,-0.117882 0.00401575,-0.247851 -0.014941,-0.365433 -0.00466142,-0.0289016 -0.0178071,-0.0358898 -0.0212835,-0.0751654 -0.00205512,-0.0232244 -0.0204685,-0.0943937 -0.0331063,-0.11478 -0.00834646,-0.0134606 -0.0077126,-0.0167047 -0.0125276,-0.0353858 -0.00499213,-0.019374 -0.00894095,-0.0186693 -0.0146732,-0.0337441 -0.00497244,-0.0130787 -0.00540551,-0.023752 -0.0119921,-0.0358858 -0.0158701,-0.0292402 -0.0525197,-0.108291 -0.0683977,-0.128508l-0.0572481 -0.0876418c-0.00920079,-0.0192362 -0.0286614,-0.0394055 -0.0413819,-0.0547677 -0.0165276,-0.0199606 -0.025,-0.037874 -0.0419528,-0.0544646 -0.0405512,-0.0396732 -0.0773465,-0.0856575 -0.121413,-0.123618l-0.109205 -0.0859725c0.0241969,-0.015752 0.0693189,-0.00908268 0.0995001,-0.00908268 0.0688504,0 0.275878,0.00999607 0.316288,-0.00890945 0.0538701,-0.0252087 0.0852323,-0.0654685 0.0768426,-0.13139 -0.00371654,-0.0292284 -0.0187402,-0.0509922 -0.0392874,-0.0685315 -0.0173543,-0.014815 -0.0103976,-0.00929922 -0.0344528,-0.017374 -0.0175827,-0.00590158 -0.0228228,-0.0137913 -0.0422677,-0.0137913l-1.46594 0c-0.0458189,0 -0.0991654,0.0137047 -0.144469,0.0165118 -0.052752,0.00327166 -0.100748,0.00072441 -0.149028,0.0102008 -0.027689,0.00543701 -0.0816772,0.0105787 -0.103957,0.016878 -0.0132205,0.00374016 -0.0169173,0.0086378 -0.0282402,0.0124095l-0.10039 0.0201378c-0.0120394,0.00312992 -0.0246181,0.00451181 -0.0367402,0.0069252l-0.12139 0.0392677c-0.0112677,0.00292126 -0.0226063,0.00408662 -0.0324921,0.00699213 -0.0186654,0.00548425 -0.0145512,0.00829922 -0.027004,0.0138071 -0.0105158,0.00465355 -0.0196457,0.00479528 -0.0308937,0.00891733 -0.0304016,0.0111378 -0.0200354,0.0098189 -0.0594252,0.0218465 -0.0133543,0.00407874 -0.0799685,0.0381378 -0.0817048,0.0387205 -0.0260354,0.00877166 -0.0604882,0.0204055 -0.0826378,0.0374528l-0.0570866 0.0272126c-0.0195984,0.00730315 -0.011248,0.00113386 -0.0260118,0.0143465 -0.0131614,0.0117756 -0.0108307,0.0077441 -0.0256457,0.013811 -0.0149331,0.00611811 -0.0128898,0.00819685 -0.0259725,0.0147205 -0.0219764,0.0109606 -0.0313662,0.0172402 -0.0506418,0.0298386 -0.0120945,0.00790552 -0.0384331,0.0217284 -0.0491811,0.0311457 -0.0133543,0.0116929 -0.0186142,0.00883859 -0.030189,0.0181417 -0.000673229,0.00053937 -0.00148032,0.00142126 -0.00214173,0.0019685l-0.0547166 0.0372717c-0.000637796,0.00053937 -0.00147638,0.00138189 -0.00208268,0.00195276 -0.0120158,0.0112953 -0.0180158,0.0118228 -0.0313425,0.020752l-0.115287 0.0898504c-0.0100039,0.00801182 -0.0135433,0.0108937 -0.0225945,0.0173504 -0.0121614,0.00867717 -0.00680709,0.00826378 -0.0207126,0.0195473 -0.0312323,0.0253465 -0.0586772,0.0497992 -0.0868426,0.0777244 -0.00798426,0.00791339 -0.0111181,0.0123268 -0.0192638,0.0209685l-0.0610237 0.0594449c-0.0242047,0.0238228 -0.0591733,0.0583229 -0.0792048,0.085567 -0.0276457,0.0375945 -0.0659174,0.0709646 -0.0910158,0.109803 -0.00357087,0.00552756 -0.00337795,0.00682678 -0.00792914,0.0122874 -0.0201732,0.0242008 -0.043004,0.0526457 -0.0596457,0.080567 -0.000610237,0.00102362 -0.0021811,0.00412992 -0.00282284,0.00512599l-0.0308465 0.0415984c-0.00882284,0.012248 -0.0067441,0.013878 -0.0137913,0.0260276 -0.00822835,0.0141969 -0.00895276,0.00731496 -0.0188819,0.0218268l-0.061126 0.103508c-0.00955906,0.0153937 -0.00863386,0.0213307 -0.0211378,0.0388937 -0.0155984,0.0219095 -0.022189,0.0452599 -0.0326024,0.0676693l-0.0286811 0.0517874c-0.00565355,0.00969686 -0.00863386,0.0188504 -0.0118661,0.0280158 -0.00816142,0.0231378 -0.0322244,0.0676221 -0.038626,0.082567 -0.00778347,0.0181772 -0.0236851,0.0769252 -0.030248,0.0901182 -0.00553544,0.011126 -0.00978741,0.0111221 -0.0146614,0.0255748l-0.0203662 0.064c-0.00682678,0.0272402 -0.00517717,0.0359055 -0.0185039,0.0614449l-0.0269646 0.0933504c-0.00422047,0.0253386 -0.00235039,0.0458977 -0.0116024,0.0687756l-0.0303268 0.129988c-0.00898426,0.0523347 -0.0053937,0.102791 -0.0157795,0.149358 -0.00998032,0.044752 -0.0190276,0.268626 -0.00252756,0.304614 0.0179055,0.0390591 0.0289961,0.0684016 0.0643386,0.0960552 0.0232244,0.0181693 0.0868308,0.0487047 0.115146,0.0487047l2.9399 0c0.0268701,0 0.0785158,-0.00687008 0.102665,-0.0119764 0.0372166,-0.00787402 0.0744961,-0.00760237 0.110555,-0.010878l0.155413 -0.0213386c0.0224843,-0.00280709 0.0251142,-0.00717717 0.0461024,-0.0143504 0.0145748,-0.00498032 0.0322717,-0.00551575 0.0474173,-0.00820079 0.0202638,-0.00359055 0.0284921,-0.0112047 0.0456299,-0.0149882 0.0181221,-0.004 0.0357087,-0.00392126 0.0520118,-0.00799607l0.0866142 -0.0301614c0.0187362,-0.00951969 0.0252323,-0.00738977 0.0476654,-0.012689 0.0266654,-0.00630315 0.0626654,-0.0251969 0.0847481,-0.0360906 0.0148504,-0.00732678 0.0280709,-0.00519292 0.0435788,-0.0123386 0.00991339,-0.00456299 0.00805512,-0.00562599 0.0184921,-0.00949607 0.0490551,-0.0181929 0.036,-0.0206496 0.0638189,-0.0285512 0.0177717,-0.00504725 0.0258977,-0.0126102 0.0419488,-0.0182992 0.0257087,-0.00911024 0.0339173,-0.0180551 0.0563662,-0.0277677 0.0287284,-0.0124252 0.0749016,-0.0379331 0.0987402,-0.0540394 0.0186221,-0.0125866 0.051189,-0.0250394 0.0738032,-0.0426418l0.110008 -0.0708426c0.023815,-0.012252 0.181366,-0.136847 0.201571,-0.155764 0.0290079,-0.0271614 0.0845748,-0.0697756 0.106784,-0.0977481 0.0100709,-0.012685 0.00190551,-0.0058189 0.0159252,-0.016811 0.0209134,-0.0163976 0.0312874,-0.0307323 0.0508425,-0.0493937 0.00505906,-0.00483071 0.00329134,-0.00362599 0.00758268,-0.00848819l0.0859804 -0.0947048c0.0109488,-0.0117913 0.0150197,-0.0165 0.0260354,-0.0302205l0.102945 -0.134004c0.00912993,-0.0144134 0.0156772,-0.0205039 0.0252008,-0.0351536l0.0353937 -0.0528307c0.0136417,-0.0235551 0.0398662,-0.070937 0.056315,-0.0923662 0.00625985,-0.00815355 0.00733859,-0.00697638 0.0123228,-0.0160473l0.0292599 -0.0628622c0.00777953,-0.0156339 0.0146929,-0.0181496 0.021563,-0.0344488l0.0188858 -0.0413425c0.00562205,-0.0176811 0.031563,-0.0521299 0.0409488,-0.0793189 0.0195906,-0.0567402 0.0492559,-0.110032 0.0777756,-0.163894 0.0278937,0.0222874 0.251118,0.247811 0.288709,0.285965 0.0316851,0.0321575 0.0938111,0.0987284 0.124146,0.124969 0.0299173,0.0258819 0.0935591,0.0917796 0.122717,0.122272 0.016937,0.0177087 0.0865276,0.0933741 0.109748,0.0989371 0.0398268,0.00953937 0.0903859,0.0077441 0.117532,-0.0216102l0.0397756 -0.064 0 -0.0522126c0,-0.0156536 -0.0100787,-0.0285591 -0.0163425,-0.0392756 -0.0244134,-0.0417835 -0.0655512,-0.0713819 -0.0990394,-0.105902 -0.00481103,-0.0049567 -0.00907087,-0.00855906 -0.0143701,-0.0137284 -0.0502677,-0.0490473 -0.0973386,-0.0997284 -0.149099,-0.147969l-0.262449 -0.263772c-0.0387677,-0.0399764 -0.077941,-0.080878 -0.118614,-0.118331l-0.0881575 -0.088378c-0.00713386,-0.00659055 -0.00940158,-0.00701181 -0.0152795,-0.0129764 -0.00534252,-0.0054252 -0.00796063,-0.0101299 -0.0147874,-0.0171339l-0.0885591 -0.0883544c-0.0244567,-0.024626 -0.102209,-0.0956378 -0.117815,-0.119051 -0.0100236,-0.0150394 -0.0122677,-0.0230866 -0.00576378,-0.0400079 0.00868504,-0.0226142 0.0637166,-0.0740827 0.084563,-0.0928308 0.037937,-0.0341142 0.139287,-0.13828 0.176791,-0.17624 0.0386142,-0.0390827 0.0792008,-0.0834607 0.11839,-0.11863 0.0114646,-0.0102874 0.0493071,-0.0522914 0.0595906,-0.0570709 0.0384567,-0.0178701 0.0608819,0.0176378 0.0772599,0.0340709l0.355406 0.355528c0.0103976,0.0105079 0.0169134,0.0153701 0.0282953,0.0277205l0.323721 0.323059c0.0374882,0.0379213 0.110669,0.115413 0.146413,0.146858l0.295902 0.29441c0.0119331,0.0128032 0.0160236,0.019378 0.0293898,0.0308583 0.0555276,0.0476929 0.142067,0.147055 0.205504,0.20398 0.00975591,0.00875591 0.018185,0.0200158 0.0292677,0.031315l0.146347 0.14665c0.0583898,0.061 0.121469,0.117024 0.179965,0.177358 0.0105394,0.0108701 0.0170945,0.0214331 0.0271299,0.0333504l0.0139095 0.0140079 0.0209488 0.0353937 0.0260197 0.0617402c0.018252,0.0960827 0.0222047,0.101102 9.84252e-005,0.198953l-0.0626969 0.11348c-0.00498425,0.0060315 -0.00654331,0.00879134 -0.0125866,0.0154567 -0.0172638,0.019063 -0.0282992,0.0277323 -0.0483859,0.0441339 -0.0184725,0.0150827 -0.0497874,0.0330118 -0.0735276,0.0425197 -0.0616221,0.0246772 -0.0989843,0.0258504 -0.164795,0.0258504 -0.0377441,0 -0.0490158,-0.0112756 -0.0741575,-0.0193662 -0.0486851,-0.0156732 -0.0830867,-0.0369843 -0.121626,-0.0715118 -0.0757205,-0.0678426 -0.162929,-0.166516 -0.241599,-0.240386l-0.14213 -0.14302c-0.0540236,-0.0559685 -0.089315,-0.111917 -0.183583,-0.0983504 -0.0228622,0.00329134 -0.0483937,0.017185 -0.0597166,0.0374725 -0.0101575,0.0181969 -0.0265,0.0626024 -0.0265,0.0837756 0,0.047311 0.0298228,0.076626 0.0612087,0.105323 0.0436221,0.0398858 0.080437,0.0839804 0.124516,0.1245l0.0623544 0.0621181c0.0276575,0.0307677 0.158154,0.16011 0.189331,0.188358 0.0275315,0.0249449 0.0551614,0.0597953 0.0856772,0.0829607 0.020563,0.0156102 0.0504567,0.0394843 0.074937,0.0496024 0.0172756,0.0071378 0.0165197,0.00916142 0.0282717,0.0157087 0.0103386,0.00575985 0.0193937,0.00633859 0.0288898,0.0113583 0.0146496,0.00775197 0.00744882,0.00970473 0.0290866,0.0151969l0.0625748 0.0178071c0.0261024,0.00659843 0.123791,0.0183622 0.147646,0.0160236 0.0343189,-0.00336221 0.117535,-0.0112205 0.143945,-0.0219488 0.0222165,-0.00902363 0.045752,-0.00911024 0.0637953,-0.0204961 0.0346811,-0.0218819 0.0587126,-0.0218622 0.109067,-0.0593347 0.0240433,-0.0178937 0.0728032,-0.0505197 0.08963,-0.0752323l0.0385906 -0.0455788c0.0172795,-0.0214843 0.0375866,-0.0490945 0.0510197,-0.0740355l0.0411614 -0.0875985c0.00576378,-0.0128347 0.0265551,-0.122039 0.0282874,-0.140063 0.00347244,-0.0361142 0.00407874,-0.132177 -0.011937,-0.172969 -0.00740552,-0.0188622 -0.00666142,-0.0371142 -0.0110669,-0.0568465 -0.00376772,-0.016878 -0.0412008,-0.097626 -0.0533347,-0.115654 -0.00627166,-0.00931103 -0.00598426,-0.010752 -0.0118032,-0.0203662 -0.0175827,-0.0290591 -0.067252,-0.0880237 -0.0929016,-0.11213 -0.0453701,-0.0426418 -0.092626,-0.0888465 -0.134835,-0.134106l-0.0332677 -0.030874c-0.011811,-0.0140709 -0.017374,-0.0224449 -0.033504,-0.0350551 -0.0172205,-0.0134724 -0.0494055,-0.0509213 -0.0680788,-0.0684882l-0.184142 -0.181421c-0.008,-0.00916536 -0.00723229,-0.00998819 -0.0165276,-0.0195079l-0.150496 -0.150669c-0.010685,-0.0111378 -0.0253425,-0.0215158 -0.0347323,-0.0335669 -0.00520473,-0.00668111 -0.0103504,-0.0115669 -0.0173662,-0.0187677l-0.0322323 -0.0318977c-0.0058189,-0.00595276 -0.0103268,-0.0105709 -0.0161181,-0.0161142l-0.152882 -0.152429c-0.0195512,-0.0177874 -0.0510945,-0.047504 -0.0682835,-0.0681221 -0.00846851,-0.0101614 -0.0210276,-0.0208937 -0.0326732,-0.0315354 -0.0386614,-0.0353386 -0.114512,-0.12061 -0.150898,-0.150343l-0.167575 -0.16989c-0.00643307,-0.00762205 -0.0121811,-0.0115906 -0.0188032,-0.0174646 -0.0150039,-0.0132953 -0.0189252,-0.0193425 -0.0336929,-0.0346496 -0.0111732,-0.0115866 -0.0230039,-0.0183228 -0.0331063,-0.0311103l-0.351949 -0.354599c-0.0076063,-0.00759056 -0.00959056,-0.0063504 -0.0195709,-0.0167126 -0.00791733,-0.00822048 -0.0235,-0.0247047 -0.0323819,-0.0320158 -0.0179173,-0.0147559 -0.0212441,-0.0139252 -0.042811,-0.0255748 -0.0190787,-0.0103032 -0.0147913,-0.0149134 -0.0466772,-0.0221181 -0.12052,-0.026315 -0.110559,-0.00264961 -0.151795,-0.00155118 -0.0314488,0.000834646 -0.0780355,-0.0590276 -0.0983819,-0.0807756l-0.119252 -0.124268c0.0461536,-0.0118032 0.502721,-0.00504331 0.603504,-0.00502362 0.0201142,3.93701e-006 0.0405984,0.000885827 0.0604488,-0.0011811 0.021941,-0.00228347 0.0773662,-0.0207599 0.0927363,-0.0319449 0.0175709,-0.0127874 0.018,-0.0159843 0.0312362,-0.0291929 0.0456378,-0.0455355 0.0438307,-0.136665 0.0162835,-0.18839 -0.0136969,-0.0257165 -0.0410197,-0.0502008 -0.0627874,-0.0614449 -0.0387205,-0.0199961 -0.0394173,-0.0172244 -0.0613189,-0.0275669 -0.0108307,-0.00511418 -0.00777166,-0.00616536 -0.0191457,-0.0125551 -0.0279055,-0.0156811 -0.0692008,-0.027689 -0.0855827,-0.0392717 -0.024815,-0.0175394 -0.0554292,-0.0251693 -0.0811851,-0.0391378 -0.013937,-0.00755512 -0.0301221,-0.0122284 -0.0407362,-0.0192402 -0.0235473,-0.0155551 -0.0578977,-0.0283425 -0.0852756,-0.0390591 -0.0129961,-0.00508268 -0.0105748,-0.00623622 -0.0195591,-0.0126339 -0.0123307,-0.0087756 -0.0468898,-0.0231654 -0.0631851,-0.0287756 -0.0297126,-0.0102244 -0.057126,-0.0335866 -0.0831182,-0.0425 -0.0215236,-0.00737796 -0.023378,-0.00683465 -0.0411732,-0.0187677 -0.0138307,-0.00927166 -0.112728,-0.0500315 -0.125228,-0.059063 -0.0236063,-0.0170591 -0.0557914,-0.0249173 -0.0829016,-0.0371693 -0.0158583,-0.00716536 -0.0174173,-0.0125473 -0.042437,-0.0226063 -0.0163307,-0.00656693 -0.019937,-0.0107992 -0.0415591,-0.0182087 -0.022563,-0.00773229 -0.0180433,-0.0148543 -0.0382677,-0.0225197l-0.0685473 -0.023815c-0.0201693,-0.00606693 -0.00755512,-0.00329134 -0.0208347,-0.0113268 -0.00833859,-0.00504725 -0.080937,-0.0261969 -0.0960394,-0.0283583 -0.0175433,-0.00251181 -0.0368662,-0.00402362 -0.0539685,-0.0053504 -0.0235197,-0.00183071 -0.0327795,-0.00740158 -0.0538898,-0.0114764 -0.0954489,-0.0184252 -0.371067,0.0104528 -0.410158,-0.0154252 -0.0124764,-0.00825985 -0.025126,-0.0154055 -0.0395866,-0.0245866 -0.0140315,-0.00891733 -0.0655906,-0.0311299 -0.0865473,-0.0341929 -0.0389252,-0.00569292 -0.0687048,-0.0142559 -0.108496,-0.0143661 -0.0225551,-6.29922e-005 -0.0897756,0.00869292 -0.108795,0.0136969 -0.119134,0.0313268 -0.0727835,0.0655945 -0.172992,-0.0345315l-0.435685 -0.435795c-0.0284921,-0.0280591 -0.0692796,-0.053252 -0.10998,-0.053252 -0.0443425,0 -0.108815,0.0623229 -0.108815,0.110972z"/>
   <path id="_504107320" class="fil0" d="M2.63335 2.74853c0.0264016,-0.00509449 0.0738859,-0.00417717 0.103441,-0.000925197 0.011878,0.00130315 0.0334882,0.00286221 0.0465473,0.00505512 0.015437,0.00259055 0.0708544,0.0220591 0.0798268,0.028815 0.0164961,0.0124213 0.0200473,0.00791339 0.0351732,0.0168937 0.019878,0.0118071 0.0753229,0.0512205 0.0903544,0.0704607 0.0121732,0.0155748 0.0216614,0.0200473 0.0462441,0.0579922 0.00957875,0.0147874 0.0152835,0.0159252 0.0219291,0.0301772 0.00440945,0.00946457 0.00254331,0.00829528 0.0088189,0.019378 0.0174685,0.0308662 0.00723622,0.0271772 0.0239252,0.0564961 0.0127559,0.0224095 0.012374,0.0563622 0.0189488,0.0858583 0.00873229,0.0391732 0.00655512,0.0562441 0.000330709,0.0935985 -0.00401181,0.0240906 -0.00814174,0.068815 -0.018189,0.0867835l-0.033441 0.0748032c-0.00957481,0.0218347 -0.0113386,0.0156496 -0.0209606,0.0313622 -0.0335827,0.0548544 -0.0805512,0.0948741 -0.137106,0.127949 -0.0483504,0.0282756 0.00213386,0.00613386 -0.0546024,0.0256221 -0.0259331,0.00890552 -0.00956693,0.00953544 -0.0585276,0.0177126 -0.0380827,0.00635827 -0.0718741,0.0278622 -0.143071,0.0155315 -0.015252,-0.00264173 -0.0237244,-0.00872441 -0.0398583,-0.0128386 -0.0391772,-0.00998819 -0.0750355,-0.0120354 -0.118669,-0.0415118 -0.0127244,-0.00859843 -0.0176181,-0.00725591 -0.0330315,-0.0190945 -0.0584685,-0.0449213 -0.064126,-0.0477126 -0.108311,-0.104772 -0.00929528,-0.0120039 -0.0170197,-0.0196221 -0.0226339,-0.0297756l-0.0472599 -0.113429c-0.007563,-0.0463898 -0.0157402,-0.196012 0.0110827,-0.235662 0.0123976,-0.0183268 0.0076693,-0.0222992 0.0159291,-0.0401418 0.0219055,-0.047311 0.0197559,-0.0355669 0.0376063,-0.0669292 0.00851182,-0.0149567 0.0120276,-0.0167913 0.0222874,-0.0301536l0.0258425 -0.0304646c0.0182284,-0.0219921 0.064504,-0.0519922 0.0893308,-0.067437 0.0149055,-0.0092756 0.0548583,-0.0280118 0.0713189,-0.0327914 0.0166181,-0.00483071 0.0237874,-0.0101221 0.0390669,-0.0133386 0.0150158,-0.00315748 0.030441,-0.00190158 0.0476575,-0.00522441zm-0.60804 0.479158c0,0.0280591 0.0116614,0.0444764 0.0167795,0.0653819 0.00469685,0.0191772 0.0106378,0.0955552 0.0333622,0.127583 0.010248,0.014437 0.00778741,0.00440945 0.0142913,0.0260748 0.00887796,0.0295827 0.0313268,0.0628111 0.0481024,0.0880945l0.032378 0.0438583c0.0107087,0.0126142 0.00607874,0.0119528 0.0267795,0.0334961 0.0413268,0.0430197 0.0392677,0.0404764 0.0823268,0.0743819 0.0264528,0.0208268 0.0635394,0.0465315 0.0959016,0.0648071 0.00486221,0.00274803 0.0473898,0.0223819 0.0520591,0.023874 0.0104252,0.00332284 0.0200906,0.00330315 0.0311496,0.00880709 0.0101969,0.00507874 0.0108858,0.00981497 0.0262992,0.0149291 0.0119567,0.00396851 0.0217717,0.00358662 0.0340433,0.00612205 0.012189,0.00251575 0.016441,0.00522441 0.0265354,0.00865748 0.0456614,0.0155315 0.243118,0.0141417 0.29739,-0.00357087 0.0260709,-0.00850788 0.0383583,-0.00379528 0.0616418,-0.0186693 0.0186575,-0.0119173 0.0350788,-0.0117126 0.0552638,-0.0212677 0.0554725,-0.026252 0.069378,-0.0409882 0.100445,-0.0561929 0.012315,-0.00602756 0.0567048,-0.0430748 0.067,-0.0532048l0.0576654 -0.0588504c0.0423977,-0.0476299 0.0416103,-0.0578662 0.0672363,-0.0893071 0.0207047,-0.0253977 0.031,-0.067937 0.038441,-0.0783898 0.0241339,-0.0338977 0.00770867,-0.0234173 0.0241339,-0.0559055 0.0185079,-0.0366063 0.00650394,-0.0520079 0.0229921,-0.0940237 0.00511418,-0.0130315 0.0111063,-0.0469843 0.0111063,-0.0647166 0,-0.148969 -0.00112205,-0.100516 -0.024441,-0.236106 -0.00422047,-0.0245394 -0.0128307,-0.0320866 -0.0197559,-0.0566969 -0.00662599,-0.0235591 -0.0161693,-0.0279921 -0.0241181,-0.0524922 -0.0048189,-0.0148583 -0.0177559,-0.0367008 -0.0272362,-0.0492323 -0.00733465,-0.00969686 -0.00816536,-0.0101378 -0.0157008,-0.0242638 -0.0211181,-0.0395669 -0.0878426,-0.112213 -0.123354,-0.141697l-0.0449528 -0.0314803c-0.0352362,-0.0274843 -0.106606,-0.0700237 -0.147492,-0.081193 -0.0127126,-0.00347244 -0.0238189,-0.00382677 -0.0339567,-0.00679922 -0.00973623,-0.00285433 -0.0148071,-0.00644882 -0.024937,-0.0106181 -0.0489567,-0.0201496 -0.171374,-0.0311614 -0.224791,-0.0257165 -0.0463701,0.00472441 -0.200114,0.0429607 -0.239024,0.0678111 -0.0351536,0.0224567 -0.0365276,0.0173976 -0.0500315,0.0262992 -0.0169213,0.0111575 -0.0283977,0.0193347 -0.0449567,0.0312008 -0.0175512,0.0125787 -0.0285433,0.019189 -0.0438347,0.0324567 -0.0252677,0.0219134 -0.0910197,0.0901221 -0.108067,0.116902 -0.0208937,0.0328347 -0.0302047,0.0433347 -0.0446772,0.0716772 -0.00515355,0.0100945 -0.009,0.0125945 -0.0130433,0.0231299 -0.0160079,0.041689 -0.0310276,0.0527048 -0.043941,0.108354 -0.00496457,0.0214095 -0.00377166,0.0437205 -0.0105276,0.0667441 -0.00568504,0.0193622 -0.0144843,0.0328977 -0.0144843,0.0592599l0 0.120492z"/>
  </g>
 </g>
</svg>
