<?xml version="1.0" encoding="UTF-8"?>
<!DOCTYPE svg PUBLIC "-//W3C//DTD SVG 1.1//EN" "http://www.w3.org/Graphics/SVG/1.1/DTD/svg11.dtd">
<!-- Creator: CorelDRAW -->
<svg xmlns="http://www.w3.org/2000/svg" xml:space="preserve" width="5.01455in" height="5.38366in" style="shape-rendering:geometricPrecision; text-rendering:geometricPrecision; image-rendering:optimizeQuality; fill-rule:evenodd; clip-rule:evenodd"
viewBox="0 0 5.01455 5.38366"
 xmlns:xlink="http://www.w3.org/1999/xlink">
 <defs>
  <style type="text/css">
   <![CDATA[
    .fil0 {fill:#2B2A29}
   ]]>
  </style>
 </defs>
 <g id="Layer_x0020_1">
  <metadata id="CorelCorpID_0Corel-Layer"/>
  <g id="_335641928">
   <path id="_276850192" class="fil0" d="M2.8382 3.87624c0.0251969,0 0.0337283,0.0160472 0.0679606,0.043189l0.11463 0.0694528c0.0184094,0.00830315 0.0346929,0.0203307 0.0545315,0.0253583 0.0242008,0.00613386 0.0484961,0.0231063 0.0790079,0.0286654 0.0149488,0.00272441 0.0165157,0.00693701 0.0276181,0.0105866 0.012122,0.00398425 0.0214764,0.00216142 0.032374,0.00583465 0.0373819,0.0126024 0.0486299,0.00985827 0.0672047,0.0161535 0.0366732,0.0124291 0.146874,0.0213071 0.188823,0.0230551 0.0671063,0.00279134 0.142831,-0.00187402 0.208366,-0.00350787 0.0319843,-0.000795276 0.0405551,-0.0062874 0.0633819,-0.00955906 0.0241417,-0.00345669 0.0443898,-0.00084252 0.0647165,-0.00822047 0.0308543,-0.0112008 0.0761457,-0.0133465 0.115252,-0.030626 0.0104291,-0.00461024 0.0178937,-0.00342126 0.0281457,-0.00659055 0.0345,-0.0106614 0.0707283,-0.0275787 0.104047,-0.0418346l0.0478071 -0.0251299c0.0559764,-0.0304213 0.0429016,-0.0226102 0.115327,0.0244606l0.0157677 0.0120197c0.000740157,0.000688976 0.00281496,0.00270472 0.00355118,0.0033937 0.0325157,0.0304528 0.0644803,0.055185 0.0892283,0.0948583 0.00970472,0.0155591 0.0198937,0.0312638 0.0245472,0.0483937 0.00236614,0.00870866 0.0109488,0.0566417 0.0108031,0.0595039 -0.000779528,0.015248 -0.00940945,0.0556181 -0.0170472,0.0690118l-0.0196181 0.0359567c-0.00833071,0.0129803 -0.0239213,0.0341299 -0.0349134,0.0449724 -0.0235512,0.0232402 -0.047811,0.0444961 -0.0738307,0.0651024l-0.0548386 0.0354685c-0.0433228,0.0200669 -0.0668031,0.035378 -0.121906,0.0587087l-0.0910118 0.0340276c-0.0238425,0.00842126 -0.0600039,0.0160591 -0.0872756,0.0238701 -0.0206063,0.00590157 -0.0379685,0.00835827 -0.0591457,0.0137913 -0.0826969,0.0212205 -0.24261,0.0372441 -0.324457,0.0367756 -0.0269409,-0.00015748 -0.0408898,0.0035748 -0.0694134,0.0035315 -0.0437205,-6.29921e-005 -0.173547,-0.0068622 -0.207772,-0.0110709 -0.0402638,-0.00494488 -0.15011,-0.0173228 -0.187024,-0.0283189l-0.0871378 -0.0205354c-0.0122835,-0.00252756 -0.0188228,-0.00545276 -0.0291142,-0.00909449 -0.00975197,-0.00344882 -0.0194409,-0.00440945 -0.0281457,-0.00658661 -0.0242126,-0.00604724 -0.0579882,-0.0203504 -0.0821024,-0.0290472 -0.00874803,-0.00315354 -0.014,-0.00654724 -0.0243661,-0.0103661 -0.0519646,-0.0191299 -0.119539,-0.0566457 -0.164453,-0.0890984l-0.0195433 -0.015189c-0.0260354,-0.0235236 -0.0518228,-0.0442992 -0.0742126,-0.0716654l-0.0226378 -0.032937c-0.0200394,-0.0385591 -0.0284094,-0.0497362 -0.0302559,-0.0972638 -0.00139764,-0.0360197 0.00656693,-0.0558465 0.019437,-0.0854685 0.00384252,-0.00884252 0.00818898,-0.0162244 0.0135787,-0.0246299 0.0245315,-0.0382559 0.0695236,-0.0830197 0.109354,-0.109465 0.0250512,-0.0166299 0.0494173,-0.0354528 0.0766102,-0.0484291l0.0187835 -0.00900394c0.0176063,-0.0114764 0.0754252,-0.033815 0.0951969,-0.0437362l0.0541693 -0.0187677zm1.34765 -0.270921c0,0.0594094 0.00166535,0.0388622 -0.0146024,0.086126 -0.00470079,0.0136654 -0.0125591,0.0225354 -0.0210551,0.0345157 -0.0184213,0.0259685 -0.0430906,0.045063 -0.0678976,0.0640906 -0.0174488,0.0133819 -0.0379764,0.0264291 -0.0552717,0.0350354l-0.0374528 0.018122c-0.0123346,0.00497638 -0.00794094,0.00556299 -0.0181614,0.00962205 -0.0118976,0.00472441 -0.0112598,0.000724409 -0.0237756,0.00748425 -0.0194094,0.0104803 -0.0713583,0.0226102 -0.083126,0.0280197 -0.0162559,0.00747244 -0.0279764,0.00640157 -0.0447402,0.0108346 -0.0179213,0.00474016 -0.0201378,0.0104409 -0.0438504,0.0117244 -0.0368858,0.00199213 -0.0504843,0.0118307 -0.0972087,0.013937 -0.123961,0.00559449 -0.104268,0.0212402 -0.241067,0.00148031 -0.0301339,-0.00435433 -0.051815,0.00105118 -0.0794016,-0.00743307 -0.0228622,-0.00702756 -0.0531535,-0.0069685 -0.0725,-0.0143346l-0.033752 -0.0079252c-0.0106102,-0.00155512 -0.0798898,-0.0259803 -0.0813583,-0.026315 -0.0370079,-0.00848425 -0.100705,-0.0399331 -0.133354,-0.0611535 -0.000622047,-0.000405512 -0.00142913,-0.00101969 -0.00204724,-0.0014252l-0.023437 -0.0147717c-0.000594488,-0.000425197 -0.00140157,-0.00104724 -0.00199606,-0.00147638l-0.019185 -0.0155472c-0.0292126,-0.0273819 -0.0545,-0.045626 -0.0729764,-0.0902677 -0.0019252,-0.00464567 -0.00457874,-0.0135748 -0.00588976,-0.0184291 -0.0185079,-0.0686496 0.0165512,-0.135362 0.0683386,-0.177055l0.0762205 -0.0522913c0.00708268,-0.00409449 0.00656299,-0.00338976 0.0141496,-0.00669291 0.0211181,-0.00919685 0.0400984,-0.0221457 0.061563,-0.0287402 0.0160748,-0.00494094 0.00702756,-0.00298425 0.0162717,-0.00804331 0.00886614,-0.00485433 0.0208031,-0.00412205 0.0320709,-0.00961024l0.0646772 -0.0221535c0.0204567,-0.00307874 0.0198976,-0.000129921 0.0371102,-0.00804331 0.0219803,-0.0101024 0.0478268,-0.0047126 0.0725906,-0.0142441 0.0209331,-0.00805512 0.0540079,-0.0062874 0.0779921,-0.00884252 0.0249921,-0.00266142 0.0956102,-0.0124134 0.116441,-0.0101732 0.038937,0.00418898 0.0801102,0.00567323 0.12061,0.0116024 0.0157756,0.00231102 0.0280472,0.000653543 0.0438071,0.00135039 0.0196102,0.000862205 0.0352992,0.0112402 0.0726693,0.0141614 0.0170236,0.00132677 0.0206378,0.0064252 0.0347598,0.0103937 0.0115591,0.00324803 0.0251496,0.00269291 0.0353622,0.0063189 0.0140197,0.00497638 0.0185276,0.00865354 0.0338346,0.011315 0.0167992,0.00292126 0.0478189,0.0165276 0.0631417,0.0236929 0.00909843,0.00425591 0.0148661,0.00340157 0.023063,0.00819685l0.0638543 0.0333976c0.044811,0.0252087 0.072878,0.0485827 0.107256,0.087252 0.0117677,0.0132362 0.0383228,0.0605906 0.0383228,0.0762953zm-2.4487 -0.0764134c-0.056378,0 -0.0712874,-0.00706299 -0.108197,-0.0376811 -0.022874,-0.0189803 -0.0312559,-0.0392874 -0.0369724,-0.063752 -0.0302559,-0.129488 0.0115512,-0.229846 -0.0215,-0.315417 -0.00758661,-0.0196417 0.00240551,-0.0108307 -0.0132126,-0.0388858 -0.00417717,-0.0075 -0.00156693,-0.00220079 -0.00545276,-0.0119134l-0.0244488 -0.0415472c-0.00357087,-0.00511024 -0.00223622,-0.00437795 -0.00671654,-0.0106457 -0.0114409,-0.016 -0.0276811,-0.032 -0.0413268,-0.0455079 -0.0169134,-0.0167402 -0.0490866,-0.0370118 -0.0704409,-0.0476535 -0.00454331,-0.00226378 -0.00824803,-0.0036378 -0.0120079,-0.00535827 -0.067126,-0.0306969 -0.146126,-0.035311 -0.216697,-0.0150197 -0.0424055,0.012189 -0.0197953,0.0115394 -0.0578071,0.00818504l0 -0.739819c0,-0.0437992 0.0205315,-0.10689 0.0446457,-0.139445 0.00422047,-0.00570079 0.00912598,-0.0112362 0.013937,-0.0173189 0.00484646,-0.00612992 0.00906299,-0.0116339 0.0142402,-0.0170236 0.0187598,-0.0195433 0.0493465,-0.0434764 0.0729961,-0.0520433l0.100787 -0.024252 1.18441 0c0.0193465,0 0.0369724,0.00294488 0.0522402,0.00681102 0.0258858,0.00654724 0.0597205,0.0217205 0.0812165,0.036874 0.0106102,0.00747638 0.0236772,0.0179134 0.0324646,0.0265827 0.0426614,0.0420866 0.070685,0.099315 0.0772126,0.158972l0 0.708559c0,0.0317323 -0.0232205,0.0665079 -0.0463622,0.0891024 -0.0243268,0.023752 -0.0648346,0.0357244 -0.0960472,0.0394134 -0.0259724,0.00306693 -0.0785236,-0.0186417 -0.105528,-0.0438228 -0.0250512,-0.0233622 -0.0351417,-0.0448268 -0.0401772,-0.0813937 -0.00609055,-0.0442402 -0.00345669,-0.143291 -0.00352756,-0.197921 -3.14961e-005,-0.0233386 -0.00533071,-0.0422441 -0.00680315,-0.0626654 -0.000874016,-0.0121693 0.00105118,-0.0176654 -0.00229528,-0.0289646 -0.00425591,-0.0143504 -0.00596457,-0.00769291 -0.0103543,-0.024378 -0.00483465,-0.0183858 -0.000232283,-0.0105197 -0.00904724,-0.025689 -0.016563,-0.0285079 -0.0130433,-0.027626 -0.0372795,-0.0634449 -0.00441732,-0.00653543 -0.00948425,-0.0110591 -0.015685,-0.0190472 -0.00595669,-0.00766929 -0.00964961,-0.0117756 -0.0169252,-0.017811 -0.0839488,-0.0696496 -0.132575,-0.084378 -0.242114,-0.084378 -0.0314764,0 -0.0901535,0.0187638 -0.116142,0.0332126 -0.061685,0.0342953 -0.0948425,0.0688819 -0.130177,0.126854 -0.00443701,0.00727953 -0.0216102,0.0407953 -0.023685,0.049252 -0.015937,0.0649409 -0.014811,0.0311811 -0.014811,0.113705 0,0.0972087 0.00533858,0.727051 -0.00414173,0.756516 -0.0137402,0.0427165 -0.0187953,0.0616614 -0.0593661,0.0934606 -0.017878,0.0140118 -0.047937,0.0252992 -0.0788976,0.0252992zm0.170193 -2.67099c0.0226299,0.0108583 0.0095315,0.00220079 0.0339331,0.0320591l0.0374213 0.0494134c0.00985827,0.0150315 0.0318465,0.0441378 0.0390945,0.0581575 0.0154213,0.0298268 0.0219409,0.0372205 0.0398819,0.0747362 0.0267835,0.0560118 0.0404488,0.122657 0.0294134,0.184197 -0.00477559,0.0266496 -0.023063,0.054 -0.0406142,0.0740079 -0.010122,0.0115394 -0.025252,0.0219961 -0.0375354,0.0319291l-0.0270512 0.0181024c-0.00614567,0.00339764 -0.00707087,0.00287008 -0.0138543,0.00698425 -0.0105945,0.0064252 -0.00231496,0.00348031 -0.0155906,0.00872441 -0.0306772,0.012126 -0.0210748,0.0139488 -0.0555197,0.0139488 -0.0107244,0 -0.0034685,-0.00444094 -0.0277087,-0.0139724 -0.00981496,-0.00385827 -0.00204724,-1.9685e-005 -0.00944094,-0.00445276 -0.0188583,-0.0113031 -0.020874,-0.00912992 -0.0353701,-0.0202047 -0.0448465,-0.0342559 -0.0867992,-0.0660591 -0.0939567,-0.131811 -0.00514567,-0.0472835 -0.000326772,-0.0784016 0.0145512,-0.120417l0.0241299 -0.0592323c0.00397244,-0.00761417 0.00500394,-0.0111693 0.00876772,-0.0190197 0.0103583,-0.0216142 0.0386024,-0.0657874 0.0537008,-0.0887047l0.0476063 -0.0635433c0.000468504,-0.00053937 0.00115748,-0.00130315 0.00162598,-0.00184646l0.0265157 -0.0290551zm-0.347335 0.329965l-0.00694488 0c-0.00435433,-0.018689 -0.020378,-0.0324449 -0.0270551,-0.0528307 -0.00337402,-0.010311 -0.00243701,-0.0114961 -0.0072126,-0.0205748 -0.00426378,-0.00811417 -0.0198976,-0.0751417 -0.0213071,-0.0863661l0 -0.0903071c0,-0.0209252 0.00750787,-0.0376693 0.0114213,-0.0580472 0.00161417,-0.00840551 0.0013189,-0.0211063 0.0033622,-0.0313701 0.00207874,-0.0104213 0.00694882,-0.0135669 0.0103898,-0.0278189l0.0121732 -0.0399252c0.00755906,-0.0198543 0.00638189,-0.0308937 0.0244252,-0.065878l0.0329291 -0.0712756c0.00583858,-0.0121102 0.00674409,-0.015063 0.0127677,-0.025437 0.0171496,-0.0295315 0.0332165,-0.0616417 0.0527795,-0.089626l0.0406535 -0.0635472c0.00498031,-0.00727559 0.0111575,-0.0139567 0.0163622,-0.0218465l0.0661142 -0.090185c0.0236457,-0.026437 0.0434449,-0.0553898 0.0678189,-0.0815315 0.000488189,-0.000523622 0.0012126,-0.00125197 0.00170079,-0.00177559l0.0412638 -0.0455709c0.0005,-0.000507874 0.00124803,-0.0012126 0.00175197,-0.00172047 0.018748,-0.0189567 0.0179173,-0.0168386 0.0313976,-0.00351575l0.0714685 0.0813583c0.000488189,0.000523622 0.0012126,0.00125197 0.00170079,0.00177559 0.00638583,0.00685827 0.0115827,0.0132126 0.0175079,0.0206929 0.0168858,0.0213268 0.0314528,0.044315 0.049689,0.064937 0.000472441,0.000535433 0.00119685,0.00126378 0.00166535,0.00180709l0.0117087 0.0160748c0.0702756,0.0981969 0.0848189,0.125504 0.142079,0.226094 0.0123583,0.0217087 0.0271929,0.0492323 0.0347717,0.0729016 0.00140551,0.00438976 0.00173622,0.00701575 0.00449213,0.012874l0.0168543 0.0387205c0.00567323,0.0126969 0.00516535,0.0167992 0.00920472,0.029 0.00455118,0.0137362 0.00683071,0.00897638 0.0100984,0.0246339 0.00263386,0.0125984 0.00224016,0.020437 0.00677165,0.031437 0.012689,0.0308228 0.0213307,0.128311 0.0213307,0.162756 0,0.0169134 -0.013252,0.0862835 -0.0190315,0.099063 -0.00412992,0.0091378 -0.00511024,0.0100472 -0.00800787,0.0197795 -0.0071063,0.0238661 -0.0188661,0.042563 -0.0285354,0.0652441l-0.00694488 0c-0.0031378,-0.0376929 -0.0116142,-0.0776339 -0.0238031,-0.111654 -0.012122,-0.0338189 -0.0214409,-0.0647323 -0.039378,-0.0960827 -0.0186535,-0.0325984 -0.025874,-0.0500039 -0.0503465,-0.0885866l-0.0562087 -0.079252c-0.00798425,-0.0106457 -0.0168189,-0.0205906 -0.0247677,-0.0308071l-0.0594488 -0.069063c-0.000496063,-0.000511811 -0.00122835,-0.00123622 -0.00173228,-0.00174409 -0.000503937,-0.000507874 -0.00125591,-0.00120472 -0.00176378,-0.00170866 -0.00777953,-0.00773228 -0.00620079,-0.00627953 -0.0129724,-0.014811 -0.0135236,-0.0170394 -0.0449291,-0.039685 -0.0664921,-0.0446575 -0.0232598,-0.0053622 -0.0492874,0.00258268 -0.0685433,0.0182913 -0.00925984,0.00755118 -0.018937,0.0188268 -0.0278425,0.0277323 -0.0276654,0.0276614 -0.0508228,0.0578976 -0.0759961,0.087248l-0.0235551 0.0285433c-0.0155394,0.0224724 -0.0332913,0.0415394 -0.0461142,0.0650315l-0.0412126 0.0664606c-0.00487795,0.00891339 -0.00397244,0.00501969 -0.00893307,0.0153819 -0.0146535,0.0306063 -0.0325551,0.0602087 -0.0425472,0.0929134 -0.00270079,0.00883858 -0.00324409,0.0135197 -0.00614961,0.0216378 -0.011685,0.0326181 -0.022937,0.0760827 -0.0238071,0.115126zm-0.232713 -0.211874c0,0.0198819 0.00440157,0.0433425 0.00714961,0.0623189 0.00238583,0.0164882 0.00227953,0.0511063 0.0058189,0.0636496 0.00440945,0.015626 0.00624409,0.00891339 0.00991339,0.0248189 0.00306299,0.0132598 0.000377953,0.0177323 0.00541339,0.0293189l0.0370394 0.0845276c0.0387008,0.0790827 0.101114,0.141382 0.168177,0.196524 0.0228976,0.0188307 0.0470039,0.0346339 0.0721181,0.0494488 0.00065748,0.000389764 0.0015748,0.000850394 0.00222441,0.00124803l0.00816929 0.00572441c0.000602362,0.000417323 0.00137795,0.0010748 0.00199213,0.00148031 0.000614173,0.000409449 0.00141732,0.0010315 0.00205512,0.00142126 0.0297441,0.0181614 0.0780236,0.0433386 0.109744,0.0569724l0.0499449 0.0195236c0.00724803,0.00345276 0.0148504,0.0106063 0.0169252,0.0178031l0 0.152827c-0.0897913,0 -0.45376,-0.00738976 -0.523016,0.00840157 -0.0310472,0.00708268 -0.0567402,0.0127008 -0.0833819,0.0242953l-0.0354921 0.0166063c-0.0343504,0.0183976 -0.0638386,0.0410591 -0.0923819,0.0673937 -0.0190197,0.0175512 -0.034122,0.033378 -0.049752,0.0544449 -0.0158937,0.0214252 -0.0309055,0.0425512 -0.0406535,0.0670197l-0.0436535 0.16822 0 1.1983c0,0.0238425 0.0119606,0.0401063 0.0241024,0.052311 0.0126969,0.0127598 0.0404055,0.0275748 0.0592559,0.0275748 0.0137283,0 0.0422047,-0.0128898 0.0513819,-0.0215591 0.0803465,-0.0758858 -0.0200669,-0.22752 0.0801181,-0.319315 0.0176811,-0.0162008 0.0576417,-0.0307165 0.080374,-0.0342441 0.065315,-0.0101496 0.122315,0.0258268 0.1515,0.0812126 0.00509843,0.00967323 0.0142559,0.0442402 0.015185,0.0542795 0.00588189,0.0634134 -0.000901575,0.136858 -0.000102362,0.201559 9.05512e-005,0.00751575 0.00330709,0.0577087 0.00491339,0.0645512 0.00330709,0.0141102 0.00520079,0.00970866 0.00912205,0.0221378 0.00773622,0.0245118 0.0103661,0.0390709 0.0252008,0.0616339 0.000405512,0.00061811 0.00103543,0.00141339 0.00143701,0.0020315 0.000409449,0.000625984 0.000996063,0.00145276 0.0013937,0.00208268l0.0309764 0.045437c0.00997244,0.0128425 0.0212126,0.0247283 0.0342441,0.0352244 0.0129055,0.0103937 0.0235906,0.0188937 0.0380472,0.0279449 0.00652756,0.00408661 0.0160669,0.0101024 0.0217165,0.0130157 0.0600709,0.0309724 0.128594,0.0385315 0.194398,0.0315394 0.0196693,-0.00209055 0.0249055,-0.00625591 0.0415787,-0.0105236 0.0532323,-0.013626 0.102201,-0.046189 0.139323,-0.0864409l0.0159646 -0.0187717c0.0147165,-0.0182953 0.0349213,-0.0560591 0.0367953,-0.0604567 0.000322835,-0.00076378 0.000685039,-0.00170079 0.00103543,-0.00243701 0.00488189,-0.0102992 0.00524016,-0.00401575 0.00968504,-0.0181024 0.00320866,-0.0101772 0.0019252,-0.0127756 0.00564567,-0.0221417 0.00666142,-0.016752 0.0105079,-0.0162126 0.0105039,-0.0415945 0,-0.0224528 0.00291732,-0.0301378 0.00347244,-0.0486299 0.00203543,-0.0680748 -0.000114173,-0.139996 -0.000114173,-0.208512l-0.000125984 -0.51765c-1.9685e-005,-0.0228346 0.00324409,-0.0277953 0.00683858,-0.0452638 0.00672441,-0.0326772 0.00977953,-0.0461181 0.0340591,-0.0701417 0.00955512,-0.00945669 0.0170827,-0.0163661 0.0280945,-0.0240039 0.0368622,-0.0255669 0.0925039,-0.0304882 0.134976,-0.0122126 0.0156181,0.00672441 0.027685,0.0144409 0.0404291,0.025563l0.0302835 0.0357087c0.00493701,0.00709055 0.00718504,0.0168622 0.00953937,0.0251969 0.00442126,0.0156535 0.00630315,0.00993307 0.00983858,0.0248937 0.0146811,0.0621614 -0.0155039,0.22122 0.0116614,0.29052 0.0041811,0.0106732 0.0030315,0.0183976 0.00650787,0.0282244 0.0136811,0.0386772 0.0432087,0.0834055 0.0720236,0.112063 0.00301181,0.00299606 0.00590157,0.00526772 0.00912205,0.00824409 0.0756063,0.0697992 0.138929,0.084122 0.238898,0.084122 0.0267323,0 0.0468307,-0.00309843 0.0660394,-0.0103701l0.0555276 -0.0208898c0,0.0113701 -0.000456693,0.0236024 -0.000114173,0.0348504 0.000527559,0.017315 0.00435827,0.0184291 0.00351575,0.0343228 -0.000669291,0.0126969 -0.00332677,0.0143937 -0.00353937,0.0314173 -0.000161417,0.0126535 0.000137795,0.0256378 0.000137795,0.0383425l0.000232283 0.180846c-6.69291e-005,0.0204291 -0.000165354,0.0166772 -0.00841732,0.0297913 -0.00666142,0.0105787 -0.0145984,0.0219961 -0.018878,0.0332205 -0.00148819,0.00390551 -0.000937008,0.00346457 -0.00272835,0.00768898 -0.0346457,0.0816378 -0.0355,0.138268 -0.0118898,0.224299l-0.081189 0.0334331c-0.0147283,0.00502362 -0.00728346,0.00451969 -0.0181299,0.00965748 -0.0119882,0.00567323 -0.00911811,0.00228346 -0.0212953,0.00996457 -0.00869291,0.00548031 -0.0013189,0.00176378 -0.0088937,0.00499606l-0.0189409 0.00884646c-0.0088937,0.0058189 -0.000783465,0.0014252 -0.0108858,0.00648031l-0.0440276 0.0254409c-0.0247559,0.0150394 -0.0498307,0.0306732 -0.0723701,0.0491969 -0.00255906,0.00210236 -0.0033937,0.00326772 -0.00727165,0.00662205 -0.00638976,0.00551969 -0.011126,0.00834252 -0.0177441,0.0135157 -0.0366732,0.028685 -0.0877717,0.0831339 -0.111063,0.12165l-0.00954331 0.0182441c-0.0389764,0.0608268 -0.0698976,0.185906 -0.0417402,0.252303 0.0063189,0.0148937 0.00255512,0.0091378 0.00547244,0.0257835 0.00299606,0.0170945 0.00609843,0.0123819 0.0109409,0.0237953 0.00731102,0.0172244 0.0145551,0.0382441 0.0252874,0.0545984l0.0184882 0.0336142c-0.00677559,0.0127992 -0.00265354,0.00734252 -0.0151811,0.0160787 -0.00779134,0.00543701 -0.0105984,0.00734252 -0.0180906,0.0131693l-0.0351102 0.0308819c-0.0112205,0.00957087 -0.0210945,0.0204173 -0.0315472,0.0309764 -0.0112087,0.0113268 -0.0190276,0.023248 -0.0301181,0.0358701l-0.0258189 0.0367047c-0.00859055,0.0122638 -0.0174606,0.0273583 -0.0225984,0.0433937l-0.0264646 0.102051c-0.00791732,0.0620787 0.0127717,0.125138 0.038622,0.176724 0.00415354,0.00829134 0.00557874,0.011315 0.0110394,0.0202244 0.0128228,0.0209252 0.0250866,0.0381102 0.0413661,0.0558858 0.0026811,0.0029252 0.0041063,0.00451575 0.0066378,0.00725197l0.0234449 0.025185c0.0215157,0.0214882 0.0450512,0.0408189 0.0691457,0.0593701 0.00509055,0.00392126 0.00537795,0.00371654 0.0101654,0.00719685 0.000590551,0.000433071 0.00142126,0.0010315 0.00200394,0.0014685 0.0276181,0.0206614 0.0772953,0.0555866 0.106622,0.0670472l0.0580984 0.0287362c0.00598425,0.00253937 0.00147244,0.000437008 0.00691732,0.0035 0.00705512,0.0039685 0.00150394,0.00178346 0.00868504,0.00520866 0.0264173,0.0125866 0.0534488,0.0248661 0.0817874,0.0328346 0.0127441,0.00357874 0.00944882,0.00564567 0.0212992,0.00995669l0.120075 0.0397008c0.024626,0.00876772 0.0988228,0.0266378 0.127374,0.0324016 0.012752,0.0025748 0.0158583,0.00461811 0.026874,0.00785433 0.0180157,0.00529134 0.142114,0.0290945 0.160496,0.0305394 0.0601654,0.00472835 0.112209,0.0156339 0.173543,0.0209606 0.122961,0.010685 0.247882,0.0174646 0.371551,0.0174646 0.0329764,0 0.0516575,-0.0118898 0.0694764,-0.031252 0.0163268,-0.0177402 0.0208307,-0.0407402 0.0208307,-0.066 0,-0.00740551 -0.0109331,-0.0294724 -0.0197835,-0.0392638l-0.0136181 -0.0141693c-0.00449213,-0.00375197 -0.0150512,-0.0104606 -0.0190984,-0.0121614 -0.0368307,-0.0154528 -0.177134,-0.00491339 -0.225878,-0.010311 -0.0309331,-0.0034252 -0.0572087,-0.00247244 -0.0863346,-0.0039685 -0.0911102,-0.00468898 -0.203783,-0.0208346 -0.294283,-0.035685 -0.0152992,-0.00251181 -0.0289331,-0.00740551 -0.0485276,-0.0105197l-0.0488976 -0.0101496c-0.0230315,-0.00571654 -0.0794213,-0.0153819 -0.0989567,-0.0226102l-0.0914961 -0.0265945c-0.0359646,-0.014563 -0.073937,-0.025126 -0.108992,-0.0403622l-0.0627874 -0.0275157c-0.0302874,-0.0154488 -0.058685,-0.0288425 -0.0876929,-0.0477677l-0.0406535 -0.0253425c-0.000594488,-0.000425197 -0.00140157,-0.00105118 -0.00199606,-0.00147638l-0.0678031 -0.0572362c-0.0728661,-0.0733819 -0.0975512,-0.149319 -0.0362677,-0.242008l0.038811 -0.0445472c0.000507874,-0.000503937 0.00123622,-0.00122835 0.00174016,-0.00173228l0.00867717 -0.00868898c0.0129449,-0.0131969 0.0630236,-0.054378 0.0766339,-0.0525512 0.00513386,0.000688976 0.0996535,0.0645039 0.114866,0.072126l0.0455236 0.0239449c0.0139213,0.00867323 0.0483976,0.0234213 0.0639803,0.0297992l0.101736 0.0371969c0.011626,0.00564567 0.000598425,0.00255906 0.0179094,0.00640157l0.0365433 0.0120827 0.190402 0.042315c0.0415157,0.00455906 0.0839094,0.0135079 0.125409,0.0169961 0.0982047,0.00824803 0.196185,0.0110039 0.294646,0.0110039 0.126614,0 0.25048,-0.0201535 0.374189,-0.0426102l0.0673701 -0.0159882c0.0230276,-0.0075748 0.0773937,-0.0197913 0.0960118,-0.0290276l0.0645787 -0.0222559c0.0153858,-0.00516142 0.0111299,-0.00707874 0.0292638,-0.0124173 0.0165748,-0.00487795 0.0351024,-0.0139055 0.0504173,-0.0225197 0.00544488,-0.00306299 0.000937008,-0.00096063 0.00692126,-0.00350394 0.00844488,-0.00358268 0.00535039,-0.000606299 0.0147638,-0.0060748l0.0129882 -0.00785039c0.00812598,-0.0034685 0.00550787,-0.000598425 0.0148386,-0.006l0.0526575 -0.0307047c0.00236614,-0.00155906 0.00265748,-0.00192913 0.00638189,-0.00403543l0.0582047 -0.0390512c0.0158937,-0.0129055 0.0318583,-0.0234803 0.0466417,-0.0367165 0.0310669,-0.0278189 0.0598937,-0.0528268 0.0807795,-0.0894173 0.0298031,0 0.0449016,0.0150236 0.0676654,0.0226417l0.044937 0.0175866c0.0149843,0.00727165 0.031685,0.0175551 0.0488937,0.0240433l0.0178386 0.00994882c0.0202677,0.0148189 0.0489606,0.0246496 0.0699764,0.0411693l0.0330787 0.0224961c0.0409685,0.0307244 0.0796496,0.0692362 0.104736,0.114079 0.00941339,0.0168268 0.0199961,0.0516732 0.0227283,0.0710551 0,0.0133819 -0.00333465,0.0211693 -0.00756299,0.0306496 -0.0104803,0.0234882 -0.00669685,0.0264724 -0.0226024,0.0538071l-0.00958268 0.0147323c-0.000401575,0.000641732 -0.000885827,0.00154724 -0.0012874,0.00218504l-0.067874 0.0710591c-0.0231378,0.019685 -0.0504409,0.0361614 -0.0754291,0.0530827 -0.0207953,0.0140827 -0.0438189,0.026626 -0.066748,0.0374528l-0.0138031 0.00703543c-0.0164488,0.010378 -0.0351496,0.0166614 -0.0529843,0.0234331l-0.0533386 0.0230748c-0.0279764,0.0101142 -0.0925197,0.0281181 -0.115157,0.0376654l-0.120858 0.0319724c-0.0387992,0.00649606 -0.116106,0.0166969 -0.128335,0.0626969 -0.00711024,0.0267402 -0.00946457,0.0362756 -0.000185039,0.0646102 0.00291732,0.00890551 0.00968898,0.0178858 0.0161417,0.0255354l0.0561969 0.0271614c0.0205906,0.00471654 0.0689567,-0.0130591 0.0906969,-0.0169764l0.119142 -0.0302087c0.0162402,-0.00366535 0.0151378,-0.00617323 0.0279764,-0.0102362 0.00933858,-0.00295276 0.0195984,-0.00310236 0.0286024,-0.00612598l0.197685 -0.0801811c0.0535157,-0.0219331 0.104681,-0.0544921 0.151614,-0.0880472 0.0319173,-0.0228228 0.0607559,-0.0464803 0.0889252,-0.0743228l0.0445354 -0.0492441c0.0114252,-0.0141299 0.0227992,-0.0294134 0.0308583,-0.0455551l0.0244016 -0.0485394c0.0045315,-0.0106772 0.00363386,-0.0175236 0.00748819,-0.0272441 0.00537008,-0.0135315 0.00677165,-0.00740945 0.0100197,-0.028185 0.00474016,-0.0303189 0.00490157,-0.111945 -0.00326378,-0.136669 -0.00726772,-0.022 -0.0191575,-0.0583583 -0.0311299,-0.0765472 -0.00598425,-0.00909449 -0.00140551,-0.000834646 -0.00644488,-0.0109213l-0.0176024 -0.0275512c-0.000440945,-0.000570866 -0.00111811,-0.00134252 -0.00156693,-0.00190551 -0.013252,-0.0167165 -0.0245827,-0.0345236 -0.0398622,-0.0504449l-0.0156142 -0.0156457c-0.0139213,-0.0136181 -0.0236693,-0.0219724 -0.0385039,-0.034437l-0.0367795 -0.0292126c-0.000582677,-0.000433071 -0.00138189,-0.0010748 -0.00195669,-0.00151575l-0.0451811 -0.0312323c-0.0175866,-0.0121063 -0.0397126,-0.025815 -0.0594961,-0.0342835 -0.0134173,-0.00574016 -0.0329488,-0.0202283 -0.0520906,-0.0277953l-0.0385472 -0.0170276c-0.00722047,-0.0035315 0.00131102,0.000291339 -0.00637402,-0.00404724 -0.015378,-0.00868504 -0.0766024,-0.0316102 -0.0940906,-0.0378937 0.0022874,-0.0389134 0.00666142,-0.0842874 0.00113386,-0.122705 -0.0029685,-0.0206378 -0.00233858,-0.0159882 -0.0075748,-0.0306299 -0.00401181,-0.0112205 -0.0035748,-0.0197638 -0.008,-0.0302047 -0.00812992,-0.0191772 -0.0183976,-0.045063 -0.030189,-0.0635945l-0.0398189 -0.0574291 -0.0444685 -0.049311c-0.0041063,-0.00407874 -0.0063937,-0.00643307 -0.010378,-0.0104646 -0.000503937,-0.000507874 -0.00121654,-0.00124803 -0.00172441,-0.00175197 -0.000503937,-0.0005 -0.00122835,-0.00123228 -0.00174409,-0.00172835l-0.103843 -0.0802441c0.0117008,-0.0221063 0.0295,-0.0412087 0.0410079,-0.0631929l0.0120039 -0.0227283c0.0152756,-0.0388346 0.026874,-0.0857756 0.026874,-0.129425 0,-0.0203543 -0.00830315,-0.0374055 -0.0105551,-0.0589094 -0.0018937,-0.0180551 -0.0169055,-0.0483701 -0.0250787,-0.0652244 -0.00275984,-0.00569291 -0.00228346,-0.00664173 -0.00509055,-0.0122795l-0.0107087 -0.0170787c-0.0026378,-0.00436614 -0.00092126,-0.00213386 -0.00388189,-0.00653937 -0.00314961,-0.00469291 -0.00433071,-0.00520866 -0.00744488,-0.00991732 -0.00380709,-0.00574803 -0.00253543,-0.00534252 -0.00637008,-0.0109961l-0.0597598 -0.0652795c-0.000515748,-0.000496063 -0.00127165,-0.00119291 -0.00179134,-0.00168504l-0.0287717 -0.0233307c-0.000551181,-0.00046063 -0.00128346,-0.00117717 -0.00183071,-0.0016378l-0.0117008 -0.00914173c-0.000570866,-0.000444882 -0.00135039,-0.0011063 -0.00191732,-0.00155512 -0.00498425,-0.00394882 -0.000370079,-0.000775591 -0.00573228,-0.00468898l-0.0546929 -0.0356142c-0.0146929,-0.00867323 -0.117535,-0.0607165 -0.136752,-0.0646969l-0.0278898 -0.0103228c-0.0114173,-0.00489764 -0.0172165,-0.00238189 -0.0281772,-0.00655512 -0.0122835,-0.00467717 -0.0091811,-0.00864961 -0.0273268,-0.010878 -0.0322441,-0.00396063 -0.0333701,-0.0130157 -0.0586339,-0.0143071 -0.0311969,-0.00159449 -0.0343543,-0.00986614 -0.0598031,-0.0131378 -0.0115394,-0.00148031 -0.0222441,-1.5748e-005 -0.0335354,-0.00119685 -0.011,-0.00115354 -0.0194843,-0.00521654 -0.0303071,-0.00790157 -0.0507441,-0.00834646 -0.304531,-0.0108228 -0.346579,-3.54331e-005 -0.0127559,0.00326772 -0.0156024,0.00717717 -0.0299449,0.00825984 -0.0130709,0.000992126 -0.0234409,-0.000751969 -0.0368661,0.00134252 -0.0175748,0.00274409 -0.0171378,0.00444094 -0.0290276,0.00917717 -0.0142402,0.00567323 -0.0169173,0.00200394 -0.0339567,0.00424803 -0.0130354,0.00171654 -0.0184961,0.00571654 -0.0285827,0.00962598 -0.0118976,0.00461024 -0.0205433,0.00249606 -0.0317638,0.00644094 -0.0116811,0.0041063 -0.0101339,0.00706693 -0.024748,0.00998425l-0.0579528 0.0184646c-0.00608268,0.00290551 -0.00467717,0.00370472 -0.0107795,0.00658661 -0.0101811,0.00481496 -0.00533465,0.00148031 -0.0162441,0.00459449 -0.0249213,0.00711811 -0.0764213,0.0379331 -0.101661,0.0511654 -0.00913386,-0.109756 -0.00347244,-0.382378 -0.00347244,-0.493213l4.72441e-005 -0.625244c0.000149606,-0.0260236 -0.00361024,-0.0372087 -0.00604724,-0.0564764 -0.00744882,-0.0589252 -0.0036811,-0.0329134 -0.0155787,-0.0782008l-0.0165748 -0.0459409c-0.00387008,-0.00965354 -0.00583071,-0.0130748 -0.010248,-0.0210157 -0.0144882,-0.0260472 -0.0311535,-0.0520039 -0.0494252,-0.0756142l-0.0298031 -0.0327165c-0.0437087,-0.0437323 -0.0955984,-0.0747953 -0.153217,-0.0968622 -0.0081378,-0.00311811 -0.0138819,-0.00679528 -0.0222008,-0.00906299 -0.0383661,-0.0104488 -0.0986969,-0.0160512 -0.138067,-0.0182323l-0.527945 0c-0.00551181,-0.0495866 -0.00347244,-0.0994843 -0.00347244,-0.14935 0,-0.00724016 0.00796063,-0.0147126 0.0130394,-0.0182205 0.0124094,-0.0085748 0.0130433,-0.00350787 0.0260669,-0.00866535 0.0113228,-0.00448425 0.00824016,-0.00622047 0.0234134,-0.0113228 0.0149252,-0.00501969 0.0110118,-0.00531496 0.0233976,-0.0113307 0.0106181,-0.00515748 0.0129567,-0.00579921 0.023252,-0.0114843l0.0566693 -0.0301614c0.0434567,-0.0226614 0.0863031,-0.0523701 0.122972,-0.0854291 0.021189,-0.0191063 0.0416457,-0.0360236 0.0609567,-0.0571378l0.00831102 -0.00905512c0.00451181,-0.00488976 0.00323622,-0.0033937 0.00811024,-0.00925591 0.00626378,-0.0075315 0.00994488,-0.0119252 0.0154449,-0.0192874l0.0215512 -0.0305512c0.00369291,-0.00549606 0.00273622,-0.00543307 0.00642913,-0.010937 0.00319685,-0.00476772 0.00451969,-0.00520079 0.00749606,-0.00987008 0.00385827,-0.00604724 0.00231102,-0.00500394 0.00575591,-0.0116102 0.00490551,-0.00940157 0.00177953,-0.00283465 0.00676378,-0.0106024 0.00980709,-0.0152717 0.0154764,-0.0347087 0.022878,-0.050063 0.000338583,-0.000708661 0.000877953,-0.00154724 0.00123622,-0.00223622l0.00259055 -0.00435433c0.000358268,-0.000692913 0.000917323,-0.00151181 0.00125197,-0.00222441 0.00511417,-0.0108071 0.00359055,-0.0164409 0.00783465,-0.0268976 0.0101654,-0.0250354 0.0123622,-0.0399252 0.0209055,-0.0659291 0.00969685,-0.0295 0.00377953,-0.175874 0.00355906,-0.20861 -0.000129921,-0.0193307 -0.00238189,-0.0259449 -0.00815354,-0.0404724 -0.00797638,-0.0200669 -0.00294488,-0.020815 -0.00725591,-0.041374 -0.00321654,-0.0153504 -0.0095,-0.0193346 -0.0119843,-0.0366378 -0.00266535,-0.0185354 -0.00674409,-0.0185512 -0.0117756,-0.0368504 -0.0115,-0.0418307 -0.0288543,-0.0835945 -0.0480827,-0.12211l-0.0841535 -0.15898c-0.00380315,-0.00584646 -0.00591732,-0.00877953 -0.00954724,-0.0147677 -0.0288031,-0.0474724 -0.105547,-0.161579 -0.142606,-0.201252 -0.000488189,-0.000523622 -0.0012126,-0.00125197 -0.00170079,-0.00177559l-0.0912717 -0.106705c-0.00246457,-0.00265748 -0.00398425,-0.00438583 -0.00661417,-0.00727953l-0.0149173 -0.0163425c-0.0201142,-0.0217874 -0.0467953,-0.0550669 -0.0682717,-0.0706614l-0.0669134 -0.033815c-0.00940157,0 -0.031622,0.00711417 -0.0381339,0.0104921 -0.0125236,0.00648819 -0.0225394,0.0163268 -0.032685,0.0263622 -0.00356299,0.00352756 -0.00244882,0.00287795 -0.00685827,0.00703543l-0.034815 0.0346496c-0.0484724,0.0492717 -0.0955906,0.10276 -0.137551,0.157685l-0.0833583 0.111146c-0.00700394,0.0098622 -0.0125787,0.0180354 -0.0199882,0.0286378l-0.00735827 0.0100079c-0.000570866,0.000854331 -0.00215354,0.00336614 -0.00268898,0.00425591l-0.0278307 0.0451102c-0.0169449,0.031378 -0.0381299,0.0592835 -0.0542244,0.0916575 -0.0127756,0.0256969 -0.0478307,0.0908976 -0.0565315,0.113661l-0.0277126 0.0695394c-0.00290157,0.00955906 -0.000649606,0.0104961 -0.00424409,0.0200709 -0.00570079,0.0151693 -0.0083189,0.0169094 -0.0122087,0.0364173 -0.00324409,0.0162677 -0.0105433,0.0185315 -0.0126102,0.0360157 -0.00435039,0.0368543 -0.0145079,0.0514843 -0.0143425,0.0829134 0.000165354,0.0317008 -0.010378,0.0595433 -0.010378,0.0903465z"/>
   <path id="_335641016" class="fil0" d="M0.17763 4.46323l0 -0.0451535c0.0505276,0 0.0479843,0.0130512 0.0903543,0.0138465 0.0232638,0.000440945 0.0213465,0.00432677 0.0355197,0.00963386 0.0139803,0.00523622 0.0288504,0.00316929 0.0414606,0.00716929l0.0697677 0.0240118c0.0365551,0.00718898 0.0149252,0.00500394 0.0329213,0.0122323 0.00888583,0.00357087 0.0102638,0.00158661 0.0191654,0.00514567 0.0103583,0.00414173 0.0051063,0.00450394 0.0156142,0.00870079 0.00785827,0.0031378 0.00896457,0.00157087 0.0161654,0.00467323 0.0086811,0.00373622 0.0045315,0.00450394 0.0150472,0.00926772 0.00788976,0.00357087 0.0100394,0.00243307 0.0180512,0.00625984 0.0176102,0.00840551 0.0588465,0.0331969 0.074126,0.0439685l0.0550591 0.0387205c0.00944488,0.00753937 0.0176929,0.0140157 0.0269331,0.0216929 0.013311,0.0110512 0.0543307,0.0516142 0.063815,0.0647008 0.0172717,0.0238268 0.0390512,0.0487598 0.0549528,0.0735591l0.0116142 0.0196457c0.000417323,0.000602362 0.00106693,0.00138583 0.00148031,0.00199606 0.0296339,0.0436142 0.0530039,0.118059 0.0644961,0.140429 0.00459843,0.00895276 0.0038189,0.00295669 0.00749606,0.016815 0.00750787,0.0283031 0.00619685,0.0180787 0.0112087,0.0339449l0.0188386 0.0749409c0.00317323,0.0150866 0.00750394,0.0213268 0.00994094,0.038689 0.0045,0.0320827 0.0135787,0.0708504 0.0135787,0.101035 -0.0373937,0 -0.0829331,-0.00951969 -0.119098,-0.0163583 -0.0192913,-0.00364961 -0.109028,-0.0287047 -0.127189,-0.0360591l-0.0851929 -0.0328976c-0.0056063,-0.00240551 -0.0106063,-0.00593307 -0.0159055,-0.00840945 -0.00627165,-0.00293307 -0.0108189,-0.0039685 -0.0170906,-0.00722441l-0.0859331 -0.0529961c-0.0381811,-0.0241614 -0.0695197,-0.0546457 -0.101047,-0.0865118 -0.030622,-0.0309488 -0.0458583,-0.0577953 -0.0674409,-0.0853898 -0.000444882,-0.000566929 -0.00112992,-0.00133071 -0.00157874,-0.0018937l-0.020189 -0.0319094c-0.00209843,-0.00341339 -0.00169685,-0.00321654 -0.00379921,-0.00662205l-0.0377283 -0.0699449c-0.00307874,-0.00716535 -0.00156299,-0.00835039 -0.00466929,-0.0161693 -0.00405906,-0.0102087 -0.00427165,-0.00531102 -0.00872835,-0.0155866l-0.018122 -0.0513425c-0.00229921,-0.00754724 -0.00482283,-0.0102165 -0.00771654,-0.0165984 -0.00737402,-0.0162638 -0.00170079,-0.0214016 -0.0101969,-0.0384291 -0.014748,-0.0295433 -0.00317717,-0.0292913 -0.014622,-0.0548465 -0.00274803,-0.0061378 -0.00551575,-0.0104488 -0.00670472,-0.0176063 -0.00288976,-0.0174213 -3.54331e-005,-0.023252 -0.00483858,-0.040315 -0.00334646,-0.011878 -0.00981496,-0.0234724 -0.00981496,-0.038815zm0.864862 0.382067c-0.0148583,-0.00994882 -0.0157402,-0.0227087 -0.0238386,-0.0386811 -0.00449213,-0.00885039 -0.00379921,-0.00624803 -0.00740945,-0.0169055 -0.00498031,-0.0147087 -0.00789764,-0.0156024 -0.0133858,-0.0282913l-0.0159291 -0.0292244c-0.00520866,-0.0105984 -0.009,-0.016563 -0.0147795,-0.0269016l-0.0253583 -0.0406339c-0.0155748,-0.0268701 -0.0459646,-0.0671102 -0.0668622,-0.0894409l-0.093315 -0.0907717c-0.000531496,-0.000456693 -0.00493307,-0.00388583 -0.00585433,-0.00456693 -0.0368504,-0.0271299 -0.0372559,-0.0536181 -0.0310276,-0.0990591 0.00245276,-0.0178937 0.00069685,-0.039185 0.00288976,-0.0596299 0.00186614,-0.0173858 0.0103465,-0.0313268 0.0126378,-0.0498858 0.00143701,-0.0116654 5.51181e-005,-0.0174252 0.00294094,-0.028315 0.00317717,-0.0119803 0.00653937,-0.0128583 0.00972835,-0.0250079 0.00283858,-0.0108031 0.00114961,-0.016622 0.00419685,-0.027063 0.0043622,-0.0149528 0.00593701,-0.00740945 0.0101575,-0.0211024 0.00345669,-0.0112087 0.00084252,-0.014311 0.00565748,-0.0255984 0.00446457,-0.0104646 0.00594094,-0.00648819 0.00963386,-0.0216299 0.0014685,-0.00602756 0.000220472,-0.00453937 0.00240551,-0.0114843 0.00499606,-0.0158701 0.000716535,-0.00270866 0.00585433,-0.0115157 0.00574409,-0.00985433 0.00432677,-0.0122953 0.00851181,-0.022748l0.0133228 -0.0318307c0.000322835,-0.000748031 0.000771654,-0.00163386 0.00113386,-0.00234252l0.0977677 -0.17315c0.0114291,-0.0201772 0.0731496,-0.112803 0.0928504,-0.129441l0.0215433 -0.0131929c0.00449213,0.0192835 0.0312874,0.0430079 0.0428071,0.0613937 0.0189764,0.0302795 0.0406535,0.0562953 0.0587008,0.0871811l0.0250118 0.0409803c0.0052126,0.0103937 0.00477953,0.00763386 0.00924803,0.015063l0.0792874 0.160374c0.00825197,0.0143976 0.0253701,0.0722913 0.0288858,0.0787874 0.0094685,0.0175197 0.00356693,0.0249685 0.0124764,0.0430984 0.0111772,0.022748 0.00375197,0.018689 0.00892913,0.0431693 0.00346063,0.0163701 0.0110079,0.0224488 0.0124055,0.0431693l0.0105551 0.0936417c0.00112598,0.0571811 0.0160276,0.0450551 -0.0246142,0.079626l-0.00377165 0.0031811c-0.00388976,0.00299606 -0.0045748,0.00293701 -0.00827953,0.00561024 -0.0189488,0.013685 -0.035063,0.0295433 -0.051563,0.0456929 -0.000507874,0.0005 -0.00122441,0.00123622 -0.00172835,0.00174409l-0.0260591 0.0260394c-0.0005,0.000507874 -0.00122441,0.00124016 -0.00172047,0.00175591 -0.022437,0.023374 -0.0433701,0.0509331 -0.0624685,0.0764646l-0.0210472 0.0310512c-0.00419685,0.00649213 -0.00723228,0.010626 -0.0111811,0.0166063l-0.0291693 0.0507165c-0.00505906,0.00834252 -0.00467323,0.0111614 -0.00874016,0.0190472l-0.041437 0.0940197zm0.0903071 0.343858c0,-0.0759528 0.0340669,-0.205146 0.0639646,-0.27989 0.0131339,-0.0328307 0.027185,-0.0675866 0.0443543,-0.0980551 0.0191693,-0.0340236 0.019248,-0.0379724 0.0433189,-0.0712992l0.00536614 -0.00852756c0.000409449,-0.000622047 0.000929134,-0.00150787 0.00135039,-0.00212205l0.00612598 -0.00776772c0.0275984,-0.0348622 0.0430709,-0.0533228 0.0759213,-0.0838504 0.0365354,-0.0339567 0.053689,-0.0470748 0.0934803,-0.0732402l0.0192953 -0.0119646c0.0133976,-0.00874409 0.0246457,-0.0161772 0.0398228,-0.0227008 0.010063,-0.00432677 0.00741732,-0.00307874 0.0158622,-0.00844882 0.0115669,-0.00735433 0.00681496,-0.00369685 0.0166575,-0.00765748l0.0478583 -0.0216063c0.0101969,-0.00566535 0.00761417,-0.00314961 0.0182874,-0.00602362 0.00282283,-0.00076378 0.0564882,-0.0229843 0.0684134,-0.0253661 0.011122,-0.00222441 0.0113386,-0.000681102 0.0204213,-0.00389764 0.0113622,-0.00402756 0.0051811,-0.00390551 0.0163819,-0.00792913 0.0123819,-0.00444882 0.0263976,-0.00172835 0.0393268,-0.00582677 0.015374,-0.00487402 0.0170787,-0.0102323 0.0375906,-0.0110354 0.0840118,-0.00329921 0.100547,-0.0387559 0.0898701,0.0168031 -0.0029252,0.0152244 -0.00140157,0.0279094 -0.0037874,0.0449685 -0.00204724,0.0146535 -0.00794882,0.0220512 -0.0112283,0.0373976 -0.00409843,0.0191929 0.000846457,0.023937 -0.00703543,0.0415906 -0.00432677,0.00968504 -0.00344882,0.00217323 -0.00682677,0.0174882 -0.00187008,0.00848425 -0.00109055,0.013811 -0.00284252,0.0214685 -0.0035315,0.0154528 -0.00965354,0.0119213 -0.0127756,0.0358504 -0.00325197,0.024937 -0.00624409,0.0150236 -0.0126378,0.0359882 -0.00371654,0.012185 -0.00042126,0.00702756 -0.00639764,0.0179173 -0.0154685,0.028189 -0.0048189,0.0165197 -0.013815,0.034811 -0.0286457,0.0582244 -0.0383937,0.0836614 -0.0785,0.140319 -0.00680315,0.00961024 -0.0137953,0.0179055 -0.0212795,0.0273465l-0.0408583 0.0494488c-0.000484252,0.000523622 -0.00118898,0.00127559 -0.0016811,0.00179528 -0.000488189,0.000519685 -0.00119291,0.00126772 -0.00168898,0.00177953l-0.0229803 0.0221732c-0.0218504,0.0213346 -0.0185945,0.0176063 -0.0400315,0.0329134 -0.00607087,0.00433465 -0.00754331,0.00620079 -0.0134016,0.0109094 -0.00872441,0.00700394 -0.0185236,0.0146102 -0.0277008,0.0209252l-0.0301969 0.0184291c-0.00329134,0.00196457 -0.0033622,0.00175197 -0.00676772,0.00364961l-0.0396063 0.0229173 -0.102516 0.0433622c-0.0765276,0.0229134 -0.178732,0.0569567 -0.259114,0.0569567zm-0.559209 -0.833598l-0.0478858 -0.0215787c-0.0156732,-0.00894488 -0.0113071,-0.00284252 -0.0265551,-0.0081811 -0.011752,-0.00411417 -0.0109685,-0.00883858 -0.0267913,-0.0114094 -0.0215906,-0.00351181 -0.00975984,0.00109449 -0.0267717,-0.0079685 -0.0146339,-0.00779134 -0.0151063,-0.00347638 -0.0300906,-0.00811024 -0.0145079,-0.00448819 -0.00581496,-0.00625197 -0.0243504,-0.0103858 -0.0134488,-0.003 -0.0222402,5.90551e-005 -0.0338976,-0.00430709 -0.0120276,-0.00450394 -0.00565748,-0.00682677 -0.0245512,-0.010185 -0.0133268,-0.00237008 -0.0219646,3.93701e-006 -0.0348937,-0.00331102 -0.0237362,-0.00609449 -0.0300551,-0.0118386 -0.0611299,-0.011811 -0.0306024,2.3622e-005 -0.0388307,-0.0085315 -0.0626969,-0.0102441 -0.0373386,-0.00232283 -0.0967874,-0.0134134 -0.130024,0.00854724 -0.00425197,0.00280709 -0.00675197,0.00388583 -0.010752,0.00661811 -0.0106732,0.00728346 -0.0264843,0.027063 -0.0288976,0.0405669 -0.00725591,0.0405591 -0.00507087,0.115059 0.00461811,0.161425 0.00195669,0.00936614 0.00574016,0.016626 0.00762598,0.0271063 0.00470866,0.0261654 -0.000629921,0.037311 0.00826378,0.0612047 0.00593307,0.0159409 0.00574803,0.0407953 0.0119409,0.0575236l0.0107913 0.041311c0.00390945,0.0177362 0.00724803,0.0159488 0.0134528,0.0421181 0.00402362,0.0169528 0.00655118,0.0101693 0.010752,0.0239803 0.00507874,0.0167047 -0.00140157,0.0107047 0.00791339,0.0268189l0.0416969 0.0972402c0.00535433,0.0095748 0.00729528,0.0166732 0.0126693,0.0255354l0.0524331 0.0865c0.0171142,0.0283937 0.0388504,0.0567913 0.0614764,0.0809291 0.0122913,0.0131102 0.0206024,0.0233071 0.032811,0.0366575 0.000484252,0.000527559 0.00113386,0.00132677 0.00161811,0.00185433 0.000484252,0.000527559 0.0011378,0.00132283 0.00162598,0.00185039 0.000488189,0.000523622 0.00116929,0.00129134 0.00166142,0.00180709l0.127937 0.104776c0.0187677,0.0121063 0.046252,0.0327559 0.0669961,0.0406811l0.00517717 0.00176772c0.000767717,0.000322835 0.00170866,0.000673228 0.00244882,0.00102362 0.0158661,0.00755118 0.0311732,0.019563 0.0479016,0.0250394 0.0127992,0.00419291 0.00416929,0.000716535 0.0121378,0.00522835 0.0305276,0.0172913 0.0681969,0.0280394 0.101067,0.0413425l0.0258819 0.00885039c0.0270157,0.00567717 0.0534921,0.0172835 0.0804764,0.0237244 0.0912008,0.0217795 0.189319,0.0329016 0.283339,0.0362047 0.067374,0.00236614 0.213591,-0.0175866 0.282606,-0.0369409 0.00979921,-0.00275197 0.0157874,-0.00549213 0.0239055,-0.00735433 0.0343976,-0.00789764 0.0645197,-0.0202244 0.0984055,-0.0301102 0.0128504,-0.00374803 0.014248,-0.00583858 0.0248661,-0.00986614 0.0107126,-0.00406693 0.0123701,-0.00288189 0.0228661,-0.0083937 0.0282717,-0.0148543 0.0597165,-0.0253386 0.0877362,-0.0407756l0.110598 -0.0700157c0.000598425,-0.000425197 0.00140945,-0.00104331 0.00200394,-0.0014685 0.0289331,-0.0206693 0.0550709,-0.0439173 0.0812835,-0.0680709 0.000527559,-0.000484252 0.00127559,-0.00118898 0.00179921,-0.00167323l0.0389803 -0.0409055c0.000677165,-0.000751969 0.00264567,-0.00287402 0.00335039,-0.00359843 0.000496063,-0.000511811 0.00123622,-0.00122441 0.00174409,-0.00172835l0.0102992 -0.0105394 0.0555118 -0.0730039c0.0151378,-0.0217323 0.0302638,-0.0450866 0.0425433,-0.0686024l0.0386535 -0.0759646c0.00830709,-0.017126 0.0142717,-0.0404724 0.0230433,-0.0568465 0.00674016,-0.0125827 0.00679921,-0.0223898 0.0133346,-0.0352874 0.00757087,-0.0149291 0.00917323,-0.0359606 0.0164646,-0.0495315 0.00746063,-0.0138819 0.0078937,-0.0335787 0.0144331,-0.0480866 0.00744094,-0.0164961 0.0056378,-0.0370669 0.0127165,-0.0532756 0.0102835,-0.0235551 0.00353937,-0.0286693 0.00783465,-0.054689 0.00135827,-0.00823622 0.00598425,-0.0152323 0.00804331,-0.0232165 0.00297638,-0.0115236 0.0155039,-0.15072 0.0155039,-0.165106 0,-0.00895276 -0.00115354,-0.0125866 -0.00298819,-0.0178543l-0.00635433 -0.0144843c-0.0071811,-0.0189213 -0.0038189,-0.0125394 -0.0152913,-0.0263898 -0.0344882,-0.0416535 -0.107,-0.0268701 -0.152488,-0.0246142 -0.0249567,0.00124016 -0.0303425,0.0104331 -0.0625354,0.0104055 -0.0241024,-2.3622e-005 -0.0408701,0.00729134 -0.0605866,0.0123504 -0.0153268,0.00393307 -0.0303898,-0.000519685 -0.0462795,0.00582283 -0.0305787,0.0122047 -0.0156929,0.00503543 -0.0446063,0.0109685 -0.0124882,0.00255906 -0.0162402,0.00776772 -0.0273228,0.0108819 -0.0132756,0.00373228 -0.0150039,0.000496063 -0.0279094,0.00682283 -0.0178661,0.00875984 -0.00559843,0.00509843 -0.0285709,0.00963386l-0.0575157 0.022374c-0.0137165,0.00759055 -0.0324291,0.0120472 -0.0475984,0.0183937 0,-0.0258661 -0.00210236,-0.0504134 -0.00915354,-0.0707323 -0.00834252,-0.0240354 -0.00238583,-0.041 -0.0127441,-0.0671417 -0.00649606,-0.0163976 -0.00394882,-0.0128386 -0.00632677,-0.031878 -0.00244488,-0.0195551 -0.00798819,-0.0163307 -0.0118819,-0.0298031 -0.00442913,-0.0153346 0.000933071,-0.0195984 -0.00672441,-0.0349528l-0.0103898 -0.0312874c-0.00458661,-0.0149331 -0.00794488,-0.00765354 -0.0118071,-0.0264016 -0.00257087,-0.0124921 0.00112992,-0.00567717 -0.00404331,-0.0167953l-0.019189 -0.0398583c-0.00402362,-0.00688189 -0.0144252,-0.0389409 -0.023878,-0.0560079l-0.109358 -0.192823c-0.00322835,-0.00520472 -0.00413386,-0.0060315 -0.00825591,-0.0125827l-0.0386024 -0.0551811c-0.00214567,-0.00299606 -0.00219291,-0.00323622 -0.00431102,-0.0061063 -0.00567323,-0.00769685 -0.00465748,-0.00552756 -0.00944882,-0.0113898 -0.00373622,-0.0045748 -0.00392126,-0.00551181 -0.00724016,-0.010126l-0.0462087 -0.0579961c-0.00335039,-0.00411024 -0.00574409,-0.00717323 -0.00941732,-0.0114173 -0.0146378,-0.0169173 -0.0314843,-0.0410276 -0.0477717,-0.0529567 -0.013622,-0.00997638 -0.0482992,-0.0285827 -0.0652008,-0.0285827 -0.021185,0 -0.0442165,0.0139173 -0.0553071,0.0245827 -0.000511811,0.000492126 -0.00123228,0.00122835 -0.00173228,0.00173622 -0.0260827,0.0265 -0.053748,0.0548228 -0.0750315,0.0847441 -0.0160945,0.022622 -0.0381496,0.0444921 -0.0531457,0.0684213 -0.00629134,0.0100472 -0.01,0.0154488 -0.0173425,0.0243346 -0.0149449,0.0180866 -0.0273268,0.0409094 -0.0403268,0.0604016 -0.00370079,0.00554724 -0.00453937,0.00533071 -0.00880315,0.0120394l-0.0954055 0.172039c-0.00449213,0.00864567 -0.0018937,0.00633071 -0.00535433,0.0154843 -0.00673228,0.0177874 -0.0188425,0.0359409 -0.0246929,0.0551929l-0.0128228 0.0288583c-0.00427953,0.0112008 -0.00447244,0.0212008 -0.00997244,0.0317087l-0.0198228 0.060063c-0.00420079,0.0347913 -0.0096811,0.0247047 -0.0148543,0.0685079 -0.0015,0.0127047 -0.00629921,0.0190906 -0.00910236,0.0291024 -0.00374409,0.0133622 -0.0039252,0.0214213 -0.00433858,0.0373425 -0.000370079,0.0142087 -0.00966142,0.0606339 -0.0138976,0.0694606z"/>
   <path id="_335641088" class="fil0" d="M1.71631 5.27946c0,0.0318268 0.028685,0.071752 0.052189,0.0798031l0.0346457 0.0070315 0.48974 0c0.101004,0 0.0964921,-0.12178 0.0581102,-0.144945l-0.0546378 -0.0217756 -0.493213 0c-0.0369134,0 -0.0634094,0.0196063 -0.0760236,0.0490157 -0.00386614,0.00901181 -0.010811,0.0213071 -0.010811,0.0308701z"/>
   <path id="_335641064" class="fil0" d="M1.33772 2.38618l0 0.274394c0,0.0170276 0.0218937,0.0401378 0.0352402,0.0481181 0.0201575,0.0120512 0.0531496,0.0217441 0.0745157,0.00953937 0.00174803,-0.001 0.00456299,-0.00336614 0.00605906,-0.0043622 0.000858268,-0.000566929 0.00333858,-0.0021811 0.00422441,-0.00272441l0.0044685 -0.00247638c0.0115945,-0.00690945 0.0139567,-0.0105236 0.0229685,-0.022185 0.0154409,-0.0199921 0.0143268,-0.0349055 0.0157677,-0.0745354 0.00150394,-0.0412362 0.00143701,-0.176126 -0.00307087,-0.21922 -0.00668504,-0.0639134 -0.0864134,-0.0900079 -0.133976,-0.049815 -0.00944094,0.00798031 -0.0261969,0.0284173 -0.0261969,0.0432677z"/>
   <path id="_335641184" class="fil0" d="M3.49466 3.76509c0,0.0191339 0.0147913,0.0581811 0.0426417,0.0719764 0.0311102,0.0154134 0.0337835,0.0113819 0.0719803,0.0113819 0.0243346,0 0.12578,-0.0156024 0.136429,-0.0198701 0.00943701,-0.00377953 0.00264961,-0.00208661 0.0120236,-0.00534252 0.00748425,-0.00259843 0.00944882,-0.00174409 0.0166732,-0.00416535 0.0139567,-0.0046811 0.0337992,-0.0246575 0.0396969,-0.0367165 0.0155276,-0.0317598 0.0111732,-0.0659685 -0.0112323,-0.0927638 -0.00941339,-0.0112559 -0.0124094,-0.0113898 -0.0214134,-0.0167913 -0.0464449,-0.0278622 -0.100213,0.000649606 -0.116728,0.0018622 -0.0505157,0.00371654 -0.0652953,0.00281496 -0.113154,0.0153583 -0.016311,0.00427165 -0.0388976,0.0256063 -0.045626,0.0412087 -0.00226772,0.00526378 -0.00306693,0.00899606 -0.0056378,0.0152008 -0.00317717,0.00767323 -0.00565354,0.0086811 -0.00565354,0.0186614z"/>
   <path id="_335642096" class="fil0" d="M3.91494 5.3663c0.097815,0 0.111102,-0.109366 0.0680827,-0.141024 -1.1811e-005,-7.87402e-006 -0.0587559,-0.0256969 -0.0646102,-0.0256969 -0.0328898,0 -0.0495354,0.0122441 -0.0664016,0.0308543 -0.0279685,0.0308583 -0.0227362,0.0814173 0.00293307,0.109028 0.0151299,0.0162756 0.0367677,0.0268386 0.0599961,0.0268386z"/>
   <path id="_335641640" class="fil0" d="M3.83505 3.66436c0,0.0208583 0.0135472,0.0475236 0.025622,0.0577402 0.032689,0.0276496 0.0564961,0.0268543 0.0903937,0.0165984 0.014122,-0.00427559 0.0170945,-0.00670079 0.0256614,-0.0160197 0.0396654,-0.0431378 0.0343228,-0.095811 -0.00722441,-0.126776l-0.00866142 -0.00523228c-0.0667795,-0.0375433 -0.125791,0.0241417 -0.125791,0.073689z"/>
   <path id="_335641616" class="fil0" d="M1.3273 2.14999c0,0.00712992 0.0110354,0.0417913 0.0262913,0.0570669 0.0143268,0.0143425 0.0430827,0.0272402 0.0570709,0.0297638 0.0139724,0 0.0232087,-0.00597244 0.0315827,-0.0100945 0.0189961,-0.00935433 0.0329724,-0.0123307 0.0440354,-0.0393228 0.0140709,-0.0343346 0.0165551,-0.0646811 -0.012189,-0.0938976 -0.00635827,-0.00646457 -0.0155039,-0.0124764 -0.0226969,-0.0155079 -0.0306535,-0.0129252 -0.0221142,-0.0113701 -0.0511535,-0.0113701 -0.00509843,0 -0.0322598,0.0135433 -0.0376575,0.0179173 -7.48031e-005,5.90551e-005 -0.00466929,0.00417323 -0.0054685,0.00495276l-0.0126772 0.0151063c-0.00534646,0.00764173 -0.00372835,0.00413386 -0.00683465,0.0140039 -0.0015315,0.00485827 -0.0103031,0.0304252 -0.0103031,0.0313819z"/>
  </g>
 </g>
</svg>
