<?xml version="1.0" encoding="UTF-8"?>
<!DOCTYPE svg PUBLIC "-//W3C//DTD SVG 1.1//EN" "http://www.w3.org/Graphics/SVG/1.1/DTD/svg11.dtd">
<!-- Creator: CorelDRAW -->
<svg xmlns="http://www.w3.org/2000/svg" xml:space="preserve" width="6.74752in" height="6.89765in" style="shape-rendering:geometricPrecision; text-rendering:geometricPrecision; image-rendering:optimizeQuality; fill-rule:evenodd; clip-rule:evenodd"
viewBox="0 0 6.74752 6.89765"
 xmlns:xlink="http://www.w3.org/1999/xlink">
 <defs>
  <style type="text/css">
   <![CDATA[
    .fil0 {fill:black}
   ]]>
  </style>
 </defs>
 <g id="Layer_x0020_1">
  <metadata id="CorelCorpID_0Corel-Layer"/>
  <g id="_498227032">
   <path id="_498212728" class="fil0" d="M3.07773 4.13096c0.018189,0.0591339 -0.0015748,0.258965 0.011063,0.370272 0.00211811,0.0186614 0.0184134,0.0704252 0.0255,0.0872363 0.00508268,0.0120591 0.00947638,0.0147441 0.0146181,0.0259213 0.00405118,0.00880709 0.00644489,0.0183307 0.0121378,0.0282244l0.0306772 0.045874c0.0423583,0.0467953 0.0597756,0.0740906 0.120075,0.113437 0.0110669,0.00722048 0.00963386,0.00894489 0.0235473,0.0166299 0.0162047,0.00895276 0.033126,0.0191299 0.0517638,0.0245158 0.0272244,0.00787008 0.0361772,0.0170984 0.0547244,0.0217914 0.0394016,0.00997638 0.094563,0.02 0.136102,0.0195906 0.0250827,-0.000248032 0.112539,-0.0153819 0.130158,-0.0215236 0.0141614,-0.00493307 0.0100984,-0.00746457 0.0541339,-0.0221496 0.0407638,-0.0135906 0.104083,-0.0634725 0.136661,-0.0927127 0.0571733,-0.051315 0.061189,-0.0790434 0.0834882,-0.109658 0.0424213,-0.0582363 0.0315512,-0.0923623 0.0516063,-0.141567 0.00883071,-0.0216614 0.010063,-0.0415709 0.0122087,-0.0697559 0.00866142,-0.113756 -0.00857087,-0.155957 0.00896457,-0.298795 0.0124764,0.0085315 0.0543622,0.0817363 0.0588229,0.096693 0.0089252,0.0299134 0.00997245,0.0160079 0.0268543,0.0731457 0.00423229,0.0143189 0.011685,0.0253386 0.0148543,0.0377914 0.00727559,0.0285669 0.00499213,0.0655118 0.00871654,0.0973505 0.00725197,0.0619213 0.00225591,1.18283 0.00225591,1.2296 0,0.273729 0,0.547457 0,0.821182 0,0.0395591 0.00570866,0.175413 -0.00475591,0.200878 -0.00554725,0.0135039 -0.0126299,0.0162047 -0.0323977,0.0163583 -0.357607,0.00272047 -0.723874,-0.000874016 -1.08294,-0.000314961 -0.0961497,0.000149606 -0.0765748,0.00499213 -0.0765748,-0.23302l0 -1.64237c0,-0.132721 -0.00484646,-0.278713 0.00350394,-0.40652 0.00126772,-0.0194213 0.0351614,-0.141268 0.0417481,-0.163701 0.00409055,-0.013937 0.0341103,-0.0694056 0.0434292,-0.0858308 0.0163307,-0.0287835 -0.00162205,-0.0159567 0.0390551,-0.0385709zm-1.72941 2.57001l-1.12286 0 -0.0421142 -0.0438229 0 -2.45147c0,-0.0362126 0.0402402,-0.208134 0.0555433,-0.228146 0.0179725,-0.023504 0.0285512,-0.0613819 0.0389685,-0.0735827l0.030315 -0.0225079c0.0168504,0.0233819 0.00850394,0.105508 0.00850394,0.143091 0,0.061437 -0.00280709,0.169398 0.00457087,0.227386 0.00264961,0.0208386 0.0175,0.0620355 0.026063,0.0856575 0.00632284,0.017437 0.00724016,0.0111024 0.0145551,0.0255079 0.015878,0.0312638 0.0062126,0.0297244 0.0433544,0.0733544 0.0245433,0.0288347 0.00185433,0.0102795 0.0539961,0.0627323 0.0180748,0.0181811 0.0207402,0.0199134 0.0420512,0.0345433 0.0253858,0.0174252 0.059878,0.045874 0.09563,0.0568859 0.0480433,0.0147953 0.0361142,0.0156654 0.0542874,0.0219685 0.0165315,0.00573622 0.0456418,0.00764961 0.0647244,0.0122402 0.0585906,0.0140866 0.15298,0.00491339 0.204626,-0.0134882 0.0142677,-0.00508662 0.0114685,-0.00770473 0.0235079,-0.013063 0.0116969,-0.00520866 0.0208583,-0.00523229 0.0316181,-0.00884252 0.0327481,-0.0109882 0.0651457,-0.0371299 0.0947875,-0.0577205 0.0240945,-0.0167402 0.0382953,-0.0284685 0.0605394,-0.0523622 0.0197284,-0.0211929 0.0697048,-0.0955237 0.0799725,-0.117484 0.0283189,-0.060567 0.0226063,-0.0836063 0.035378,-0.117142 0.0189685,-0.0497914 0.012374,-0.157953 0.0136614,-0.216146l0.00668504 -0.150906c0.0202402,0.0102087 0.0753465,0.125961 0.0814764,0.14726 0.00527953,0.0183307 0.00565748,0.0253307 0.0133622,0.0427244 0.0135709,0.0306299 0.0172559,0.115728 0.0184764,0.150114l0 2.43135c0,0.0265354 -0.00388189,0.051874 -0.0316772,0.051874zm1.92168 -3.16754c0,-0.066126 0.0447796,-0.131784 0.0914331,-0.148244 0.0455591,-0.0160748 0.27198,-0.0132717 0.313103,-0.0108858 0.0579646,0.00336221 0.0776733,0.00998819 0.116642,0.0505591 0.0335473,0.0349292 0.0458465,0.0704174 0.0455433,0.120638l-5.51181e-005 0.768863c0,0.0555118 0.00622835,0.146264 -0.0214173,0.200937 -0.00372441,0.00737008 -0.00769685,0.0103386 -0.0115,0.0168228 -0.0158189,0.0269685 -0.0144921,0.0404252 -0.057937,0.0830867l-0.0287205 0.0235276c-0.0158307,0.0105591 -0.0534567,0.0330118 -0.0690906,0.0395315 -0.014374,0.00599607 -0.0846063,0.0139252 -0.106276,0.0127244 -0.0790237,-0.00437796 -0.0704449,-0.00927166 -0.112067,-0.0269449 -0.0236063,-0.0100276 -0.0434095,-0.0243307 -0.0634804,-0.0411378 -0.0332481,-0.0278425 -0.00883071,-0.00342914 -0.0330906,-0.0354567 -0.0389488,-0.0514252 -0.0630867,-0.0956693 -0.0630867,-0.172457l0 -0.881564zm-2.63782 -0.407398c0.0243504,-0.00465748 0.309024,-0.00740552 0.34013,0.00660237 0.0117638,0.00529528 0.00883859,0.0070315 0.0186221,0.0135039 0.0243425,0.0160984 0.0176811,0.0027126 0.0438859,0.0407323 0.0136457,0.0197914 0.0125315,0.00878347 0.0220433,0.0387284 0.0228307,0.0718977 0.0131496,0.074689 0.0131496,0.162917l0 0.704445c0,0.0838741 0.00201575,0.0874804 -0.018815,0.162063 -0.00647244,0.0231772 -0.0105748,0.0169882 -0.0194843,0.0364882 -0.0354607,0.0775945 -0.120394,0.135169 -0.208343,0.145067 -0.0372205,0.00419292 -0.0749961,0.00088189 -0.108858,-0.00376772 -0.0199173,-0.00273622 -0.0652048,-0.0229291 -0.0811063,-0.0352992 -0.0243071,-0.0189095 -0.0445827,-0.0303425 -0.0626772,-0.0539922 -0.0124173,-0.0162323 -0.0409252,-0.054752 -0.046563,-0.074378 -0.0114724,-0.039941 -0.0189055,-0.036437 -0.0208898,-0.0955237 -0.00255118,-0.0759843 5.51181e-005,-0.157063 5.51181e-005,-0.233622 0,-0.0799489 -0.00612992,-0.65204 0.00453544,-0.703481 0.0027874,-0.0134567 0.0122677,-0.0292284 0.0183032,-0.0421811 0.00669292,-0.014374 0.0149173,-0.0207835 0.0257008,-0.0308937 0.0382047,-0.0358189 0.0457717,-0.0308071 0.0803111,-0.0374095zm1.25116 -0.619079c0,-0.00666536 0.011748,-0.0369331 0.0148583,-0.0459803 0.0101929,-0.0296339 0.0573465,-0.0761418 0.0877875,-0.0850315 0.0852126,-0.0248937 0.2625,0.0183268 0.352114,-0.0220512 0.0644725,-0.0290512 0.0596772,-0.135626 -0.00283071,-0.166091 -0.00658662,-0.00320866 -0.0327402,-0.0134961 -0.0411693,-0.0134961l-0.261599 0 -0.199311 0.0730119c-0.00856693,0.00847638 -0.00821654,0.00950001 -0.0180197,0.0180669 -0.0420394,0.0367205 -0.0825237,0.083693 -0.0968623,0.139921 -0.0105433,0.0413307 -0.0250591,0.0666339 -0.0250906,0.113614l0.000149606 0.273886c0.000122047,0.0237599 0.00261024,0.042374 -0.0106299,0.056752 -0.00757874,0.00823229 -0.0250315,0.0216693 -0.0346339,0.0297599 -0.0494961,0.0417087 -0.0910237,0.0922323 -0.12848,0.145091 -0.0205512,0.029 -0.0606615,0.0977008 -0.0746851,0.130776 -0.00435433,0.0102638 -0.00433859,0.0164646 -0.00868898,0.0275276 -0.0165591,0.0420984 -0.0127559,0.0464725 -0.0230551,0.0773819 -0.00683859,0.0205118 -0.0130591,0.024504 -0.0169095,0.0516221 -0.0049252,0.0346496 -0.0158504,0.0861536 -0.0164055,0.12087l0.000236221 0.205646c0.000185039,0.028374 0.00155512,0.0349488 -0.0156969,0.0486772l-0.0825552 -0.0709213c-0.0231378,-0.0206457 -0.0223425,-0.0141142 -0.0219567,-0.0542835l9.05512e-005 -0.22954c1.1811e-005,-0.0500591 -0.000783465,-0.0942678 -0.0171221,-0.136075 -0.00851182,-0.0217914 -0.00643701,-0.0378937 -0.0174252,-0.0590394 -0.0250709,-0.0482441 -0.0293425,-0.0500866 -0.0601339,-0.0928938 -0.0147284,-0.0204764 -0.0246811,-0.0207914 -0.0408583,-0.0355866 -0.0277874,-0.0254173 -0.0626221,-0.0398977 -0.096256,-0.0563465 -0.0182244,-0.00890945 -0.103866,-0.0245669 -0.130638,-0.0245669l-0.230406 0 -0.103921 0.0176732c-0.0262323,0.00558662 -0.0234449,0.00787796 -0.0423937,0.0181024 -0.0199331,0.0107559 -0.0235591,0.00554331 -0.0414607,0.0191221 -0.00823229,0.0062441 -0.0118937,0.00758662 -0.0192441,0.0127992 -0.042815,0.0303898 -0.0692993,0.0631693 -0.0996142,0.109772 -0.0420276,0.0645985 -0.0438504,0.104173 -0.0438504,0.198858 0,0.0791378 -0.000547244,0.158473 5.51181e-005,0.237587 0.000562992,0.0741339 -0.0430906,0.0767284 -0.0882875,0.123598 -0.0049252,0.0051063 -0.00923623,0.00926378 -0.013626,0.0146102 -0.00662993,0.00807481 -0.0063937,0.0109528 -0.0142126,0.0178032 -0.00989371,0.0086693 -0.00501575,-0.000488189 -0.0150158,0.0131732 -0.0165315,0.0225788 -0.0364528,0.0451536 -0.0511378,0.069689 -0.0217953,0.0364173 -0.0532599,0.0785906 -0.0654685,0.116004 -0.00713386,0.0218662 -0.0239528,0.0675945 -0.0339095,0.0863938 -0.0167638,0.0316575 -0.0350669,0.162417 -0.0350669,0.202709l0 2.49173c0.00227953,0.0421457 0.00830709,0.0533819 0.0208307,0.0919134 0.0212559,0.0654055 0.126299,0.128465 0.204622,0.128465l1.12286 0c0.0522087,-0.00562599 0.121929,-0.0390197 0.12874,-0.039067 0.0138504,-9.05512e-005 0.0693622,0.039067 0.128835,0.039067l1.12689 0c0.021063,-0.00232284 0.0802126,-0.0135197 0.0978819,-0.0259843 0.0251181,-0.0177165 0.0325709,-0.0180118 0.0583622,-0.000586615 0.016937,0.0114449 0.0749331,0.0265709 0.0932796,0.0265709l1.13594 0 0.088189 -0.0225748c0.0126063,-0.00689764 0.017752,-0.0126299 0.0352992,-0.0209803 0.0361378,-0.0171929 0.0535394,-0.0542914 0.0742599,-0.0867953 0.00776772,-0.012189 0.0239961,-0.0663819 0.0239961,-0.0860001l0 -2.24618 -0.0142323 -0.0956969c-0.00837796,-0.0579213 -0.0140551,-0.0474685 -0.0223583,-0.0819646 -0.0038189,-0.0158662 -0.00470079,-0.0324803 -0.0103425,-0.0467796 -0.0135354,-0.0342953 -0.0482914,-0.118083 -0.0698268,-0.143201 -0.0186024,-0.021689 -0.0288229,-0.0553898 -0.090189,-0.123087 -0.0934567,-0.103095 -0.106469,-0.0557481 -0.10639,-0.157362 6.29922e-005,-0.0774882 0.00870867,-0.256571 -0.00603544,-0.314248 -0.00446457,-0.0174646 -0.0110827,-0.0206496 -0.0155591,-0.0411929 -0.0153032,-0.0702087 -0.0498465,-0.115154 -0.102512,-0.162366 -0.0126654,-0.0113543 -0.0141142,-0.0158858 -0.0281103,-0.0242953l-0.0532441 -0.0267835c-0.0219449,-0.00888583 -0.0349803,-0.018378 -0.0585866,-0.0230473 -0.0342599,-0.00677953 -0.0482677,-0.0143622 -0.0879371,-0.0142087 -0.0795119,0.000307087 -0.240492,-0.00833859 -0.3115,0.00887796 -0.0162362,0.00393701 -0.0271614,0.00533859 -0.0424528,0.0096693 -0.0174095,0.00493307 -0.0225158,0.0108819 -0.0357047,0.0166378 -0.0563544,0.0245748 -0.117862,0.067815 -0.146941,0.122862 -0.0200827,0.0380236 -0.0421536,0.0658465 -0.0487323,0.108776 -0.014189,0.0925434 -0.00601181,0.215925 -0.00600788,0.315166 0,0.0372914 0.00659449,0.066378 -0.0150236,0.0901339l-0.106595 0.0964174 -0.00990945 -0.0235866c-0.00734646,-0.0267835 -0.00180315,-0.416788 -0.00180315,-0.448768 0,-0.121606 -0.00609843,-0.115039 -0.0224528,-0.218662 -0.00435827,-0.027626 -0.00901182,-0.0238977 -0.0170906,-0.0435512 -0.0152323,-0.0370551 -0.0278898,-0.090563 -0.0891339,-0.090563 -0.0190079,0 -0.0589882,0.0121063 -0.0731693,0.0220512 -0.0228858,0.0160591 -0.0282756,0.0624882 -0.0248032,0.0892008 0.00461024,0.035437 0.043311,0.147874 0.043311,0.185165l0 3.24851 -0.0419292 0.0317481 -1.11884 0 -0.0325591 -0.0357717 0 -3.22838 0.00936221 -0.100311 0.0256575 -0.0786536c0.0064252,-0.0153307 0.0102795,-0.0141417 0.0164449,-0.0359331 0.00677559,-0.0239606 0.0224331,-0.0483268 0.0368622,-0.0673622 0.0107717,-0.0142047 0.00679528,-0.0185473 0.0206969,-0.0311221l0.0109764 0.124189c0.00396063,0.0898426 -0.00916536,0.173406 0.0172992,0.257291 0.0128347,0.0406851 0.0102638,0.0574528 0.0302835,0.103028l0.0256811 0.042563c0.0315709,0.0550552 0.0755591,0.105189 0.131059,0.138437 0.0156457,0.00937402 0.0243662,0.0197323 0.0408268,0.0274449l0.0934331 0.0402205c0.011874,0.00464567 0.0979646,0.0203347 0.11341,0.0210394 0.0968268,0.00440551 0.228382,-0.0340118 0.304201,-0.0962756 0.016874,-0.0138543 0.0225276,-0.0174016 0.0366575,-0.0317047l0.0657323 -0.0710276c0.00931497,-0.0102874 0.0183937,-0.0275748 0.0252835,-0.0391851 0.0079252,-0.0133504 0.0124882,-0.0291772 0.0221654,-0.0461299 0.0225433,-0.0394725 0.0464685,-0.163496 0.0372914,-0.19676l-0.0437441 -0.0732559c-0.0234567,-0.0145473 -0.0705197,-0.0143662 -0.0916182,-0.00111417 -0.0239764,0.015063 -0.0457205,0.0380866 -0.0508859,0.0663544 -0.00812993,0.0444882 -0.00216536,0.090567 -0.0283386,0.144138 -0.00580709,0.0118858 -0.0159095,0.0216063 -0.0232165,0.0330512 -0.0211181,0.0330827 -0.0551733,0.0597244 -0.0870945,0.0819331 -0.0113543,0.00789764 -0.0224646,0.00914961 -0.0375827,0.0186417 -0.0448386,0.0281614 -0.131114,0.0184882 -0.183984,0.0104685 -0.0333071,-0.00505118 -0.0995158,-0.0484292 -0.120996,-0.0721339 -0.0562008,-0.0620197 -0.0278622,-0.0358858 -0.0543386,-0.0782993 -0.013374,-0.0214252 -0.0315197,-0.0738937 -0.0315197,-0.0975827l0 -0.921815z"/>
   <path id="_498221104" class="fil0" d="M2.20213 2.63246c0.0223071,-0.0123504 0.0629607,-0.024689 0.0925237,-0.0278189 0.0439173,-0.00464961 0.0600906,-0.0175079 0.0939567,-0.0223504 0.0619804,-0.00887008 0.0491299,-0.00774016 0.102535,-0.0185669 0.041063,-0.00832678 0.0523268,-0.00607874 0.0953071,-0.0217835 0.0169606,-0.00620079 0.0335827,-0.00782678 0.0494095,-0.0111378 0.0218543,-0.00457087 0.0240394,-0.00972048 0.0435355,-0.0168937 0.0255669,-0.00939764 0.0352205,-0.018815 0.0573622,-0.0308662l0.242571 -0.139811c0.0199213,-0.0154095 0.0500355,-0.0277087 0.0754449,-0.0414449 0.016689,-0.00901969 0.0127913,-0.0126536 0.0365512,-0.0239725 0.012563,-0.00598426 0.0302244,-0.0150945 0.0390394,-0.0213032 0.0214095,-0.0150748 0.0501536,-0.0322914 0.0744174,-0.0420276 0.0169095,-0.00678741 0.017126,-0.0132677 0.0366929,-0.0234331 0.0176299,-0.00916142 0.0180669,-0.0131299 0.0391654,-0.021874 0.0270827,-0.0112205 0.0480315,-0.0304055 0.0729371,-0.0435985l0.0395158 -0.0209291c0.0154213,-0.00886615 0.0207244,-0.0157677 0.0337638,-0.0224134l0.152421 -0.0851851c0.0128347,-0.0102992 0.126236,-0.0710748 0.150618,-0.0869843 0.00762993,-0.00498032 0.00979134,-0.00779134 0.0194725,-0.0127441 0.00690552,-0.00353544 0.0116496,-0.0046063 0.0188465,-0.00911812l0.0358347 -0.0205c0.0168937,-0.00755906 0.0778229,-0.0476654 0.115709,-0.0657835 0.0201299,-0.00962599 0.0146732,-0.0135945 0.0331772,-0.0230473l0.0737087 -0.0428268c0.00889371,-0.0043189 0.0131969,-0.00472441 0.021752,-0.0102126 0.00865749,-0.00555512 0.00383465,-0.00481103 0.017315,-0.0110158l0.0355866 -0.0208622c0.0406969,-0.0236732 0.246882,-0.137189 0.263807,-0.150736 0.0119095,-0.00953938 0.0202244,-0.0131142 0.0355906,-0.0208307l0.0965355 -0.056374c0.00906693,-0.00498425 0.0114252,-0.00423622 0.0198819,-0.00810237l0.145339 -0.0882599c0.0158701,-0.00672835 0.0248504,-0.0127756 0.0383504,-0.0186693 0.0254725,0.0243662 0.0256851,0.0222717 0.0414173,0.0517166l0.033315 0.0552796c0.00734252,0.0130394 0.0114567,0.0226142 0.0211378,0.034004 -0.0317008,0.0350236 -0.0379488,0.0410748 -0.0790237,0.0657559l-0.0896812 0.051126c-0.0200394,0.013752 -0.0488307,0.0270906 -0.0700827,0.0382717l-0.108047 0.0652756c-0.0482126,0.0219213 -0.0446614,0.0269449 -0.0678268,0.0407599 -0.00967323,0.00577166 -0.0123504,0.00396063 -0.022563,0.00961418 -0.0364528,0.0201772 -0.0741063,0.0471772 -0.113134,0.0643229l-0.0448819 0.0275394c-0.00817323,0.00463386 -0.0106732,0.00726378 -0.0197599,0.0122913 -0.0223858,0.0123937 -0.218047,0.121665 -0.225784,0.1285 -0.0124882,0.0110315 -0.0700197,0.0428189 -0.0875512,0.0532205 -0.0134724,0.00798819 -0.0329567,0.0193032 -0.0437677,0.0243268l-0.292232 0.166961c-0.0117953,0.007063 -0.0098189,0.00953938 -0.0203819,0.0158032 -0.00912205,0.00540551 -0.0155787,0.00625985 -0.0245866,0.0114567 -0.0366851,0.0211614 -0.068504,0.0439449 -0.110847,0.062752 -0.0218032,0.00968505 -0.0435079,0.0312284 -0.0669961,0.0413898 -0.018626,0.00805906 -0.0504331,0.0259528 -0.066378,0.0380866 -0.0207087,0.0157638 -0.0637874,0.0343858 -0.0893465,0.0519685 -0.0202638,0.013941 -0.047689,0.0206929 -0.0676024,0.0368268 -0.0112008,0.00907481 -0.00676378,0.0068937 -0.0220748,0.0141536 -0.0241772,0.0114646 -0.046189,0.0251575 -0.0664843,0.0380512 -0.00614567,0.00390158 -0.0154134,0.00840552 -0.0231654,0.0131457l-0.156417 0.0890355c-0.098878,0.0539095 -0.125953,0.112398 -0.149866,0.13191 -0.00144095,0.00117717 -0.00556693,0.00391339 -0.00683071,0.00513386l-0.142366 0.163476c-0.00991733,0.0169449 -0.0199055,0.0209213 -0.0325158,0.0360512 -0.0188228,0.0225866 -0.055004,0.0592205 -0.0819961,0.0232559l-0.155512 -0.267162c-0.00835827,-0.0120945 -0.0176693,-0.0330551 -0.0252599,-0.0471378 -0.0165276,-0.0306732 -0.0257677,-0.0310355 -0.0215827,-0.0656851zm2.54122 -1.65919c0,-0.0468622 0.0203425,-0.0700197 0.0391851,-0.0952402 0.0183268,-0.0245315 0.185543,-0.11711 0.20789,-0.126504 0.024626,-0.0103465 0.016689,-0.0149016 0.0395984,-0.0246417 0.0365945,-0.015563 0.054874,-0.0287953 0.0855473,-0.0472992 0.0167874,-0.010126 0.0248307,-0.0132008 0.0451221,-0.0234921 0.0146339,-0.00742126 0.0223662,-0.0137244 0.0405355,-0.0237205 0.010248,-0.00563386 0.0137087,-0.0103819 0.0216024,-0.0145866 0.00880315,-0.00469292 0.0124291,-0.00395276 0.0222992,-0.00983071 0.0106732,-0.00635827 0.00609055,-0.00640945 0.0194725,-0.0127598l0.104539 -0.0563071c0.0317008,-0.0228071 0.0908071,-0.0514725 0.127776,-0.0734685 0.0103583,-0.00616536 0.0112953,-0.00685433 0.0212205,-0.0110551l0.317721 -0.181536c0.0132126,-0.00703544 0.0292323,-0.016378 0.0427717,-0.0218858 0.0137559,-0.00559449 0.0117992,-0.0023189 0.0242914,-0.0117008 0.0448544,-0.0336851 0.166378,-0.0512323 0.222559,-0.0449173l0.168862 0.0384292c0.0082126,0.00514961 0.00904331,0.00744095 0.0166024,0.0114567 0.057,0.0302953 0.0473504,0.021815 0.10313,0.0701221 0.0482244,0.0417599 0.0517756,0.0649607 0.0697048,0.0873583 0.0307756,0.0384488 0.0307008,0.0721536 0.0485748,0.100039 0.0125473,0.0195748 0.0126496,0.0554922 0.0187953,0.0829095 0.0150118,0.0670079 0.00123622,0.124347 -0.00871654,0.185973 -0.00616142,0.0381496 -0.00996851,0.0205866 -0.027248,0.0727363 -0.010189,0.0307559 -0.0614213,0.103142 -0.0800237,0.121661 -0.0337323,0.0335748 -0.0691969,0.0655158 -0.112992,0.0883544l-0.192697 0.113102c-0.0292284,0.0136181 -0.137445,0.085941 -0.19076,0.110799 -0.0189921,0.00885434 -0.0132441,0.0116142 -0.030941,0.0216772l-0.111661 0.0653268c-0.0438859,0.021748 -0.0253032,0.0160945 -0.0458662,0.0265984l-0.226146 0.13213c-0.0351851,0.0166102 -0.0400197,0.0262047 -0.0953859,0.0537087l-0.125142 0.075693c-0.023315,0.0163268 -0.0692796,0.028378 -0.0996812,0.0252362 -0.0759489,-0.00784646 -0.0932245,-0.0292953 -0.132465,-0.0847048l-0.039563 -0.0694095c-0.00805906,-0.0184606 -0.00220866,-0.00811024 -0.0142992,-0.0217441 -0.0100945,-0.0113898 -0.11237,-0.199791 -0.129827,-0.228445 -0.0212953,-0.0349567 -0.0941693,-0.158225 -0.10465,-0.180992 -0.0120473,-0.0261772 -0.0179095,-0.0182165 -0.0266536,-0.0459725 -0.0103504,-0.0328543 -0.0130827,-0.0394055 -0.0130827,-0.0730985zm1.34272 -0.970564c-0.0419134,0.00797245 -0.129803,0.00598426 -0.165453,0.0249764 -0.0200354,0.0106732 -0.0471969,0.0164055 -0.0691063,0.0276614 -0.0108937,0.00559449 -0.0130709,0.00558662 -0.0234055,0.00880315 -0.020063,0.0062441 -0.023874,0.0136142 -0.0416536,0.022504l-0.0626929 0.0337166c-0.0297599,0.0210394 -0.0675512,0.0412874 -0.0998583,0.0574449 -0.0259055,0.0129567 -0.05363,0.0329725 -0.082756,0.045874 -0.0142559,0.00631496 -0.0263465,0.0178228 -0.0402874,0.0246693 -0.0179882,0.00883465 -0.027189,0.0139528 -0.0430906,0.0213032 -0.0207756,0.00961024 -0.0167087,0.0145984 -0.0392914,0.0247165 -0.0176732,0.00792126 -0.0244252,0.0149528 -0.0420866,0.0222402l-0.121158 0.0679016c-0.0238425,0.012311 -0.0550709,0.0341299 -0.0820394,0.0468268 -0.0205197,0.00966536 -0.0213465,0.0154803 -0.0405748,0.0238307 -0.0197402,0.00856693 -0.0795119,0.042937 -0.103284,0.0575512 -0.00933859,0.0057441 -0.0120158,0.00583465 -0.0216693,0.0102047 -0.0204213,0.0092441 -0.0156299,0.0149016 -0.0399803,0.0251221 -0.0331103,0.0138976 -0.0687402,0.0406142 -0.102161,0.0585985 -0.00725197,0.00390551 -0.0146221,0.00578347 -0.0222165,0.00985827 -0.0301221,0.0161575 -0.0483347,0.031252 -0.0816693,0.0471654 -0.00972048,0.00464173 -0.0315788,0.0156063 -0.041874,0.0224961 -0.0125551,0.00840158 -0.0625,0.0458977 -0.0695315,0.055563 -0.0179331,0.0246299 -0.043874,0.0482244 -0.0537048,0.074752 -0.00669292,0.0180591 -0.0156102,0.0281103 -0.0199725,0.044252 -0.019378,0.0717008 -0.0319764,0.0654489 -0.0228662,0.168142 0.00692126,0.0779843 0.0857126,0.140945 0.0266417,0.174394 -0.0204016,0.0115512 -0.0443583,0.0192008 -0.0643268,0.0319882 -0.00840552,0.00538189 -0.00887402,0.00944095 -0.0171102,0.0149843 -0.00750394,0.00505512 -0.0130315,0.00560237 -0.0218543,0.0102205l-0.0798819 0.0452559c-0.0222756,0.0109252 -0.0402362,0.0236536 -0.0600552,0.0364252l-0.387981 0.223945c-0.0110669,0.00655118 -0.0130945,0.00585433 -0.0219291,0.0102362l-0.283209 0.163437c-0.0198701,0.0145984 -0.0192992,0.0125906 -0.0400276,0.0240984l-0.323776 0.187606c-0.0164252,0.0123386 -0.026941,0.0135906 -0.0413032,0.0230669l-0.0316103 0.0166614c-0.000700788,0.000480315 -0.00162205,0.00122835 -0.00228347,0.00174803l-0.0151339 0.0130748 -0.0319252 0.0164095c-0.0196851,0.0111142 -0.0236102,0.012185 -0.0406693,0.0238307 -0.0215473,0.0147087 -0.146669,0.081315 -0.161646,0.0918032 -0.0297362,0.0208268 -0.051937,0.0297756 -0.0818623,0.0468622 -0.0313425,0.0178937 -0.0502048,0.0330433 -0.0809764,0.048063 -0.0184606,0.00900788 -0.0224725,0.016874 -0.039004,0.0252126 -0.00730315,0.00368504 -0.0156299,0.00605906 -0.022315,0.00980709 -0.0103622,0.00580709 -0.0086063,0.00658268 -0.020563,0.0117126 -0.0219252,0.00940552 -0.0399173,0.0233386 -0.061437,0.0352087l-0.0426221 0.0217795c-0.0582402,0.0370394 -0.120004,0.0281181 -0.18,0.0448504 -0.0175236,0.00488977 -0.0237126,0.0104449 -0.0467244,0.0140512 -0.0188701,0.00295669 -0.0346693,0.00357481 -0.0547402,0.010311 -0.0609489,0.0204528 -0.145626,0.0119843 -0.202866,0.0543819 -0.0426024,0.0315551 -0.0214331,0.00302756 -0.0690906,0.059441 -0.0188898,0.0223622 -0.0340079,0.0604292 -0.0380827,0.0905394 -0.00731496,0.0540433 0.00145276,0.11652 0.0292087,0.158347 0.0108937,0.0164173 0.0293622,0.0429449 0.0362087,0.0601929 0.00517717,0.0130512 0.00172835,0.0101614 0.0101772,0.021941 0.0353465,0.0492756 0.062,0.108161 0.0945237,0.159382 0.0182677,0.0287677 0.0548819,0.103843 0.0717953,0.121378 0.0446929,0.0463544 0.0523386,0.0527992 0.112158,0.0807205 0.0149331,0.00696851 0.0372481,0.00878347 0.0575079,0.00886221 0.0599449,0.00022441 0.0619134,-0.00480709 0.105504,-0.0250866 0.0548071,-0.0254961 0.0947245,-0.0797481 0.132902,-0.124382l0.0592402 -0.0657638c0.0216457,-0.0265236 0.0413032,-0.042311 0.0608386,-0.0678622 0.00396063,-0.00518504 0.0042441,-0.00672835 0.0066063,-0.00951575 0.000543307,-0.000641733 0.00129921,-0.00156693 0.00187402,-0.00217323 0.000574803,-0.0006063 0.00145669,-0.00141339 0.00205906,-0.00198819 0.047689,-0.0452284 0.051504,-0.0709449 0.122807,-0.110835 0.00840552,-0.00470473 0.0113465,-0.00461811 0.0190551,-0.00911812 0.0114134,-0.00666142 0.00887008,-0.00814174 0.0178819,-0.0140315l0.123437 -0.0697481c0.0397047,-0.0169764 0.0824449,-0.0510355 0.122516,-0.0707717l0.0984489 -0.0585197c0.00943308,-0.0069567 0.0102087,-0.00587008 0.0210788,-0.0110354 0.0317205,-0.015063 0.0690433,-0.0413819 0.0816497,-0.0473701 0.0100512,-0.00477166 0.0116536,-0.00574803 0.0209016,-0.0111772 0.0113425,-0.00666142 0.012063,-0.00518111 0.0221339,-0.0102874 0.00746457,-0.00378347 0.0554567,-0.0354213 0.0811024,-0.0477441l0.22215 -0.131673c0.0209803,-0.0111142 0.0431575,-0.0175591 0.0643977,-0.0323937 0.00888189,-0.00620473 0.00742126,-0.00822441 0.0177165,-0.0146024 0.0184528,-0.0114291 0.0472796,-0.021689 0.0622678,-0.0340276 0.0228071,-0.0187717 0.058063,-0.0288819 0.0804213,-0.0443465 0.0507008,-0.0350709 0.110598,-0.0635197 0.162162,-0.0956024 0.0406181,-0.0252677 0.0855,-0.0443662 0.121173,-0.0721811 0.0087756,-0.00684252 0.0303977,-0.0153622 0.041941,-0.0222795l0.243677 -0.142665c0.0415788,-0.0186457 0.0800867,-0.0473307 0.121276,-0.0676496 0.0220079,-0.0108583 0.0181457,-0.0155276 0.039252,-0.0252559 0.0356969,-0.0164488 0.0699134,-0.0355158 0.102756,-0.05813 0.012811,-0.00882284 0.00794095,-0.00496851 0.0216378,-0.0107441 0.059504,-0.0251024 0.0469725,-0.0664685 0.10835,0.0162323 0.0167874,0.0226221 0.021878,0.0330118 0.0451339,0.0511378 0.0180473,0.0140709 0.0292323,0.027626 0.0553465,0.041441l0.0420591 0.022437c0.0682796,0.0360158 0.191839,0.0334331 0.263807,0.00124803 0.0119685,-0.0053504 0.0100472,-0.00760237 0.0194173,-0.0127795 0.0304567,-0.0168347 0.0489174,-0.018063 0.0835867,-0.0454803 0.0189843,-0.0150079 0.0436103,-0.0191929 0.0628662,-0.0336142 0.00979528,-0.00733859 0.00304331,-0.00646063 0.0173858,-0.0148228 0.0316614,-0.0184606 0.0707402,-0.0359882 0.10026,-0.05663 0.0275551,-0.0192677 0.15135,-0.0834922 0.163725,-0.0938898 0.0206339,-0.0173268 0.0569843,-0.0328543 0.0796221,-0.0493071 0.0241103,-0.0175236 0.0567402,-0.0281693 0.0786772,-0.0460827 0.0249685,-0.0203898 0.0563229,-0.0280276 0.0819016,-0.0467756 0.011063,-0.00811024 0.0260748,-0.0178425 0.0393465,-0.0250551l0.0809882 -0.047937c0.0199725,-0.0104803 0.0434134,-0.0197047 0.063063,-0.033311 0.00909449,-0.00629528 0.00865749,-0.00857087 0.0181221,-0.0140591l0.123347 -0.0701142c0.0260906,-0.0114921 0.0516378,-0.0344725 0.0812599,-0.0472638 0.0168071,-0.00725591 0.0899489,-0.06463 0.106965,-0.082378 0.0104646,-0.0109134 0.0217717,-0.0222756 0.0321457,-0.0320827 0.0130197,-0.012315 0.0757599,-0.0962638 0.0817874,-0.111453 0.00996457,-0.0251142 0.0353977,-0.0603307 0.0433386,-0.0851615 0.00527166,-0.0164882 0.00853938,-0.0343622 0.0149843,-0.0498504 0.00810237,-0.0194646 0.00697638,-0.0290788 0.0118189,-0.0531496 0.00364173,-0.0180945 0.0102244,-0.030374 0.0144291,-0.0484764 0.00921654,-0.039689 0.00507087,-0.0844174 0.00523229,-0.125969 0.000153543,-0.0388229 -0.0377047,-0.204236 -0.0561181,-0.231299 -0.00641339,-0.0094252 -0.00642914,-0.00879922 -0.011189,-0.0208307 -0.0180551,-0.0456418 -0.0441378,-0.0817166 -0.0737205,-0.119551l-0.044811 -0.0516063c-0.0154646,-0.0211614 -0.0304685,-0.0273189 -0.0511811,-0.0454803 -0.0234252,-0.0205354 -0.0881339,-0.0670512 -0.113579,-0.0795394 -0.027563,-0.0135236 -0.0699685,-0.0228622 -0.0952678,-0.0336103 -0.0204685,-0.00869292 -0.015685,-0.0137323 -0.0465473,-0.0181063 -0.0505433,-0.0071693 -0.117488,-0.0259252 -0.168248,-0.0162717z"/>
   <path id="_498228016" class="fil0" d="M1.0185 1.67295c0.0214016,-0.00687796 0.158138,-0.00211024 0.193004,-0.00192126 0.0407362,0.000216536 0.054063,-0.00160236 0.0775552,-0.0241103 0.0144921,-0.0138858 0.0316929,-0.0402481 0.0312795,-0.0698189 -0.000740158,-0.0528032 -0.0427874,-0.0713937 -0.0637126,-0.0852835 -0.0159488,-0.0105866 -0.0240394,-0.00775591 -0.0450945,-0.00758268l-0.199114 -0.00190945c-0.0139331,-0.0247441 -0.00575591,-0.109138 -0.00575591,-0.146768 0,-0.073626 0.00886221,-0.0786024 -0.0251536,-0.128205 -0.0321063,-0.046815 -0.0966024,-0.0523977 -0.145398,0.00223228 -0.016,0.0179095 -0.0163228,0.0352284 -0.0161772,0.0655473 0.000240158,0.051004 -0.000185039,0.102032 9.44882e-005,0.153032 0.000165354,0.0306811 0.00765748,0.0472205 -0.0214331,0.0538504 -0.0327126,0.0074567 -0.192488,-0.00422441 -0.224914,0.00452362 -0.029815,0.00804725 -0.0684567,0.0431378 -0.0704292,0.0867441 -0.00198032,0.0438229 0.0224528,0.0838229 0.0598465,0.0933898 0.0478819,0.012252 0.173047,-0.000433071 0.225228,0.00451181 0.0253819,0.00240551 0.0307953,0.0147717 0.0318229,0.0426811 0.00186614,0.0505355 -1.5748e-005,0.10602 -0.000153543,0.157075 -0.000165354,0.0620197 0.00351575,0.0814646 0.0476103,0.10661 0.0233504,0.013315 0.0870237,0.0169882 0.116854,-0.0278937 0.0314331,-0.0472914 0.0222008,-0.0645197 0.0222008,-0.131051 0,-0.0200276 -0.0033189,-0.118921 0.00465355,-0.135815l0.00718504 -0.00983859z"/>
   <path id="_503448352" class="fil0" d="M4.39999 3.33618c0,0.0314606 0.0118189,0.0547244 0.0334488,0.0742008 0.0234725,0.0211378 0.0333465,0.0208425 0.0741063,0.0206378l0.195453 0.00329921c0.00785434,0.0118347 0.00967717,0.0209961 0.010378,0.0386024 0.00154724,0.0389252 -0.00318504,0.182677 0.00201575,0.203043 0.00967717,0.0378819 0.0637953,0.0910001 0.128732,0.0655473 0.00558662,-0.00218898 0.0274764,-0.0164961 0.0324016,-0.0202992 0.0513544,-0.0396457 0.00057874,-0.247559 0.0332874,-0.280492 0.0168701,-0.0169843 0.162398,-0.00986615 0.19752,-0.00970867 0.0337677,0.000153543 0.0638741,-0.000893701 0.0812796,-0.0214291 0.0351772,-0.041504 0.0372205,-0.109059 -0.00872048,-0.14191 -0.0310236,-0.0221811 -0.0328229,-0.0236299 -0.08063,-0.0233898 -0.034874,0.000173228 -0.0697874,1.96851e-005 -0.104669,1.96851e-005 -0.0609331,0 -0.0374134,0.00428347 -0.0939843,-0.0113661 -0.0066693,-0.0898268 0.0155512,-0.23998 -0.0215079,-0.268244 -0.0154016,-0.0117441 -0.0543032,-0.0337284 -0.0736615,-0.0337284 -0.0391103,0 -0.0926851,0.042626 -0.0921812,0.107264 0.000251969,0.0322559 0.00864174,0.18611 -0.00545276,0.200358 -0.0140158,0.0141693 -0.164449,0.00583465 -0.196248,0.00565355 -0.0478071,-0.000275591 -0.0445551,0.00464961 -0.0744252,0.0256811 -0.018063,0.0127205 -0.0371418,0.0392559 -0.0371418,0.0662599z"/>
   <path id="_498212800" class="fil0" d="M3.81138 5.27643c0.0103976,-0.00434252 0.0127362,-0.00807087 0.0199095,-0.0121378 0.00614567,-0.00348425 0.0149095,-0.00651969 0.0231614,-0.00967717 0.0522441,-0.0199646 0.0734095,-0.0400984 0.11989,-0.0688111 0.032252,-0.0199252 0.0725906,-0.072004 0.0348662,-0.127669 -0.018937,-0.0279449 -6.29922e-005,-0.0156536 -0.0306851,-0.0333425 -0.0372559,-0.0215118 -0.0511378,-0.030878 -0.0900315,-0.005 -0.00896064,0.00596457 -0.0119803,0.00612992 -0.0211221,0.0107244 -0.0266969,0.0134055 -0.0491693,0.0339055 -0.0786811,0.0459528 -0.00905119,0.00369292 -0.0126181,0.00704331 -0.0208543,0.0113386l-0.0972638 0.0319016c-0.0210669,0.00326772 -0.035126,0.00510237 -0.0551654,0.00909449 -0.0592048,0.0117953 -0.177862,0.000767717 -0.219917,-0.0200709 -0.0103425,-0.00512599 -0.0131299,-0.00751575 -0.0227677,-0.0102362 -0.0524449,-0.014815 -0.0192205,-0.00447244 -0.0695473,-0.0263071 -0.0153937,-0.00668111 -0.0942441,-0.0646851 -0.124957,-0.0672363 -0.0284725,-0.00236614 -0.0632796,0.0228701 -0.0811615,0.0441339 -0.0142205,0.0169095 -0.0137323,0.0420433 -0.0137323,0.0623032 0,0.0258977 0.0109764,0.0431851 0.0239882,0.0561378 0.0129173,0.0128622 0.0807126,0.0592992 0.0956142,0.0651772 0.028815,0.0113701 0.0879174,0.0442638 0.108299,0.0490237 0.0193701,0.00452362 0.0375591,0.0133701 0.0595118,0.0172244 0.0288229,0.005063 0.0398189,0.00456693 0.0662048,0.0137599 0.0388347,0.0135315 0.132284,0.0149606 0.165146,0.0115984 0.0241457,-0.00246851 0.180284,-0.0357599 0.209295,-0.0478819z"/>
   <path id="_498227128" class="fil0" d="M3.56583 5.69769c0.0369134,-0.00138583 0.128433,-0.00540158 0.155354,-0.0163425 0.0123071,-0.00500394 0.0170118,-0.00801969 0.0325748,-0.0115315 0.0584961,-0.0132087 0.0321024,-0.0140197 0.0615945,-0.0226929 0.0447284,-0.0131536 0.0427914,-0.0113976 0.0882599,-0.0407638 0.0365473,-0.0235984 0.125272,-0.0619016 0.121579,-0.132732 -0.00301969,-0.0579685 -0.0847284,-0.131795 -0.183492,-0.0500197 -0.0125787,0.0104173 -0.00462205,0.00846457 -0.0245315,0.0155709 -0.0208976,0.00746063 -0.0133858,0.00696457 -0.0288622,0.015437 -0.0384961,0.0210709 -0.116256,0.0447992 -0.162587,0.049315 -0.0302284,0.00294488 -0.0533859,0.00359843 -0.084,0.00371654 -0.0941693,0.000366142 -0.084126,-0.0100591 -0.152866,-0.022252 -0.0154488,-0.00274016 -0.105457,-0.0457008 -0.116185,-0.0525433l-0.0523701 -0.0360473c-0.056004,-0.0291929 -0.153394,0.00382284 -0.13661,0.10102 0.00718111,0.0416142 0.0283268,0.0465866 0.0473032,0.0645709 0.0160079,0.0151693 0.0740079,0.0499764 0.0883741,0.0565473 0.022311,0.0102087 0.0323189,0.0188898 0.0589607,0.0259055 0.0143858,0.0037874 0.0185669,0.00555118 0.031563,0.0126378 0.0114724,0.00625197 0.092315,0.0295276 0.0985079,0.030441 0.0393189,0.00582678 0.11415,0.0113898 0.157433,0.00976379z"/>
   <path id="_498214624" class="fil0" d="M1.83365 4.23155c0.016941,0.007563 0.0424095,0.0170039 0.0588504,0.0256693 0.0102913,0.0054252 0.0136142,0.0107795 0.0290945,0.0152087l0.069378 0.0193425c0.00921654,0.00177559 0.0283425,0.00340158 0.0384173,0.00528347 0.0266221,0.00496851 0.044126,0.0136299 0.0712638,0.0176063 0.0389725,0.0057126 0.122551,0.00568111 0.159772,-0.00561811 0.0311063,-0.00944489 0.0409882,-0.0110512 0.0730591,-0.0156024 0.0271417,-0.0038504 0.0434331,-0.0129606 0.0699174,-0.0186575 0.0327677,-0.00704725 0.0321024,-0.0171929 0.0582953,-0.0257402 0.036063,-0.0117638 0.140957,-0.068626 0.161878,-0.100126 0.0168662,-0.0253858 0.0247756,-0.0924882 -0.0218622,-0.126071 -0.0603465,-0.0434488 -0.094126,-0.0198858 -0.17263,0.0360118 -0.0307008,0.0218622 -0.0769843,0.0308543 -0.0945945,0.0383583 -0.0892008,0.0380236 -0.203362,0.0358544 -0.30074,0.0137638l-0.126185 -0.0501221c-0.0106614,-0.00736221 -0.00706693,-0.00875985 -0.0227087,-0.0174685l-0.056004 -0.0323819c-0.0407047,-0.0304488 -0.0977323,0.0053937 -0.113559,0.0304528 -0.00905512,0.0143425 -0.0254725,0.0390591 -0.0213701,0.0635788 0.00945276,0.0565315 0.0929607,0.105622 0.139728,0.126512z"/>
   <path id="_498227296" class="fil0" d="M0.316669 4.9222c0,0.0566339 0.0378819,0.0645552 0.077315,0.097315 0.0117126,0.00972835 0.0171575,0.0083189 0.0293937,0.0147165 0.00955906,0.00499607 0.0126575,0.00902756 0.0262205,0.0139882 0.0301772,0.0110433 0.0464016,0.0339567 0.123406,0.0487441 0.0285394,0.00548032 0.036378,0.0160827 0.0636536,0.0209095 0.0284095,0.00502756 0.125032,0.020311 0.148158,0.0199567 0.0217362,-0.000334646 0.126756,-0.0162835 0.151287,-0.0211181 0.0251221,-0.00495276 0.0338898,-0.015 0.0635315,-0.0206654 0.0325079,-0.00620867 0.0367717,-0.0120984 0.0629804,-0.0210473 0.0330276,-0.0112717 0.146764,-0.0732363 0.16385,-0.0936221 0.0303898,-0.0362677 0.0395158,-0.0671969 0.017941,-0.108173 -0.0407559,-0.0774095 -0.123228,-0.0550276 -0.168303,-0.0180158 -0.0204331,0.0167835 -0.0918859,0.0522323 -0.111732,0.0574567 -0.0195039,0.0051378 -0.0230866,0.00670079 -0.0417677,0.0145945 -0.0492048,0.0207992 -0.18839,0.0135748 -0.246575,0.00723229 -0.0269803,-0.00293701 -0.134327,-0.0462323 -0.146705,-0.0543898 -0.0405433,-0.0267166 -0.0896182,-0.0651536 -0.137335,-0.0576615 -0.0610748,0.00959449 -0.0753189,0.0484646 -0.0753189,0.0997796z"/>
   <path id="_498227152" class="fil0" d="M2.51831 4.59915c0.0299725,-0.0171732 0.0513425,-0.0252795 0.0770985,-0.0477874 0.024689,-0.0215788 0.044126,-0.0359764 0.0411299,-0.0838229 -0.000933071,-0.0149291 -0.0043189,-0.0374961 -0.014437,-0.0502717 -0.0552953,-0.0698465 -0.124925,-0.0263622 -0.172913,0.00796063 -0.0139213,0.00996064 -0.0236536,0.00958662 -0.0402126,0.0200906 -0.0204291,0.0129567 -0.063437,0.0311457 -0.0897835,0.0357677 -0.0319213,0.00560237 -0.0667008,0.0198701 -0.105587,0.0198701 -0.0757008,0 -0.15226,-0.00130315 -0.225689,-0.0257677 -0.0161575,-0.00538189 -0.0125748,-0.008063 -0.0254921,-0.0147087 -0.0114882,-0.00591339 -0.0571142,-0.020378 -0.0814843,-0.0388937 -0.0099252,-0.00754331 -0.0386103,-0.0294173 -0.0475591,-0.0326811 -0.0198071,-0.00722835 -0.0484095,-0.0085 -0.0729174,-0.00359843 -0.0292008,0.00584252 -0.06713,0.0495945 -0.06713,0.0940945 0,0.0141536 0.0137323,0.0326732 0.0207756,0.0445748 0.0206614,0.0348937 0.0934331,0.0674331 0.109799,0.0794331 0.0142717,0.0104646 0.12176,0.0540591 0.132917,0.0566063 0.022811,0.00520473 0.0257717,0.0047874 0.0466851,0.0136024 0.0485158,0.020441 0.273248,0.0236851 0.333295,-0.00256299 0.0191969,-0.00838977 0.0305158,-0.00743308 0.0504803,-0.0135315 0.0204291,-0.00624016 0.0156536,-0.0122953 0.0426103,-0.0177284 0.029752,-0.00599607 0.0624292,-0.0257559 0.0884134,-0.0406457z"/>
   <path id="_498226960" class="fil0" d="M0.83317 5.50762c0.0479213,0 0.0928229,-0.015441 0.136921,-0.0226969 0.0327402,-0.00538583 0.0331811,-0.0122756 0.0587756,-0.0211575 0.0483071,-0.0167717 0.0912756,-0.0336103 0.133807,-0.062941 0.00714961,-0.00492914 0.0160866,-0.00950001 0.0232323,-0.0133543 0.0213937,-0.0115354 0.0321418,-0.0207914 0.0446614,-0.0357835 0.0176811,-0.0211693 0.0329725,-0.0560118 0.0260945,-0.0792835l-0.0336103 -0.0518819c-0.00901575,-0.00896851 -0.0385591,-0.0262205 -0.0558426,-0.0262205 -0.0400788,0 -0.0791811,0.0336378 -0.0905001,0.0398898l-0.0771851 0.0434685c-0.0373504,0.0157244 -0.0587402,0.0190197 -0.0949174,0.0259016 -0.038937,0.00740158 -0.0843504,0.0282638 -0.151929,0.020748 -0.0295394,-0.00328347 -0.155701,-0.0336299 -0.188709,-0.048004l-0.110213 -0.0671615c-0.00863386,-0.00383465 -0.0329882,-0.0148425 -0.0431693,-0.0148425 -0.00603544,0 -0.0578268,0.0221654 -0.0638189,0.0262441 -0.0262402,0.0178583 -0.0352992,0.0561693 -0.0300984,0.0800355l0.0257166 0.0561929c0.00907087,0.0102402 0.0296103,0.0270354 0.0429843,0.0336457 0.0489961,0.0242126 0.0403701,0.0293071 0.100795,0.0518071 0.0151536,0.00564174 0.0149449,0.00839764 0.0269646,0.013374 0.0122126,0.00505512 0.0190197,0.00471654 0.0307638,0.00922835 0.0122323,0.00470473 0.0152874,0.00982284 0.0261496,0.0141772 0.00828741,0.00332284 0.0193543,0.00480709 0.0298662,0.00646457 0.0425512,0.00671654 0.0862205,0.0221496 0.132642,0.0221496l0.100618 0z"/>
  </g>
 </g>
</svg>
